/* XPM */
static char *result[] = {
/* columns rows colors chars-per-pixel */
"64 64 180 2 ",
"   c #00001A",
".  c #000618",
"X  c #000320",
"o  c #020D24",
"O  c #040E27",
"+  c #011226",
"@  c #021629",
"#  c #0C152A",
"$  c #011829",
"%  c #0B192C",
"&  c #0A1323",
"*  c #12162A",
"=  c #141B2D",
"-  c #181A2A",
";  c #151F30",
":  c #221D2B",
">  c #3B1D24",
",  c #371B3E",
"<  c #05262D",
"1  c #1A2B36",
"2  c #1B373D",
"3  c #30212E",
"4  c #222634",
"5  c #262936",
"6  c #2B2C39",
"7  c #2C2A35",
"8  c #3B2734",
"9  c #4B1B24",
"0  c #4A1F34",
"q  c #541831",
"w  c #64182F",
"e  c #582839",
"r  c #523F3A",
"t  c #662433",
"y  c #7E2D3E",
"u  c #603238",
"i  c #7B333F",
"p  c #44533E",
"a  c #3D3D46",
"s  c #463E45",
"d  c #772E5C",
"f  c #783753",
"g  c #3F4745",
"h  c #484646",
"j  c #545956",
"k  c #774C47",
"l  c #6C5F57",
"z  c #756558",
"x  c #7B785C",
"c  c #4D6673",
"v  c #7C6C61",
"b  c #687262",
"n  c #797569",
"m  c #962136",
"M  c #9D2840",
"N  c #833541",
"B  c #853846",
"V  c #88384A",
"C  c #953A44",
"Z  c #AC3349",
"A  c #963A78",
"S  c #BB3966",
"D  c #AF3B70",
"F  c #EC3D54",
"G  c #FF3F51",
"H  c #954E4A",
"J  c #8A574E",
"K  c #8D5259",
"L  c #864749",
"P  c #B5434E",
"I  c #B9404C",
"U  c #B44352",
"Y  c #B8595B",
"T  c #A64459",
"R  c #80695F",
"E  c #9F497B",
"W  c #AF4E61",
"Q  c #B45D64",
"!  c #A94C79",
"~  c #A84C76",
"^  c #B34872",
"/  c #B04F7C",
"(  c #AA517D",
")  c #B85178",
"_  c #816D61",
"`  c #857B67",
"'  c #9A7D6C",
"]  c #A56660",
"[  c #BC7C73",
"{  c #C0454C",
"}  c #C84352",
"|  c #EC4759",
" . c #EB4B5B",
".. c #E74654",
"X. c #F54351",
"o. c #FF4357",
"O. c #F34C5A",
"+. c #F64958",
"@. c #ED525D",
"#. c #F4525A",
"$. c #FC535B",
"%. c #FB5859",
"&. c #FE6A5E",
"*. c #FF645E",
"=. c #C5486C",
"-. c #D44662",
";. c #D84667",
":. c #CA516E",
">. c #D4516C",
",. c #D75264",
"<. c #C65973",
"1. c #D4577A",
"2. c #E04E61",
"3. c #E95668",
"4. c #FF5562",
"5. c #FF5B63",
"6. c #FB5768",
"7. c #E85270",
"8. c #F65C73",
"9. c #C46C66",
"0. c #DC6B6A",
"q. c #C56379",
"w. c #D26976",
"e. c #EE6E68",
"r. c #FF616B",
"t. c #F66565",
"y. c #FE7B66",
"u. c #F9796C",
"i. c #F67368",
"p. c #FA617F",
"a. c #FE7179",
"s. c #7C8E79",
"d. c #86816E",
"f. c #9E8571",
"g. c #AE916D",
"h. c #AB8B74",
"j. c #BA9A7A",
"k. c #BBA87F",
"l. c #ED8260",
"z. c #FA826B",
"x. c #FF8D6E",
"c. c #F2886F",
"v. c #FF8574",
"b. c #FF8D73",
"n. c #F78671",
"m. c #FB9374",
"M. c #FF9B7A",
"N. c #F69878",
"B. c #E2A979",
"V. c #577B80",
"C. c #AE4B84",
"Z. c #BD4C86",
"A. c #B95586",
"S. c #C45284",
"D. c #D75B82",
"F. c #7B9B95",
"G. c #9EA183",
"H. c #ABAE89",
"J. c #BBA982",
"K. c #DC9A88",
"L. c #E89881",
"P. c #CCAC80",
"I. c #C5BA8D",
"U. c #D4B783",
"Y. c #FEA582",
"T. c #FFBD85",
"R. c #FFBF8E",
"E. c #E8C78C",
"W. c #FFC282",
"Q. c #FFC68C",
"!. c #F9CA8B",
"~. c #FCD492",
"^. c #E5D7A4",
"/. c #F7EAAC",
"(. c #FFFCBC",
"). c #FFFFB7",
"_. c #FFF8CE",
"`. c #FFFFD9",
"'. c #D3EFF4",
"]. c None",
/* pixels */
"].].].].].].].].].].].].].].].].].].].].].].].].].].].].].].].].].].].].].].].].].].].].].].].].].].].].].].].].].].].].].].].].",
"].].].].].].].].].].].].].].].].].].].].].].].].].].].].].].].].].].].].].].].].].].].].].].].].].].].].].].].].].].].].].].].].",
"].].].].].].].].].].].].].].].].].].].].].].].].].].].].].].].].].].].].].].].].].].].].].].].].].].].].].].].].].].].].].].].].",
"].].].].].].].].].].].].].].].].].].].].].].].].].].].].].].].].].].].].].].].].].].].].].].].].].].].].].].].].].].].].].].].].",
"].].].].].].].].].].].].].].].].].].].].].].].].].].].].].].].].].].].].].].].].].].].].].].].].].].].].].].].].].].].].].].].].",
"].].].].].].].].].].].].].].].].].].].].].].].].].].].].].].].].].].].].].].].].].].].].].].].].].].].].].].].].].].].].].].].].",
"].].].].].].].].].].].].].].].].].].].].].].].].].].].].].].].].].].].].].].].].].].].].].].].].].].].].].].].].].].].].].].].].",
"].].].].].].].].].].].].].].].].].].].].].].].].].].].].].].].].].].].].].].].].].].].].].].].].].].].].].].].].].].].].].].].].",
"].].].].].].].].].].].].].].].].].].].].].].].].].].].].].].].].].].].].].].].].].].].].].].].].].].].].].].].].].].].].].].].].",
"].].].].].].].].].].].].].].].].].].].].].].].].].].].].].].].].].].].].].].].].].].].].].].].].].].].].].].].].].].].].].].].].",
"].].].].].].].].].].].].].].].].].].].].].].].].].].].].].].].].].].].].].].].].].].].].].].].].].].].].].].].].].].].].].].].].",
"].].].].].].].].].].].].].].].].].].].].].].].].].].].].].].].].].].].].].].].].].].].].].].].].].].].].].].].].].].].].].].].].",
"].].].].].].].].].].].].].].].].].].].].].].].].].].].].].].].].].].].].].].].].].].].].].].].].].].].].].].].].].].].].].].].].",
"].].].].].].].].].].].].].].].].].].].].].].].].].].].].].].].].].].].].].].].].].].].].].].].].].].].].].].].].].].].].].].].].",
"].].].].].].].].].].].].].].].].].].].].].].].].].].].].].].].].].].].].].].].].].].].].].].].].].].].].].].].].].].].].].].].].",
"].].].].].].].].].].].].].].].].].].].].].].].].].].].].].].].].].].].].].].].].].].].].].].].].].].].].].].].].].].].].].].].].",
"].].].].].].].].].].].].].].].].].].].].].].].].].].].].].].].].].].].].].].].].].].].].].].].].].].].].].].].].].].].].].].].].",
"].].].].].].].].].].].].].].].].].].].].].].].].].].].].].].].].].].].].].].].].].].].].].].].].].].].].].].].].].].].].].].].].",
"].].].].].].].].].].].].].].].].].].].].].].].].].].].].].].].].].].].].].].].].].].].].].].].].].].].].].].].].].].].].].].].].",
"].].].].].].].].].].].].].].].].].].].].].].].].].].].].].].].].].].].].].].].].].].].].].].].].].].].].].].].].].].].].].].].].",
"].].].].].].].].].].].].].].].].].].].].].].].].].].].].].].].].].].].].].].].].].].].].].].].].].].].].].].].].].].].].].].].].",
"].].].].].].].].].].].].].].].].].].].].].].].].].].].].].].].].].].].].].].].].].].].].].].].].].].].].].].].].].].].].].].].].",
"].].].].].].].].].].].].].].].].].].].].].].].].].].].].].].].].].].].].].].].].].].].].].].].].].].].].].].].].].].].].].].].].",
"].].].].].].].].].].].].].].].].].].].].].].].].].].].].].].].].].].].].].].].].].].].].].].].].].].].].].].].].].].].].].].].].",
"].].].].].].].].].].].].].].].].].].].].].].].].].].].].].].].].].].].].].].].].].].].].].].].].].].].].].].].].].].].].].].].].",
"].].].].].].].].].].].].].].].].].].].].].].].].].].].].].].].].].].].].].].].].].].].].].].].].].].].].].].].].].].].].].].].].",
"].].].].].].].].].].].].].].].].].].].].].].].].].].].].].].].].].].].].].].].].].].].].].].].].].].].].].].].].].].].].].].].].",
"].].].].].].].].].].].].].].].].].].].].].].].].].].].].].].].].].].].].].].].].].].].].].].].].].].].].].].].].].].].].].].].].",
"].].].].].].].].].].].].].].].].].].].].].].].].].].].].].].].].].].].].].].].].].].].].].].].].].].].].].].].].].].].].].].].].",
"].].].].].].].].].].].].].].].].].].].].].].].].].].].].].].].].% + @ & @ @ @ ].].].].].].].].].].].].].].].].].].].].].].].].].",
"].].].].].].].].].].].].].].].].].].].].].].].].].].].].].].% & % : e H J V e = + ].].].].].].].].].].].].].].].].].].].].].].].",
"].].].].].].].].].].].].].].].].].].].].].].].].].].].].].@ % f I ,.>.a.M.r.$. .B % + ].].].].].].].].].].].].].].].].].].].].].",
"].].].].].].].].].].].].].].].].].].].].].].].].].].].].% + U r.1./ C.C.e.8.A.3.5.U = $ ].].].].].].].].].].].].].].].].].].].].",
"].].].].].].].].].].].].].].].].].].].].].].].].].].].].$ U $.:.) :.D.V k V ^ >.X.4.c.8 + ].].].].].].].].].].].].].].].].].].].",
"].].].].].].].].].].].].].].].].].].].].].].].].].].].].r M.%. .O.o.m c '.F.9 3.t.N.b.} = ].].].].].].].].].].].].].].].].].].].",
"].].].].].].].].].].].].].].].].].].].].].].].].].].].O W Q.m.X.y.Y.3 c _.j.< B.W.x. .4.B + ].].].].].].].].].].].].].].].].].].",
"].].].].].].].].].].].].].].].].].].].].].].].].].@ - T Z.w.W.z.e.Y.Y . p 1 0 i.>.;.! 8.C + ].].].].].].].].].].].].].].].].].].",
"].].].].].].].].].].].].].].].].].].].].].].].% @ e @.5.S w.!.q.D F 5.I q k %.;.! / ! D.B + ].].].].].].].].].].].].].].].].].].",
"].].].].].].].].].].].].].].].].].].].].].].% # Z 4.5.O...T.K.A >.$.#.4.5.z.x.,.! ! ) D.N + ].].].].].].].].].].].].].].].].].].",
"].].].].].].].].].].].].].].].].].].].].].].o L v.O.F | u.W.q.-.#.@.^ ! 2.$.z.t.=.<.8.y - ; ].].].].].].].].].].].].].].].].].].",
"].].].].].].].].].].].].].].].].].].].].].@ e t.R.T.z.n.i.@.| #.) / w.q.:.G c.b.G O.N $ j 7 ].].].].].].].].].].].].].].].].].].",
"].].].].].].].].].].].].].].].].].].].].].+ C 6.<.L.b.%. .t.&.7.S.~ l.Q S o.R.N.M ] b h.z o ].].].].].].].].].].].].].].].].].].",
"].].].].].].].].].].].].].].].].].].].].].].> 8.S.A =. .+.y.0.d , * 6 h K Y r 7 s.I.!.J.6 O ].].].].].].].].].].].].].].].].].].",
"].].].].].].].].].].].].].].].].].].].].].= * t U 8.S.-...9.a 1 h l h.U.P.H.j h._.(.h.4 O ].].].].].].].].].].].].].].].].].].].",
"].].].].].].].].].].].].].].].].].].].].].= 5 2 & w B [ J.P.E.h.h.' ' ~.~.).`._.^.d.O . ].].].].].].].].].].].].].].].].].].].].",
"].].].].].].].].].].].].].].].].].].].].].].= v v h x /.`.U.` h # * 1 z z ` ` 6 =   # ].].].].].].].].].].].].].].].].].].].].].",
"].].].].].].].].].].].].].].].].].].].].].].* O s _ E.k.n 4   ].].].# X       O ].].].].].].].].].].].].].].].].].].].].].].].].",
"].].].].].].].].].].].].].].].].].].].].].].].= + . 5 o   & ].].].].].].].].].].].].].].].].].].].].].].].].].].].].].].].].].].",
"].].].].].].].].].].].].].].].].].].].].].].].].].].].].].].].].].].].].].].].].].].].].].].].].].].].].].].].].].].].].].].].].",
"].].].].].].].].].].].].].].].].].].].].].].].].].].].].].].].].].].].].].].].].].].].].].].].].].].].].].].].].].].].].].].].].",
"].].].].].].].].].].].].].].].].].].].].].].].].].].].].].].].].].].].].].].].].].].].].].].].].].].].].].].].].].].].].].].].].",
"].].].].].].].].].].].].].].].].].].].].].].].].].].].].].].].].].].].].].].].].].].].].].].].].].].].].].].].].].].].].].].].].",
"].].].].].].].].].].].].].].].].].].].].].].].].].].].].].].].].].].].].].].].].].].].].].].].].].].].].].].].].].].].].].].].].",
"].].].].].].].].].].].].].].].].].].].].].].].].].].].].].].].].].].].].].].].].].].].].].].].].].].].].].].].].].].].].].].].].",
"].].].].].].].].].].].].].].].].].].].].].].].].].].].].].].].].].].].].].].].].].].].].].].].].].].].].].].].].].].].].].].].].",
"].].].].].].].].].].].].].].].].].].].].].].].].].].].].].].].].].].].].].].].].].].].].].].].].].].].].].].].].].].].].].].].].",
"].].].].].].].].].].].].].].].].].].].].].].].].].].].].].].].].].].].].].].].].].].].].].].].].].].].].].].].].].].].].].].].].",
"].].].].].].].].].].].].].].].].].].].].].].].].].].].].].].].].].].].].].].].].].].].].].].].].].].].].].].].].].].].].].].].].",
"].].].].].].].].].].].].].].].].].].].].].].].].].].].].].].].].].].].].].].].].].].].].].].].].].].].].].].].].].].].].].].].].",
"].].].].].].].].].].].].].].].].].].].].].].].].].].].].].].].].].].].].].].].].].].].].].].].].].].].].].].].].].].].].].].].].",
"].].].].].].].].].].].].].].].].].].].].].].].].].].].].].].].].].].].].].].].].].].].].].].].].].].].].].].].].].].].].].].].].",
"].].].].].].].].].].].].].].].].].].].].].].].].].].].].].].].].].].].].].].].].].].].].].].].].].].].].].].].].].].].].].].].].",
"].].].].].].].].].].].].].].].].].].].].].].].].].].].].].].].].].].].].].].].].].].].].].].].].].].].].].].].].].].].].].].].].",
"].].].].].].].].].].].].].].].].].].].].].].].].].].].].].].].].].].].].].].].].].].].].].].].].].].].].].].].].].].].].].].].]."
};
