/* XPM */
static char *d6e14c80cceb414bd3184be3a83cc39dOxIcdhYJ7y7JvE6K[] = {
/* columns rows colors chars-per-pixel */
"64 64 6 1 ",
"  c black",
". c #3E3546",
"X c #625565",
"o c #239063",
"O c #9BABB2",
"+ c white",
/* pixels */
"oooooooooooooooooooooooooooooooooooooooooooooooooooooooooooooooo",
"oooooooooooooooooooooooooooooooooooooooooooooooooooooooooooooooo",
"oooooooooooooooooooooooooooooooooooooooooooooooooooooooooooooooo",
"oooooooooooooooooooooooooooooooooooooooooooooooooooooooooooooooo",
"oooooooooooooooooooooooooooooooooooooooooooooooooooooooooooooooo",
"oooooooooooooooooooooooooooooooooooooooooooooooooooooooooooooooo",
"oooooooooooooooooooooooooooooooooooooooooooooooooooooooooooooooo",
"oooooooooooooooooooooooooooooooooooooooooooooooooooooooooooooooo",
"oooooooooooooooooooooooooooooooooooooooooooooooooooooooooooooooo",
"oooooooooooooooooooooooooooooooooooooooooooooooooooooooooooooooo",
"oooooooooooooooooooooooooooooooooooooooooooooooooooooooooooooooo",
"oooooooooooooooooooooooooooooooooooooooooooooooooooooooooooooooo",
"oooooooooooooooooooooooooooooooooooooooooooooooooooooooooooooooo",
"oooooooooooooooooooooooooooooooooooooooooooooooooooooooooooooooo",
"oooooooooooooooooooooooooooooooooooooooooooooooooooooooooooooooo",
"oooooooooooooooooooooooooooooooooooooooooooooooooooooooooooooooo",
"oooooooooooooooo                                oooooooooooooooo",
"oooooooooooooooo                                oooooooooooooooo",
"oooooooooooooooo                                oooooooooooooooo",
"oooooooooooooooo                                oooooooooooooooo",
"oooooooooooooooo                                oooooooooooooooo",
"oooooooooooooooo                                oooooooooooooooo",
"oooooooooooooooo                                oooooooooooooooo",
"oooooooooooooooo                                oooooooooooooooo",
"oooooooo        ++++++++++++++++++++++++++++++++        oooooooo",
"oooooooo        ++++++++++++++++++++++++++++++++        oooooooo",
"oooooooo        ++++++++++++++++++++++++++++++++        oooooooo",
"oooooooo        ++++++++++++++++++++++++++++++++        oooooooo",
"oooooooo        ++++++++++++++++++++++++++++++++        oooooooo",
"oooooooo        ++++++++++++++++++++++++++++++++        oooooooo",
"oooooooo        ++++++++++++++++++++++++++++++++        oooooooo",
"oooooooo        ++++++++++++++++++++++++++++++++        oooooooo",
"        ++++++++++++++++++++++++++++++++XXXXXXXX........        ",
"        ++++++++++++++++++++++++++++++++XXXXXXXX........        ",
"        ++++++++++++++++++++++++++++++++XXXXXXXX........        ",
"        ++++++++++++++++++++++++++++++++XXXXXXXX........        ",
"        ++++++++++++++++++++++++++++++++XXXXXXXX........        ",
"        ++++++++++++++++++++++++++++++++XXXXXXXX........        ",
"        ++++++++++++++++++++++++++++++++XXXXXXXX........        ",
"        ++++++++++++++++++++++++++++++++XXXXXXXX........        ",
"        ++++++++++++++++++++++++OOOOOOOOOOOOOOOO........        ",
"        ++++++++++++++++++++++++OOOOOOOOOOOOOOOO........        ",
"        ++++++++++++++++++++++++OOOOOOOOOOOOOOOO........        ",
"        ++++++++++++++++++++++++OOOOOOOOOOOOOOOO........        ",
"        ++++++++++++++++++++++++OOOOOOOOOOOOOOOO........        ",
"        ++++++++++++++++++++++++OOOOOOOOOOOOOOOO........        ",
"        ++++++++++++++++++++++++OOOOOOOOOOOOOOOO........        ",
"        ++++++++++++++++++++++++OOOOOOOOOOOOOOOO........        ",
"oooooooo        OOOOOOOOOOOOOOOOOOOOOOOOOOOOOOOO        oooooooo",
"oooooooo        OOOOOOOOOOOOOOOOOOOOOOOOOOOOOOOO        oooooooo",
"oooooooo        OOOOOOOOOOOOOOOOOOOOOOOOOOOOOOOO        oooooooo",
"oooooooo        OOOOOOOOOOOOOOOOOOOOOOOOOOOOOOOO        oooooooo",
"oooooooo        OOOOOOOOOOOOOOOOOOOOOOOOOOOOOOOO        oooooooo",
"oooooooo        OOOOOOOOOOOOOOOOOOOOOOOOOOOOOOOO        oooooooo",
"oooooooo        OOOOOOOOOOOOOOOOOOOOOOOOOOOOOOOO        oooooooo",
"oooooooo        OOOOOOOOOOOOOOOOOOOOOOOOOOOOOOOO        oooooooo",
"        ........                                ........        ",
"        ........                                ........        ",
"        ........                                ........        ",
"        ........                                ........        ",
"        ........                                ........        ",
"        ........                                ........        ",
"        ........                                ........        ",
"        ........                                ........        "
};
