/* XPM */
static char *sheep_idle_81717278069[] = {
/* columns rows colors chars-per-pixel */
"64 64 6 1 ",
"  c None",
". c #161C2E",
"X c #977B6B",
"o c #E3C18C",
"O c #EFE1AB",
"+ c white",
/* pixels */
"                                                                ",
"                                                                ",
"                                                                ",
"                                                                ",
"                                                                ",
"                                                                ",
"                                                                ",
"                                                                ",
"                                                                ",
"                                                                ",
"                                                                ",
"                                                                ",
"                                                                ",
"                                                                ",
"                                                                ",
"                                                                ",
"                          .....    ....                         ",
"                        .................                       ",
"                    .......++................                   ",
"                 .........+++++....+++.........                 ",
"                .........+++++++O++++++........                 ",
"                ...O+++OO++++++++++++++Oo+++....                ",
"               ...O+++++O++++++oo++++++oo++++...                ",
"               ..OO+++++++++++oo++++++ooo+++++...               ",
"             ....oO+++++++OOOooo+++++OooO++++O...               ",
"             ....ooO+++++OoOoO++OO+OOOOOO++++OO...              ",
"            ....++ooOO+++Oooo+++++OOO++++O++Oooo.....           ",
"            ..+++++oo++++++oo+++++OOO+++++OOOooo......          ",
"           ...++++++o++++++oo+++++OO++++++OOOOoo......          ",
"           ...++++++o++++++OoO++OOOO+++++OOoooX.......          ",
"           ...+++++OO+++++OOOOOOOOOOO+++OOOOOoo.....            ",
"           ...O+++OOOO++O++++OO+++OOoOO...OO........            ",
"            ...OOO+++OOO++++++++++++oo....O.........            ",
"            ....OO++++OO++++++++++++oo...OO.......++.           ",
"            ....oO++++oo+++++o++++++oO..O++.......+..           ",
"            ....oOOOOOoo++++oo+++OooOO..+++...+++.++..          ",
"             ...oOOooooOOOOOOOOOOOOOOOOO+++...+.+.....          ",
"             ..OooOOOOOO++++OOOOO++++OOO+++...........          ",
"            ...ooooOO+OO+++++OOO+++++++OOoo...........          ",
"            ...oXoooO+++++++++oO++++++OOoooX..........          ",
"            ....XoooXoooOOOOOooooOOOOOoooooo..........          ",
"             ....XXXXooooOOOOooooooOOoooooooXX.......           ",
"              .....XXoooooXXXoooooooooXXooooX.......            ",
"                ....XXXooXXXoooXXXoooXXXXXX.....                ",
"                .....XX..XX.....XXXXXXX.........                ",
"                 ..............................                 ",
"                  ............................                  ",
"                    .......           ......                    ",
"                     ...                ...                     ",
"                                                                ",
"                                                                ",
"                                                                ",
"                                                                ",
"                                                                ",
"                                                                ",
"                                                                ",
"                                                                ",
"                                                                ",
"                                                                ",
"                                                                ",
"                                                                ",
"                                                                ",
"                                                                ",
"                                                                "
};
