/* XPM */
static char *sheep_idle_71717278069[] = {
/* columns rows colors chars-per-pixel */
"64 64 6 1 ",
"  c None",
". c #161C2E",
"X c #977B6B",
"o c #E3C18C",
"O c #EFE1AB",
"+ c white",
/* pixels */
"                                                                ",
"                                                                ",
"                                                                ",
"                                                                ",
"                                                                ",
"                                                                ",
"                                                                ",
"                                                                ",
"                                                                ",
"                                                                ",
"                                                                ",
"                                                                ",
"                                                                ",
"                                                                ",
"                                                                ",
"                                                                ",
"                                                                ",
"                          .....    ....                         ",
"                        .................                       ",
"                    .......++................                   ",
"                 .........+++++....+++.........                 ",
"                .........+++++++O++++++........                 ",
"                ...O+++OO++++++++++++++Oo+++....                ",
"               ...O+++++O++++++oo++++++oo++++...                ",
"               ..OO+++++++++++oo++++++ooo+++++...               ",
"             ....oO+++++++OOOooo+++++OooO++++O...               ",
"             ....ooO+++++OoOoO++OO+OOOOOO++++OO...              ",
"            ....++ooOO+++Oooo+++++OOO++++O++Oooo..              ",
"            ..++++ooOO+++Oooo+++++OOO++++O++Oooo......          ",
"           ...+++++oo++++++oo+++++OOO+++++OOOoXXX......         ",
"           ...++++++o++++++OoO++OOOO+++++OOooooXX......         ",
"           ...O++++OO+++++OOOOOOOOOOO+++OOOOOooo.......         ",
"           ...O++OOOOO++O++++OO+++OOoOOOOOOOOOoo.....           ",
"            ...OOO+++OOO++++++++++++oooo...OO........           ",
"            ....OO++++OO++++++++++++ooo....+.........           ",
"            ....oO++++oo+++++o++++++oOO...++.......++.          ",
"            ....oOOOOOoo++++oo+++OooOOO..+++.......+..          ",
"             ...ooOooooOOOOOOOOOOOOOOOO..+++...+++.++..         ",
"             ..oooOOOOOO++++OOOOO++++OOO+++O...+.+.....         ",
"            ...oXooOO+OO+++++OOO+++++++OOooo...........         ",
"            ....XoooO+++++++++oO++++++OOoooX...........         ",
"            .....XXXooooOOOOOOoooOOOOOooooooX..........         ",
"             ......XXXoooooooooooooOOoXXooooX..........         ",
"               .....XXXooXXXXooXXXoooXXXXXX...........          ",
"                .....XX..XX.....XXXXXXX..............           ",
"                 ..............................                 ",
"                  ............................                  ",
"                    .......           ......                    ",
"                     ...                ...                     ",
"                                                                ",
"                                                                ",
"                                                                ",
"                                                                ",
"                                                                ",
"                                                                ",
"                                                                ",
"                                                                ",
"                                                                ",
"                                                                ",
"                                                                ",
"                                                                ",
"                                                                ",
"                                                                ",
"                                                                "
};
