/* XPM */
static char *sheep_idle_41717278068[] = {
/* columns rows colors chars-per-pixel */
"64 64 6 1 ",
"  c None",
". c #161C2E",
"X c #977B6B",
"o c #E3C18C",
"O c #EFE1AB",
"+ c white",
/* pixels */
"                                                                ",
"                                                                ",
"                                                                ",
"                                                                ",
"                                                                ",
"                                                                ",
"                                                                ",
"                                                                ",
"                                                                ",
"                                                                ",
"                                                                ",
"                                                                ",
"                                                                ",
"                                                                ",
"                                                                ",
"                                                                ",
"                                                                ",
"                          .....    ....                         ",
"                        .................                       ",
"                    .......++................                   ",
"                 .........+++++....+++.........                 ",
"                .........+++++++O++++++........                 ",
"                ...O+++OO++++++++++++++Oo+++....                ",
"               ...O+++++O++++++oo++++++oo++++...                ",
"               ..OO+++++++++++oo++++++ooo+++++...               ",
"             ....oO+++++++OOOooo+++++OooO++++O...               ",
"             ....ooO+++++OoOoO++OO+OOOOOO++++OO...              ",
"            ....++ooOO+++Oooo+++++OOO++++O++Oooo.....           ",
"            ..++++ooOO+++Oooo+++++OOO++++O++Oooo......          ",
"           ...+++++oo++++++oo+++++OOO+++++OOOoXX......          ",
"           ...++++++o++++++OoO++OOOO+++++OOoooo.......          ",
"           ...O++++OO+++++OOOOOOOOOOO+++OOOOOoo.....            ",
"           ...O++OOOOO++O++++OO+++OOoOO...OO........            ",
"            ...OOO+++OOO++++++++++++oo....O.........            ",
"            ....OO++++OO++++++++++++oo...OO.......++.           ",
"            ....oO++++oo+++++o++++++oO..O++.......+..           ",
"            ....oOOOOOoo++++oo+++OooOO..+++...+++.++..          ",
"             ...ooOooooOOOOOOOOOOOOOOOOO+++...+.+.....          ",
"             ..oooOOOOOO++++OOOOO++++OOO+++...........          ",
"            ...oXooOO+OO+++++OOO+++++++OOoo...........          ",
"            ....XoooO+++++++++oO++++++OOoooX..........          ",
"            .....XXXooooOOOOOOoooOOOOOoooooo..........          ",
"             ......XXXoooooooooooooOOoXXooooX........           ",
"               .....XXXooXXXXooXXXoooXXXXXX.........            ",
"                .....XX..XX.....XXXXXXX.........                ",
"                 ..............................                 ",
"                  ............................                  ",
"                    .......           ......                    ",
"                     ...                ...                     ",
"                                                                ",
"                                                                ",
"                                                                ",
"                                                                ",
"                                                                ",
"                                                                ",
"                                                                ",
"                                                                ",
"                                                                ",
"                                                                ",
"                                                                ",
"                                                                ",
"                                                                ",
"                                                                ",
"                                                                "
};
