/* XPM */
static char *sheep_idle_51717278069[] = {
/* columns rows colors chars-per-pixel */
"64 64 6 1 ",
"  c None",
". c #161C2E",
"X c #977B6B",
"o c #E3C18C",
"O c #EFE1AB",
"+ c white",
/* pixels */
"                                                                ",
"                                                                ",
"                                                                ",
"                                                                ",
"                                                                ",
"                                                                ",
"                                                                ",
"                                                                ",
"                                                                ",
"                                                                ",
"                                                                ",
"                                                                ",
"                                                                ",
"                                                                ",
"                                                                ",
"                                                                ",
"                                                                ",
"                                                                ",
"                         ......    ....                         ",
"                       ..................                       ",
"                    .......++.................                  ",
"                ..........+++++....+++..........                ",
"               ..........+++++++O++++++.........                ",
"               ....O+++OO++++++++++++++Oo++++....               ",
"              ...OO+++++O++++++oo++++++oo+++++....              ",
"              ..OOO+++++++++++oo++++++ooo++++++....             ",
"            ....oOO+++++++OOOooo+++++OooO++++OOO...             ",
"            ....oooO+++++OoOoO++OO+OOOOOO++++OOO...             ",
"           ....++oooOO+++Oooo+++++OOO++++O++Ooooo......         ",
"           ..++++++ooO+++Oooo+++++OOO++++OOOOoooo.......        ",
"          ...+++++++o++++++oo+++++OOO+++++OoooXXXX......        ",
"          ...++++++OO++++++OoO++OOOO+++++OOOOoooX.......        ",
"          ...O+++++OO+++++OOOOOOOOOOO+++OOOOOoooo.....          ",
"           ...+++OOOOO++O++++OO+++OOoOOOO...OO........          ",
"           ...OOO++++OOO++++++++++++oooo....O.........          ",
"           ....OO+++++OO++++++++++++oooo...++.......++.         ",
"           ....oO+++++oo+++++o++++++oOOO..+++.......+..         ",
"            ...oOOOOOOoo++++oo+++OooOOOO..+++...+++.++..        ",
"            ...oOOOooooOOOOOOOOOOOOOOOOO+++++...+.+.....        ",
"           ...oooooOO+OO+++++OOO+++++++OOoooo...........        ",
"           ...oXooooO+++++++++o+++++++OOoooXX...........        ",
"           ...XXXooXooOOOOOOOOooOOOOOOOooooooX..........        ",
"           .......XXooooOOOOoooooOOOOOooXXoooX..........        ",
"            .......XXXooXXXXXoXXXXoooooXXXXX...........         ",
"             .......XX..XX......XXXXXXXX..............          ",
"               ..................................               ",
"                ...............................                 ",
"                   ........           .......                   ",
"                    ....                ....                    ",
"                                                                ",
"                                                                ",
"                                                                ",
"                                                                ",
"                                                                ",
"                                                                ",
"                                                                ",
"                                                                ",
"                                                                ",
"                                                                ",
"                                                                ",
"                                                                ",
"                                                                ",
"                                                                ",
"                                                                "
};
