/* XPM */
static char *_faa6a191a044df0c2f630156a4b85ceTpcT8XTA2w5fdnoB[] = {
/* columns rows colors chars-per-pixel */
"64 64 6 1 ",
"  c black",
". c #3E3546",
"X c #625565",
"o c #239063",
"O c #9BABB2",
"+ c white",
/* pixels */
"oooooooooooooooooooooooooooooooooooooooooooooooooooooooooooooooo",
"oooooooooooooooooooooooooooooooooooooooooooooooooooooooooooooooo",
"oooooooooooooooooooooooooooooooooooooooooooooooooooooooooooooooo",
"oooooooooooooooooooooooooooooooooooooooooooooooooooooooooooooooo",
"oooooooooooooooooooooooooooooooooooooooooooooooooooooooooooooooo",
"oooooooooooooooooooooooooooooooooooooooooooooooooooooooooooooooo",
"oooooooooooooooooooooooooooooooooooooooooooooooooooooooooooooooo",
"oooooooooooooooooooooooooooooooooooooooooooooooooooooooooooooooo",
"oooooooooooooooooooooooooooooooooooooooooooooooooooooooooooooooo",
"oooooooooooooooooooooooooooooooooooooooooooooooooooooooooooooooo",
"oooooooooooooooooooooooooooooooooooooooooooooooooooooooooooooooo",
"oooooooooooooooooooooooooooooooooooooooooooooooooooooooooooooooo",
"oooooooooooooooooooooooooooooooooooooooooooooooooooooooooooooooo",
"oooooooooooooooooooooooooooooooooooooooooooooooooooooooooooooooo",
"oooooooooooooooooooooooooooooooooooooooooooooooooooooooooooooooo",
"oooooooooooooooooooooooooooooooooooooooooooooooooooooooooooooooo",
"oooooooooooooooo                                oooooooooooooooo",
"oooooooooooooooo                                oooooooooooooooo",
"oooooooooooooooo                                oooooooooooooooo",
"oooooooooooooooo                                oooooooooooooooo",
"oooooooooooooooo                                oooooooooooooooo",
"oooooooooooooooo                                oooooooooooooooo",
"oooooooooooooooo                                oooooooooooooooo",
"oooooooooooooooo                                oooooooooooooooo",
"oooooooo        ++++++++++++++++++++++++++++++++        oooooooo",
"oooooooo        ++++++++++++++++++++++++++++++++        oooooooo",
"oooooooo        ++++++++++++++++++++++++++++++++        oooooooo",
"oooooooo        ++++++++++++++++++++++++++++++++        oooooooo",
"oooooooo        ++++++++++++++++++++++++++++++++        oooooooo",
"oooooooo        ++++++++++++++++++++++++++++++++        oooooooo",
"oooooooo        ++++++++++++++++++++++++++++++++        oooooooo",
"oooooooo        ++++++++++++++++++++++++++++++++        oooooooo",
"        ++++++++++++++++++++++++++++++++XXXXXXXX        oooooooo",
"        ++++++++++++++++++++++++++++++++XXXXXXXX        oooooooo",
"        ++++++++++++++++++++++++++++++++XXXXXXXX        oooooooo",
"        ++++++++++++++++++++++++++++++++XXXXXXXX        oooooooo",
"        ++++++++++++++++++++++++++++++++XXXXXXXX        oooooooo",
"        ++++++++++++++++++++++++++++++++XXXXXXXX        oooooooo",
"        ++++++++++++++++++++++++++++++++XXXXXXXX        oooooooo",
"        ++++++++++++++++++++++++++++++++XXXXXXXX        oooooooo",
"        ++++++++++++++++++++++++OOOOOOOOOOOOOOOO........        ",
"        ++++++++++++++++++++++++OOOOOOOOOOOOOOOO........        ",
"        ++++++++++++++++++++++++OOOOOOOOOOOOOOOO........        ",
"        ++++++++++++++++++++++++OOOOOOOOOOOOOOOO........        ",
"        ++++++++++++++++++++++++OOOOOOOOOOOOOOOO........        ",
"        ++++++++++++++++++++++++OOOOOOOOOOOOOOOO........        ",
"        ++++++++++++++++++++++++OOOOOOOOOOOOOOOO........        ",
"        ++++++++++++++++++++++++OOOOOOOOOOOOOOOO........        ",
"oooooooo        OOOOOOOOOOOOOOOOOOOOOOOO        ........        ",
"oooooooo        OOOOOOOOOOOOOOOOOOOOOOOO        ........        ",
"oooooooo        OOOOOOOOOOOOOOOOOOOOOOOO        ........        ",
"oooooooo        OOOOOOOOOOOOOOOOOOOOOOOO        ........        ",
"oooooooo        OOOOOOOOOOOOOOOOOOOOOOOO        ........        ",
"oooooooo        OOOOOOOOOOOOOOOOOOOOOOOO        ........        ",
"oooooooo        OOOOOOOOOOOOOOOOOOOOOOOO        ........        ",
"oooooooo        OOOOOOOOOOOOOOOOOOOOOOOO        ........        ",
"oooooooo        ........                ........        oooooooo",
"oooooooo        ........                ........        oooooooo",
"oooooooo        ........                ........        oooooooo",
"oooooooo        ........                ........        oooooooo",
"oooooooo        ........                ........        oooooooo",
"oooooooo        ........                ........        oooooooo",
"oooooooo        ........                ........        oooooooo",
"oooooooo        ........                ........        oooooooo"
};
