/* XPM */
static char *_4480d595ee0417fb8890e3c13bef612XGaD5gI91XPbZZHk[] = {
/* columns rows colors chars-per-pixel */
"64 64 6 1 ",
"  c black",
". c #3E3546",
"X c #625565",
"o c #239063",
"O c #9BABB2",
"+ c white",
/* pixels */
"oooooooooooooooooooooooooooooooooooooooooooooooooooooooooooooooo",
"oooooooooooooooooooooooooooooooooooooooooooooooooooooooooooooooo",
"oooooooooooooooooooooooooooooooooooooooooooooooooooooooooooooooo",
"oooooooooooooooooooooooooooooooooooooooooooooooooooooooooooooooo",
"oooooooooooooooooooooooooooooooooooooooooooooooooooooooooooooooo",
"oooooooooooooooooooooooooooooooooooooooooooooooooooooooooooooooo",
"oooooooooooooooooooooooooooooooooooooooooooooooooooooooooooooooo",
"oooooooooooooooooooooooooooooooooooooooooooooooooooooooooooooooo",
"oooooooooooooooooooooooooooooooooooooooooooooooooooooooooooooooo",
"oooooooooooooooooooooooooooooooooooooooooooooooooooooooooooooooo",
"oooooooooooooooooooooooooooooooooooooooooooooooooooooooooooooooo",
"oooooooooooooooooooooooooooooooooooooooooooooooooooooooooooooooo",
"oooooooooooooooooooooooooooooooooooooooooooooooooooooooooooooooo",
"oooooooooooooooooooooooooooooooooooooooooooooooooooooooooooooooo",
"oooooooooooooooooooooooooooooooooooooooooooooooooooooooooooooooo",
"oooooooooooooooooooooooooooooooooooooooooooooooooooooooooooooooo",
"oooooooooooooooo                                oooooooooooooooo",
"oooooooooooooooo                                oooooooooooooooo",
"oooooooooooooooo                                oooooooooooooooo",
"oooooooooooooooo                                oooooooooooooooo",
"oooooooooooooooo                                oooooooooooooooo",
"oooooooooooooooo                                oooooooooooooooo",
"oooooooooooooooo                                oooooooooooooooo",
"oooooooooooooooo                                oooooooooooooooo",
"oooooooo        ++++++++++++++++++++++++++++++++        oooooooo",
"oooooooo        ++++++++++++++++++++++++++++++++        oooooooo",
"oooooooo        ++++++++++++++++++++++++++++++++        oooooooo",
"oooooooo        ++++++++++++++++++++++++++++++++        oooooooo",
"oooooooo        ++++++++++++++++++++++++++++++++        oooooooo",
"oooooooo        ++++++++++++++++++++++++++++++++        oooooooo",
"oooooooo        ++++++++++++++++++++++++++++++++        oooooooo",
"oooooooo        ++++++++++++++++++++++++++++++++        oooooooo",
"        ++++++++++++++++++++++++++++++++XXXXXXXX........        ",
"        ++++++++++++++++++++++++++++++++XXXXXXXX........        ",
"        ++++++++++++++++++++++++++++++++XXXXXXXX........        ",
"        ++++++++++++++++++++++++++++++++XXXXXXXX........        ",
"        ++++++++++++++++++++++++++++++++XXXXXXXX........        ",
"        ++++++++++++++++++++++++++++++++XXXXXXXX........        ",
"        ++++++++++++++++++++++++++++++++XXXXXXXX........        ",
"        ++++++++++++++++++++++++++++++++XXXXXXXX........        ",
"        ++++++++++++++++++++++++OOOOOOOOOOOOOOOO........        ",
"        ++++++++++++++++++++++++OOOOOOOOOOOOOOOO........        ",
"        ++++++++++++++++++++++++OOOOOOOOOOOOOOOO........        ",
"        ++++++++++++++++++++++++OOOOOOOOOOOOOOOO........        ",
"        ++++++++++++++++++++++++OOOOOOOOOOOOOOOO........        ",
"        ++++++++++++++++++++++++OOOOOOOOOOOOOOOO........        ",
"        ++++++++++++++++++++++++OOOOOOOOOOOOOOOO........        ",
"        ++++++++++++++++++++++++OOOOOOOOOOOOOOOO........        ",
"oooooooo        OOOOOOOOOOOOOOOOOOOOOOOOOOOOOOOO        oooooooo",
"oooooooo        OOOOOOOOOOOOOOOOOOOOOOOOOOOOOOOO        oooooooo",
"oooooooo        OOOOOOOOOOOOOOOOOOOOOOOOOOOOOOOO        oooooooo",
"oooooooo        OOOOOOOOOOOOOOOOOOOOOOOOOOOOOOOO        oooooooo",
"oooooooo        OOOOOOOOOOOOOOOOOOOOOOOOOOOOOOOO        oooooooo",
"oooooooo        OOOOOOOOOOOOOOOOOOOOOOOOOOOOOOOO        oooooooo",
"oooooooo        OOOOOOOOOOOOOOOOOOOOOOOOOOOOOOOO        oooooooo",
"oooooooo        OOOOOOOOOOOOOOOOOOOOOOOOOOOOOOOO        oooooooo",
"oooooooo        ........        ........        oooooooooooooooo",
"oooooooo        ........        ........        oooooooooooooooo",
"oooooooo        ........        ........        oooooooooooooooo",
"oooooooo        ........        ........        oooooooooooooooo",
"oooooooo        ........        ........        oooooooooooooooo",
"oooooooo        ........        ........        oooooooooooooooo",
"oooooooo        ........        ........        oooooooooooooooo",
"oooooooo        ........        ........        oooooooooooooooo"
};
