/* XPM */
static char *xpm_[] = {
/* columns rows colors chars-per-pixel */
"64 64 5 1 ",
"  c #9A5B3D",
". c #CE7952",
"X c #239063",
"o c #AD8D7F",
"O c #E7BCA9",
/* pixels */
"XXXXXXXXXXXXXXXXXXXXXXXXXXXXXXXXXXXXXXXXXXXXXXXXXXXXXXXXXXXXXXXX",
"XXXXXXXXXXXXXXXXXXXXXXXXXXXXXXXXXXXXXXXXXXXXXXXXXXXXXXXXXXXXXXXX",
"XXXXXXXXXXXXXXXXXXXXXXXXXXXXXXXXXXXXXXXXXXXXXXXXXXXXXXXXXXXXXXXX",
"XXXXXXXXXXXXXXXXXXXXXXXXXXXXXXXXXXXXXXXXXXXXXXXXXXXXXXXXXXXXXXXX",
"XXXXXXXXXXXXXXXXXXXXXXXXXXXXXXXXXXXXXXXXXXXXXXXXXXXXXXXXXXXXXXXX",
"XXXXXXXXXXXXXXXXXXXXXXXXXXXXXXXXXXXXXXXXXXXXXXXXXXXXXXXXXXXXXXXX",
"XXXXXXXXXXXXXXXXXXXXXXXXXXXXXXXXXXXXXXXXXXXXXXXXXXXXXXXXXXXXXXXX",
"XXXXXXXXXXXXXXXXXXXXXXXXXXXXXXXXXXXXXXXXXXXXXXXXXXXXXXXXXXXXXXXX",
"XXXXXXXXOOOOOOOOooooooooOOOOOOOOooooooooOOOOOOOOooooooooXXXXXXXX",
"XXXXXXXXOOOOOOOOooooooooOOOOOOOOooooooooOOOOOOOOooooooooXXXXXXXX",
"XXXXXXXXOOOOOOOOooooooooOOOOOOOOooooooooOOOOOOOOooooooooXXXXXXXX",
"XXXXXXXXOOOOOOOOooooooooOOOOOOOOooooooooOOOOOOOOooooooooXXXXXXXX",
"XXXXXXXXOOOOOOOOooooooooOOOOOOOOooooooooOOOOOOOOooooooooXXXXXXXX",
"XXXXXXXXOOOOOOOOooooooooOOOOOOOOooooooooOOOOOOOOooooooooXXXXXXXX",
"XXXXXXXXOOOOOOOOooooooooOOOOOOOOooooooooOOOOOOOOooooooooXXXXXXXX",
"XXXXXXXXOOOOOOOOooooooooOOOOOOOOooooooooOOOOOOOOooooooooXXXXXXXX",
"XXXXXXXX........        ........        ........        XXXXXXXX",
"XXXXXXXX........        ........        ........        XXXXXXXX",
"XXXXXXXX........        ........        ........        XXXXXXXX",
"XXXXXXXX........        ........        ........        XXXXXXXX",
"XXXXXXXX........        ........        ........        XXXXXXXX",
"XXXXXXXX........        ........        ........        XXXXXXXX",
"XXXXXXXX........        ........        ........        XXXXXXXX",
"XXXXXXXX........        ........        ........        XXXXXXXX",
"XXXXXXXX........        ........        ........        XXXXXXXX",
"XXXXXXXX........        ........        ........        XXXXXXXX",
"XXXXXXXX........        ........        ........        XXXXXXXX",
"XXXXXXXX........        ........        ........        XXXXXXXX",
"XXXXXXXX........        ........        ........        XXXXXXXX",
"XXXXXXXX........        ........        ........        XXXXXXXX",
"XXXXXXXX........        ........        ........        XXXXXXXX",
"XXXXXXXX........        ........        ........        XXXXXXXX",
"XXXXXXXX........        ........        ........        XXXXXXXX",
"XXXXXXXX........        ........        ........        XXXXXXXX",
"XXXXXXXX........        ........        ........        XXXXXXXX",
"XXXXXXXX........        ........        ........        XXXXXXXX",
"XXXXXXXX........        ........        ........        XXXXXXXX",
"XXXXXXXX........        ........        ........        XXXXXXXX",
"XXXXXXXX........        ........        ........        XXXXXXXX",
"XXXXXXXX........        ........        ........        XXXXXXXX",
"XXXXXXXX........        ........        ........        XXXXXXXX",
"XXXXXXXX........        ........        ........        XXXXXXXX",
"XXXXXXXX........        ........        ........        XXXXXXXX",
"XXXXXXXX........        ........        ........        XXXXXXXX",
"XXXXXXXX........        ........        ........        XXXXXXXX",
"XXXXXXXX........        ........        ........        XXXXXXXX",
"XXXXXXXX........        ........        ........        XXXXXXXX",
"XXXXXXXX........        ........        ........        XXXXXXXX",
"XXXXXXXX........        ........        ........        XXXXXXXX",
"XXXXXXXX........        ........        ........        XXXXXXXX",
"XXXXXXXX........        ........        ........        XXXXXXXX",
"XXXXXXXX........        ........        ........        XXXXXXXX",
"XXXXXXXX........        ........        ........        XXXXXXXX",
"XXXXXXXX........        ........        ........        XXXXXXXX",
"XXXXXXXX........        ........        ........        XXXXXXXX",
"XXXXXXXX........        ........        ........        XXXXXXXX",
"XXXXXXXXXXXXXXXXXXXXXXXXXXXXXXXXXXXXXXXXXXXXXXXXXXXXXXXXXXXXXXXX",
"XXXXXXXXXXXXXXXXXXXXXXXXXXXXXXXXXXXXXXXXXXXXXXXXXXXXXXXXXXXXXXXX",
"XXXXXXXXXXXXXXXXXXXXXXXXXXXXXXXXXXXXXXXXXXXXXXXXXXXXXXXXXXXXXXXX",
"XXXXXXXXXXXXXXXXXXXXXXXXXXXXXXXXXXXXXXXXXXXXXXXXXXXXXXXXXXXXXXXX",
"XXXXXXXXXXXXXXXXXXXXXXXXXXXXXXXXXXXXXXXXXXXXXXXXXXXXXXXXXXXXXXXX",
"XXXXXXXXXXXXXXXXXXXXXXXXXXXXXXXXXXXXXXXXXXXXXXXXXXXXXXXXXXXXXXXX",
"XXXXXXXXXXXXXXXXXXXXXXXXXXXXXXXXXXXXXXXXXXXXXXXXXXXXXXXXXXXXXXXX",
"XXXXXXXXXXXXXXXXXXXXXXXXXXXXXXXXXXXXXXXXXXXXXXXXXXXXXXXXXXXXXXXX"
};
