/* XPM */
static char *xpm_[] = {
/* columns rows colors chars-per-pixel */
"64 64 13 1 ",
"  c #202019",
". c #3D2419",
"X c #5D3725",
"o c #7C4931",
"O c #7F726C",
"+ c #A56142",
"@ c #8E7B72",
"# c #CE7952",
"$ c #239063",
"% c #9D8479",
"& c #BEA498",
"* c #D2B0A1",
"= c #E7BCA9",
/* pixels */
"$$$$$$$$$$$$$$$$$$$$$$$$$$$$$$$$$$$$$$$$$$$$$$$$$$$$$$$$$$$$$$$$",
"$$$$$$$$$$$$$$$$$$$$$$$$$$$$$$$$$$$$$$$$$$$$$$$$$$$$$$$$$$$$$$$$",
"$$$$$$$$$$$$$$$$$$$$$$$$$$$$$$$$$$$$$$$$$$$$$$$$$$$$$$$$$$$$$$$$",
"$$$$$$$$$$$$$$$$$$$$$$$$$$$$$$$$$$$$$$$$$$$$$$$$$$$$$$$$$$$$$$$$",
"$$$$$$$$$$$$$$$$$$$$$$$$$$$$$$$$$$$$$$$$$$$$$$$$$$$$$$$$$$$$$$$$",
"$$$$$$$$$$$$$$$$$$$$$$$$$$$$$$$$$$$$$$$$$$$$$$$$$$$$$$$$$$$$$$$$",
"$$$$$$$$$$$$$$$$$$$$$$$$$$$$$$$$$$$$$$$$$$$$$$$$$$$$$$$$$$$$$$$$",
"$$$$$$$$$$$$$$$$$$$$$$$$$$$$$$$$$$$$$$$$$$$$$$$$$$$$$$$$$$$$$$$$",
"$$$$$$$$========                                        $$$$$$$$",
"$$$$$$$$========                                        $$$$$$$$",
"$$$$$$$$========                                        $$$$$$$$",
"$$$$$$$$========                                        $$$$$$$$",
"$$$$$$$$========                                        $$$$$$$$",
"$$$$$$$$========                                        $$$$$$$$",
"$$$$$$$$========                                        $$$$$$$$",
"$$$$$$$$========                                        $$$$$$$$",
"$$$$$$$$########%%%%%%%%********                        $$$$$$$$",
"$$$$$$$$########%%%%%%%%********                        $$$$$$$$",
"$$$$$$$$########%%%%%%%%********                        $$$$$$$$",
"$$$$$$$$########%%%%%%%%********                        $$$$$$$$",
"$$$$$$$$########%%%%%%%%********                        $$$$$$$$",
"$$$$$$$$########%%%%%%%%********                        $$$$$$$$",
"$$$$$$$$########%%%%%%%%********                        $$$$$$$$",
"$$$$$$$$########%%%%%%%%********                        $$$$$$$$",
"$$$$$$$$########oooooooo++++++++@@@@@@@@&&&&&&&&        $$$$$$$$",
"$$$$$$$$########oooooooo++++++++@@@@@@@@&&&&&&&&        $$$$$$$$",
"$$$$$$$$########oooooooo++++++++@@@@@@@@&&&&&&&&        $$$$$$$$",
"$$$$$$$$########oooooooo++++++++@@@@@@@@&&&&&&&&        $$$$$$$$",
"$$$$$$$$########oooooooo++++++++@@@@@@@@&&&&&&&&        $$$$$$$$",
"$$$$$$$$########oooooooo++++++++@@@@@@@@&&&&&&&&        $$$$$$$$",
"$$$$$$$$########oooooooo++++++++@@@@@@@@&&&&&&&&        $$$$$$$$",
"$$$$$$$$########oooooooo++++++++@@@@@@@@&&&&&&&&        $$$$$$$$",
"$$$$$$$$########oooooooo++++++++XXXXXXXXooooooooOOOOOOOO$$$$$$$$",
"$$$$$$$$########oooooooo++++++++XXXXXXXXooooooooOOOOOOOO$$$$$$$$",
"$$$$$$$$########oooooooo++++++++XXXXXXXXooooooooOOOOOOOO$$$$$$$$",
"$$$$$$$$########oooooooo++++++++XXXXXXXXooooooooOOOOOOOO$$$$$$$$",
"$$$$$$$$########oooooooo++++++++XXXXXXXXooooooooOOOOOOOO$$$$$$$$",
"$$$$$$$$########oooooooo++++++++XXXXXXXXooooooooOOOOOOOO$$$$$$$$",
"$$$$$$$$########oooooooo++++++++XXXXXXXXooooooooOOOOOOOO$$$$$$$$",
"$$$$$$$$########oooooooo++++++++XXXXXXXXooooooooOOOOOOOO$$$$$$$$",
"$$$$$$$$########oooooooo++++++++XXXXXXXXoooooooo........$$$$$$$$",
"$$$$$$$$########oooooooo++++++++XXXXXXXXoooooooo........$$$$$$$$",
"$$$$$$$$########oooooooo++++++++XXXXXXXXoooooooo........$$$$$$$$",
"$$$$$$$$########oooooooo++++++++XXXXXXXXoooooooo........$$$$$$$$",
"$$$$$$$$########oooooooo++++++++XXXXXXXXoooooooo........$$$$$$$$",
"$$$$$$$$########oooooooo++++++++XXXXXXXXoooooooo........$$$$$$$$",
"$$$$$$$$########oooooooo++++++++XXXXXXXXoooooooo........$$$$$$$$",
"$$$$$$$$########oooooooo++++++++XXXXXXXXoooooooo........$$$$$$$$",
"$$$$$$$$########oooooooo++++++++XXXXXXXXoooooooo........$$$$$$$$",
"$$$$$$$$########oooooooo++++++++XXXXXXXXoooooooo........$$$$$$$$",
"$$$$$$$$########oooooooo++++++++XXXXXXXXoooooooo........$$$$$$$$",
"$$$$$$$$########oooooooo++++++++XXXXXXXXoooooooo........$$$$$$$$",
"$$$$$$$$########oooooooo++++++++XXXXXXXXoooooooo........$$$$$$$$",
"$$$$$$$$########oooooooo++++++++XXXXXXXXoooooooo........$$$$$$$$",
"$$$$$$$$########oooooooo++++++++XXXXXXXXoooooooo........$$$$$$$$",
"$$$$$$$$########oooooooo++++++++XXXXXXXXoooooooo........$$$$$$$$",
"$$$$$$$$$$$$$$$$$$$$$$$$$$$$$$$$$$$$$$$$$$$$$$$$$$$$$$$$$$$$$$$$",
"$$$$$$$$$$$$$$$$$$$$$$$$$$$$$$$$$$$$$$$$$$$$$$$$$$$$$$$$$$$$$$$$",
"$$$$$$$$$$$$$$$$$$$$$$$$$$$$$$$$$$$$$$$$$$$$$$$$$$$$$$$$$$$$$$$$",
"$$$$$$$$$$$$$$$$$$$$$$$$$$$$$$$$$$$$$$$$$$$$$$$$$$$$$$$$$$$$$$$$",
"$$$$$$$$$$$$$$$$$$$$$$$$$$$$$$$$$$$$$$$$$$$$$$$$$$$$$$$$$$$$$$$$",
"$$$$$$$$$$$$$$$$$$$$$$$$$$$$$$$$$$$$$$$$$$$$$$$$$$$$$$$$$$$$$$$$",
"$$$$$$$$$$$$$$$$$$$$$$$$$$$$$$$$$$$$$$$$$$$$$$$$$$$$$$$$$$$$$$$$",
"$$$$$$$$$$$$$$$$$$$$$$$$$$$$$$$$$$$$$$$$$$$$$$$$$$$$$$$$$$$$$$$$"
};
