/* XPM */
static char *xpm_[] = {
/* columns rows colors chars-per-pixel */
"64 64 18 1 ",
"  c #202019",
". c #3F4531",
"X c #495236",
"o c #556039",
"O c #64723E",
"+ c #545C41",
"@ c #5F6455",
"# c #616D48",
"$ c #676D58",
"% c #70785B",
"& c #239063",
"* c #71804C",
"= c #7B855E",
"- c #7F8571",
"; c #859853",
": c #899276",
"> c #95A079",
", c #A4B27E",
/* pixels */
"&&&&&&&&&&&&&&&&&&&&&&&&&&&&&&&&&&&&&&&&&&&&&&&&&&&&&&&&&&&&&&&&",
"&&&&&&&&&&&&&&&&&&&&&&&&&&&&&&&&&&&&&&&&&&&&&&&&&&&&&&&&&&&&&&&&",
"&&&&&&&&&&&&&&&&&&&&&&&&&&&&&&&&&&&&&&&&&&&&&&&&&&&&&&&&&&&&&&&&",
"&&&&&&&&&&&&&&&&&&&&&&&&&&&&&&&&&&&&&&&&&&&&&&&&&&&&&&&&&&&&&&&&",
"&&&&&&&&&&&&&&&&&&&&&&&&&&&&&&&&&&&&&&&&&&&&&&&&&&&&&&&&&&&&&&&&",
"&&&&&&&&&&&&&&&&&&&&&&&&&&&&&&&&&&&&&&&&&&&&&&&&&&&&&&&&&&&&&&&&",
"&&&&&&&&&&&&&&&&&&&&&&&&&&&&&&&&&&&&&&&&&&&&&&&&&&&&&&&&&&&&&&&&",
"&&&&&&&&&&&&&&&&&&&&&&&&&&&&&&&&&&&&&&&&&&&&&&&&&&&&&&&&&&&&&&&&",
"&&&&&&&&&&&&&&&&&&&&&&&&&&&&&&&&&&&&&&&&&&&&&&&&&&&&&&&&&&&&&&&&",
"&&&&&&&&&&&&&&&&&&&&&&&&&&&&&&&&&&&&&&&&&&&&&&&&&&&&&&&&&&&&&&&&",
"&&&&&&&&&&&&       &&&&&&&&&&&&         &&&&&&&&&&&&&&&&&&&&&&&&",
"&&&&&&&&&&&            &&&&&&             &&&&&&    &&&&&&&&&&&&",
"&&&&&&&&&&&                                           &&&&&&&&&&",
"&&&&&&&&&&                                            &&&&&&&&&&",
"&&&&&&&&&&                                            &&&&&&&&&&",
"&&&&&&&&&&===,,,,,,,                                  &&&&&&&&&&",
"&&&&&&&&&&===,,,,,,,                                  &&&&&&&&&&",
"&&&&&&&&&&===,,,,,,,                                 &&&&&&&&&&&",
"&&&&&&&&&&OOO;;;;;;;                                 &&&&&&&&&&&",
"&&&&&&&&&&OOO;;;;;;;                                &&&&&&&&&&&&",
"&&&&&&&&&&OOO;;;;;;;                                &&&&&&&&&&&&",
"&&&&&&&&&&&OO;;;;;;;                                &&&&&&&&&&&&",
"&&&&&&&&&&&OO;;;;;;;                                &&&&&&&&&&&&",
"&&&&&&&&&&&OO;;;;;;;  %%%>>>>>>                     &&&&&&&&&&&&",
"&&&&&&&&&&&OO;;;;;;;  %%%>>>>>>                     &&&&&&&&&&&&",
"&&&&&&&&&&&OO;;;;;;;  %%%>>>>>>                      &&&&&&&&&&&",
"&&&&&&&&&&&OO;;;;;;;  ooo******                      &&&&&&&&&&&",
"&&&&&&&&&&&OO;;;;;;;  ooo******                      &&&&&&&&&&&",
"&&&&&&&&&&&OO;;;;;;;  ooo******                      &&&&&&&&&&&",
"&&&&&&&&&&&OO;;;;;;;  ooo******                      &&&&&&&&&&&",
"&&&&&&&&&&&&O;;;;;;;  ooo******                       &&&&&&&&&&",
"&&&&&&&&&&&&O;;;;;;;  ooo******                       &&&&&&&&&&",
"&&&&&&&&&&&&O;;;;;;;  ooo******  $$$::::::            &&&&&&&&&&",
"&&&&&&&&&&&&O;;;;;;;  ooo******  $$$::::::            &&&&&&&&&&",
"&&&&&&&&&&&&O;;;;;;;  ooo******  $$$::::::            &&&&&&&&&&",
"&&&&&&&&&&&&O;;;;;;;  ooo******  XXX######            &&&&&&&&&&",
"&&&&&&&&&&&&O;;;;;;;  ooo******  XXX######            &&&&&&&&&&",
"&&&&&&&&&&&&O;;;;;;;  ooo******  XXX######            &&&&&&&&&&",
"&&&&&&&&&&&&O;;;;;;;  ooo******  XXX######            &&&&&&&&&&",
"&&&&&&&&&&&&O;;;;;;;  ooo******  XXX######            &&&&&&&&&&",
"&&&&&&&&&&&OO;;;;;;;  ooo******  XXX######  @@@-------&&&&&&&&&&",
"&&&&&&&&&&&OO;;;;;;;  ooo******  XXX######  @@@-------&&&&&&&&&&",
"&&&&&&&&&&&OO;;;;;;;  ooo******  XXX######  @@@-------&&&&&&&&&&",
"&&&&&&&&&&&OO;;;;;;;  ooo******  XXX######  ...+++++++&&&&&&&&&&",
"&&&&&&&&&&&OO;;;;;;;  ooo******  XXX######  ...+++++++&&&&&&&&&&",
"&&&&&&&&&&&OO;;;;;;;  ooo******  XXX######  ...+++++++&&&&&&&&&&",
"&&&&&&&&&&&OO;;;;;;;  ooo******  XXX######  ...+++++++&&&&&&&&&&",
"&&&&&&&&&&&OO;;;;;;;  ooo******  XXX######  ...+++++++&&&&&&&&&&",
"&&&&&&&&&&OOO;;;;;;;  ooo******  XXX######  ...++++++&&&&&&&&&&&",
"&&&&&&&&&&OOO;;;;;;;  ooo******  XXX######  ...++++++&&&&&&&&&&&",
"&&&&&&&&&&OOO;;;;;;;  ooo******  XXX######  ...+++++&&&&&&&&&&&&",
"&&&&&&&&&&OOO;;;;;;;  ooo******  XXX######  ...+++++&&&&&&&&&&&&",
"&&&&&&&&&&OOO;;;;;;;  ooo****** &&&&&&####  ...+++++&&&&&&&&&&&&",
"&&&&&&&&&&OO&&&&&&;&&&&&&***&&&&&&&&&&&&##  .&&&&&&+&&&&&&&&&&&&",
"&&&&&&&&&&&&&&&&&&&&&&&&&&&&&&&&&&&&&&&&&&&&&&&&&&&&&&&&&&&&&&&&",
"&&&&&&&&&&&&&&&&&&&&&&&&&&&&&&&&&&&&&&&&&&&&&&&&&&&&&&&&&&&&&&&&",
"&&&&&&&&&&&&&&&&&&&&&&&&&&&&&&&&&&&&&&&&&&&&&&&&&&&&&&&&&&&&&&&&",
"&&&&&&&&&&&&&&&&&&&&&&&&&&&&&&&&&&&&&&&&&&&&&&&&&&&&&&&&&&&&&&&&",
"&&&&&&&&&&&&&&&&&&&&&&&&&&&&&&&&&&&&&&&&&&&&&&&&&&&&&&&&&&&&&&&&",
"&&&&&&&&&&&&&&&&&&&&&&&&&&&&&&&&&&&&&&&&&&&&&&&&&&&&&&&&&&&&&&&&",
"&&&&&&&&&&&&&&&&&&&&&&&&&&&&&&&&&&&&&&&&&&&&&&&&&&&&&&&&&&&&&&&&",
"&&&&&&&&&&&&&&&&&&&&&&&&&&&&&&&&&&&&&&&&&&&&&&&&&&&&&&&&&&&&&&&&",
"&&&&&&&&&&&&&&&&&&&&&&&&&&&&&&&&&&&&&&&&&&&&&&&&&&&&&&&&&&&&&&&&",
"&&&&&&&&&&&&&&&&&&&&&&&&&&&&&&&&&&&&&&&&&&&&&&&&&&&&&&&&&&&&&&&&"
};
