/* XPM */
static char *_a3c60348f194b7f954271e09fd95909[] = {
/* columns rows colors chars-per-pixel */
"64 64 16 1 ",
"  c black",
". c #1A1F0D",
"X c #293115",
"o c #36401B",
"O c #414D21",
"+ c #4B5A26",
"@ c #55652B",
"# c #5E702F",
"$ c #667A34",
"% c #6F8438",
"& c #778E3C",
"* c #7E9740",
"= c #86A043",
"- c #8DA847",
"; c #94B14B",
": c #9BB94E",
/* pixels */
"::::::::::::::::::::::::::::::::::::::::::::::::::::::::::::::::",
"::::::::::::::::::::::::::::::::::::::::::::::::::::::::::::::::",
"::::::::::::::::::::::::::::::::::::::::::::::::::::::::::::::::",
"::::::::::::::::::::::::::::::::::::::::::::::::::::::::::::::::",
"::::::::::::::::::::::::::::::::::::::::::::::::::::::::::::::::",
"::::::::::::::::::::::::::::::::::::::::::::::::::::::::::::::::",
"::::::::::::::::::::::::::::::::::::::::::::::::::::::::::::::::",
"::::::::::::::::::::::::::::::::::::::::::::::::::::::::::::::::",
"::::::::::::::::::::::::::::::::::::::::::::::::::::::::::::::::",
"::::::::::::::::::::::::::::::::::::::::::::::::::::::::::::::::",
":::::::::::::::::::::::::::=$@OOO$%;::::::::::::::::::::::::::::",
":::::::::::::::::::::::::%X         @-::::::::::::::::::::::::::",
":::::::::::::::::::::::;@            .=:::::::::::::::::::::::::",
":::::::::::::::::::::::+               =::::::::::::::::::::::::",
"::::::::::::::::::::::%                X::::::::::::::::::::::::",
"::::::::::::::::::::::X                 %:::::::::::::::::::::::",
":::::::::::::::::::::&       o$$@.      o:::::::::::::::::::::::",
":::::::::::::::::::::#      @::::=.      ;::::::::::::::::::::::",
":::::::::::::::::::::O      ;:::::#      *::::::::::::::::::::::",
":::::::::::::::::::::.     o::::::&      $::::::::::::::::::::::",
":::::::::::::::::::::      O::::::*      $::::::::::::::::::::::",
":::::::::::::::::::::      O::::::*      $::::::::::::::::::::::",
":::::::::::::::::::::      O::::::*      $::::::::::::::::::::::",
":::::::::::::::::::::      O::::::*      $::::::::::::::::::::::",
":::::::::::::::::::::      O::::::*      $::::::::::::::::::::::",
":::::::::::::::::::::      O::::::*      $::::::::::::::::::::::",
":::::::::::::::::::::      O::::::*      $::::::::::::::::::::::",
":::::::::::::::::::::      O::::::*      $::::::::::::::::::::::",
":::::::::::::::::::::      O::::::*      $::::::::::::::::::::::",
":::::::::::::::::::::      O::::::*      $::::::::::::::::::::::",
":::::::::::::::::::::      O::::::*      $::::::::::::::::::::::",
":::::::::::::::::::::      O::::::*      $::::::::::::::::::::::",
":::::::::::::::::::::      O::::::*      $::::::::::::::::::::::",
":::::::::::::::::::::      O::::::*      $::::::::::::::::::::::",
":::::::::::::::::::::      O::::::*      $::::::::::::::::::::::",
":::::::::::::::::::::      O::::::*      $::::::::::::::::::::::",
":::::::::::::::::::::      O::::::*      $::::::::::::::::::::::",
":::::::::::::::::::::      O::::::*      $::::::::::::::::::::::",
":::::::::::::::::::::      O::::::*      $::::::::::::::::::::::",
":::::::::::::::::::::      O::::::*      $::::::::::::::::::::::",
":::::::::::::::::::::      O::::::*      $::::::::::::::::::::::",
":::::::::::::::::::::      O::::::*      $::::::::::::::::::::::",
":::::::::::::::::::::      O::::::*      $::::::::::::::::::::::",
":::::::::::::::::::::      O::::::*      $::::::::::::::::::::::",
":::::::::::::::::::::      O::::::*      $::::::::::::::::::::::",
":::::::::::::::::::::X     X::::::%      %::::::::::::::::::::::",
":::::::::::::::::::::O      -:::::@      *::::::::::::::::::::::",
":::::::::::::::::::::$      o;:::%       :::::::::::::::::::::::",
":::::::::::::::::::::=        OOX       +:::::::::::::::::::::::",
"::::::::::::::::::::::O                 *:::::::::::::::::::::::",
"::::::::::::::::::::::*                O::::::::::::::::::::::::",
":::::::::::::::::::::::$              .;::::::::::::::::::::::::",
"::::::::::::::::::::::::%            o;:::::::::::::::::::::::::",
":::::::::::::::::::::::::-@.       o%:::::::::::::::::::::::::::",
"::::::::::::::::::::::::::::*%$$$*-:::::::::::::::::::::::::::::",
"::::::::::::::::::::::::::::::::::::::::::::::::::::::::::::::::",
"::::::::::::::::::::::::::::::::::::::::::::::::::::::::::::::::",
"::::::::::::::::::::::::::::::::::::::::::::::::::::::::::::::::",
"::::::::::::::::::::::::::::::::::::::::::::::::::::::::::::::::",
"::::::::::::::::::::::::::::::::::::::::::::::::::::::::::::::::",
"::::::::::::::::::::::::::::::::::::::::::::::::::::::::::::::::",
"::::::::::::::::::::::::::::::::::::::::::::::::::::::::::::::::",
"::::::::::::::::::::::::::::::::::::::::::::::::::::::::::::::::",
"::::::::::::::::::::::::::::::::::::::::::::::::::::::::::::::::"
};
