/* XPM */
static char *_2afbef801d74ebdbd0e3c960604dd3d[] = {
/* columns rows colors chars-per-pixel */
"64 64 16 1 ",
"  c black",
". c gray17",
"X c #444444",
"o c #585858",
"O c gray42",
"+ c #7C7C7C",
"@ c #8B8B8B",
"# c #9A9A9A",
"$ c gray66",
"% c #B6B6B6",
"& c #C3C3C3",
"* c #D0D0D0",
"= c gainsboro",
"- c gray91",
"; c #F4F4F4",
": c white",
/* pixels */
"::::::::::::::::::::::::::::::::::::::::::::::::::::::::::::::::",
"::::::::::::::::::::::::::::::::::::::::::::::::::::::::::::::::",
"::::::::::::::::::::::::::::::::::::::::::::::::::::::::::::::::",
"::::::::::::::::::::::::::::::::::::::::::::::::::::::::::::::::",
"::::::::::::::::::::::::::::::::::::::::::::::::::::::::::::::::",
"::::::::::::::::::::::::::::::::::::::::::::::::::::::::::::::::",
"::::::::::::::::::::::::::::::::::::::::::::::::::::::::::::::::",
"::::::::::::::::::::::::::::::::::::::::::::::::::::::::::::::::",
"::::::::::::::::::::::::::::::::::::::::::::::::::::::::::::::::",
"::::::::::::::::::::::::::::::::::::::::::::::::::::::::::::::::",
":::::::::::::::::::::-******;::::::::*******::::::::::::::::::::",
":::::::::::::::::::::$      *:::::::*      #::::::::::::::::::::",
":::::::::::::::::::::$      *:::::::+      -::::::::::::::::::::",
":::::::::::::::::::::$      *::::::-      @:::::::::::::::::::::",
":::::::::::::::::::::$      *::::::@      -:::::::::::::::::::::",
":::::::::::::::::::::$      *:::::-      @::::::::::::::::::::::",
":::::::::::::::::::::$      *:::::@      -::::::::::::::::::::::",
":::::::::::::::::::::$      *::::;      @:::::::::::::::::::::::",
":::::::::::::::::::::$      *::::$      -:::::::::::::::::::::::",
":::::::::::::::::::::$      *:::;.     @::::::::::::::::::::::::",
":::::::::::::::::::::$      *:::$      -::::::::::::::::::::::::",
":::::::::::::::::::::$      *:::.     @:::::::::::::::::::::::::",
":::::::::::::::::::::$      *::%      -:::::::::::::::::::::::::",
":::::::::::::::::::::$      *::X     @::::::::::::::::::::::::::",
":::::::::::::::::::::$      *:%      -::::::::::::::::::::::::::",
":::::::::::::::::::::$      *:X     O:::::::::::::::::::::::::::",
":::::::::::::::::::::$      *&      *:::::::::::::::::::::::::::",
":::::::::::::::::::::$      *O     O::::::::::::::::::::::::::::",
":::::::::::::::::::::$      $      *::::::::::::::::::::::::::::",
":::::::::::::::::::::$      .     O:::::::::::::::::::::::::::::",
":::::::::::::::::::::$            @:::::::::::::::::::::::::::::",
":::::::::::::::::::::$             ;::::::::::::::::::::::::::::",
":::::::::::::::::::::$             $::::::::::::::::::::::::::::",
":::::::::::::::::::::$             X::::::::::::::::::::::::::::",
":::::::::::::::::::::$              *:::::::::::::::::::::::::::",
":::::::::::::::::::::$              @:::::::::::::::::::::::::::",
":::::::::::::::::::::$        .      ;::::::::::::::::::::::::::",
":::::::::::::::::::::$       X$      %::::::::::::::::::::::::::",
":::::::::::::::::::::$       %;.     o::::::::::::::::::::::::::",
":::::::::::::::::::::$      X::@      =:::::::::::::::::::::::::",
":::::::::::::::::::::$      %::=      @:::::::::::::::::::::::::",
":::::::::::::::::::::$      *:::X     .;::::::::::::::::::::::::",
":::::::::::::::::::::$      *:::$      %::::::::::::::::::::::::",
":::::::::::::::::::::$      *:::-      o::::::::::::::::::::::::",
":::::::::::::::::::::$      *::::+      =:::::::::::::::::::::::",
":::::::::::::::::::::$      *::::&      #:::::::::::::::::::::::",
":::::::::::::::::::::$      *:::::.     .:::::::::::::::::::::::",
":::::::::::::::::::::$      *:::::#      %::::::::::::::::::::::",
":::::::::::::::::::::$      *:::::-      O::::::::::::::::::::::",
":::::::::::::::::::::$      *::::::o      -:::::::::::::::::::::",
":::::::::::::::::::::$      *::::::%      #:::::::::::::::::::::",
":::::::::::::::::::::$      *::::::;.     .:::::::::::::::::::::",
":::::::::::::::::::::$      *:::::::@      %::::::::::::::::::::",
":::::::::::::::::::::$      *:::::::*      O::::::::::::::::::::",
"::::::::::::::::::::::::::::::::::::::::::::::::::::::::::::::::",
"::::::::::::::::::::::::::::::::::::::::::::::::::::::::::::::::",
"::::::::::::::::::::::::::::::::::::::::::::::::::::::::::::::::",
"::::::::::::::::::::::::::::::::::::::::::::::::::::::::::::::::",
"::::::::::::::::::::::::::::::::::::::::::::::::::::::::::::::::",
"::::::::::::::::::::::::::::::::::::::::::::::::::::::::::::::::",
"::::::::::::::::::::::::::::::::::::::::::::::::::::::::::::::::",
"::::::::::::::::::::::::::::::::::::::::::::::::::::::::::::::::",
"::::::::::::::::::::::::::::::::::::::::::::::::::::::::::::::::",
"::::::::::::::::::::::::::::::::::::::::::::::::::::::::::::::::"
};
