/* XPM */
static char *result[] = {
/* columns rows colors chars-per-pixel */
"64 64 6 1 ",
"  c #202019",
". c #64723E",
"X c #7B855E",
"o c #859853",
"O c #A4B27E",
"+ c None",
/* pixels */
"++++++++++++++++++++++++++++++++++++++++++++++++++++++++++++++++",
"++++++++++++++++++++++++++++++++++++++++++++++++++++++++++++++++",
"++++++++++++++++++++++++++++++++++++++++++++++++++++++++++++++++",
"++++++++++++++++++++++++++++++++++++++++++++++++++++++++++++++++",
"++++++++++++++++++++++++++++++++++++++++++++++++++++++++++++++++",
"++++++++++++++++++++++++++++++++++++++++++++++++++++++++++++++++",
"++++++++++++++++++++++++++++++++++++++++++++++++++++++++++++++++",
"++++++++++++++++++++++++++++++++++++++++++++++++++++++++++++++++",
"++++++++++++++++++++++++++++++++++++++++++++++++++++++++++++++++",
"++++++++++++++++++++++++++++++++++++++++++++++++++++++++++++++++",
"++++++++++++       ++++++++++++         ++++++++++++++++++++++++",
"+++++++++++            ++++++             ++++++    ++++++++++++",
"+++++++++++                                           ++++++++++",
"++++++++++                                            ++++++++++",
"++++++++++                                            ++++++++++",
"++++++++++XXXOOOOOOO  XXXOOOOOO  XXXOOOOOO  XXXOOOOOOO++++++++++",
"++++++++++XXXOOOOOOO  XXXOOOOOO  XXXOOOOOO  XXXOOOOOOO++++++++++",
"++++++++++XXXOOOOOOO  XXXOOOOOO  XXXOOOOOO  XXXOOOOOO+++++++++++",
"++++++++++...ooooooo  ...oooooo  ...oooooo  ...oooooo+++++++++++",
"++++++++++...ooooooo  ...oooooo  ...oooooo  ...ooooo++++++++++++",
"++++++++++...ooooooo  ...oooooo  ...oooooo  ...ooooo++++++++++++",
"+++++++++++..ooooooo  ...oooooo  ...oooooo  ...ooooo++++++++++++",
"+++++++++++..ooooooo  ...oooooo  ...oooooo  ...ooooo++++++++++++",
"+++++++++++..ooooooo  ...oooooo  ...oooooo  ...ooooo++++++++++++",
"+++++++++++..ooooooo  ...oooooo  ...oooooo  ...ooooo++++++++++++",
"+++++++++++..ooooooo  ...oooooo  ...oooooo  ...oooooo+++++++++++",
"+++++++++++..ooooooo  ...oooooo  ...oooooo  ...oooooo+++++++++++",
"+++++++++++..ooooooo  ...oooooo  ...oooooo  ...oooooo+++++++++++",
"+++++++++++..ooooooo  ...oooooo  ...oooooo  ...oooooo+++++++++++",
"+++++++++++..ooooooo  ...oooooo  ...oooooo  ...oooooo+++++++++++",
"++++++++++++.ooooooo  ...oooooo  ...oooooo  ...ooooooo++++++++++",
"++++++++++++.ooooooo  ...oooooo  ...oooooo  ...ooooooo++++++++++",
"++++++++++++.ooooooo  ...oooooo  ...oooooo  ...ooooooo++++++++++",
"++++++++++++.ooooooo  ...oooooo  ...oooooo  ...ooooooo++++++++++",
"++++++++++++.ooooooo  ...oooooo  ...oooooo  ...ooooooo++++++++++",
"++++++++++++.ooooooo  ...oooooo  ...oooooo  ...ooooooo++++++++++",
"++++++++++++.ooooooo  ...oooooo  ...oooooo  ...ooooooo++++++++++",
"++++++++++++.ooooooo  ...oooooo  ...oooooo  ...ooooooo++++++++++",
"++++++++++++.ooooooo  ...oooooo  ...oooooo  ...ooooooo++++++++++",
"++++++++++++.ooooooo  ...oooooo  ...oooooo  ...ooooooo++++++++++",
"+++++++++++..ooooooo  ...oooooo  ...oooooo  ...ooooooo++++++++++",
"+++++++++++..ooooooo  ...oooooo  ...oooooo  ...ooooooo++++++++++",
"+++++++++++..ooooooo  ...oooooo  ...oooooo  ...ooooooo++++++++++",
"+++++++++++..ooooooo  ...oooooo  ...oooooo  ...ooooooo++++++++++",
"+++++++++++..ooooooo  ...oooooo  ...oooooo  ...ooooooo++++++++++",
"+++++++++++..ooooooo  ...oooooo  ...oooooo  ...ooooooo++++++++++",
"+++++++++++..ooooooo  ...oooooo  ...oooooo  ...ooooooo++++++++++",
"+++++++++++..ooooooo  ...oooooo  ...oooooo  ...ooooooo++++++++++",
"++++++++++...ooooooo  ...oooooo  ...oooooo  ...oooooo+++++++++++",
"++++++++++...ooooooo  ...oooooo  ...oooooo  ...oooooo+++++++++++",
"++++++++++...ooooooo  ...oooooo  ...oooooo  ...ooooo++++++++++++",
"++++++++++...ooooooo  ...oooooo  ...oooooo  ...ooooo++++++++++++",
"++++++++++...ooooooo  ...oooooo ++++++oooo  ...ooooo++++++++++++",
"++++++++++..++++++o++++++ooo++++++++++++oo  .++++++o++++++++++++",
"++++++++++++++++++++++++++++++++++++++++++++++++++++++++++++++++",
"++++++++++++++++++++++++++++++++++++++++++++++++++++++++++++++++",
"++++++++++++++++++++++++++++++++++++++++++++++++++++++++++++++++",
"++++++++++++++++++++++++++++++++++++++++++++++++++++++++++++++++",
"++++++++++++++++++++++++++++++++++++++++++++++++++++++++++++++++",
"++++++++++++++++++++++++++++++++++++++++++++++++++++++++++++++++",
"++++++++++++++++++++++++++++++++++++++++++++++++++++++++++++++++",
"++++++++++++++++++++++++++++++++++++++++++++++++++++++++++++++++",
"++++++++++++++++++++++++++++++++++++++++++++++++++++++++++++++++",
"++++++++++++++++++++++++++++++++++++++++++++++++++++++++++++++++"
};
