/* XPM */
static char *xpm_[] = {
/* columns rows colors chars-per-pixel */
"64 64 3 1 ",
"  c #165A4C",
". c #239063",
"X c #1EBC73",
/* pixels */
"................................................................",
"................................................................",
"................................................................",
"................................................................",
"................................................................",
"................................................................",
"................................................................",
"................................................................",
"........        ................................................",
"........        ................................................",
"........        ................................................",
"........        ................................................",
"........        ................................................",
"........        ................................................",
"........        ................................................",
"........        ................................................",
"................................................XXXXXXXX........",
"................................................XXXXXXXX........",
"................................................XXXXXXXX........",
"................................................XXXXXXXX........",
"................................................XXXXXXXX........",
"................................................XXXXXXXX........",
"................................................XXXXXXXX........",
"................................................XXXXXXXX........",
"................................................................",
"................................................................",
"................................................................",
"................................................................",
"................................................................",
"................................................................",
"................................................................",
"................................................................",
"................................................................",
"................................................................",
"................................................................",
"................................................................",
"................................................................",
"................................................................",
"................................................................",
"................................................................",
"................................................................",
"................................................................",
"................................................................",
"................................................................",
"................................................................",
"................................................................",
"................................................................",
"................................................................",
"........................        ................................",
"........................        ................................",
"........................        ................................",
"........................        ................................",
"........................        ................................",
"........................        ................................",
"........................        ................................",
"........................        ................................",
"................................................................",
"................................................................",
"................................................................",
"................................................................",
"................................................................",
"................................................................",
"................................................................",
"................................................................"
};
