/* XPM */
static char *result[] = {
/* columns rows colors chars-per-pixel */
"64 64 229 2 ",
"   c black",
".  c #01000B",
"X  c #000114",
"o  c #0A0214",
"O  c #00011B",
"+  c #0D0B1B",
"@  c #080B1C",
"#  c #140C1D",
"$  c #0C101E",
"%  c #13151D",
"&  c #2C171B",
"*  c #000421",
"=  c #020B24",
"-  c #0C0D22",
";  c #030A2B",
":  c #0D1123",
">  c #0C1429",
",  c #081229",
"<  c #121324",
"1  c #13152A",
"2  c #151B2D",
"3  c #181B2D",
"4  c #161827",
"5  c #051834",
"6  c #161E32",
"7  c #1A1E32",
"8  c #171734",
"9  c #100F2A",
"0  c #1D2333",
"q  c #1D243A",
"w  c #17273A",
"e  c #1C202F",
"r  c #25232C",
"t  c #252838",
"y  c #382D39",
"u  c #37353B",
"i  c #2C3039",
"p  c #443838",
"a  c #412C30",
"s  c #59433A",
"d  c #63543A",
"f  c #0D1946",
"g  c #192A43",
"h  c #1A3345",
"j  c #053251",
"k  c #272B47",
"l  c #29324E",
"z  c #233C4A",
"x  c #323343",
"c  c #2C3653",
"v  c #2B3954",
"b  c #2B3C56",
"n  c #36375C",
"m  c #393B62",
"M  c #433C41",
"N  c #0B435F",
"B  c #3F4447",
"V  c #294655",
"C  c #29535D",
"Z  c #194B64",
"A  c #3B456B",
"S  c #384968",
"D  c #2A5163",
"F  c #2E5B6A",
"G  c #385674",
"H  c #30516B",
"J  c #2A6575",
"K  c #35697A",
"L  c #396D75",
"P  c #494343",
"I  c #494748",
"U  c #574B49",
"Y  c #59534D",
"T  c #545556",
"R  c #4A5258",
"E  c #694E45",
"W  c #65544A",
"Q  c #6A5B55",
"!  c #775D57",
"~  c #725D4A",
"^  c #696258",
"/  c #7B6C5A",
"(  c #776859",
")  c #7E755C",
"_  c #424B75",
"`  c #45527C",
"'  c #565E68",
"]  c #427D7D",
"[  c #7A6F63",
"{  c #7B7564",
"}  c #717272",
"|  c #845F53",
" . c #87755E",
".. c #856D56",
"X. c #896E64",
"o. c #8A7A64",
"O. c #9A7D6D",
"+. c #927D63",
"@. c #9C815D",
"#. c #AC8C5E",
"$. c #8B866C",
"%. c #9B846B",
"&. c #9A977A",
"*. c #958872",
"=. c #A58D6B",
"-. c #AC926F",
";. c #A0916F",
":. c #A88873",
">. c #A79472",
",. c #B79976",
"<. c #B69273",
"1. c #BCA479",
"2. c #C5A57D",
"3. c #C8A67A",
"4. c #D2AF7D",
"5. c #DAB37C",
"6. c #D5B47D",
"7. c #EDB778",
"8. c #F0B476",
"9. c #1F799A",
"0. c #246C86",
"q. c #3A6B83",
"w. c #387D94",
"e. c #3B768B",
"r. c #485B85",
"t. c #44698A",
"y. c #457794",
"u. c #4B6E93",
"i. c #29819D",
"p. c #3C8396",
"a. c #39889B",
"s. c #3C919F",
"d. c #2C8BA4",
"f. c #3D93A2",
"g. c #3597A9",
"h. c #2E97AD",
"j. c #458587",
"k. c #43849B",
"l. c #428897",
"z. c #48919B",
"x. c #4E9792",
"c. c #7A958D",
"v. c #438CA3",
"b. c #4A85A1",
"n. c #4492A4",
"m. c #459BAC",
"M. c #4896A7",
"N. c #569CA3",
"B. c #469EB2",
"V. c #56A9A3",
"C. c #53A6A7",
"Z. c #5AB4AE",
"A. c #4AA7B6",
"S. c #5BBBB3",
"D. c #4AA7A9",
"F. c #62C3B9",
"G. c #63C5B8",
"H. c #69D4C8",
"J. c #65D0CD",
"K. c #6EE8E0",
"L. c #72E7D7",
"P. c #8D9694",
"I. c #8BA294",
"U. c #B4AA87",
"Y. c #A7BB9E",
"T. c #B4B18E",
"R. c #9096A8",
"E. c #A39FA9",
"W. c #92B2AA",
"Q. c #B1B2AD",
"!. c #CDAC82",
"~. c #D2AD86",
"^. c #CAB386",
"/. c #D5B482",
"(. c #DCBB85",
"). c #DCB987",
"_. c #C3BA9F",
"`. c #E3BE87",
"'. c #8CD2B7",
"]. c #DDC28E",
"[. c #C9C69C",
"{. c #DBC895",
"}. c #DED39E",
"|. c #E4C28A",
" X c #EBC58B",
".X c #EDCA8A",
"XX c #F4C787",
"oX c #E3CB94",
"OX c #E9CB95",
"+X c #F4CD90",
"@X c #EBD79C",
"#X c #FDD493",
"$X c #FAD897",
"%X c #FFE19C",
"&X c #FFE495",
"*X c #DBC3A2",
"=X c #D6D3AF",
"-X c #ECDDA5",
";X c #E4D6A5",
":X c #F4DFA3",
">X c #ECDDB8",
",X c #EDE0A9",
"<X c #F3E2A4",
"1X c #FAE9AA",
"2X c #FFF3AB",
"3X c #EBE7B3",
"4X c #F3E8B4",
"5X c #FEF3B3",
"6X c #FFFCBD",
"7X c #FCF6B8",
"8X c #9DA6C5",
"9X c #BCC1D1",
"0X c #ECDCC5",
"qX c #F7E9C6",
"wX c #FFFEC5",
"eX c #FFFECB",
"rX c #FFF3C0",
"tX c #FFFBD4",
"yX c #FFFFDD",
"uX c #F9F3D7",
"iX c #E9E3D5",
"pX c #FFFFE4",
"aX c #FFFFEA",
"sX c #F4F5EB",
"dX c #FEFEF4",
"fX c #FEFFFF",
"gX c #F4F4F2",
"hX c #EFE8E2",
"jX c None",
/* pixels */
"jXjXjXjXjXjXjXjXjXjXjXjXjXjXjXjXjXjXjXjXjXjXjXjXjXjXjXjXjXjXjXjXjXjXjXjXjXjXjXjXjXjXjXjXjXjXjXjXjXjXjXjXjXjXjXjXjXjXjXjXjXjXjXjX",
"jXjXjXjXjXjXjXjXjXjXjXjXjXjXjXjXjXjXjXjXjXjXjXjXjXjXjXjXjXjXjXjXjXjXjXjXjXjXjXjXjXjXjXjXjXjXjXjXjXjXjXjXjXjXjXjXjXjXjXjXjXjXjXjX",
"jXjXjXjXjXjXjXjXjXjXjXjXjXjXjXjXjXjXjXjXjXjXjXjXjXjXjXjXjXjXjXjXjXjXjXjXjXjXjXjXjXjXjXjXjXjXjXjXjXjXjXjXjXjXjXjXjXjXjXjXjXjXjXjX",
"jXjXjXjXjXjXjXjXjXjXjXjXjXjXjXjXjXjXjXjXjXjXjXjXjXjXjXjXjXjXjXjXjXjXjXjXjXjXjXjXjXjXjXjXjXjXjXjXjXjXjXjXjXjXjXjXjXjXjXjXjXjXjXjX",
"jXjXjXjXjXjXjXjXjXjXjXjXjXjXjXjXjXjXjXjXjXjXjXjXjXjXjXjXjXjXjXjXjXjXjXjXjXjXjXjXjXjXjXjXjXjXjXjXjXjXjXjXjXjXjXjXjXjXjXjXjXjXjXjX",
"jXjXjXjXjXjXjXjXjXjXjXjXjXjXjXjXjXjXjXjXjXjXjXjXjXjXjXjXjXjXjXjXjXjXjXjXjXjXjXjXjXjXjXjXjXjXjXjXjXjXjXjXjXjXjXjXjXjXjXjXjXjXjXjX",
"jXjXjXjXjXjXjXjXjXjXjXjXjXjXjXjXjXjXjXjXjXjXjXjX4 h 0 o jXjXjXjXjXjXjXjXjXjXjXjXjXjXjXjXjXjXjXjXjXjXjXjXjXjXjXjXjXjXjXjXjXjXjXjX",
"jXjXjXjXjXjXjXjXjXjXjXjXjXjXjXjXjXjXjXjXjXjXjX+ < q.V 6 w o jXjXjXjXjXjXjXjXjXjXjXjXjXjXjXjXjXjXjXjXjXjXjXjXjXjXjXjXjXjXjXjXjXjX",
"jXjXjXjXjXjXjXjXjXjXjXjXjXjXjXjXjXjXjXjXjXjX+ h K a.V.Z.V.] z . jXjXjXjXjXjXjXjXjXjXjXjXjXjXjXjXjXjXjXjXjXjXjXjXjXjXjXjXjXjXjXjX",
"jXjXjXjXjXjXjXjXjXjXjXjXjXjXjXjXjXjXjXjXjX# k v.A.C.Z.Z.n.H.F.D < jXjXjXjXjXjXjXjXjXjXjXjXjXjXjXjXjXjXjXjXjXjXjXjXjXjXjXjXjXjXjX",
"jXjXjXjXjXjXjXjXjXjXjXjXjXjXjXjXjXjXjXjX+ w k.v.z.F.G.S.N.D.F.H.j.2 jXjXjXjXjXjXjXjXjXjXjXjXjXjXjXjXjXjXjXjXjXjXjXjXjXjXjXjXjXjX",
"jXjXjXjXjXjXjXjXjXjXjXjXjXjXjXjXjXjXjXjX3 G M.a.p.V.V.G.G.z.N.H.F.K - jXjXjXjXjXjXjXjXjXjXjXjXjXjXjXjXjXjXjXjXjXjXjXjXjXjXjXjXjX",
"jXjXjXjXjXjXjXjXjXjXjXjXjXjXjXjXjXjXjX: l k.n.q.2 < 1 z x.F.l.j.H.C.w jXjXjXjXjXjXjXjXjXjXjXjXjXjXjXjXjXjXjXjXjXjXjXjXjXjXjXjXjX",
"jXjXjXjXjXjXjXjXjXjXjXjXjXjXjXjXjXjXjX: c b.f.G m k < . < F.H.V L L.K < jXjXjXjXjXjXjXjXjXjXjXjXjXjXjXjXjXjXjXjXjXjXjXjXjXjXjXjX",
"jXjXjXjXjXjXjXjXjXjXjXjXjXjXjXjXjXjXjXjX2 _ k.y.` r.A 2 + z F.S.6 x.C.1 jXjXjXjXjXjXjXjXjXjXjXjXjXjXjXjXjXjXjXjXjXjXjXjXjXjXjXjX",
"jXjXjXjXjXjXjXjXjXjXjXjXjXjXjXjXjXjXjXjX> t S t.r.r.S 2 2 X D J.C V M.2 jXjXjXjXjXjXjXjXjXjXjXjXjXjXjXjXjXjXjXjXjXjXjXjXjXjXjXjX",
"jXjXjXjXjXjXjXjXjXjXjXjXjXjXjXjXjXjXjXjXjX< < 7 c v 2 4 jX< q k.H q.r.4 jXjXjXjXjXjXjXjXjXjXjXjXjXjXjXjXjXjXjXjXjXjXjXjXjXjXjXjX",
"jXjXjXjXjXjXjXjXjXjXjXjXjXjXjXjXjXjXjXjXjXjXjXjX< < jXjXjX1 w e.l q.z jXjXjXjXjXjXjXjXjXjXjXjXjXjXjXjXjXjXjXjXjXjXjXjXjXjXjXjXjX",
"jXjXjXjXjXjXjXjXjXjXjXjXjXjXjXjXjXjXjXjXjXjXjXjXjXjXjXjX> < w F b q.. jXjXjXjXjXjXjXjXjXjXjXjXjXjXjXjXjXjXjXjXjXjXjXjXjXjXjXjXjX",
"jXjXjXjXjXjXjXjXjXjXjXjXjXjXjXjXjXjXjXjXjXjXjXjXjXjXi E E + f :   @ / } k jXjXjXjXjXjXjXjXjXjXjXjXjXjXjXjX5.+XjXjXjXjXjXjXjXjXjX",
"jXjXjXjXjXjXjXjXjXjXjXjXjXjXjXjXjXjXjXjXjXjXjXjXjXO u qXiXR.8XR.R.R.fXiXq X jXjXjXjXjXjXjXjXjXjXjXjXjXjX(.*Xo.jXjXjXjXjXjXjXjXjX",
"jXjXjXjXjXjXjXjXjXjXjXjXjXjXjXjXjXjXjXjXjXjXjXjX> x u g _.fXdXaXyXtX-X1.( p , jXjXjXjXjXjXjXjXjXjXjXjXXXfXR.X jXjXjXjXjXjXjXjXjX",
"jXjXjXjXjXjXjXjXjXjXjXjXjXjXjXjXjXjXjXjXjXjXjXjX* Q <.-.@X<X,X-X>XiXuXpX2X5.2 jXjXjXjXjXjXjXjXjXjXjXp dXfX$.O jXjXjXjXjXjXjXjXjX",
"jXjXjXjXjXjXjXjXjXjXjXjXjXjXjXjXjXjXjXjXjXjXjX> 0 X.<.`.@X4X4XuXuXdXfXfXuX2X( O jXjXjXjXjXjXjXjXjXd E.fXaX{ = jXjXjXjXjXjXjXjXjX",
"jXjXjXjXjXjXjXjXjXjXjXjXjXjXjXjXjXjXjXjXjXjXjX= U :.,.).{.4X,X@X@X1X>Xl ^.6X{.4 jXjXjXjXjXjXjXjX@..XfXhX2X$.= jXjXjXjXjXjXjXjXjX",
"jXjXjXjXjXjXjXjXjXjXjXjXjXjXjXjXjXjXjXjXjXjXjX, M %.2.)./.).4X4X-XeXhXO s eXqX$ jXjXjXjXjXjXjXjX= iXdX*X&Xo., jXjXjXjXjXjXjXjXjX",
"jXjXjXjXjXjXjXjXjXjXjXjXjXjXjXjXjXjXjXjXjXjX> 0 X.%./.)././.].oX,XfXgX2 < oXqX{ < jXjXjXjXjXjXX I fXoX.XT.= jXjXjXjXjXjXjXjXjXjX",
"jXjXjXjXjXjXjXjXjXjXjXjXjXjXjXjX0 2 jXjXjXjX> 0 O.,.(./.).`.5.OX7XtXsXq X #.pXE.X jXjXjXjXjXjXO T.6X/..XP O jXjXjXjXjXjXjXjXjXjX",
"jXjXjXjXjXjXjXjXjXjXjXjXjXjXjX= i =.t jXjXjX1 0 ! :.~./.1.-.2.{.@XtX9X> O u ;.P = jXjXjXjXjXO I tXoXXX-.* jXjXjXjXjXjXjXjXjXjXjX",
"jXjXjXjXjXjXjXjXjXjXjXjXjXjXjX2 O U #XY O jX2 1 q Q <.).1.T = O 1 w $ < w - . : e jXjXjXjXjXO [.[.1.#XP * jXjXjXjXjXjXjXjXjXjXjX",
"jXjXjXjXjXjXjXjXjXjXjXjXjXjXjX7 z ; s #XW O > = I :.2. X X:XU.^ 6 @ % : 2 - / ;Xi > jXjXjXO T 7Xt /.,.O jXjXjXjXjXjXjXjXjXjXjXjX",
"jXjXjXjXjXjXjXjXjXjXjXjXjXjXjX< F M.j Y 6.^ 1 O > O.~.,.2.).:X6X;X3XfX' . p 1XaX{ O jXjXjXO [.U.E %XP * jXjXjXjXjXjXjXjXjXjXjXjX",
"jXjXjXjXjXjXjXjXjXjXjXjXjXjXjX< D A.m.0.R 2.(.$.t 0 y ( ).|.3.).5XrXfXP.  =.aXpX$.. jXjXjXI wXU =.2.* jXjXjXjXjXjXjXjXjXjXjXjXjX",
"jXjXjXjXjXjXjXjXjXjXjXjXjXjXjX< D M.p.i.I.,.~ ^ ^.>.&.B p |.).4.;X<XyX}   oXeX2Xa h j.w O ^.%.x $XP * jXjXjXjXjXjXjXjXjXjXjXjXjX",
"jXjXjXjXjXjXjXjXjXjXjXjXjXjXjX< D n.z.d.I.8./ s 0 R 6X$.X /.$X`.{.4X5XQ.E.1XwXU.O F J.Z p .XO -./.O jXjXjXjXjXjXjXjXjXjXjXjXjXjX",
"jXjXjXjXjXjXjXjXjXjXjXjXjXjXjX< D m.s.g.Y.$X@X+X/.+ / %.O P  .3.1X7X<XdXfX5X$X& J z.= q |...9 ~.P jXjXjXjXjXjXjXjXjXjXjXjXjXjXjX",
"jXjXjXjXjXjXjXjXjXjXjXjXjXjXjX< Z g.w.f.'.7XoX4.%XY / *.* O X 3 { -XwXtXeX1XM O L K.J # ~ 4 :.X.O jXjXjXjXjXjXjXjXjXjXjXjXjXjXjX",
"jXjXjXjXjXjXjXjXjXjXjXjXjXjXjX4 T C.9.i.D.}.%X{. X^ / %.* l 7 = . e Q ^.{.i f A 1 F A.p.; + W x g w jXjXjXjXjXjXjXjXjXjXjXjXjXjX",
"jXjXjXjXjXjXjXjXjXjXjXjXjXjXjX= ..+XI.p.i.].@XoX`.%.%. .= t.r.n k > . 4 + ; t.u.k X g 0.b.A 5 - S q.w jXjXjXjXjXjXjXjXjXjXjXjXjX",
"jXjXjXjXjXjXjXjXjXjXjXjXjXjXjX,  .#XXX3XW.1.8.5.(.<.4./ O e.f.u.r.A l - 8 r.M.G 1 ! | r 5 G r.k 2 0 7 jXjXjXjXjXjXjXjXjXjXjXjXjX",
"jXjXjXjXjXjXjXjXjXjXjXjXjXjXjX= P |.|.1X3Xz.c.4.XX=.!...O q.n.f.p.t.` m _ v.y.1 4 :.`. Xp X k S m < jXjXjXjXjXjXjXjXjXjXjXjXjXjX",
"jXjXjXjXjXjXjXjXjXjXjXjXjXjXjX= 1 3.|. X,XS.h.z._.Y +.o.* q.n.v.s.n.y.t.v.k.k O 2 O.+X#X%X^ X 2 e jXjXjXjXjXjXjXjXjXjXjXjXjXjXjX",
"jXjXjXjXjXjXjXjXjXjXjXjXjXjXjXjX* / $X/.^.z.D.s.g.j E o.* ` t.y.v.v.M.D.k.q + e @ y :.2. XU = jXjXjXjXjXjXjXjXjXjXjXjXjXjXjXjXjX",
"jXjXjXjXjXjXjXjXjXjXjXjXjXjXjXjXjX, -.$X7.c.i.p.B.N E Q = c l l v v v b 2 : 2 jXl g , 7 7 > jXjXjXjXjXjXjXjXjXjXjXjXjXjXjXjXjXjX",
"jXjXjXjXjXjXjXjXjXjXjXjXjXjXjXjXjXjX* -.&XU.i.n.i.T ( 2 2 : < : - : < $ 4 jXjX< l G 2 = jXjXjXjXjXjXjXjXjXjXjXjXjXjXjXjXjXjXjXjX",
"jXjXjXjXjXjXjXjXjXjXjXjXjXjXjXjXjXjXjX= -.#XN.d.g s t = 3 3 3 jXjX2 2 3 jXjXjXjX1 7 6 jXjXjXjXjXjXjXjXjXjXjXjXjXjXjXjXjXjXjXjXjX",
"jXjXjXjXjXjXjXjXjXjXjXjXjXjXjXjXjXjXjXjX- &.N.V y < jXjX6 6 3 jXjX2 3 2 jXjXjXjXjXjXjXjXjXjXjXjXjXjXjXjXjXjXjXjXjXjXjXjXjXjXjXjX",
"jXjXjXjXjXjXjXjXjXjXjXjXjXjXjXjXjXjXjXjXjX0 q M Y jXjX2 2 2 2 jX6 2 2 6 jXjXjXjXjXjXjXjXjXjXjXjXjXjXjXjXjXjXjXjXjXjXjXjXjXjXjXjX",
"jXjXjXjXjXjXjXjXjXjXjXjXjXjXjXjXjXjXjXjXjXjX- 3 jXjXjXjXjXjXjXjXjXjXjXjXjXjXjXjXjXjXjXjXjXjXjXjXjXjXjXjXjXjXjXjXjXjXjXjXjXjXjXjX",
"jXjXjXjXjXjXjXjXjXjXjXjXjXjXjXjXjXjXjXjXjXjXjX2 jXjXjXjXjXjXjXjXjXjXjXjXjXjXjXjXjXjXjXjXjXjXjXjXjXjXjXjXjXjXjXjXjXjXjXjXjXjXjXjX",
"jXjXjXjXjXjXjXjXjXjXjXjXjXjXjXjXjXjXjXjXjXjXjXjXjXjXjXjXjXjXjXjXjXjXjXjXjXjXjXjXjXjXjXjXjXjXjXjXjXjXjXjXjXjXjXjXjXjXjXjXjXjXjXjX",
"jXjXjXjXjXjXjXjXjXjXjXjXjXjXjXjXjXjXjXjXjXjXjXjXjXjXjXjXjXjXjXjXjXjXjXjXjXjXjXjXjXjXjXjXjXjXjXjXjXjXjXjXjXjXjXjXjXjXjXjXjXjXjXjX",
"jXjXjXjXjXjXjXjXjXjXjXjXjXjXjXjXjXjXjXjXjXjXjXjXjXjXjXjXjXjXjXjXjXjXjXjXjXjXjXjXjXjXjXjXjXjXjXjXjXjXjXjXjXjXjXjXjXjXjXjXjXjXjXjX",
"jXjXjXjXjXjXjXjXjXjXjXjXjXjXjXjXjXjXjXjXjXjXjXjXjXjXjXjXjXjXjXjXjXjXjXjXjXjXjXjXjXjXjXjXjXjXjXjXjXjXjXjXjXjXjXjXjXjXjXjXjXjXjXjX",
"jXjXjXjXjXjXjXjXjXjXjXjXjXjXjXjXjXjXjXjXjXjXjXjXjXjXjXjXjXjXjXjXjXjXjXjXjXjXjXjXjXjXjXjXjXjXjXjXjXjXjXjXjXjXjXjXjXjXjXjXjXjXjXjX",
"jXjXjXjXjXjXjXjXjXjXjXjXjXjXjXjXjXjXjXjXjXjXjXjXjXjXjXjXjXjXjXjXjXjXjXjXjXjXjXjXjXjXjXjXjXjXjXjXjXjXjXjXjXjXjXjXjXjXjXjXjXjXjXjX",
"jXjXjXjXjXjXjXjXjXjXjXjXjXjXjXjXjXjXjXjXjXjXjXjXjXjXjXjXjXjXjXjXjXjXjXjXjXjXjXjXjXjXjXjXjXjXjXjXjXjXjXjXjXjXjXjXjXjXjXjXjXjXjXjX",
"jXjXjXjXjXjXjXjXjXjXjXjXjXjXjXjXjXjXjXjXjXjXjXjXjXjXjXjXjXjXjXjXjXjXjXjXjXjXjXjXjXjXjXjXjXjXjXjXjXjXjXjXjXjXjXjXjXjXjXjXjXjXjXjX",
"jXjXjXjXjXjXjXjXjXjXjXjXjXjXjXjXjXjXjXjXjXjXjXjXjXjXjXjXjXjXjXjXjXjXjXjXjXjXjXjXjXjXjXjXjXjXjXjXjXjXjXjXjXjXjXjXjXjXjXjXjXjXjXjX",
"jXjXjXjXjXjXjXjXjXjXjXjXjXjXjXjXjXjXjXjXjXjXjXjXjXjXjXjXjXjXjXjXjXjXjXjXjXjXjXjXjXjXjXjXjXjXjXjXjXjXjXjXjXjXjXjXjXjXjXjXjXjXjXjX",
"jXjXjXjXjXjXjXjXjXjXjXjXjXjXjXjXjXjXjXjXjXjXjXjXjXjXjXjXjXjXjXjXjXjXjXjXjXjXjXjXjXjXjXjXjXjXjXjXjXjXjXjXjXjXjXjXjXjXjXjXjXjXjXjX",
"jXjXjXjXjXjXjXjXjXjXjXjXjXjXjXjXjXjXjXjXjXjXjXjXjXjXjXjXjXjXjXjXjXjXjXjXjXjXjXjXjXjXjXjXjXjXjXjXjXjXjXjXjXjXjXjXjXjXjXjXjXjXjXjX",
"jXjXjXjXjXjXjXjXjXjXjXjXjXjXjXjXjXjXjXjXjXjXjXjXjXjXjXjXjXjXjXjXjXjXjXjXjXjXjXjXjXjXjXjXjXjXjXjXjXjXjXjXjXjXjXjXjXjXjXjXjXjXjXjX",
"jXjXjXjXjXjXjXjXjXjXjXjXjXjXjXjXjXjXjXjXjXjXjXjXjXjXjXjXjXjXjXjXjXjXjXjXjXjXjXjXjXjXjXjXjXjXjXjXjXjXjXjXjXjXjXjXjXjXjXjXjXjXjXjX"
};
