/* XPM */
static char *result[] = {
/* columns rows colors chars-per-pixel */
"64 64 228 2 ",
"   c black",
".  c #02000C",
"X  c #010014",
"o  c #00011D",
"O  c #040B1D",
"+  c #0E0B1B",
"@  c #0A0218",
"#  c #0C101E",
"$  c #13101E",
"%  c #010420",
"&  c #020B24",
"*  c #0C0E23",
"=  c #07082B",
"-  c #0D1123",
";  c #0C1429",
":  c #07142C",
">  c #121425",
",  c #131629",
"<  c #151B2D",
"1  c #191C2D",
"2  c #1A1723",
"3  c #091534",
"4  c #161D31",
"5  c #1A1E32",
"6  c #171A37",
"7  c #000C30",
"8  c #221823",
"9  c #162234",
"0  c #1B2132",
"q  c #1B243A",
"w  c #1C2A3C",
"e  c #09223B",
"r  c #25242D",
"t  c #232633",
"y  c #242936",
"u  c #21233C",
"i  c #2A2B37",
"p  c #3A2E36",
"a  c #2E303A",
"s  c #3A3234",
"d  c #39363C",
"f  c #443A36",
"g  c #5C4A37",
"h  c #634A3E",
"j  c #0D1946",
"k  c #082A46",
"l  c #1A2D44",
"z  c #242C45",
"x  c #27364E",
"c  c #323642",
"v  c #2C3553",
"b  c #2C3955",
"n  c #293F5C",
"m  c #3E3A65",
"M  c #443C41",
"N  c #1C475C",
"B  c #274657",
"V  c #2A525C",
"C  c #3E4142",
"Z  c #1C546A",
"A  c #274B60",
"S  c #384569",
"D  c #2B586E",
"F  c #33596A",
"G  c #3F4B72",
"H  c #355975",
"J  c #3B696C",
"K  c #286378",
"L  c #356879",
"P  c #3A747E",
"I  c #444143",
"U  c #4C4547",
"Y  c #564947",
"T  c #54504D",
"R  c #5F5354",
"E  c #665449",
"W  c #68574B",
"Q  c #685A53",
"!  c #63665E",
"~  c #7C6D5C",
"^  c #776658",
"/  c #7D725F",
"(  c #414C74",
")  c #45537D",
"_  c #595F70",
"`  c #65646A",
"'  c #776D64",
"]  c #7D7663",
"[  c #6D7078",
"{  c #8C765E",
"}  c #836B63",
"|  c #887861",
" . c #9B7E6D",
".. c #947463",
"X. c #AC8C5E",
"o. c #87846A",
"O. c #838675",
"+. c #9A8F74",
"@. c #999478",
"#. c #968B70",
"$. c #A5886A",
"%. c #A8926D",
"&. c #B38E76",
"*. c #AB9B7A",
"=. c #B59775",
"-. c #AF8E6E",
";. c #BEA47A",
":. c #B6A678",
">. c #CDAD7F",
",. c #C6A679",
"<. c #D3AC7A",
"1. c #D6B37D",
"2. c #E8B87A",
"3. c #F0B679",
"4. c #3E5C80",
"5. c #156F91",
"6. c #396F8B",
"7. c #277996",
"8. c #3D7D92",
"9. c #39788B",
"0. c #45698A",
"q. c #516695",
"w. c #447794",
"e. c #51628F",
"r. c #3C8295",
"t. c #3D8A9D",
"y. c #37849A",
"u. c #2D8098",
"i. c #2D8AA4",
"p. c #308DA4",
"a. c #3F96A2",
"s. c #2992AA",
"d. c #32A4AE",
"f. c #468889",
"g. c #44849D",
"h. c #418798",
"j. c #47909C",
"k. c #4C918C",
"l. c #6B8B8D",
"z. c #74A59E",
"x. c #448DA2",
"c. c #4887A1",
"v. c #4394A3",
"b. c #4799AA",
"n. c #499CB3",
"m. c #5093A8",
"M. c #4EA7A8",
"N. c #55A9A7",
"B. c #59B1AC",
"V. c #48A1B1",
"C. c #5EBCB4",
"Z. c #50AAB1",
"A. c #5EC0B9",
"S. c #64C7B9",
"D. c #66CDC2",
"F. c #64CBC1",
"G. c #6AD5C7",
"H. c #6AD7CC",
"J. c #69D8D8",
"K. c #72E7D7",
"L. c #868992",
"P. c #88A794",
"I. c #8FA28F",
"U. c #AEA586",
"Y. c #BCAA82",
"T. c #B5B291",
"R. c #8F95A9",
"E. c #A39FA9",
"W. c #95BAA7",
"Q. c #9FA5A8",
"!. c #B5B4B0",
"~. c #CCA983",
"^. c #C9B78B",
"/. c #D4B382",
"(. c #DCBB86",
"). c #DBBA88",
"_. c #C3BA9F",
"`. c #E4BC87",
"'. c #96C1A4",
"]. c #A8D8B6",
"[. c #DCC18E",
"{. c #DAC795",
"}. c #DED39E",
"|. c #E9C58C",
" X c #F5CB8C",
".X c #F4C082",
"XX c #FFD78D",
"oX c #E6C994",
"OX c #E4D09A",
"+X c #EBD89C",
"@X c #FFDC99",
"#X c #F7D496",
"$X c #F5CF91",
"%X c #FFE49F",
"&X c #DED8B9",
"*X c #ECDDA5",
"=X c #E4D7A5",
"-X c #E8D7BB",
";X c #F4DFAD",
":X c #D1EFBC",
">X c #EDE2AA",
",X c #F3E2A3",
"<X c #FAE9AA",
"1X c #FFF4AC",
"2X c #EDE6B5",
"3X c #F5E7B4",
"4X c #FFF2B3",
"5X c #FFFDBC",
"6X c #FFFAB5",
"7X c #9DA6C5",
"8X c #BCC1D1",
"9X c #DBDDCE",
"0X c #ECDCC5",
"qX c #F8E9C6",
"wX c #FFFEC3",
"eX c #FFFEC9",
"rX c #FEF2C4",
"tX c #FFFBD4",
"yX c #FFFFDD",
"uX c #F9F3D7",
"iX c #EAE5DE",
"pX c #FFFFE4",
"aX c #FBFCEA",
"sX c #FDFCF3",
"dX c #FEFFFF",
"fX c #F4F6F2",
"gX c #EEECE3",
"hX c None",
/* pixels */
"hXhXhXhXhXhXhXhXhXhXhXhXhXhXhXhXhXhXhXhXhXhXhXhXhXhXhXhXhXhXhXhXhXhXhXhXhXhXhXhXhXhXhXhXhXhXhXhXhXhXhXhXhXhXhXhXhXhXhXhXhXhXhXhX",
"hXhXhXhXhXhXhXhXhXhXhXhXhXhXhXhXhXhXhXhXhXhXhXhXhXhXhXhXhXhXhXhXhXhXhXhXhXhXhXhXhXhXhXhXhXhXhXhXhXhXhXhXhXhXhXhXhXhXhXhXhXhXhXhX",
"hXhXhXhXhXhXhXhXhXhXhXhXhXhXhXhXhXhXhXhXhXhXhXhXhXhXhXhXhXhXhXhXhXhXhXhXhXhXhXhXhXhXhXhXhXhXhXhXhXhXhXhXhXhXhXhXhXhXhXhXhXhXhXhX",
"hXhXhXhXhXhXhXhXhXhXhXhXhXhXhXhXhXhXhXhXhXhXhXhXhXhXhXhXhXhXhXhXhXhXhXhXhXhXhXhXhXhXhXhXhXhXhXhXhXhXhXhXhXhXhXhXhXhXhXhXhXhXhXhX",
"hXhXhXhXhXhXhXhXhXhXhXhXhXhXhXhXhXhXhXhXhXhXhXhXhXhXhXhXhXhXhXhXhXhXhXhXhXhXhXhXhXhXhXhXhXhXhXhXhXhXhXhXhXhXhXhXhXhXhXhXhXhXhXhX",
"hXhXhXhXhXhXhXhXhXhXhXhXhXhXhXhXhXhXhXhXhXhXhXhX, B n @ @ hXhXhXhXhXhXhXhXhXhXhXhXhXhXhXhXhXhXhXhXhXhXhXhXhXhXhXhXhXhXhXhXhXhXhX",
"hXhXhXhXhXhXhXhXhXhXhXhXhXhXhXhXhXhXhXhXhXhX> + , j.M.J J w > hXhXhXhXhXhXhXhXhXhXhXhXhXhXhXhXhXhXhXhXhXhXhXhXhXhXhXhXhXhXhXhXhX",
"hXhXhXhXhXhXhXhXhXhXhXhXhXhXhXhXhXhXhXhXhX, 4 A h.v.C.D.Z.B.k.B , hXhXhXhXhXhXhXhXhXhXhXhXhXhXhXhXhXhXhXhXhXhXhXhXhXhXhXhXhXhXhX",
"hXhXhXhXhXhXhXhXhXhXhXhXhXhXhXhXhXhXhXhX> > H b.b.B.B.N.j.B.D.H.f.4 hXhXhXhXhXhXhXhXhXhXhXhXhXhXhXhXhXhXhXhXhXhXhXhXhXhXhXhXhXhX",
"hXhXhXhXhXhXhXhXhXhXhXhXhXhXhXhXhXhXhXhX, B x.t.j.S.G.S.A.j.b.S.A.L * hXhXhXhXhXhXhXhXhXhXhXhXhXhXhXhXhXhXhXhXhXhXhXhXhXhXhXhXhX",
"hXhXhXhXhXhXhXhXhXhXhXhXhXhXhXhXhXhXhX> u ) g.a.K V J f.S.A.f.f.D.N.q hXhXhXhXhXhXhXhXhXhXhXhXhXhXhXhXhXhXhXhXhXhXhXhXhXhXhXhXhX",
"hXhXhXhXhXhXhXhXhXhXhXhXhXhXhXhXhXhXhX> v g.v.B $ @ . @ B D.G.B J K.P > hXhXhXhXhXhXhXhXhXhXhXhXhXhXhXhXhXhXhXhXhXhXhXhXhXhXhXhX",
"hXhXhXhXhXhXhXhXhXhXhXhXhXhXhXhXhXhXhX- v c.t.H S ) m , . x A.C.9 k.Z., hXhXhXhXhXhXhXhXhXhXhXhXhXhXhXhXhXhXhXhXhXhXhXhXhXhXhXhX",
"hXhXhXhXhXhXhXhXhXhXhXhXhXhXhXhXhXhXhXhX< ( g.w.) ) e.v > . V J.V B m.5 hXhXhXhXhXhXhXhXhXhXhXhXhXhXhXhXhXhXhXhXhXhXhXhXhXhXhXhX",
"hXhXhXhXhXhXhXhXhXhXhXhXhXhXhXhXhXhXhXhX> w S ) G G v 9 , > q h.F H 0.u hXhXhXhXhXhXhXhXhXhXhXhXhXhXhXhXhXhXhXhXhXhXhXhXhXhXhXhX",
"hXhXhXhXhXhXhXhXhXhXhXhXhXhXhXhXhXhXhXhXhX> > 0 0 4 - hXhX, 9 9.x 6.v hXhXhXhXhXhXhXhXhXhXhXhXhXhXhXhXhXhXhXhXhXhXhXhXhXhXhXhXhX",
"hXhXhXhXhXhXhXhXhXhXhXhXhXhXhXhXhXhXhXhXhXhXhXhX, hXhXhX; 2 w H B L . hXhXhXhXhXhXhXhXhXhXhXhXhXhXhXhX/.(.hXhXhXhXhXhXhXhXhXhXhX",
"hXhXhXhXhXhXhXhXhXhXhXhXhXhXhXhXhXhXhXhXhXhXhXhXhXhXa W E @ j #   O / ` z hXhXhXhXhXhXhXhXhXhXhXhXhX,.|.).hXhXhXhXhXhXhXhXhXhXhX",
"hXhXhXhXhXhXhXhXhXhXhXhXhXhXhXhXhXhXhXhXhXhXhXhXhXo d qX0XR.7XR.R.R.dXiXu X hXhXhXhXhXhXhXhXhXhXhX3.3X!.a hXhXhXhXhXhXhXhXhXhXhX",
"hXhXhXhXhXhXhXhXhXhXhXhXhXhXhXhXhXhXhXhXhXhXhXhX; d d l _.dXdXaXyXtX%X:.^ I & hXhXhXhXhXhXhXhXhXf <XdXL.X hXhXhXhXhXhXhXhXhXhXhX",
"hXhXhXhXhXhXhXhXhXhXhXhXhXhXhXhXhXhXhXhXhXhXhXhX% Q &.=.}.,X>X*X-XqXaXyX1X1.2 hXhXhXhXhXhXhXhXf ` dXdX] O hXhXhXhXhXhXhXhXhXhXhX",
"hXhXhXhXhXhXhXhXhXhXhXhXhXhXhXhXhXhXhXhXhXhXhX; u } &.`.+X3X3XuXuXsXdXfXuX1X^ o hXhXhXhXhXhXhX%.9XdXeX] & hXhXhXhXhXhXhXhXhXhXhX",
"hXhXhXhXhXhXhXhXhXhXhXhXhXhXhXhXhXhXhXhXhXhXhX& T $.=.(.{.3X,X+X+X<X&Xc ^.5X{.1 hXhXhXhXhXhXs 2XdX-XXX@.: hXhXhXhXhXhXhXhXhXhXhX",
"hXhXhXhXhXhXhXhXhXhXhXhXhXhXhXhXhXhXhXhXhXhXhX: M  .,.(.1.[.3X3X,XuXgX% g wXqX$ hXhXhXhXhXhX3 fXrXoX+XI & hXhXhXhXhXhXhXhXhXhXhX",
"hXhXhXhXhXhXhXhXhXhXhXhXhXhXhXhXhXhX< 0 & hXhX0 ~  ./.).>.1.[.OX>XdXfX; > oXrX' > hXhXhXhXX O.yX1. X] X hXhXhXhXhXhXhXhXhXhXhXhX",
"hXhXhXhXhXhXhXhXhXhXhXhXhXhXhXhXhXhX% ~ | % & t  .=.).).(.|.1.oX4XtXaXq o X.aXQ.X hXhXhXhX0 2X%X|.>.1 hXhXhXhXhXhXhXhXhXhXhXhXhX",
"hXhXhXhXhXhXhXhXhXhXhXhXhXhXhXhXhXhX; 2 ,.,.% * } &././.;.%.,.{.+XyX8X; o d %.C & hXhXhXX O.eX1. X^ o hXhXhXhXhXhXhXhXhXhXhXhXhX",
"hXhXhXhXhXhXhXhXhXhXhXhXhXhXhXhXhXhXw k X ,./.O % Q ~.|.;.T & X , 9 # - 0 * . - 4 hXhXhXt 2X! =.).0 hXhXhXhXhXhXhXhXhXhXhXhXhXhX",
"hXhXhXhXhXhXhXhXhXhXhXhXhXhXhXhXhXhXq v.K e =.=.a % U 1.@X4XT.` 4 + $ > < * ' =Xa hXhXo @.*Xf $X~ o hXhXhXhXhXhXhXhXhXhXhXhXhXhX",
"hXhXhXhXhXhXhXhXhXhXhXhXhXhXhXhXhXhX5 r.V.p.A ..`.=.d 0 U $.#XwX=X2XdX_ . s <XpX| hXhX0 wX' ^ $X0 hXhXhXhXhXhXhXhXhXhXhXhXhXhXhX",
"hXhXhXhXhXhXhXhXhXhXhXhXhXhXhXhXhXhX0 r.a.y.x.U...W +.:.o.O.> +.5X5XdXL.  $.aXpXo.X hXo.=Xa /.| o hXhXhXhXhXhXhXhXhXhXhXhXhXhXhX",
"hXhXhXhXhXhXhXhXhXhXhXhXhXhXhXhXhXhX9 8.x.v.j.<.-.R I y *.,XO Y 4X*XyX[   oXeX1XT o t oXs Q $X0 hXhXhXhXhXhXhXhXhXhXhXhXhXhXhXhX",
"hXhXhXhXhXhXhXhXhXhXhXhXhXhXhXhXhXhX0 w.t.a.N.=X#X#X|.^ ; ,.: W <X<X4X!.E.<XwXU.3 k #.,.X ~.| o hXhXhXhXhXhXhXhXhXhXhXhXhXhXhXhX",
"hXhXhXhXhXhXhXhXhXhXhXhXhXhXhXhXhXhX9 7.t.t.N.:X<X/.|.1.d Y.& E 5X4X>XsXdX4X#Xs o y >.d U &.1 hXhXhXhXhXhXhXhXhXhXhXhXhXhXhXhXhX",
"hXhXhXhXhXhXhXhXhXhXhXhXhXhXhXhXhXhXi l.i.7.s.'.@X=X).>.U %.y - ] *X5XtXwX<Xc 3 , 0 1 + $.R % + hXhXhXhXhXhXhXhXhXhXhXhXhXhXhXhX",
"hXhXhXhXhXhXhXhXhXhXhXhXhXhXhXhXhXhXr /.^.k.5.P.XXOX(.`.' %.a & . 0 Q ^.{.s j ( $ D 6.u 2 4 S D 9 hXhXhXhXhXhXhXhXhXhXhXhXhXhXhX",
"hXhXhXhXhXhXhXhXhXhXhXhXhXhXhXhXhXhXy (.3.%X].P.3.3.(.>.&.,.0 6 v ; . > # = 0.0.u : K e.S - q H q hXhXhXhXhXhXhXhXhXhXhXhXhXhXhX",
"hXhXhXhXhXhXhXhXhXhXhXhXhXhXhXhXhXhX: %.|.OX6X'.9.U.3.<. ./.2 n q.m v * 6 ) m.6.0 Y + 3 G G z $ hXhXhXhXhXhXhXhXhXhXhXhXhXhXhXhX",
"hXhXhXhXhXhXhXhXhXhXhXhXhXhXhXhXhXhXo Q  X/.%X].d.y.z.@.Y ,.2 N b.0.4.m G x.0.= g %X=.r O v b , hXhXhXhXhXhXhXhXhXhXhXhXhXhXhXhX",
"hXhXhXhXhXhXhXhXhXhXhXhXhXhXhXhXhXhXhX0 ).|.2.I.d.M.i.7.1 $.r n V.v.8.0.x.g.w X *.%X1X/ o - > hXhXhXhXhXhXhXhXhXhXhXhXhXhXhXhXhX",
"hXhXhXhXhXhXhXhXhXhXhXhXhXhXhXhXhXhXhX& I  X X;.p.r.c.u.z ..2 D V.x.m.n.h.u O 0 Y ^ ^ t ; hXhXhXhXhXhXhXhXhXhXhXhXhXhXhXhXhXhXhX",
"hXhXhXhXhXhXhXhXhXhXhXhXhXhXhXhXhXhXhXhXo M  X Xl.7.b.K ^ M ; x n b b b < $ , z : o % ; hXhXhXhXhXhXhXhXhXhXhXhXhXhXhXhXhXhXhXhX",
"hXhXhXhXhXhXhXhXhXhXhXhXhXhXhXhXhXhXhXhXhXo M XXT.s.Z p f & 5 > + - * * , 4 < z q hXhXhXhXhXhXhXhXhXhXhXhXhXhXhXhXhXhXhXhXhXhXhX",
"hXhXhXhXhXhXhXhXhXhXhXhXhXhXhXhXhXhXhXhXhXhXo h W.5.s r , 4 < 4 hXhXhXhXhX< < , hXhXhXhXhXhXhXhXhXhXhXhXhXhXhXhXhXhXhXhXhXhXhXhX",
"hXhXhXhXhXhXhXhXhXhXhXhXhXhXhXhXhXhXhXhXhXhXhX% l i Q 0 , 1 < < hXhXhXhXhXhX1 4 hXhXhXhXhXhXhXhXhXhXhXhXhXhXhXhXhXhXhXhXhXhXhXhX",
"hXhXhXhXhXhXhXhXhXhXhXhXhXhXhXhXhXhXhXhXhXhXhXhX* 1 < , 9 < 4 < hXhXhXhXhXhXhX< < hXhXhXhXhXhXhXhXhXhXhXhXhXhXhXhXhXhXhXhXhXhXhX",
"hXhXhXhXhXhXhXhXhXhXhXhXhXhXhXhXhXhXhXhXhXhXhXhXhX< hXhXhXhXhXhXhXhXhXhXhXhXhX< < 4 hXhXhXhXhXhXhXhXhXhXhXhXhXhXhXhXhXhXhXhXhXhX",
"hXhXhXhXhXhXhXhXhXhXhXhXhXhXhXhXhXhXhXhXhXhXhXhXhXhXhXhXhXhXhXhXhXhXhXhXhXhXhXhX< hXhXhXhXhXhXhXhXhXhXhXhXhXhXhXhXhXhXhXhXhXhXhX",
"hXhXhXhXhXhXhXhXhXhXhXhXhXhXhXhXhXhXhXhXhXhXhXhXhXhXhXhXhXhXhXhXhXhXhXhXhXhXhXhXhXhXhXhXhXhXhXhXhXhXhXhXhXhXhXhXhXhXhXhXhXhXhXhX",
"hXhXhXhXhXhXhXhXhXhXhXhXhXhXhXhXhXhXhXhXhXhXhXhXhXhXhXhXhXhXhXhXhXhXhXhXhXhXhXhXhXhXhXhXhXhXhXhXhXhXhXhXhXhXhXhXhXhXhXhXhXhXhXhX",
"hXhXhXhXhXhXhXhXhXhXhXhXhXhXhXhXhXhXhXhXhXhXhXhXhXhXhXhXhXhXhXhXhXhXhXhXhXhXhXhXhXhXhXhXhXhXhXhXhXhXhXhXhXhXhXhXhXhXhXhXhXhXhXhX",
"hXhXhXhXhXhXhXhXhXhXhXhXhXhXhXhXhXhXhXhXhXhXhXhXhXhXhXhXhXhXhXhXhXhXhXhXhXhXhXhXhXhXhXhXhXhXhXhXhXhXhXhXhXhXhXhXhXhXhXhXhXhXhXhX",
"hXhXhXhXhXhXhXhXhXhXhXhXhXhXhXhXhXhXhXhXhXhXhXhXhXhXhXhXhXhXhXhXhXhXhXhXhXhXhXhXhXhXhXhXhXhXhXhXhXhXhXhXhXhXhXhXhXhXhXhXhXhXhXhX",
"hXhXhXhXhXhXhXhXhXhXhXhXhXhXhXhXhXhXhXhXhXhXhXhXhXhXhXhXhXhXhXhXhXhXhXhXhXhXhXhXhXhXhXhXhXhXhXhXhXhXhXhXhXhXhXhXhXhXhXhXhXhXhXhX",
"hXhXhXhXhXhXhXhXhXhXhXhXhXhXhXhXhXhXhXhXhXhXhXhXhXhXhXhXhXhXhXhXhXhXhXhXhXhXhXhXhXhXhXhXhXhXhXhXhXhXhXhXhXhXhXhXhXhXhXhXhXhXhXhX",
"hXhXhXhXhXhXhXhXhXhXhXhXhXhXhXhXhXhXhXhXhXhXhXhXhXhXhXhXhXhXhXhXhXhXhXhXhXhXhXhXhXhXhXhXhXhXhXhXhXhXhXhXhXhXhXhXhXhXhXhXhXhXhXhX",
"hXhXhXhXhXhXhXhXhXhXhXhXhXhXhXhXhXhXhXhXhXhXhXhXhXhXhXhXhXhXhXhXhXhXhXhXhXhXhXhXhXhXhXhXhXhXhXhXhXhXhXhXhXhXhXhXhXhXhXhXhXhXhXhX",
"hXhXhXhXhXhXhXhXhXhXhXhXhXhXhXhXhXhXhXhXhXhXhXhXhXhXhXhXhXhXhXhXhXhXhXhXhXhXhXhXhXhXhXhXhXhXhXhXhXhXhXhXhXhXhXhXhXhXhXhXhXhXhXhX",
"hXhXhXhXhXhXhXhXhXhXhXhXhXhXhXhXhXhXhXhXhXhXhXhXhXhXhXhXhXhXhXhXhXhXhXhXhXhXhXhXhXhXhXhXhXhXhXhXhXhXhXhXhXhXhXhXhXhXhXhXhXhXhXhX",
"hXhXhXhXhXhXhXhXhXhXhXhXhXhXhXhXhXhXhXhXhXhXhXhXhXhXhXhXhXhXhXhXhXhXhXhXhXhXhXhXhXhXhXhXhXhXhXhXhXhXhXhXhXhXhXhXhXhXhXhXhXhXhXhX",
"hXhXhXhXhXhXhXhXhXhXhXhXhXhXhXhXhXhXhXhXhXhXhXhXhXhXhXhXhXhXhXhXhXhXhXhXhXhXhXhXhXhXhXhXhXhXhXhXhXhXhXhXhXhXhXhXhXhXhXhXhXhXhXhX",
"hXhXhXhXhXhXhXhXhXhXhXhXhXhXhXhXhXhXhXhXhXhXhXhXhXhXhXhXhXhXhXhXhXhXhXhXhXhXhXhXhXhXhXhXhXhXhXhXhXhXhXhXhXhXhXhXhXhXhXhXhXhXhXhX",
"hXhXhXhXhXhXhXhXhXhXhXhXhXhXhXhXhXhXhXhXhXhXhXhXhXhXhXhXhXhXhXhXhXhXhXhXhXhXhXhXhXhXhXhXhXhXhXhXhXhXhXhXhXhXhXhXhXhXhXhXhXhXhXhX",
"hXhXhXhXhXhXhXhXhXhXhXhXhXhXhXhXhXhXhXhXhXhXhXhXhXhXhXhXhXhXhXhXhXhXhXhXhXhXhXhXhXhXhXhXhXhXhXhXhXhXhXhXhXhXhXhXhXhXhXhXhXhXhXhX"
};
