/* XPM */
static char *result[] = {
/* columns rows colors chars-per-pixel */
"64 64 229 2 ",
"   c #000002",
".  c #01000B",
"X  c #010014",
"o  c #00011C",
"O  c #050B1D",
"+  c #0E0C1D",
"@  c #0B0317",
"#  c #0E111F",
"$  c #160B1A",
"%  c #040C23",
"&  c #0C0C23",
"*  c #010623",
"=  c #130F24",
"-  c #0E1323",
";  c #0C142A",
":  c #071126",
">  c #121424",
",  c #13162B",
"<  c #151B2D",
"1  c #1A1B2C",
"2  c #181727",
"3  c #0B1733",
"4  c #1A1D31",
"5  c #161C33",
"6  c #030C30",
"7  c #211F39",
"8  c #07233D",
"9  c #162234",
"0  c #1B2233",
"q  c #1C233B",
"w  c #1C2D3E",
"e  c #1D202E",
"r  c #222532",
"t  c #2B2B35",
"y  c #26293A",
"u  c #382D34",
"i  c #38363A",
"p  c #2C2A33",
"a  c #413939",
"s  c #473B2F",
"d  c #5C4937",
"f  c #624A3F",
"g  c #0C1A46",
"h  c #1D2E41",
"j  c #193348",
"k  c #0E2943",
"l  c #232B42",
"z  c #2A2D4B",
"x  c #272D4A",
"c  c #2A314E",
"v  c #253748",
"b  c #353741",
"n  c #2C3653",
"m  c #2C3955",
"M  c #273953",
"N  c #333A5A",
"B  c #3E3966",
"V  c #443D42",
"C  c #4B3E43",
"Z  c #11445E",
"A  c #274754",
"S  c #2B525D",
"D  c #36414F",
"F  c #1B5A73",
"G  c #274A61",
"H  c #384368",
"J  c #325B6B",
"K  c #3D4B73",
"L  c #365976",
"P  c #2C5B6C",
"I  c #36656C",
"U  c #34687C",
"Y  c #26677E",
"T  c #4B4546",
"R  c #4A4446",
"E  c #564A49",
"W  c #56514D",
"Q  c #5F5354",
"!  c #69574B",
"~  c #695B53",
"^  c #705C59",
"/  c #66675E",
"(  c #7C6C5C",
")  c #786658",
"_  c #7D7B5D",
"`  c #5D5E63",
"'  c #404B73",
"]  c #454E79",
"[  c #45547D",
"{  c #45567F",
"}  c #595E71",
"|  c #427A7A",
" . c #7A6F62",
".. c #7B7465",
"X. c #616879",
"o. c #95775A",
"O. c #84735F",
"+. c #856D63",
"@. c #877661",
"#. c #9B7D6D",
"$. c #937466",
"%. c #A6885E",
"&. c #85886A",
"*. c #97856B",
"=. c #858875",
"-. c #999679",
";. c #948E77",
":. c #A58A6A",
">. c #AB926B",
",. c #A78772",
"<. c #B38F77",
"1. c #AA9D79",
"2. c #B29576",
"3. c #BA9A77",
"4. c #B4936B",
"5. c #BDA67B",
"6. c #C09E7C",
"7. c #C3A57B",
"8. c #CAA87A",
"9. c #D3AD7A",
"0. c #D7B37D",
"q. c #E7B57B",
"w. c #F0B679",
"e. c #F0C178",
"r. c #156F91",
"t. c #3E6B86",
"y. c #3B6580",
"u. c #3C768D",
"i. c #287A96",
"p. c #327389",
"a. c #485883",
"s. c #446A8A",
"d. c #46668A",
"f. c #41718D",
"g. c #457290",
"h. c #4F6590",
"j. c #3C8294",
"k. c #3E8C9D",
"l. c #39859A",
"z. c #35899C",
"x. c #2D8AA4",
"c. c #308DA4",
"v. c #3E97A2",
"b. c #2992AB",
"n. c #32A4AE",
"m. c #43869C",
"M. c #4D9599",
"N. c #488B8A",
"B. c #678F8E",
"V. c #6E8A91",
"C. c #74A49E",
"Z. c #458DA2",
"A. c #4393A4",
"S. c #449BAD",
"D. c #4996A5",
"F. c #4DA4A8",
"G. c #55A8A6",
"H. c #5BB4AC",
"J. c #49A4B6",
"K. c #5BBAB6",
"L. c #61BFB3",
"P. c #5FC2BC",
"I. c #64C6B9",
"U. c #66CEC3",
"Y. c #6AD8CF",
"T. c #6FE1D2",
"R. c #76F2E1",
"E. c #858D9F",
"W. c #8AA693",
"Q. c #AEA688",
"!. c #BFAA81",
"~. c #BFB48D",
"^. c #AAB295",
"/. c #9498AA",
"(. c #A39FA4",
"). c #96BAA7",
"_. c #B5B4B2",
"`. c #CCA881",
"'. c #CBB587",
"]. c #D3B382",
"[. c #DCBA85",
"{. c #DBBA86",
"}. c #C9B390",
"|. c #E4BC89",
" X c #C1BCA8",
".X c #96C1A4",
"XX c #A7D7B6",
"oX c #DCC18E",
"OX c #DCC693",
"+X c #D6CE9C",
"@X c #EAC58C",
"#X c #E9C68B",
"$X c #F4CB8C",
"%X c #F4C082",
"&X c #FFD28C",
"*X c #E6CA94",
"=X c #E9D69B",
"-X c #FCDC9B",
";X c #F8D394",
":X c #F3CD91",
">X c #FFE396",
",X c #DFD6B2",
"<X c #ECDDA5",
"1X c #E7DAA4",
"2X c #ECDBBA",
"3X c #F3DBA0",
"4X c #EEE3AA",
"5X c #FEEBA9",
"6X c #F6E7A8",
"7X c #FFF7AD",
"8X c #F6E9B5",
"9X c #FFFEBE",
"0X c #FFF5B6",
"qX c #D1EFBC",
"wX c #9CA5C3",
"eX c #BCC1CF",
"rX c #E4D5C8",
"tX c #F5E9C6",
"yX c #FFFCCA",
"uX c #FFFDC4",
"iX c #FFFDD2",
"pX c #FBF7D8",
"aX c #EBEAD9",
"sX c #ECEAE4",
"dX c #FFFFE3",
"fX c #FFFFEA",
"gX c #FFFFFE",
"hX c #F8F9F5",
"jX c None",
/* pixels */
"jXjXjXjXjXjXjXjXjXjXjXjXjXjXjXjXjXjXjXjXjXjXjXjXjXjXjXjXjXjXjXjXjXjXjXjXjXjXjXjXjXjXjXjXjXjXjXjXjXjXjXjXjXjXjXjXjXjXjXjXjXjXjXjX",
"jXjXjXjXjXjXjXjXjXjXjXjXjXjXjXjXjXjXjXjXjXjXjXjXjXjXjXjXjXjXjXjXjXjXjXjXjXjXjXjXjXjXjXjXjXjXjXjXjXjXjXjXjXjXjXjXjXjXjXjXjXjXjXjX",
"jXjXjXjXjXjXjXjXjXjXjXjXjXjXjXjXjXjXjXjXjXjXjXjXjXjXjXjXjXjXjXjXjXjXjXjXjXjXjXjXjXjXjXjXjXjXjXjXjXjXjXjXjXjXjXjXjXjXjXjXjXjXjXjX",
"jXjXjXjXjXjXjXjXjXjXjXjXjXjXjXjXjXjXjXjXjXjXjXjXjXjXjXjXjXjXjXjXjXjXjXjXjXjXjXjXjXjXjXjXjXjXjXjXjXjXjXjXjXjXjXjXjXjXjXjXjXjXjXjX",
"jXjXjXjXjXjXjXjXjXjXjXjXjXjXjXjXjXjXjXjXjXjXjXjXjXjXjXjXjXjXjXjXjXjXjXjXjXjXjXjXjXjXjXjXjXjXjXjXjXjXjXjXjXjXjXjXjXjXjXjXjXjXjXjX",
"jXjXjXjXjXjXjXjXjXjXjXjXjXjXjXjXjXjXjXjXjXjXjXjXh v & & > jXjXjXjXjXjXjXjXjXjXjXjXjXjXjXjXjXjXjXjXjXjXjXjXjXjXjXjXjXjXjXjXjXjXjX",
"jXjXjXjXjXjXjXjXjXjXjXjXjXjXjXjXjXjXjXjXjXjXjX@ U p.v | I w 0 > jXjXjXjXjXjXjXjXjXjXjXjXjXjXjXjXjXjXjXjXjXjXjXjXjXjXjXjXjXjXjXjX",
"jXjXjXjXjXjXjXjXjXjXjXjXjXjXjXjXjXjXjXjXjXjX+ h u.G.I.K.P.H.L.N.& & jXjXjXjXjXjXjXjXjXjXjXjXjXjXjXjXjXjXjXjXjXjXjXjXjXjXjXjXjXjX",
"jXjXjXjXjXjXjXjXjXjXjXjXjXjXjXjXjXjXjXjXjX+ w A.F.H.I.M.D.F.K.U.H.h @ jXjXjXjXjXjXjXjXjXjXjXjXjXjXjXjXjXjXjXjXjXjXjXjXjXjXjXjXjX",
"jXjXjXjXjXjXjXjXjXjXjXjXjXjXjXjXjXjXjXjX< = U S.G.I.I.Y.H.k.D.H.T.M.& jXjXjXjXjXjXjXjXjXjXjXjXjXjXjXjXjXjXjXjXjXjXjXjXjXjXjXjXjX",
"jXjXjXjXjXjXjXjXjXjXjXjXjXjXjXjXjXjXjXjX+ M D.k.S.G.I I G.I.U.S I R.I @ jXjXjXjXjXjXjXjXjXjXjXjXjXjXjXjXjXjXjXjXjXjXjXjXjXjXjXjX",
"jXjXjXjXjXjXjXjXjXjXjXjXjXjXjXjXjXjXjXjX> L Z.j.A 2 . . > A K.K.9 N.K., jXjXjXjXjXjXjXjXjXjXjXjXjXjXjXjXjXjXjXjXjXjXjXjXjXjXjXjX",
"jXjXjXjXjXjXjXjXjXjXjXjXjXjXjXjXjXjXjX, 5 a.S.P 1 x n l > . G T.S A D.4 jXjXjXjXjXjXjXjXjXjXjXjXjXjXjXjXjXjXjXjXjX].[.jXjXjXjXjX",
"jXjXjXjXjXjXjXjXjXjXjXjXjXjXjXjXjXjXjXjX, y.A.u.a.a.h.[ < # y g.J U a., jXjXjXjXjXjXjXjXjXjXjXjXjXjXjXjXjXjXjXjX9.#X[.jXjXjXjXjX",
"jXjXjXjXjXjXjXjXjXjXjXjXjXjXjXjXjXjXjXjX> n h.Z.h.a.[ l jXjX9 p.c p.M jXjXjXjXjXjXjXjXjXjXjXjXjXjXjXjXjXjXjXjXw.tX_.t jXjXjXjXjX",
"jXjXjXjXjXjXjXjXjXjXjXjXjXjXjXjXjXjXjXjXjX< c m n N 5 X jX2 w L N y.. jXjXjXjXjXjXjXjXjXjXjXjXjXjXjXjXjXjXjXs 8XgXV.. jXjXjXjXjX",
"jXjXjXjXjXjXjXjXjXjXjXjXjXjXjXjXjXjXjXjXjXjX- # > O p ! ! o g o   X ( ` l jXjXjXjXjXjXjXjXjXjXjXjXjXjXjXjXs ` gXgX..% jXjXjXjXjX",
"jXjXjXjXjXjXjXjXjXjXjXjXjXjXjXjXjXjXjXjXjXjXjXjXjXo i 8XrX/.wX/.E./.gXrXq X jXjXjXjXjXjXjXjXjXjXjXjXjXjXjX>.aXhXyX&.% jXjXjXjXjX",
"jXjXjXjXjXjXjXjXjXjXjXjXjXjXjXjXjXjXjXjXjXjXjXjX; i i z  XgXfXfXpXiX<X5.) d % jXjXjXjXjXjXjXjXjXjXjXjXjXi 8XgXrX>X;.: jXjXjXjXjX",
"jXjXjXjXjXjXjXjXjXjXjXjXjXjXjXjXjXjXjXjXjXjXjXjXo ~ <.3.=X=X4X<X2XtXpXdX7X8.< jXjXjXjXjXjXjXjXjXjXjXjXjX3 hXtX#X=Xd : jXjXjXjXjX",
"jXjXjXjXjXjXjXjXjXjXjXjXjXjXjXjXjXjXjXjXjXjXjX, 4 +.3.[.=X6XtXtXpXgXgXhXpX5X) jXjXjXjXjXjXjXjXjXjXjXjXX =.dX0.;X .X jXjXjXjXjXjX",
"jXjXjXjXjXjXjXjXjXjXjX< 0 % jXjXjXjXjXjXjXjXjX% E ,.3.{.*X4X4X<X=X5X,Xz '.9XoX1 jXjXjXjXjXjXjXjXjXjXjX0 4X6X[.9.1 jXjXjXjXjXjXjX",
"jXjXjXjXjXjXjXjXjXjXjX* ( @.o jXjXjXjXjXjXjXjX: b ,.7.{.].oX8X8X1XpXsXo d yXtX% jXjXjXjXjXjXjXjXjXjXX =.yX9.$X) o jXjXjXjXjXjXjX",
"jXjXjXjXjXjXjXjXjXjXjX- 2 7.8.% jXjXjXjXjXjX; 0 ( #.{.{.].].oX*X4XgXhX< # *XtX..jXjXjXjXjXjXjXjXjXjXp 8X/ 3.oXe jXjXjXjXjXjXjXjX",
"jXjXjXjXjXjXjXjXjXjXjXw k X 8.0.& o jXjXjXjX; 0 #.3.oX{.[.#X9.*X0XiXdXy X %.dX_.X jXjXjXjXjXjXjXjXX -.<Xp ;X( o jXjXjXjXjXjXjXjX",
"jXjXjXjXjXjXjXjXjXjXjX0 A.Y 8 4.1.i o * jXjX; r ) ,.].].3.>.7.OX=XpXeX< O i &.R % jXjXjXjXjXjXjXjX0 yX..) ;X9 jXjXjXjXjXjXjXjXjX",
"jXjXjXjXjXjXjXjXjXjXjX9 l.J.x.S $.@X7.W 1 o X ; r ^ <.{.5.W % o ; 5 o # 0 % . # 0 jXjXjXjX< 0 jXo *.1Xu {.O.o jXjXjXjXjXjXjXjXjX",
"jXjXjXjXjXjXjXjXjXjXjX9 u.k.l.Z.Q.o.~ ,.'.1.=.% V ,.7.@X@X4XQ./ < - < % < % ( ,Xt : jXjX@ I T.j $ *Xt ~ ;Xe jXjXjXjXjXjXjXjXjXjX",
"jXjXjXjXjXjXjXjXjXjXjX9 j.m.v.M.9.>.! R y 1.5Xy , *.!.<.6.[.-X9X1X2XsX} . i 5XpX..o jXjXS P I Z %.5.o ].@.o jXjXjXjXjXjXjXjXjXjX",
"jXjXjXjXjXjXjXjXjXjXjX9 j.k.A.G.=X;X;X@X) % !.t * b #.$.`.[.8.[.0X0XgX/.  >.fXdX*.X jX@ N.Y.; $ ].i C <.< jXjXjXjXjXjXjXjXjXjXjX",
"jXjXjXjXjXjXjXjXjXjXjX5 i.k.j.F.qX6X9.#X'.b !.t % ; +.3.@X[.].9.=X4XdXX.  *XuX5XW jXjXjXv K.J.M + O ,.Q % + jXjXjXjXjXjXjXjXjXjX",
"jXjXjXjXjXjXjXjXjXjXjXp B.c.i.b..X-X1X[.8.T >.t , - 2 C *.;X;X|.OX6X8X_.(.6XyX}.o jXjXjXjX6 r.J.L q 2 , H J 9 jXjXjXjXjXjXjXjXjX",
"jXjXjXjXjXjXjXjXjXjXjXr q.'.G.r.W.&X*X{.[. .>.t O c n X o T @.7.5X9X4XhXgX5X=Xi o jXjXjX; u u 3 y.h.B : q J 0 jXjXjXjXjXjXjXjXjX",
"jXjXjXjXjXjXjXjXjXjXjXy [.|.-XXXW.w.q.|.].<.!.r % l H N < X X 2 ..1XuXiXyX5Xa 6 < < jXjX1 *.7.o.X 3 K K v + jXjXjXjXjXjXjXjXjXjX",
"jXjXjXjXjXjXjXjXjXjXjX, :.@X=X7X).j.Q.|.9.#.].r ; # n a.' x 5 * . 4 ~ '.+Xi g K < < jX; r ,.#X-X>.p O M m < jXjXjXjXjXjXjXjXjXjX",
"jXjXjXjXjXjXjXjXjXjXjXo ~ ;X].-XXXn.z.C.;.T 7.t % q { f.d.d.[ N x ; . - @ % s.d.x > jXjX: ^ |.;X7X+.o - > jXjXjXjXjXjXjXjXjXjXjX",
"jXjXjXjXjXjXjXjXjXjXjXjXe [.@Xw.W.n.G.x.i.1 :.i % x [ f.d.u.Z.g.a.' n : 5 a.A.a.4 jXjXjX< ; R ) ( 0 , jXjXjXjXjXjXjXjXjXjXjXjXjX",
"jXjXjXjXjXjXjXjXjXjXjXjX* R @X$X5.i.l.m.i.y $.e ; l H [ L t.k.v.m.s.[ B K Z.g.q , jXjX- m K * o o , jXjXjXjXjXjXjXjXjXjXjXjXjXjX",
"jXjXjXjXjXjXjXjXjXjXjXjXjXo R $X@XB.z.v.U ) V ; < # 0 ' ] t.M.m.l.v.u.s.Z.m.l + jXjXjXjX0 m 0 jXjXjXjXjXjXjXjXjXjXjXjXjXjXjXjXjX",
"jXjXjXjXjXjXjXjXjXjXjXjXjXjXo V &X^.b.F u C % jX1 < > n a.a.s.m.D.m.D.S.m.q + < jXjXjXjXjX> jXjXjXjXjXjXjXjXjXjXjXjXjXjXjXjXjXjX",
"jXjXjXjXjXjXjXjXjXjXjXjXjXjXjXo E ).r.a p , jXjXjX< < < l n x c m M m m 1 - < jXjXjXjXjXjXjXjXjXjXjXjXjXjXjXjXjXjXjXjXjXjXjXjXjX",
"jXjXjXjXjXjXjXjXjXjXjXjXjXjXjXjXO h t ! 2 jXjXjXjXjX< < > # > - + > # # , 9 jXjXjXjXjXjXjXjXjXjXjXjXjXjXjXjXjXjXjXjXjXjXjXjXjXjX",
"jXjXjXjXjXjXjXjXjXjXjXjXjXjXjXjXjX& 1 < jXjXjXjXjXjXjXjX< < 4 jXjX< 1 < < 1 < jXjXjXjXjXjXjXjXjXjXjXjXjXjXjXjXjXjXjXjXjXjXjXjXjX",
"jXjXjXjXjXjXjXjXjXjXjXjXjXjXjXjXjXjXjXjXjXjXjXjXjXjXjXjXjX< < < jX< < jX< < < jXjXjXjXjXjXjXjXjXjXjXjXjXjXjXjXjXjXjXjXjXjXjXjXjX",
"jXjXjXjXjXjXjXjXjXjXjXjXjXjXjXjXjXjXjXjXjXjXjXjXjXjXjXjXjXjX< < 1 jXjXjXjXjXjXjXjXjXjXjXjXjXjXjXjXjXjXjXjXjXjXjXjXjXjXjXjXjXjXjX",
"jXjXjXjXjXjXjXjXjXjXjXjXjXjXjXjXjXjXjXjXjXjXjXjXjXjXjXjXjXjXjX5 5 jXjXjXjXjXjXjXjXjXjXjXjXjXjXjXjXjXjXjXjXjXjXjXjXjXjXjXjXjXjXjX",
"jXjXjXjXjXjXjXjXjXjXjXjXjXjXjXjXjXjXjXjXjXjXjXjXjXjXjXjXjXjXjXjXjXjXjXjXjXjXjXjXjXjXjXjXjXjXjXjXjXjXjXjXjXjXjXjXjXjXjXjXjXjXjXjX",
"jXjXjXjXjXjXjXjXjXjXjXjXjXjXjXjXjXjXjXjXjXjXjXjXjXjXjXjXjXjXjXjXjXjXjXjXjXjXjXjXjXjXjXjXjXjXjXjXjXjXjXjXjXjXjXjXjXjXjXjXjXjXjXjX",
"jXjXjXjXjXjXjXjXjXjXjXjXjXjXjXjXjXjXjXjXjXjXjXjXjXjXjXjXjXjXjXjXjXjXjXjXjXjXjXjXjXjXjXjXjXjXjXjXjXjXjXjXjXjXjXjXjXjXjXjXjXjXjXjX",
"jXjXjXjXjXjXjXjXjXjXjXjXjXjXjXjXjXjXjXjXjXjXjXjXjXjXjXjXjXjXjXjXjXjXjXjXjXjXjXjXjXjXjXjXjXjXjXjXjXjXjXjXjXjXjXjXjXjXjXjXjXjXjXjX",
"jXjXjXjXjXjXjXjXjXjXjXjXjXjXjXjXjXjXjXjXjXjXjXjXjXjXjXjXjXjXjXjXjXjXjXjXjXjXjXjXjXjXjXjXjXjXjXjXjXjXjXjXjXjXjXjXjXjXjXjXjXjXjXjX",
"jXjXjXjXjXjXjXjXjXjXjXjXjXjXjXjXjXjXjXjXjXjXjXjXjXjXjXjXjXjXjXjXjXjXjXjXjXjXjXjXjXjXjXjXjXjXjXjXjXjXjXjXjXjXjXjXjXjXjXjXjXjXjXjX",
"jXjXjXjXjXjXjXjXjXjXjXjXjXjXjXjXjXjXjXjXjXjXjXjXjXjXjXjXjXjXjXjXjXjXjXjXjXjXjXjXjXjXjXjXjXjXjXjXjXjXjXjXjXjXjXjXjXjXjXjXjXjXjXjX",
"jXjXjXjXjXjXjXjXjXjXjXjXjXjXjXjXjXjXjXjXjXjXjXjXjXjXjXjXjXjXjXjXjXjXjXjXjXjXjXjXjXjXjXjXjXjXjXjXjXjXjXjXjXjXjXjXjXjXjXjXjXjXjXjX",
"jXjXjXjXjXjXjXjXjXjXjXjXjXjXjXjXjXjXjXjXjXjXjXjXjXjXjXjXjXjXjXjXjXjXjXjXjXjXjXjXjXjXjXjXjXjXjXjXjXjXjXjXjXjXjXjXjXjXjXjXjXjXjXjX",
"jXjXjXjXjXjXjXjXjXjXjXjXjXjXjXjXjXjXjXjXjXjXjXjXjXjXjXjXjXjXjXjXjXjXjXjXjXjXjXjXjXjXjXjXjXjXjXjXjXjXjXjXjXjXjXjXjXjXjXjXjXjXjXjX",
"jXjXjXjXjXjXjXjXjXjXjXjXjXjXjXjXjXjXjXjXjXjXjXjXjXjXjXjXjXjXjXjXjXjXjXjXjXjXjXjXjXjXjXjXjXjXjXjXjXjXjXjXjXjXjXjXjXjXjXjXjXjXjXjX",
"jXjXjXjXjXjXjXjXjXjXjXjXjXjXjXjXjXjXjXjXjXjXjXjXjXjXjXjXjXjXjXjXjXjXjXjXjXjXjXjXjXjXjXjXjXjXjXjXjXjXjXjXjXjXjXjXjXjXjXjXjXjXjXjX",
"jXjXjXjXjXjXjXjXjXjXjXjXjXjXjXjXjXjXjXjXjXjXjXjXjXjXjXjXjXjXjXjXjXjXjXjXjXjXjXjXjXjXjXjXjXjXjXjXjXjXjXjXjXjXjXjXjXjXjXjXjXjXjXjX",
"jXjXjXjXjXjXjXjXjXjXjXjXjXjXjXjXjXjXjXjXjXjXjXjXjXjXjXjXjXjXjXjXjXjXjXjXjXjXjXjXjXjXjXjXjXjXjXjXjXjXjXjXjXjXjXjXjXjXjXjXjXjXjXjX",
"jXjXjXjXjXjXjXjXjXjXjXjXjXjXjXjXjXjXjXjXjXjXjXjXjXjXjXjXjXjXjXjXjXjXjXjXjXjXjXjXjXjXjXjXjXjXjXjXjXjXjXjXjXjXjXjXjXjXjXjXjXjXjXjX",
"jXjXjXjXjXjXjXjXjXjXjXjXjXjXjXjXjXjXjXjXjXjXjXjXjXjXjXjXjXjXjXjXjXjXjXjXjXjXjXjXjXjXjXjXjXjXjXjXjXjXjXjXjXjXjXjXjXjXjXjXjXjXjXjX",
"jXjXjXjXjXjXjXjXjXjXjXjXjXjXjXjXjXjXjXjXjXjXjXjXjXjXjXjXjXjXjXjXjXjXjXjXjXjXjXjXjXjXjXjXjXjXjXjXjXjXjXjXjXjXjXjXjXjXjXjXjXjXjXjX",
"jXjXjXjXjXjXjXjXjXjXjXjXjXjXjXjXjXjXjXjXjXjXjXjXjXjXjXjXjXjXjXjXjXjXjXjXjXjXjXjXjXjXjXjXjXjXjXjXjXjXjXjXjXjXjXjXjXjXjXjXjXjXjXjX"
};
