/* XPM */
static char *c342548ef98a4328a8c90cae39bb454d[] = {
/* columns rows colors chars-per-pixel */
"64 64 12 1 ",
"  c black",
". c #0C1D1C",
"X c #132D2D",
"o c #193B3A",
"O c #1E4847",
"+ c #2F7170",
"@ c #337A79",
"# c #3A8B8A",
"$ c #3D9492",
"% c #419C9A",
"& c #44A3A1",
"* c #47ABA9",
/* pixels */
"****************************************************************",
"****************************************************************",
"****************************************************************",
"****************************************************************",
"****************************************************************",
"****************************************************************",
"****************************************************************",
"****************************************************************",
"****************************************************************",
"****************************************************************",
"*********************************$###$**************************",
"********************************%    O**************************",
"********************************+    O**************************",
"*******************************&.    O**************************",
"******************************&o     O**************************",
"****************************&@X      O**************************",
"*************************$Oo         O**************************",
"*************************#           O**************************",
"*************************#           O**************************",
"*************************#           O**************************",
"*************************#           O**************************",
"*******************************      O**************************",
"*******************************      O**************************",
"*******************************      O**************************",
"*******************************      O**************************",
"*******************************      O**************************",
"*******************************      O**************************",
"*******************************      O**************************",
"*******************************      O**************************",
"*******************************      O**************************",
"*******************************      O**************************",
"*******************************      O**************************",
"*******************************      O**************************",
"*******************************      O**************************",
"*******************************      O**************************",
"*******************************      O**************************",
"*******************************      O**************************",
"*******************************      O**************************",
"*******************************      O**************************",
"*******************************      O**************************",
"*******************************      O**************************",
"*******************************      O**************************",
"*******************************      O**************************",
"*******************************      O**************************",
"*******************************      O**************************",
"*******************************      O**************************",
"*******************************      O**************************",
"*******************************      O**************************",
"*******************************      O**************************",
"*******************************      O**************************",
"*******************************      O**************************",
"*******************************      O**************************",
"*******************************      O**************************",
"*******************************      O**************************",
"****************************************************************",
"****************************************************************",
"****************************************************************",
"****************************************************************",
"****************************************************************",
"****************************************************************",
"****************************************************************",
"****************************************************************",
"****************************************************************",
"****************************************************************"
};
