/* XPM */
static char *_4d049ccba79471b9947fa628bd0fd7e[] = {
/* columns rows colors chars-per-pixel */
"64 64 16 1 ",
"  c black",
". c #27280C",
"X c #3E4012",
"o c #515317",
"O c #61641C",
"+ c #717421",
"@ c #7F8325",
"# c #8D9129",
"$ c #9A9F2D",
"% c #A6AB31",
"& c #B2B834",
"* c #BEC437",
"= c #C9CF3B",
"- c #D4DA3E",
"; c #DFE541",
": c #E9F044",
/* pixels */
"::::::::::::::::::::::::::::::::::::::::::::::::::::::::::::::::",
"::::::::::::::::::::::::::::::::::::::::::::::::::::::::::::::::",
"::::::::::::::::::::::::::::::::::::::::::::::::::::::::::::::::",
"::::::::::::::::::::::::::::::::::::::::::::::::::::::::::::::::",
"::::::::::::::::::::::::::::::::::::::::::::::::::::::::::::::::",
"::::::::::::::::::::::::::::::::::::::::::::::::::::::::::::::::",
"::::::::::::::::::::::::::::::::::::::::::::::::::::::::::::::::",
"::::::::::::::::::::::::::::::::::::::::::::::::::::::::::::::::",
"::::::::::::::::::::::::::::::::::::::::::::::::::::::::::::::::",
"::::::::::::::::::::::::::::::::::::::::::::::::::::::::::::::::",
"::::::::::::::::::::::::::::&$+OOO$&;:::::::::::::::::::::::::::",
"::::::::::::::::::::::::::$.        .$;:::::::::::::::::::::::::",
"::::::::::::::::::::::::;O            X=::::::::::::::::::::::::",
"::::::::::::::::::::::::O              X;:::::::::::::::::::::::",
":::::::::::::::::::::::$                +:::::::::::::::::::::::",
":::::::::::::::::::::::.                 -::::::::::::::::::::::",
"::::::::::::::::::::::%       o$$@.      #::::::::::::::::::::::",
"::::::::::::::::::::::@      @::::=.     o::::::::::::::::::::::",
"::::::::::::::::::::::O      ;:::::#      ::::::::::::::::::::::",
"::::::::::::::::::::::.     o::::::&      -:::::::::::::::::::::",
"::::::::::::::::::::::      O::::::*      *:::::::::::::::::::::",
"::::::::::::::::::::::      O::::::*      *:::::::::::::::::::::",
"::::::::::::::::::::::      O::::::*      *:::::::::::::::::::::",
"::::::::::::::::::::::      O::::::*      *:::::::::::::::::::::",
"::::::::::::::::::::::      O::::::*      *:::::::::::::::::::::",
"::::::::::::::::::::::      O::::::;******;:::::::::::::::::::::",
"::::::::::::::::::::::      O:::::::::::::::::::::::::::::::::::",
"::::::::::::::::::::::      O:::::::::::::::::::::::::::::::::::",
"::::::::::::::::::::::      O:::::::::::::::::::::::::::::::::::",
"::::::::::::::::::::::      O:::::::::::::::::::::::::::::::::::",
"::::::::::::::::::::::      O:::::::::::::::::::::::::::::::::::",
"::::::::::::::::::::::      O:::::::::::::::::::::::::::::::::::",
"::::::::::::::::::::::      O:::::::::::::::::::::::::::::::::::",
"::::::::::::::::::::::      O:::::::::::::::::::::::::::::::::::",
"::::::::::::::::::::::      O:::::::::::::::::::::::::::::::::::",
"::::::::::::::::::::::      O:::::::::::::::::::::::::::::::::::",
"::::::::::::::::::::::      O:::::::::::::::::::::::::::::::::::",
"::::::::::::::::::::::      O:::::::::::::::::::::::::::::::::::",
"::::::::::::::::::::::      O::::::*      *:::::::::::::::::::::",
"::::::::::::::::::::::      O::::::*      *:::::::::::::::::::::",
"::::::::::::::::::::::      O::::::*      *:::::::::::::::::::::",
"::::::::::::::::::::::      O::::::*      *:::::::::::::::::::::",
"::::::::::::::::::::::      O::::::*      *:::::::::::::::::::::",
"::::::::::::::::::::::      O::::::*      *:::::::::::::::::::::",
"::::::::::::::::::::::      O::::::*      *:::::::::::::::::::::",
"::::::::::::::::::::::.     X::::::&      -:::::::::::::::::::::",
"::::::::::::::::::::::O      -:::::@      ::::::::::::::::::::::",
"::::::::::::::::::::::#      o;:::%      O::::::::::::::::::::::",
"::::::::::::::::::::::&        OOo       $::::::::::::::::::::::",
":::::::::::::::::::::::X                 -::::::::::::::::::::::",
":::::::::::::::::::::::&                $:::::::::::::::::::::::",
"::::::::::::::::::::::::@              o::::::::::::::::::::::::",
":::::::::::::::::::::::::#            +;::::::::::::::::::::::::",
"::::::::::::::::::::::::::*+        O&::::::::::::::::::::::::::",
"::::::::::::::::::::::::::::;*$$$$*;::::::::::::::::::::::::::::",
"::::::::::::::::::::::::::::::::::::::::::::::::::::::::::::::::",
"::::::::::::::::::::::::::::::::::::::::::::::::::::::::::::::::",
"::::::::::::::::::::::::::::::::::::::::::::::::::::::::::::::::",
"::::::::::::::::::::::::::::::::::::::::::::::::::::::::::::::::",
"::::::::::::::::::::::::::::::::::::::::::::::::::::::::::::::::",
"::::::::::::::::::::::::::::::::::::::::::::::::::::::::::::::::",
"::::::::::::::::::::::::::::::::::::::::::::::::::::::::::::::::",
"::::::::::::::::::::::::::::::::::::::::::::::::::::::::::::::::",
"::::::::::::::::::::::::::::::::::::::::::::::::::::::::::::::::"
};
