/* XPM */
static char *eca1a785ca3448148c4f6dcc1c16a7e1[] = {
/* columns rows colors chars-per-pixel */
"64 64 14 1 ",
"  c black",
". c #0B0D13",
"X c #11141F",
"o c #161A28",
"O c #1B2031",
"+ c #1F2538",
"@ c #232A3F",
"# c #272E46",
"$ c #2A324D",
"% c #2E3653",
"& c #343E5F",
"* c #3A456A",
"= c #3D496F",
"- c #404C74",
/* pixels */
"----------------------------------------------------------------",
"----------------------------------------------------------------",
"----------------------------------------------------------------",
"----------------------------------------------------------------",
"----------------------------------------------------------------",
"----------------------------------------------------------------",
"----------------------------------------------------------------",
"----------------------------------------------------------------",
"----------------------------------------------------------------",
"----------------------------------------------------------------",
"----------------------*&&&&&&&&&&&=-----------------------------",
"----------------------$            .@&--------------------------",
"----------------------$               O=------------------------",
"----------------------$                o=-----------------------",
"----------------------$                 O-----------------------",
"----------------------$                  %----------------------",
"----------------------$                  +----------------------",
"----------------------$      &---=$       =---------------------",
"----------------------$      &-----@      &---------------------",
"----------------------$      &-----%      %---------------------",
"----------------------$      &-----&      $---------------------",
"----------------------$      &-----&      $---------------------",
"----------------------$      &-----&      $---------------------",
"----------------------$      &-----&      $---------------------",
"----------------------$      &-----&      $---------------------",
"----------------------$      &-----&      $---------------------",
"----------------------$      &-----&      $---------------------",
"----------------------$      &-----&      $---------------------",
"----------------------$      &-----&      $---------------------",
"----------------------$      &-----#      &---------------------",
"----------------------$      &----=.      *---------------------",
"----------------------$      @$$$#.      X----------------------",
"----------------------$                  $----------------------",
"----------------------$                 .=----------------------",
"----------------------$                 %-----------------------",
"----------------------$                %------------------------",
"----------------------$              O&-------------------------",
"----------------------$      oOOOO$%*---------------------------",
"----------------------$      &----------------------------------",
"----------------------$      &----------------------------------",
"----------------------$      &----------------------------------",
"----------------------$      &----------------------------------",
"----------------------$      &----------------------------------",
"----------------------$      &----------------------------------",
"----------------------$      &----------------------------------",
"----------------------$      &----------------------------------",
"----------------------$      &----------------------------------",
"----------------------$      &----------------------------------",
"----------------------$      &----------------------------------",
"----------------------$      &----------------------------------",
"----------------------$      &----------------------------------",
"----------------------$      &----------------------------------",
"----------------------$      &----------------------------------",
"----------------------$      &----------------------------------",
"----------------------------------------------------------------",
"----------------------------------------------------------------",
"----------------------------------------------------------------",
"----------------------------------------------------------------",
"----------------------------------------------------------------",
"----------------------------------------------------------------",
"----------------------------------------------------------------",
"----------------------------------------------------------------",
"----------------------------------------------------------------",
"----------------------------------------------------------------"
};
