/* XPM */
static char *result[] = {
/* columns rows colors chars-per-pixel */
"64 64 223 2 ",
"   c black",
".  c #00000A",
"X  c #010014",
"o  c #00001C",
"O  c #030A1E",
"+  c #0D0C1C",
"@  c #0A0419",
"#  c #0C101E",
"$  c #12131E",
"%  c #160A1B",
"&  c #000522",
"*  c #030B24",
"=  c #0B0F25",
"-  c #090C29",
";  c #041027",
":  c #0C1224",
">  c #0C152A",
",  c #0B152C",
"<  c #131425",
"1  c #13162A",
"2  c #18162B",
"3  c #151B2D",
"4  c #181C2D",
"5  c #1C1925",
"6  c #0D1635",
"7  c #161C32",
"8  c #1A1C31",
"9  c #1E1C38",
"0  c #1C2232",
"q  c #1B243A",
"w  c #182638",
"e  c #01223E",
"r  c #23242E",
"t  c #2B2C36",
"y  c #21243D",
"u  c #252633",
"i  c #3A2C35",
"p  c #33333D",
"a  c #3B353A",
"s  c #2F2930",
"d  c #443935",
"f  c #5C4A37",
"g  c #0D1D48",
"h  c #1B2B42",
"j  c #1A3649",
"k  c #003557",
"l  c #242B45",
"z  c #282F4C",
"x  c #26364B",
"c  c #383643",
"v  c #2D3855",
"b  c #35385C",
"n  c #3A3E66",
"m  c #433C42",
"M  c #11445E",
"N  c #254857",
"B  c #31474F",
"V  c #1E536D",
"C  c #39456B",
"Z  c #2B5163",
"A  c #2B5566",
"S  c #325969",
"D  c #355A75",
"F  c #344E6C",
"G  c #1E617B",
"H  c #35667B",
"J  c #2B6172",
"K  c #454042",
"L  c #4C4444",
"P  c #4E4547",
"I  c #554748",
"U  c #57524D",
"Y  c #5A5755",
"T  c #514F51",
"R  c #675349",
"E  c #6B5B54",
"W  c #735149",
"Q  c #63665E",
"!  c #786859",
"~  c #7D725F",
"^  c #414B72",
"/  c #43527A",
"(  c #595F70",
")  c #477076",
"_  c #65656A",
"`  c #736E63",
"'  c #7D6E60",
"]  c #7D7864",
"[  c #6D7078",
"{  c #826C58",
"}  c #88755C",
"|  c #9B7B5C",
" . c #896E65",
".. c #887662",
"X. c #9B7D6E",
"o. c #997E62",
"O. c #AC8C5E",
"+. c #868469",
"@. c #9C866B",
"#. c #848676",
"$. c #959378",
"%. c #A3886C",
"&. c #A8926C",
"*. c #A78772",
"=. c #B28E75",
"-. c #AE9674",
";. c #B29675",
":. c #B69B76",
">. c #BAA37A",
",. c #C59C6C",
"<. c #C5A57D",
"1. c #CAA878",
"2. c #D5AD79",
"3. c #D6B27D",
"4. c #CFB07E",
"5. c #EFBD7A",
"6. c #197497",
"7. c #3D6C86",
"8. c #3E6683",
"9. c #3A7587",
"0. c #29738C",
"q. c #475781",
"w. c #465B84",
"e. c #436184",
"r. c #45698B",
"t. c #467997",
"y. c #506992",
"u. c #3D8899",
"i. c #2A8AA2",
"p. c #3895A7",
"a. c #328EA9",
"s. c #448588",
"d. c #438799",
"f. c #48959C",
"g. c #4C928C",
"h. c #748C8B",
"j. c #53A29E",
"k. c #488DA4",
"l. c #4292A3",
"z. c #439BAA",
"x. c #4597A5",
"c. c #409BB0",
"v. c #47A6AE",
"b. c #54AFAE",
"n. c #59A7A9",
"m. c #5AB5AE",
"M. c #5FB9AE",
"N. c #4AA6B8",
"B. c #51ADB4",
"V. c #5AB8B3",
"C. c #60ACB4",
"Z. c #65C4B7",
"A. c #50B0C1",
"S. c #65CCC1",
"D. c #6DDACC",
"F. c #6CDBD3",
"G. c #72E7D6",
"H. c #8C978E",
"J. c #8FA896",
"K. c #B1B393",
"L. c #8F95A8",
"P. c #A39FA9",
"I. c #96ACA6",
"U. c #B5B4B0",
"Y. c #CCA882",
"T. c #CAB487",
"R. c #D4B482",
"E. c #DCBB85",
"W. c #DDBD8A",
"Q. c #D8B685",
"!. c #C3BA9F",
"~. c #E2BD85",
"^. c #E9BE87",
"/. c #A1CCAC",
"(. c #DDC18E",
"). c #D9C794",
"_. c #DED39E",
"`. c #E4C18A",
"'. c #EAC58B",
"]. c #EDC88B",
"[. c #F5CC8D",
"{. c #FCCE8C",
"}. c #FFD88C",
"|. c #E3CB96",
" X c #EACB95",
".X c #E3CA95",
"XX c #F4CE90",
"oX c #ECD89C",
"OX c #F4DA9C",
"+X c #FAD595",
"@X c #D2DBB4",
"#X c #ECDDA5",
"$X c #E4D6A4",
"%X c #E8D7BB",
"&X c #F4DFAD",
"*X c #EDE2AA",
"=X c #F3E2A4",
"-X c #FAE9AA",
";X c #FFF5AC",
":X c #EDE6B5",
">X c #F4E8B4",
",X c #FEF3B3",
"<X c #FFFBBD",
"1X c #FFF3B9",
"2X c #9DA6C5",
"3X c #BCC1D1",
"4X c #DBDDCE",
"5X c #ECDCC5",
"6X c #F8E9C6",
"7X c #FFFDC3",
"8X c #FFFEC9",
"9X c #FEF2C4",
"0X c #FFFBD4",
"qX c #FFFFDD",
"wX c #F9F3D7",
"eX c #EAE6DE",
"rX c #FFFFE3",
"tX c #FBFCEA",
"yX c #FDFCF3",
"uX c #FEFFFF",
"iX c #F4F6F2",
"pX c #EEECE3",
"aX c None",
/* pixels */
"aXaXaXaXaXaXaXaXaXaXaXaXaXaXaXaXaXaXaXaXaXaXaXaXaXaXaXaXaXaXaXaXaXaXaXaXaXaXaXaXaXaXaXaXaXaXaXaXaXaXaXaXaXaXaXaXaXaXaXaXaXaXaXaX",
"aXaXaXaXaXaXaXaXaXaXaXaXaXaXaXaXaXaXaXaXaXaXaXaXaXaXaXaXaXaXaXaXaXaXaXaXaXaXaXaXaXaXaXaXaXaXaXaXaXaXaXaXaXaXaXaXaXaXaXaXaXaXaXaX",
"aXaXaXaXaXaXaXaXaXaXaXaXaXaXaXaXaXaXaXaXaXaXaXaXaXaXaXaXaXaXaXaXaXaXaXaXaXaXaXaXaXaXaXaXaXaXaXaXaXaXaXaXaXaXaXaXaXaXaXaXaXaXaXaX",
"aXaXaXaXaXaXaXaXaXaXaXaXaXaXaXaXaXaXaXaXaXaXaXaXaXaXaXaXaXaXaXaXaXaXaXaXaXaXaXaXaXaXaXaXaXaXaXaXaXaXaXaXaXaXaXaXaXaXaXaXaXaXaXaX",
"aXaXaXaXaXaXaXaXaXaXaXaXaXaXaXaXaXaXaXaXaXaXaXaXaXaXaXaXaXaXaXaXaXaXaXaXaXaXaXaXaXaXaXaXaXaXaXaXaXaXaXaXaXaXaXaXaXaXaXaXaXaXaXaX",
"aXaXaXaXaXaXaXaXaXaXaXaXaXaXaXaXaXaXaXaXaXaXaXaXaXaXaXaXaXaXaXaXaXaXaXaXaXaXaXaXaXaXaXaXaXaXaXaXaXaXaXaXaXaXaXaXaXaXaXaXaXaXaXaX",
"aXaXaXaXaXaXaXaXaXaXaXaXaXaXaXaXaXaXaXaXaXaXaXaXaXaXaXaXaXaXaXaXaXaXaXaXaXaXaXaXaXaXaXaXaXaXaXaXaXaXaXaXaXaXaXaXaXaXaXaXaXaXaXaX",
"aXaXaXaXaXaXaXaXaXaXaXaXaXaXaXaXaXaXaXaXaXaXaXaXaXaXaXaXaXaXaXaXaXaXaXaXaXaXaXaXaXaXaXaXaXaXaXaXaXaXaXaXaXaXaXaXaXaXaXaXaXaXaXaX",
"aXaXaXaXaXaXaXaXaXaXaXaXaXaXaXaXaXaXaXaXaXaXaXaXaXx w w < aXaXaXaXaXaXaXaXaXaXaXaXaXaXaXaXaXaXaXaXaXaXaXaXaXaXaXaXaXaXaXaXaXaXaX",
"aXaXaXaXaXaXaXaXaXaXaXaXaXaXaXaXaXaXaXaXaXaXaX@ w v.M.m.s.S w @ aXaXaXaXaXaXaXaXaXaXaXaXaXaXaXaXaXaXaXaXaXaXaXaXaXaXaXaXaXaXaXaX",
"aXaXaXaXaXaXaXaXaXaXaXaXaXaXaXaXaXaXaXaXaXaX+ h 7.V.Z.x.b.D.m.s.l aXaXaXaXaXaXaXaXaXaXaXaXaXaXaXaXaXaXaXaXaXaXaXaXaXaXaXaXaXaXaX",
"aXaXaXaXaXaXaXaXaXaXaXaXaXaXaXaXaXaXaXaXaX< l l.B.m.Z.b.n.f.M.G.B.w aXaXaXaXaXaXaXaXaXaXaXaXaXaXaXaXaXaXaXaXaXaXaXaXaXaXaXaXaXaX",
"aXaXaXaXaXaXaXaXaXaXaXaXaXaXaXaXaXaXaXaX1 : 9.l.b.M.j.Z.S.k.d.f.F.g.1 aXaXaXaXaXaXaXaXaXaXaXaXaXaXaXaXaXaXaXaXaXaXaXaXaXaXaXaXaX",
"aXaXaXaXaXaXaXaXaXaXaXaXaXaXaXaXaXaXaXaX< z t.z.H : # j j.D.m.x H G.9.: aXaXaXaXaXaXaXaXaXaXaXaXaXaXaXaXaXaXaXaXaXaXaXaXaXaXaXaX",
"aXaXaXaXaXaXaXaXaXaXaXaXaXaXaXaXaXaXaXaX3 C t.9.# y y . + s.S.m.w g.b.> aXaXaXaXaXaXaXaXaXaXaXaXaXaXaXaXaXaXaXaXaXaXaXaXaXaXaXaX",
"aXaXaXaXaXaXaXaXaXaXaXaXaXaXaXaXaXaXaXaX2 r.v.8.b / / x + X A F.A B f.0 aXaXaXaXaXaXaXaXaXaXaXaXaXaXaXaXaXaXaXaXaXaXaXaXaXaXaXaX",
"aXaXaXaXaXaXaXaXaXaXaXaXaXaXaXaXaXaXaXaX< v t.l.r./ w./ 4 + q d.S D w.4 aXaXaXaXaXaXaXaXaXaXaXaXaXaXaXaXaXaXaXaXaXaXaXaXaXaXaXaX",
"aXaXaXaXaXaXaXaXaXaXaXaXaXaXaXaXaXaXaXaXaX< n e.e.^ ^ z aXaXw 9.z 9.D 3 aXaXaXaXaXaXaXaXaXaXaXaXaXaXaXaXaXaXaXaXaXaXaXaXaXaXaXaX",
"aXaXaXaXaXaXaXaXaXaXaXaXaXaXaXaXaXaXaXaXaXaX< 8 z y 1 X > 5 w S v d.O . aXaXaXaXaXaXaXaXaXaXaXaXaXaXaXaXaXaXaXaXaXaXaXaXaXaXaXaX",
"aXaXaXaXaXaXaXaXaXaXaXaXaXaXaXaXaXaXaXaXaXaXaXaXaXaXt R R @ g ;   * ' _ l aXaXaXaXaXaXaXaXaXaXaXaXaXaXaXaX3.W.aXaXaXaXaXaXaXaXaX",
"aXaXaXaXaXaXaXaXaXaXaXaXaXaXaXaXaXaXaXaXaXaXaXaXaXo p 6X5XP.2XL.L.L.uXeXy X aXaXaXaXaXaXaXaXaXaXaXaXaXaX2.~.W.aXaXaXaXaXaXaXaXaX",
"aXaXaXaXaXaXaXaXaXaXaXaXaXaXaXaXaXaXaXaXaXaXaXaX, a p h U.uXyXtXqX0XOX>.! d * aXaXaXaXaXaXaXaXaXaXaXaX5.6XU.t aXaXaXaXaXaXaXaXaX",
"aXaXaXaXaXaXaXaXaXaXaXaXaXaXaXaXaXaXaXaXaXaXaXaX& E ;.-.oX=X*X#X&XeXwXqX;X2.3 aXaXaXaXaXaXaXaXaXaXaXd -XuXh.. aXaXaXaXaXaXaXaXaX",
"aXaXaXaXaXaXaXaXaXaXaXaXaXaXaXaXaXaXaXaXaXaXaX> 0  .;.~.oX*X>XwXwXyXuXuXwX;X! o aXaXaXaXaXaXaXaXaXd _ uXuX..O aXaXaXaXaXaXaXaXaX",
"aXaXaXaXaXaXaXaXaXaXaXaXaXaXaXaXaXaXaXaXaXaXaX* U *.;.~..X>X#XoXoX-X%Xx T.<X).4 aXaXaXaXaXaXaXaXaX&.4XuX8X] * aXaXaXaXaXaXaXaXaX",
"aXaXaXaXaXaXaXaXaXaXaXaXaXaXaXaXaXaXaXaXaXaXaX, m X.<.E.4.(.>X>X#X0XpXo f 8X6X# aXaXaXaXaXaXaXaXd %XuX%X}.$.- aXaXaXaXaXaXaXaXaX",
"aXaXaXaXaXaXaXaXaXaXaXaXaXaXaXaXaXaXaXaXaXaX, 0 { X.R.Q.R.R.(.|.*XuXiX, < |.9X` < aXaXaXaXaXaXaX7 iX9X.XoXP ; aXaXaXaXaXaXaXaXaX",
"aXaXaXaXaXaXaXaXaXaXaXaXaXaXaXaX1 - aXaXaXaX> r X.:.W.Q.Q.`.3. X,X0XiX0 o O.rXP.X aXaXaXaXaXaXX #.qX3.XX] X aXaXaXaXaXaXaXaXaXaX",
"aXaXaXaXaXaXaXaXaXaXaXaXaXaXaX; p U o aXaXaX> 0 ' *.R.R.>.-.<.(.oX0X3X: o a %.B * aXaXaXaXaXaX0 :X=XE.4.4 aXaXaXaXaXaXaXaXaXaXaX",
"aXaXaXaXaXaXaXaXaXaXaXaXaXaXaX; 4 &.@.> aXaX4 > 9 E =.Q.>.T * o > w # < 0 >   $ 0 aXaXaXaXaXX #.8X4.[.! o aXaXaXaXaXaXaXaXaXaXaX",
"aXaXaXaXaXaXaXaXaXaXaXaXaXaXaX8 ; O 3.Y.* aX4 * P *.<.'.'.=XK.Q 7 # $ < 7 = { $Xt ; aXaXaXaX0 :XQ :.(.4 aXaXaXaXaXaXaXaXaXaXaXaX",
"aXaXaXaXaXaXaXaXaXaXaXaXaXaXaX3 Z A * ,.4.0 & * 8 @.Y.=.<.E.+X<X$X:XuX( . d -XtX+.o aXaXaXX $.*Xd {.~ o aXaXaXaXaXaXaXaXaXaXaXaX",
"aXaXaXaXaXaXaXaXaXaXaXaXaXaXaX< S B.0.N | =.Q u X 0  .*.`.Q.1.W.,X9XuXH.  &.tXrX+.X aXaXaX0 <X` ! XX4 aXaXaXaXaXaXaXaXaXaXaXaXaX",
"aXaXaXaXaXaXaXaXaXaXaXaXaXaXaX< Z x.p.p.( X.1.>.-.L c T %.'.R.2.oX=XqX[   .X8X-XL ; w aXO +.$Xa Q.} & aXaXaXaXaXaXaXaXaXaXaXaXaX",
"aXaXaXaXaXaXaXaXaXaXaXaXaXaXaX< Z z.u.i.I.2.f q ` >.,XY X (.+XE.).>X1XU.P.-X7XK.  S F.j < ].a E XX8 aXaXaXaXaXaXaXaXaXaXaXaXaXaX",
"aXaXaXaXaXaXaXaXaXaXaXaXaXaXaX< Z p.f.p.H.}.(.:.K * >.@.X K } 1.-X1X*XtXuX-X+Xs j D J M | 1.o Y...o aXaXaXaXaXaXaXaXaXaXaXaXaXaX",
"aXaXaXaXaXaXaXaXaXaXaXaXaXaXaX< Z p.u.a./.;X|.`.-Xf ` $.& X X 2 ] $X7XqX8X-Xm . s.F.; $ R.a P ;.0 aXaXaXaXaXaXaXaXaXaXaXaXaXaXaX",
"aXaXaXaXaXaXaXaXaXaXaXaXaXaXaX< Z a.0.u.Z.$X XE.{.U ! ..& z 9 = . r E T.).p g C x V.N.x $ @ %.Y o + aXaXaXaXaXaXaXaXaXaXaXaXaXaX",
"aXaXaXaXaXaXaXaXaXaXaXaXaXaXaX> ! /.d.6.f.).oX|.`...} } & t.r.b l , . < $ - e.y.8 * 0.c.D h $ 3 C S w aXaXaXaXaXaXaXaXaXaXaXaXaX",
"aXaXaXaXaXaXaXaXaXaXaXaXaXaXaX- { }.T.I.f.E.].Q.(.%.:.} o H z.d.r.C z = 8 / t.C + i s g D y.C : q D w aXaXaXaXaXaXaXaXaXaXaXaXaX",
"aXaXaXaXaXaXaXaXaXaXaXaXaXaXaX; ! ].'.;X@Xh.1.5.^.=.Q.! o r.x.p.d.r.q.n ^ k.D @ 2 X.Y.} X 6 ^ C z # aXaXaXaXaXaXaXaXaXaXaXaXaXaX",
"aXaXaXaXaXaXaXaXaXaXaXaXaXaXaX& t Q.W.oX:Xv.u.J.[.{ ;.} * / t.k.x.z.p.t.k.D < = 0 %.'.+X;.r O v v 1 aXaXaXaXaXaXaXaXaXaXaXaXaXaX",
"aXaXaXaXaXaXaXaXaXaXaXaXaXaXaXaX* ;.+XW.).M.v.i.n.v { +.* C ^ D 7.8.r.9.Z < < 3 - E ^.+X;X] o < < aXaXaXaXaXaXaXaXaXaXaXaXaXaXaX",
"aXaXaXaXaXaXaXaXaXaXaXaXaXaXaXaXo a [.'.2.g.p.u.c.k f  .* 7 4 2 2 2 2 2 # 3 aXaX7 1 m ! ! u > aXaXaXaXaXaXaXaXaXaXaXaXaXaXaXaXaX",
"aXaXaXaXaXaXaXaXaXaXaXaXaXaXaXaXaX& d  X}.H.6.d.p.S W m ; 1 1 aXaX1 3 > aXaXaX< b F * o o 1 aXaXaXaXaXaXaXaXaXaXaXaXaXaXaXaXaXaX",
"aXaXaXaXaXaXaXaXaXaXaXaXaXaXaXaXaXaX& K {.(.d.p.J E I * 0 4 4 aXaX4 3 7 aXaXaXaXw b 0 aXaXaXaXaXaXaXaXaXaXaXaXaXaXaXaXaXaXaXaXaX",
"aXaXaXaXaXaXaXaXaXaXaXaXaXaXaXaXaXaXaXo f ].C.G 5 s ; aX4 3 4 aXaX3 0 3 aXaXaXaX2 : aXaXaXaXaXaXaXaXaXaXaXaXaXaXaXaXaXaXaXaXaXaX",
"aXaXaXaXaXaXaXaXaXaXaXaXaXaXaXaXaXaXaXaXo T H L I * aX7 4 3 7 aX4 4 3 3 aXaXaXaXaXaXaXaXaXaXaXaXaXaXaXaXaXaXaXaXaXaXaXaXaXaXaXaX",
"aXaXaXaXaXaXaXaXaXaXaXaXaXaXaXaXaXaXaXaXaX, O d p aXaXaXaXaXaXaXaXaXaXaXaXaXaXaXaXaXaXaXaXaXaXaXaXaXaXaXaXaXaXaXaXaXaXaXaXaXaXaX",
"aXaXaXaXaXaXaXaXaXaXaXaXaXaXaXaXaXaXaXaXaXaX4 , aXaXaXaXaXaXaXaXaXaXaXaXaXaXaXaXaXaXaXaXaXaXaXaXaXaXaXaXaXaXaXaXaXaXaXaXaXaXaXaX",
"aXaXaXaXaXaXaXaXaXaXaXaXaXaXaXaXaXaXaXaXaXaXaXaXaXaXaXaXaXaXaXaXaXaXaXaXaXaXaXaXaXaXaXaXaXaXaXaXaXaXaXaXaXaXaXaXaXaXaXaXaXaXaXaX",
"aXaXaXaXaXaXaXaXaXaXaXaXaXaXaXaXaXaXaXaXaXaXaXaXaXaXaXaXaXaXaXaXaXaXaXaXaXaXaXaXaXaXaXaXaXaXaXaXaXaXaXaXaXaXaXaXaXaXaXaXaXaXaXaX",
"aXaXaXaXaXaXaXaXaXaXaXaXaXaXaXaXaXaXaXaXaXaXaXaXaXaXaXaXaXaXaXaXaXaXaXaXaXaXaXaXaXaXaXaXaXaXaXaXaXaXaXaXaXaXaXaXaXaXaXaXaXaXaXaX",
"aXaXaXaXaXaXaXaXaXaXaXaXaXaXaXaXaXaXaXaXaXaXaXaXaXaXaXaXaXaXaXaXaXaXaXaXaXaXaXaXaXaXaXaXaXaXaXaXaXaXaXaXaXaXaXaXaXaXaXaXaXaXaXaX",
"aXaXaXaXaXaXaXaXaXaXaXaXaXaXaXaXaXaXaXaXaXaXaXaXaXaXaXaXaXaXaXaXaXaXaXaXaXaXaXaXaXaXaXaXaXaXaXaXaXaXaXaXaXaXaXaXaXaXaXaXaXaXaXaX",
"aXaXaXaXaXaXaXaXaXaXaXaXaXaXaXaXaXaXaXaXaXaXaXaXaXaXaXaXaXaXaXaXaXaXaXaXaXaXaXaXaXaXaXaXaXaXaXaXaXaXaXaXaXaXaXaXaXaXaXaXaXaXaXaX",
"aXaXaXaXaXaXaXaXaXaXaXaXaXaXaXaXaXaXaXaXaXaXaXaXaXaXaXaXaXaXaXaXaXaXaXaXaXaXaXaXaXaXaXaXaXaXaXaXaXaXaXaXaXaXaXaXaXaXaXaXaXaXaXaX",
"aXaXaXaXaXaXaXaXaXaXaXaXaXaXaXaXaXaXaXaXaXaXaXaXaXaXaXaXaXaXaXaXaXaXaXaXaXaXaXaXaXaXaXaXaXaXaXaXaXaXaXaXaXaXaXaXaXaXaXaXaXaXaXaX",
"aXaXaXaXaXaXaXaXaXaXaXaXaXaXaXaXaXaXaXaXaXaXaXaXaXaXaXaXaXaXaXaXaXaXaXaXaXaXaXaXaXaXaXaXaXaXaXaXaXaXaXaXaXaXaXaXaXaXaXaXaXaXaXaX",
"aXaXaXaXaXaXaXaXaXaXaXaXaXaXaXaXaXaXaXaXaXaXaXaXaXaXaXaXaXaXaXaXaXaXaXaXaXaXaXaXaXaXaXaXaXaXaXaXaXaXaXaXaXaXaXaXaXaXaXaXaXaXaXaX",
"aXaXaXaXaXaXaXaXaXaXaXaXaXaXaXaXaXaXaXaXaXaXaXaXaXaXaXaXaXaXaXaXaXaXaXaXaXaXaXaXaXaXaXaXaXaXaXaXaXaXaXaXaXaXaXaXaXaXaXaXaXaXaXaX",
"aXaXaXaXaXaXaXaXaXaXaXaXaXaXaXaXaXaXaXaXaXaXaXaXaXaXaXaXaXaXaXaXaXaXaXaXaXaXaXaXaXaXaXaXaXaXaXaXaXaXaXaXaXaXaXaXaXaXaXaXaXaXaXaX",
"aXaXaXaXaXaXaXaXaXaXaXaXaXaXaXaXaXaXaXaXaXaXaXaXaXaXaXaXaXaXaXaXaXaXaXaXaXaXaXaXaXaXaXaXaXaXaXaXaXaXaXaXaXaXaXaXaXaXaXaXaXaXaXaX",
"aXaXaXaXaXaXaXaXaXaXaXaXaXaXaXaXaXaXaXaXaXaXaXaXaXaXaXaXaXaXaXaXaXaXaXaXaXaXaXaXaXaXaXaXaXaXaXaXaXaXaXaXaXaXaXaXaXaXaXaXaXaXaXaX"
};
