/* XPM */
static char *result[] = {
/* columns rows colors chars-per-pixel */
"64 64 227 2 ",
"   c black",
".  c #02000C",
"X  c #010014",
"o  c #090016",
"O  c #00011B",
"+  c #050B1D",
"@  c #0C0B1A",
"#  c #0D031B",
"$  c #110C1F",
"%  c #0C101E",
"&  c #14141D",
"*  c #000422",
"=  c #020B24",
"-  c #0C0E23",
";  c #050B28",
":  c #071127",
">  c #0E1223",
",  c #0D152A",
"<  c #0A152D",
"1  c #121425",
"2  c #131629",
"3  c #151B2D",
"4  c #181A2C",
"5  c #1C1B26",
"6  c #151C30",
"7  c #191D31",
"8  c #171734",
"9  c #081230",
"0  c #211E39",
"q  c #1B2133",
"w  c #1C243B",
"e  c #1D2D3D",
"r  c #182335",
"t  c #1F242D",
"y  c #20223C",
"u  c #292A36",
"i  c #33333D",
"p  c #3A3539",
"a  c #262A34",
"s  c #44383A",
"d  c #593F38",
"f  c #5C4A37",
"g  c #0D1946",
"h  c #1C2A45",
"j  c #1F3549",
"k  c #0D3355",
"l  c #252C48",
"z  c #27344D",
"x  c #3A3742",
"c  c #2C3553",
"v  c #2C3955",
"b  c #2C3958",
"n  c #36375C",
"m  c #3E3A65",
"M  c #433C42",
"N  c #1B405C",
"B  c #264658",
"V  c #2B515B",
"C  c #364148",
"Z  c #194E67",
"A  c #294B60",
"S  c #3A466A",
"D  c #2A5163",
"F  c #295466",
"G  c #335868",
"H  c #3F4B72",
"J  c #395775",
"K  c #1E617B",
"L  c #296074",
"P  c #366979",
"I  c #3A6D72",
"U  c #4B4343",
"Y  c #484245",
"T  c #564947",
"R  c #58534D",
"E  c #555754",
"W  c #524E51",
"Q  c #65544A",
"!  c #695A55",
"~  c #72554D",
"^  c #776758",
"/  c #63655E",
"(  c #414B74",
")  c #454B78",
"_  c #44537C",
"`  c #425077",
"'  c #595F70",
"]  c #736F62",
"[  c #7D6E60",
"{  c #7C7665",
"}  c #6F6F71",
"|  c #4E6974",
" . c #826C58",
".. c #86765E",
"X. c #866D63",
"o. c #897662",
"O. c #977A68",
"+. c #B1905F",
"@. c #9A8668",
"#. c #8C8970",
"$. c #A5896A",
"%. c #A5916F",
"&. c #A88A72",
"*. c #B38E76",
"=. c #AC9472",
"-. c #AB987A",
";. c #B39675",
":. c #B79B78",
">. c #B9996A",
",. c #BCA479",
"<. c #AFA07C",
"1. c #C39D74",
"2. c #C6A67C",
"3. c #C9A677",
"4. c #D4AD78",
"5. c #D9B27B",
"6. c #CFB07E",
"7. c #F0BB7D",
"8. c #197497",
"9. c #3E6B86",
"0. c #3C758C",
"q. c #317992",
"w. c #495481",
"e. c #475B84",
"r. c #456A8B",
"t. c #476589",
"y. c #41728E",
"u. c #447492",
"i. c #516393",
"p. c #3D8C9C",
"a. c #3D8599",
"s. c #3E919F",
"d. c #2A8AA2",
"f. c #3995A7",
"g. c #328EA9",
"h. c #468687",
"j. c #44849D",
"k. c #418797",
"l. c #44929E",
"z. c #4C918C",
"x. c #6F928E",
"c. c #448DA2",
"v. c #4887A1",
"b. c #4292A3",
"n. c #4495A9",
"m. c #489BA7",
"M. c #439BB0",
"N. c #5093A8",
"B. c #44A7AD",
"V. c #55A9A8",
"C. c #59B2AD",
"Z. c #5DBEBB",
"A. c #59B7B2",
"S. c #4EA9B4",
"D. c #60ACB4",
"F. c #5EC0B9",
"G. c #67C7B8",
"H. c #50B0C1",
"J. c #66CDC2",
"K. c #64CBC1",
"L. c #6AD6C8",
"P. c #69D8D8",
"I. c #72E7D7",
"U. c #8C978E",
"Y. c #8FA896",
"T. c #B4B595",
"R. c #8F95A9",
"E. c #A39FA9",
"W. c #96ACA6",
"Q. c #B2B4B1",
"!. c #CBA783",
"~. c #CAB487",
"^. c #D4B382",
"/. c #DCBA85",
"(. c #DBB988",
"). c #C5BA9A",
"_. c #D1AA85",
"`. c #E3BE86",
"'. c #E8BF86",
"]. c #A1CCAC",
"[. c #DDC18E",
"{. c #D9C794",
"}. c #DED39E",
"|. c #EBC48A",
" X c #EDCA8E",
".X c #E7C388",
"XX c #F7CC8D",
"oX c #FED38C",
"OX c #E4CC95",
"+X c #EACD95",
"@X c #E2CF99",
"#X c #F4CD90",
"$X c #E9D69B",
"%X c #FCD494",
"&X c #F7D999",
"*X c #FFE09C",
"=X c #D5D9AF",
"-X c #ECDDA5",
";X c #E5D7A5",
":X c #EDD9B4",
">X c #F6DFA4",
",X c #EFE0A9",
"<X c #F3E2A4",
"1X c #FAE9A9",
"2X c #FFF4AC",
"3X c #EBE7B8",
"4X c #F4E8B4",
"5X c #FFF3B3",
"6X c #FFFCBD",
"7X c #FFF3B9",
"8X c #9DA6C5",
"9X c #BCC1D1",
"0X c #ECDEC5",
"qX c #F7EAC5",
"wX c #FFFEC3",
"eX c #FFFEC9",
"rX c #FFF3C0",
"tX c #EBE8DA",
"yX c #FFFBD4",
"uX c #FFFFDD",
"iX c #F9F3D7",
"pX c #FFFFE4",
"aX c #FBFCEA",
"sX c #FEFFFF",
"dX c #FBFAF3",
"fX c #EEECE3",
"gX c None",
/* pixels */
"gXgXgXgXgXgXgXgXgXgXgXgXgXgXgXgXgXgXgXgXgXgXgXgXgXgXgXgXgXgXgXgXgXgXgXgXgXgXgXgXgXgXgXgXgXgXgXgXgXgXgXgXgXgXgXgXgXgXgXgXgXgXgXgX",
"gXgXgXgXgXgXgXgXgXgXgXgXgXgXgXgXgXgXgXgXgXgXgXgXgXgXgXgXgXgXgXgXgXgXgXgXgXgXgXgXgXgXgXgXgXgXgXgXgXgXgXgXgXgXgXgXgXgXgXgXgXgXgXgX",
"gXgXgXgXgXgXgXgXgXgXgXgXgXgXgXgXgXgXgXgXgXgXgXgXgXgXgXgXgXgXgXgXgXgXgXgXgXgXgXgXgXgXgXgXgXgXgXgXgXgXgXgXgXgXgXgXgXgXgXgXgXgXgXgX",
"gXgXgXgXgXgXgXgXgXgXgXgXgXgXgXgXgXgXgXgXgXgXgXgXgXgXgXgXgXgXgXgXgXgXgXgXgXgXgXgXgXgXgXgXgXgXgXgXgXgXgXgXgXgXgXgXgXgXgXgXgXgXgXgX",
"gXgXgXgXgXgXgXgXgXgXgXgXgXgXgXgXgXgXgXgXgXgXgXgXgXgXgXgXgXgXgXgXgXgXgXgXgXgXgXgXgXgXgXgXgXgXgXgXgXgXgXgXgXgXgXgXgXgXgXgXgXgXgXgX",
"gXgXgXgXgXgXgXgXgXgXgXgXgXgXgXgXgXgXgXgXgXgXgXgX2 B B o o gXgXgXgXgXgXgXgXgXgXgXgXgXgXgXgXgXgXgXgXgXgXgXgXgXgXgXgXgXgXgXgXgXgXgX",
"gXgXgXgXgXgXgXgXgXgXgXgXgXgXgXgXgXgXgXgXgXgX2 @ 2 k.V.I I a - gXgXgXgXgXgXgXgXgXgXgXgXgXgXgXgXgXgXgXgXgXgXgXgXgXgXgXgXgXgXgXgXgX",
"gXgXgXgXgXgXgXgXgXgXgXgXgXgXgXgXgXgXgXgXgX2 8 D k.m.A.J.S.C.z.B 2 gXgXgXgXgXgXgXgXgXgXgXgXgXgXgXgXgXgXgXgXgXgXgXgXgXgXgXgXgXgXgX",
"gXgXgXgXgXgXgXgXgXgXgXgXgXgXgXgXgXgXgXgX2 2 G M.B.C.C.C.l.C.L.L.h.< gXgXgXgXgXgXgXgXgXgXgXgXgXgXgXgXgXgXgXgXgXgXgXgXgXgXgXgXgXgX",
"gXgXgXgXgXgXgXgXgXgXgXgXgXgXgXgXgXgXgXgX1 B c.p.b.G.L.G.F.l.m.G.K.P - gXgXgXgXgXgXgXgXgXgXgXgXgXgXgXgXgXgXgXgXgXgXgXgXgXgXgXgXgX",
"gXgXgXgXgXgXgXgXgXgXgXgXgXgXgXgXgXgXgX1 y _ j.l.L V G h.G.G.h.h.L.V.w gXgXgXgXgXgXgXgXgXgXgXgXgXgXgXgXgXgXgXgXgXgXgXgXgXgXgXgXgX",
"gXgXgXgXgXgXgXgXgXgXgXgXgXgXgXgXgXgXgX1 c j.b.B $ # . o B G.L.B I I.P 1 gXgXgXgXgXgXgXgXgXgXgXgXgXgXgXgXgXgXgXgXgXgXgXgXgXgXgXgX",
"gXgXgXgXgXgXgXgXgXgXgXgXgXgXgXgXgXgXgX> c v.p.J S _ S 2 . B Z.A.r z.C.< gXgXgXgXgXgXgXgXgXgXgXgXgXgXgXgXgXgXgXgXgXgXgXgXgXgXgXgX",
"gXgXgXgXgXgXgXgXgXgXgXgXgXgXgXgXgXgXgXgX4 ( v.u.) _ i.c & . B P.V B N.7 gXgXgXgXgXgXgXgXgXgXgXgXgXgXgXgXgXgXgXgXgXgXgXgXgXgXgXgX",
"gXgXgXgXgXgXgXgXgXgXgXgXgXgXgXgXgXgXgXgX2 w S J H H c 3 3 1 y j.G P t.w gXgXgXgXgXgXgXgXgXgXgXgXgXgXgXgXgXgXgXgXgXgXgXgXgXgXgXgX",
"gXgXgXgXgXgXgXgXgXgXgXgXgXgXgXgXgXgXgXgXgX1 2 7 q 3 1 gXgX1 r q.l 9.z gXgXgXgXgXgXgXgXgXgXgXgXgXgXgXgXgXgXgXgX4.|.gXgXgXgXgXgXgX",
"gXgXgXgXgXgXgXgXgXgXgXgXgXgXgXgXgXgXgXgXgXgXgXgX4 gXgXgX2 2 h G B P . gXgXgXgXgXgXgXgXgXgXgXgXgXgXgXgXgXgXgX5.$XU.gXgXgXgXgXgXgX",
"gXgXgXgXgXgXgXgXgXgXgXgXgXgXgXgXgXgXgXgXgXgXgXgXgXgXu Q Q @ g @   + [ } l gXgXgXgXgXgXgXgXgXgXgXgXgXgXgXgX+.4XsXu gXgXgXgXgXgXgX",
"gXgXgXgXgXgXgXgXgXgXgXgXgXgXgXgXgXgXgXgXgXgXgXgXgXO x 4X0XR.8XR.R.R.sXtXy . gXgXgXgXgXgXgXgXgXgXgXgXgXgX& ).sXtX5 gXgXgXgXgXgXgX",
"gXgXgXgXgXgXgXgXgXgXgXgXgXgXgXgXgXgXgXgXgXgXgXgX: p x h ).sXsXaXuXeX<X<.^ Y : gXgXgXgXgXgXgXgXgXgXgXgX>.R sXsX;Xt gXgXgXgXgXgXgX",
"gXgXgXgXgXgXgXgXgXgXgXgXgXgXgXgXgXgXgXgXgXgXgXgX* ! *.;.}.<X,X-X:XqXfXuX2X5.2 gXgXgXgXgXgXgXgXgXgXgXgX3.qXsX-X@Xi gXgXgXgXgXgXgX",
"gXgXgXgXgXgXgXgXgXgXgXgXgXgXgXgXgXgXgXgXgXgXgX, 0 X.*.`.$X4X4XiXiXsXsXsXiX1X^ O gXgXgXgXgXgXgXgXgXgX. } sX0X.X$Xa gXgXgXgXgXgXgX",
"gXgXgXgXgXgXgXgXgXgXgXgXgXgXgXgXgXgXgXgXgXgXgX= R &.:.5.OX4X,X$X$X1X=Xx ~.wX{.4 gXgXgXgXgXgXgXgXgXgX. Q.pX4.$XE * gXgXgXgXgXgXgX",
"gXgXgXgXgXgXgXgXgXgXgXgXgX2 - gXgXgXgXgXgXgXgX: x $.2./.^.[.4X4X<XiXfX* f wXqX% gXgXgXgXgXgXgXgXgXO W eXOX|.=.X gXgXgXgXgXgXgXgX",
"gXgXgXgXgXgXgXgXgXgXgXgX: i R O gXgXgXgXgXgX, a ^ O.(.(.6.^.[.OX,XsXdX9 > OXqX] > gXgXgXgXgXgXgXgXO ).wX6. XU O gXgXgXgXgXgXgXgX",
"gXgXgXgXgXgXgXgXgXgXgXgX: 4 =.@., gXgXgXgXgX, q O.:.(.(./.'.5.+X7XyXaXw X +.aXE.X gXgXgXgXgXgXgXO E 3X=.oX=.* gXgXgXgXgXgXgXgXgX",
"gXgXgXgXgXgXgXgXgXgXgXgX7 : # 6.6.= * gXgXgX, a [ &.^.^.,.%.3.{.$XyX9X, O p %.C = gXgXgXgXgXgXgXO ;X#.s 1Xs * gXgXgXgXgXgXgXgXgX",
"gXgXgXgXgXgXgXgXgXgXgXgX3 G Z = 1.6.q * gXgX4 3 7 ! *.(.2.W ; O 3 r % > q : . & 6 gXgXgXgXgXgXO E wXR 3.:.* gXgXgXgXgXgXgXgXgXgX",
"gXgXgXgXgXgXgXgXgXgXgXgX1 F H.q.B @.&.! u * = O M *.:. X.X,XT.E 6 > 1 - 6 @ [ ;Xi : gXgXo gXgXX ).).s oXU * gXgXgXgXgXgXgXgXgXgX",
"gXgXgXgXgXgXgXgXgXgXgXgX1 D n.b.p.| @.,.,.-.R 3 8 [ !.*.2.(.&XwX;X:XsX' . s 1XaX{ gXgX3 h.V X T @Xe 2.2.* gXgXgXgXgXgXgXgXgXgXgX",
"gXgXgXgXgXgXgXgXgXgXgXgX1 D n.k.d.Y.4.f u ] <.6X] O O.O.!./.3.`.5X7XsXU.  $.aXpX#.gXgXe V.S.* 3.^ 1 *XU * gXgXgXgXgXgXgXgXgXgXgX",
"gXgXgXgXgXgXgXgXgXgXgXgX1 D n.l.f.U.oX[.:.U O <.@.O X.:. X/.^.6.;X,XuX}   OXwX2XT X e V.j = { +X- X.=.= gXgXgXgXgXgXgXgXgXgXgXgX",
"gXgXgXgXgXgXgXgXgXgXgXgX1 F m.q.s.].2XOX'.1XM ] @.O 4 Y @.#X%X5.OX,X7XQ.E.4XwXT.* gX3 F.Z.9 f f l !.u X gXgXgXgXgXgXgXgXgXgXgXgX",
"gXgXgXgXgXgXgXgXgXgXgXgX1 F g.d.p.G.;X$X/.#XQ ^ @.; h O O U o.3.1X6X,XdXsX2XoXp O gXgXz f.S.b O p T w l r gXgXgXgXgXgXgXgXgXgXgX",
"gXgXgXgXgXgXgXgXgXgXgXgX1 ^ T.p.8.s.[.$X@X'.X...o.* b m 6 X X 4 o.;XwXyXeX1Xp ; 3 gXgX# 2 Z a.i.h + w r.D @ gXgXgXgXgXgXgXgXgXgX",
"gXgXgXgXgXgXgXgXgXgXgXgX;  .oX^.W.l./..X(./.$.;...O b _ H c 7 = . t ! ~.{.i g H 3 gX: M o.d < k e.H 7 w q gXgXgXgXgXgXgXgXgXgXgX",
"gXgXgXgXgXgXgXgXgXgXgXgX= ^  X|.2X=Xx.,.'.|.*.^.^ = ` y.t.r._ n l > . 2 % : r.r.l 2 = R _.%X@.+ 8 c H w > gXgXgXgXgXgXgXgXgXgXgX",
"gXgXgXgXgXgXgXgXgXgXgXgX; u /.(.$X4XB.s.U. X .;...= ( y.9.y.s.y.w.( c : 8 _ n.e.3 gX= Y (.%X%X^.4 = q 3 gXgXgXgXgXgXgXgXgXgXgXgX",
"gXgXgXgXgXgXgXgXgXgXgXgXgX= ;.#X[.{.F.B.d.C.C ~ O.O S _ J r.p.s.a.r.w.m ( c.u.0 2 gX2 = ^ :.(.=., gXgXgXgXgXgXgXgXgXgXgXgXgXgXgX",
"gXgXgXgXgXgXgXgXgXgXgXgXgX* p #X.X5.z.s.p.f.k Q o.O q ( ) 9.s.l.l.f.0.t.c.k.l @ gXgXw z 8 2 a 2 2 gXgXgXgXgXgXgXgXgXgXgXgXgXgXgX",
"gXgXgXgXgXgXgXgXgXgXgXgXgXgX* M  XoXU.8.k.M.G ^ x : 1 v _ w.t.j.b.l.n.M.k.w # 7 gXgX3 ` c + gXgXgXgXgXgXgXgXgXgXgXgXgXgXgXgXgXgX",
"gXgXgXgXgXgXgXgXgXgXgXgXgXgXgXO f oX[.a.f.L ~ U = 7 3 1 l b l c c c v v 4 1 3 gXgXgX3 3 q gXgXgXgXgXgXgXgXgXgXgXgXgXgXgXgXgXgXgX",
"gXgXgXgXgXgXgXgXgXgXgXgXgXgXgXgXO U |.D.K 5 u : gXgXq 3 1 > 1 > @ 1 & @ 3 3 3 gXgXgXgXgXgXgXgXgXgXgXgXgXgXgXgXgXgXgXgXgXgXgXgXgX",
"gXgXgXgXgXgXgXgXgXgXgXgXgXgXgXgXgXO W P M T = gXgXgXgX3 3 3 gXgXgXgXgX6 3 3 7 gXgXgXgXgXgXgXgXgXgXgXgXgXgXgXgXgXgXgXgXgXgXgXgXgX",
"gXgXgXgXgXgXgXgXgXgXgXgXgXgXgXgXgXgX- = s i gXgXgXgXgXgX3 3 gXgXgXgX6 3 3 7 3 gXgXgXgXgXgXgXgXgXgXgXgXgXgXgXgXgXgXgXgXgXgXgXgXgX",
"gXgXgXgXgXgXgXgXgXgXgXgXgXgXgXgXgXgXgX4 1 gXgXgXgXgXgXgXgX3 q 3 gXgXgXgX3 gXgXgXgXgXgXgXgXgXgXgXgXgXgXgXgXgXgXgXgXgXgXgXgXgXgXgX",
"gXgXgXgXgXgXgXgXgXgXgXgXgXgXgXgXgXgXgXgXgXgXgXgXgXgXgXgXgX3 3 3 gXgXgXgXgXgXgXgXgXgXgXgXgXgXgXgXgXgXgXgXgXgXgXgXgXgXgXgXgXgXgXgX",
"gXgXgXgXgXgXgXgXgXgXgXgXgXgXgXgXgXgXgXgXgXgXgXgXgXgXgXgXgXgX3 gXgXgXgXgXgXgXgXgXgXgXgXgXgXgXgXgXgXgXgXgXgXgXgXgXgXgXgXgXgXgXgXgX",
"gXgXgXgXgXgXgXgXgXgXgXgXgXgXgXgXgXgXgXgXgXgXgXgXgXgXgXgXgXgXgXgXgXgXgXgXgXgXgXgXgXgXgXgXgXgXgXgXgXgXgXgXgXgXgXgXgXgXgXgXgXgXgXgX",
"gXgXgXgXgXgXgXgXgXgXgXgXgXgXgXgXgXgXgXgXgXgXgXgXgXgXgXgXgXgXgXgXgXgXgXgXgXgXgXgXgXgXgXgXgXgXgXgXgXgXgXgXgXgXgXgXgXgXgXgXgXgXgXgX",
"gXgXgXgXgXgXgXgXgXgXgXgXgXgXgXgXgXgXgXgXgXgXgXgXgXgXgXgXgXgXgXgXgXgXgXgXgXgXgXgXgXgXgXgXgXgXgXgXgXgXgXgXgXgXgXgXgXgXgXgXgXgXgXgX",
"gXgXgXgXgXgXgXgXgXgXgXgXgXgXgXgXgXgXgXgXgXgXgXgXgXgXgXgXgXgXgXgXgXgXgXgXgXgXgXgXgXgXgXgXgXgXgXgXgXgXgXgXgXgXgXgXgXgXgXgXgXgXgXgX",
"gXgXgXgXgXgXgXgXgXgXgXgXgXgXgXgXgXgXgXgXgXgXgXgXgXgXgXgXgXgXgXgXgXgXgXgXgXgXgXgXgXgXgXgXgXgXgXgXgXgXgXgXgXgXgXgXgXgXgXgXgXgXgXgX",
"gXgXgXgXgXgXgXgXgXgXgXgXgXgXgXgXgXgXgXgXgXgXgXgXgXgXgXgXgXgXgXgXgXgXgXgXgXgXgXgXgXgXgXgXgXgXgXgXgXgXgXgXgXgXgXgXgXgXgXgXgXgXgXgX",
"gXgXgXgXgXgXgXgXgXgXgXgXgXgXgXgXgXgXgXgXgXgXgXgXgXgXgXgXgXgXgXgXgXgXgXgXgXgXgXgXgXgXgXgXgXgXgXgXgXgXgXgXgXgXgXgXgXgXgXgXgXgXgXgX",
"gXgXgXgXgXgXgXgXgXgXgXgXgXgXgXgXgXgXgXgXgXgXgXgXgXgXgXgXgXgXgXgXgXgXgXgXgXgXgXgXgXgXgXgXgXgXgXgXgXgXgXgXgXgXgXgXgXgXgXgXgXgXgXgX",
"gXgXgXgXgXgXgXgXgXgXgXgXgXgXgXgXgXgXgXgXgXgXgXgXgXgXgXgXgXgXgXgXgXgXgXgXgXgXgXgXgXgXgXgXgXgXgXgXgXgXgXgXgXgXgXgXgXgXgXgXgXgXgXgX",
"gXgXgXgXgXgXgXgXgXgXgXgXgXgXgXgXgXgXgXgXgXgXgXgXgXgXgXgXgXgXgXgXgXgXgXgXgXgXgXgXgXgXgXgXgXgXgXgXgXgXgXgXgXgXgXgXgXgXgXgXgXgXgXgX",
"gXgXgXgXgXgXgXgXgXgXgXgXgXgXgXgXgXgXgXgXgXgXgXgXgXgXgXgXgXgXgXgXgXgXgXgXgXgXgXgXgXgXgXgXgXgXgXgXgXgXgXgXgXgXgXgXgXgXgXgXgXgXgXgX",
"gXgXgXgXgXgXgXgXgXgXgXgXgXgXgXgXgXgXgXgXgXgXgXgXgXgXgXgXgXgXgXgXgXgXgXgXgXgXgXgXgXgXgXgXgXgXgXgXgXgXgXgXgXgXgXgXgXgXgXgXgXgXgXgX",
"gXgXgXgXgXgXgXgXgXgXgXgXgXgXgXgXgXgXgXgXgXgXgXgXgXgXgXgXgXgXgXgXgXgXgXgXgXgXgXgXgXgXgXgXgXgXgXgXgXgXgXgXgXgXgXgXgXgXgXgXgXgXgXgX",
"gXgXgXgXgXgXgXgXgXgXgXgXgXgXgXgXgXgXgXgXgXgXgXgXgXgXgXgXgXgXgXgXgXgXgXgXgXgXgXgXgXgXgXgXgXgXgXgXgXgXgXgXgXgXgXgXgXgXgXgXgXgXgXgX",
"gXgXgXgXgXgXgXgXgXgXgXgXgXgXgXgXgXgXgXgXgXgXgXgXgXgXgXgXgXgXgXgXgXgXgXgXgXgXgXgXgXgXgXgXgXgXgXgXgXgXgXgXgXgXgXgXgXgXgXgXgXgXgXgX",
"gXgXgXgXgXgXgXgXgXgXgXgXgXgXgXgXgXgXgXgXgXgXgXgXgXgXgXgXgXgXgXgXgXgXgXgXgXgXgXgXgXgXgXgXgXgXgXgXgXgXgXgXgXgXgXgXgXgXgXgXgXgXgXgX"
};
