/* XPM */
static char *result[] = {
/* columns rows colors chars-per-pixel */
"64 64 223 2 ",
"   c #000002",
".  c #01000C",
"X  c #000114",
"o  c #00021B",
"O  c #0B051A",
"+  c #0E0C1D",
"@  c #090717",
"#  c #130C1C",
"$  c #161113",
"%  c #000320",
"&  c #030B23",
"*  c #0C0C22",
"=  c #020C2C",
"-  c #0C1124",
";  c #0B142A",
":  c #061027",
">  c #111424",
",  c #12162A",
"<  c #18152B",
"1  c #151B2D",
"2  c #191D2D",
"3  c #071635",
"4  c #141D32",
"5  c #181F31",
"6  c #110F32",
"7  c #221E3C",
"8  c #1B2233",
"9  c #19273A",
"0  c #1C202F",
"q  c #2C2327",
"w  c #2B2A35",
"e  c #242739",
"r  c #363035",
"t  c #433A3D",
"y  c #473735",
"u  c #412C30",
"i  c #58403C",
"p  c #63543A",
"a  c #182B45",
"s  c #1E3345",
"d  c #1D3B4D",
"f  c #0D3451",
"g  c #242D47",
"h  c #282C46",
"j  c #29324E",
"k  c #233747",
"l  c #353744",
"z  c #2B3654",
"x  c #323659",
"c  c #313E63",
"v  c #443E43",
"b  c #0B435F",
"n  c #294858",
"m  c #314950",
"M  c #194B64",
"N  c #3C446A",
"B  c #384363",
"V  c #2A5163",
"C  c #2B5C6D",
"Z  c #32586C",
"A  c #3C4C72",
"S  c #3A5977",
"D  c #2C4A60",
"F  c #346877",
"G  c #3B7479",
"H  c #2F626E",
"J  c #494244",
"K  c #49484A",
"L  c #554D4C",
"P  c #554744",
"I  c #5B534C",
"U  c #555655",
"Y  c #4A5258",
"T  c #694E45",
"R  c #66574C",
"E  c #6D5D56",
"W  c #745E52",
"Q  c #725D4A",
"!  c #686155",
"~  c #7C6C5A",
"^  c #75665B",
"/  c #7D745C",
"(  c #72614E",
")  c #454A77",
"_  c #43537B",
"`  c #565D68",
"'  c #777361",
"]  c #7A7B78",
"[  c #6F6C66",
"{  c #845F53",
"}  c #87755E",
"|  c #957C5A",
" . c #856D56",
".. c #886C63",
"X. c #897C66",
"o. c #997D6A",
"O. c #9F7F70",
"+. c #9C815D",
"@. c #8A846C",
"#. c #9C826D",
"$. c #9A8569",
"%. c #868776",
"&. c #9A967A",
"*. c #9F8271",
"=. c #A38C6B",
"-. c #AC926F",
";. c #A78872",
":. c #A89773",
">. c #B79A77",
",. c #B49273",
"<. c #C6A47D",
"1. c #CAAA7E",
"2. c #D1AE7C",
"3. c #DAB37D",
"4. c #D4B27E",
"5. c #C4A06B",
"6. c #EDB778",
"7. c #F0B476",
"8. c #1F799A",
"9. c #246C86",
"0. c #3C6C85",
"q. c #396A82",
"w. c #397488",
"e. c #307E96",
"r. c #495A84",
"t. c #495783",
"y. c #446588",
"u. c #487796",
"i. c #437390",
"p. c #787D87",
"a. c #29819D",
"s. c #3C8296",
"d. c #3A879A",
"f. c #3B919F",
"g. c #3E818A",
"h. c #2C8BA4",
"j. c #3993A4",
"k. c #2E97AD",
"l. c #478A8A",
"z. c #43889A",
"x. c #46919C",
"c. c #4E989B",
"v. c #7A958D",
"b. c #4888A2",
"n. c #4192A3",
"m. c #4B9CA1",
"M. c #4496A9",
"N. c #439AAA",
"B. c #4596A9",
"V. c #569CA3",
"C. c #489EB2",
"Z. c #55A8A7",
"A. c #5BB5AE",
"S. c #59B0A9",
"D. c #4AA7B7",
"F. c #58B5B1",
"G. c #51A9B1",
"H. c #63C5B9",
"J. c #66CDC2",
"K. c #6AD5C8",
"L. c #71E9DA",
"P. c #6EE9E0",
"I. c #8E9391",
"U. c #8BA294",
"Y. c #B4AA87",
"T. c #A7BB9E",
"R. c #B6B191",
"E. c #969CAC",
"W. c #85BEAB",
"Q. c #CDAC82",
"!. c #CDB283",
"~. c #D5B482",
"^. c #DBBB85",
"/. c #DBBA88",
"(. c #CBAB90",
"). c #E3BE88",
"_. c #8CD2B7",
"`. c #DBC48D",
"'. c #C9C69C",
"]. c #DBC795",
"[. c #E4C38A",
"{. c #EDC68B",
"}. c #EDC989",
"|. c #F4C788",
" X c #E3CB94",
".X c #E5CC96",
"XX c #F3CD91",
"oX c #FACF91",
"OX c #EED99C",
"+X c #FCD493",
"@X c #FAD897",
"#X c #FFE29B",
"$X c #DBC7A1",
"%X c #DCCEB9",
"&X c #CDCDA4",
"*X c #ECDDA3",
"=X c #EADBA5",
"-X c #F2DCA4",
";X c #E8D4AF",
":X c #EBE0A7",
">X c #F8E7A9",
",X c #EAEAB1",
"<X c #F2E3B3",
"1X c #F8E8B5",
"2X c #FFFFBC",
"3X c #FCF6B8",
"4X c #DDD5CC",
"5X c #EAE5CA",
"6X c #F5ECC8",
"7X c #FFFFC5",
"8X c #FFFECD",
"9X c #FDF4CC",
"0X c #EBE3D9",
"qX c #FFFFD4",
"wX c #EDEBE8",
"eX c #FEFEE2",
"rX c #FFFFEA",
"tX c #F1F0E1",
"yX c #FFFFF5",
"uX c #FFFFFE",
"iX c #F6F8F9",
"pX c #F0E4E1",
"aX c None",
/* pixels */
"aXaXaXaXaXaXaXaXaXaXaXaXaXaXaXaXaXaXaXaXaXaXaXaXaXaXaXaXaXaXaXaXaXaXaXaXaXaXaXaXaXaXaXaXaXaXaXaXaXaXaXaXaXaXaXaXaXaXaXaXaXaXaXaX",
"aXaXaXaXaXaXaXaXaXaXaXaXaXaXaXaXaXaXaXaXaXaXaXaXaXaXaXaXaXaXaXaXaXaXaXaXaXaXaXaXaXaXaXaXaXaXaXaXaXaXaXaXaXaXaXaXaXaXaXaXaXaXaXaX",
"aXaXaXaXaXaXaXaXaXaXaXaXaXaXaXaXaXaXaXaXaXaXaXaXaXaXaXaXaXaXaXaXaXaXaXaXaXaXaXaXaXaXaXaXaXaXaXaXaXaXaXaXaXaXaXaXaXaXaXaXaXaXaXaX",
"aXaXaXaXaXaXaXaXaXaXaXaXaXaXaXaXaXaXaXaXaXaXaXaXaXaXaXaXaXaXaXaXaXaXaXaXaXaXaXaXaXaXaXaXaXaXaXaXaXaXaXaXaXaXaXaXaXaXaXaXaXaXaXaX",
"aXaXaXaXaXaXaXaXaXaXaXaXaXaXaXaXaXaXaXaXaXaXaXaXaXaXaXaXaXaXaXaXaXaXaXaXaXaXaXaXaXaXaXaXaXaXaXaXaXaXaXaXaXaXaXaXaXaXaXaXaXaXaXaX",
"aXaXaXaXaXaXaXaXaXaXaXaXaXaXaXaXaXaXaXaXaXaXaXaXaXaXaXaXaXaXaXaXaXaXaXaXaXaXaXaXaXaXaXaXaXaXaXaXaXaXaXaXaXaXaXaXaXaXaXaXaXaXaXaX",
"aXaXaXaXaXaXaXaXaXaXaXaXaXaXaXaXaXaXaXaXaXaXaXaX5 d s + aXaXaXaXaXaXaXaXaXaXaXaXaXaXaXaXaXaXaXaXaXaXaXaXaXaXaXaXaXaXaXaXaXaXaXaX",
"aXaXaXaXaXaXaXaXaXaXaXaXaXaXaXaXaXaXaXaXaXaXaX+ O q.w.2 8 O aXaXaXaXaXaXaXaXaXaXaXaXaXaXaXaXaXaXaXaXaXaXaXaXaXaXaXaXaXaXaXaXaXaX",
"aXaXaXaXaXaXaXaXaXaXaXaXaXaXaXaXaXaXaXaXaXaX* 8 n d.S.S.m.G m + aXaXaXaXaXaXaXaXaXaXaXaXaXaXaXaXaXaXaXaXaXaXaXaXaXaXaXaXaXaXaXaX",
"aXaXaXaXaXaXaXaXaXaXaXaXaXaXaXaXaXaXaXaXaX+ h s.D.Z.A.A.n.J.H.V.n aXaXaXaXaXaXaXaXaXaXaXaXaXaXaXaXaXaXaXaXaXaXaXaXaXaXaXaXaXaXaX",
"aXaXaXaXaXaXaXaXaXaXaXaXaXaXaXaXaXaXaXaX+ 9 z.n.f.H.H.A.S.c.A.K.F.k aXaXaXaXaXaXaXaXaXaXaXaXaXaXaXaXaXaXaXaXaXaXaXaXaXaXaXaXaXaX",
"aXaXaXaXaXaXaXaXaXaXaXaXaXaXaXaXaXaXaXaX< S B.B.f.c.Z.H.J.m.z.A.K.z.+ aXaXaXaXaXaXaXaXaXaXaXaXaXaXaXaXaXaXaXaXaXaXaXaXaXaXaXaXaX",
"aXaXaXaXaXaXaXaXaXaXaXaXaXaXaXaXaXaXaX> j y.d.F 9 + > k c.K.Z.n Z.K.n aXaXaXaXaXaXaXaXaXaXaXaXaXaXaXaXaXaXaXaXaXaXaXaXaXaXaXaXaX",
"aXaXaXaXaXaXaXaXaXaXaXaXaXaXaXaXaXaXaX+ x B.j.j 7 z 5 . * l.L.G s J.m.* aXaXaXaXaXaXaXaXaXaXaXaXaXaXaXaXaXaXaXaXaXaXaXaXaXaXaXaX",
"aXaXaXaXaXaXaXaXaXaXaXaXaXaXaXaXaXaXaXaXh y.z.u.t.r.t.h O O l.P.s m F.1 aXaXaXaXaXaXaXaXaXaXaXaXaXaXaXaXaXaXaXaXaXaXaXaXaXaXaXaX",
"aXaXaXaXaXaXaXaXaXaXaXaXaXaXaXaXaXaXaXaX> x i.u.t.t._ g ; O g G.F Z u.g aXaXaXaXaXaXaXaXaXaXaXaXaXaXaXaXaXaXaXaXaXaXaXaXaXaXaXaX",
"aXaXaXaXaXaXaXaXaXaXaXaXaXaXaXaXaXaXaXaXaX> g j z z 2 > aX, 5 w.z F S 1 aXaXaXaXaXaXaXaXaXaXaXaXaXaXaXaXaXaXaXaXaXaXaXaXaXaXaXaX",
"aXaXaXaXaXaXaXaXaXaXaXaXaXaXaXaXaXaXaXaXaXaX> + > > aXaXaX> 9 q.z w.; aXaXaXaXaXaXaXaXaXaXaXaXaXaXaXaXaXaXaXaXaXaXaXaXaXaXaXaXaX",
"aXaXaXaXaXaXaXaXaXaXaXaXaXaXaXaXaXaXaXaXaXaXaXaXaXaXaX& w + a s 4 d $ @ - aXaXaXaXaXaXaXaXaXaXaXaXaXaXaXaXaXaXaXaXaXaXaXaXaXaXaX",
"aXaXaXaXaXaXaXaXaXaXaXaXaXaXaXaXaXaXaXaXaXaXaXaXaX% v OX(.z A j 4 h 0X4Xl o aXaXaXaXaXaXaXaXaXaXaXaXaXaXaX3.XXaXaXaXaXaXaXaXaXaX",
"aXaXaXaXaXaXaXaXaXaXaXaXaXaXaXaXaXaXaXaXaXaXaXaX4 , e p.%XuXiXwXpXpXrX%Xr & ; aXaXaXaXaXaXaXaXaXaXaXaXaX/.$XX.aXaXaXaXaXaXaXaXaX",
"aXaXaXaXaXaXaXaXaXaXaXaXaXaXaXaXaXaXaXaXaXaXaXaX% L ^ r R.7X3X:X=X<XOX`.3.| & aXaXaXaXaXaXaXaXaXaXaXaX|.uXE.X aXaXaXaXaXaXaXaXaX",
"aXaXaXaXaXaXaXaXaXaXaXaXaXaXaXaXaXaXaXaXaXaXaX1 : E >.+X>X:X<X9XeXuXuXuX9X+Xt aXaXaXaXaXaXaXaXaXaXaXt rXuX] @ aXaXaXaXaXaXaXaXaX",
"aXaXaXaXaXaXaXaXaXaXaXaXaXaXaXaXaXaXaXaXaXaXaX: v O.,.3..X3X<X6X<X9XwXE.5X2X>.& aXaXaXaXaXaXaXaXaXp E.uXrX/ & aXaXaXaXaXaXaXaXaX",
"aXaXaXaXaXaXaXaXaXaXaXaXaXaXaXaXaXaXaXaXaXaXaX& J ;.>.)./.=X<X:X=X>X;XX | 8X1X2 aXaXaXaXaXaXaXaX|  XuXwX>X%.& aXaXaXaXaXaXaXaXaX",
"aXaXaXaXaXaXaXaXaXaXaXaXaXaXaXaXaXaXaXaXaXaXaX1 L o.Q./.2.~.OX=X=XuXiX= q 1X6Xr 1 aXaXaXaXaXaXaX* 5XyX$X#X@.& aXaXaXaXaXaXaXaXaX",
"aXaXaXaXaXaXaXaXaXaXaXaXaXaXaXaXaXaXaXaXaXaX; 8 O.;.~./.^.4.2.`.,XrXtX8 o 5.8XR.@ aXaXaXaXaXaXX K uX X}.Y.- aXaXaXaXaXaXaXaXaXaX",
"aXaXaXaXaXaXaXaXaXaXaXaXaXaXaXaX8 , aXaXaXaX; 8 o.<.[.~.^.XX|.>X2XeXwX9 X R 3Xv.X aXaXaXaXaXaXo R.2X~.}.i o aXaXaXaXaXaXaXaXaXaX",
"aXaXaXaXaXaXaXaXaXaXaXaXaXaXaX& r =.w aXaXaX1 8 l ..Q.~.>.P P ^ @.I.` & , 4 1 o 1 aXaXaXaXaXo K qX.X|.-.% aXaXaXaXaXaXaXaXaXaXaX",
"aXaXaXaXaXaXaXaXaXaXaXaXaXaXaX1 o I @XI o aX5 & w ..;.).Q.&.k o       * 8 * 5 [ 2 aXaXaXaXaXo '.'.>.XXi % aXaXaXaXaXaXaXaXaXaXaX",
"aXaXaXaXaXaXaXaXaXaXaXaXaXaXaX5 s = y +XR o ; & v ,.Q.~.Q.>X>X$X@.%.I.9 o 2 !.qXU o aXaXaXo U 3Xw ~.>.& aXaXaXaXaXaXaXaXaXaXaXaX",
"aXaXaXaXaXaXaXaXaXaXaXaXaXaXaX> C N.f I ~.E , o o E >.O.Q.2.3.-X2XqXuXI.  ( 9XrX%.X aXaXaXo &XY.P #XJ % aXaXaXaXaXaXaXaXaXaXaXaX",
"aXaXaXaXaXaXaXaXaXaXaXaXaXaXaX> V D.N.9.U <.~.$.w & u ..[.[.2.4.=X-XeXp.  Q.eX8X/ X aXaXaXK 7XL =.<.% aXaXaXaXaXaXaXaXaXaXaXaXaX",
"aXaXaXaXaXaXaXaXaXaXaXaXaXaXaX> V N.s.a.v.,.! ^ !.>.&.m t XX[.2. X<XqXp.w -X3X=X# k l.4 o !.X.v @XJ % aXaXaXaXaXaXaXaXaXaXaXaXaX",
"aXaXaXaXaXaXaXaXaXaXaXaXaXaXaX> V B.x.h.U.7.~ J 9 K 3X@.. $.[.}.OX1X*X6XiX1X3X' o C K.M y {.o -.~.% aXaXaXaXaXaXaXaXaXaXaXaXaXaX",
"aXaXaXaXaXaXaXaXaXaXaXaXaXaXaX> V B.x.k.T.#XXXoX!.- ~ $.o * e E ].7X3XrXqX3X=.  G x.& 9 [.~ , Q.J aXaXaXaXaXaXaXaXaXaXaXaXaXaXaX",
"aXaXaXaXaXaXaXaXaXaXaXaXaXaXaX> M k.u.j._.3X].2.#XL / $.o , o X 5 @.].9X7X:.3 6 Z P.H # Q , ;...o aXaXaXaXaXaXaXaXaXaXaXaXaXaXaX",
"aXaXaXaXaXaXaXaXaXaXaXaXaXaXaX, U Z.8.a.F.].:X X}.^ ~ X.= A x e & . o E ! X c y.e C D.d.= + T l a 9 aXaXaXaXaXaXaXaXaXaXaXaXaXaX",
"aXaXaXaXaXaXaXaXaXaXaXaXaXaXaX:  .XXU.s.d.`.OX X).#.$.} % i.z._ N j 6 . X x b.u.7 @ a 9.b.A 3 * B 0.9 aXaXaXaXaXaXaXaXaXaXaXaXaX",
"aXaXaXaXaXaXaXaXaXaXaXaXaXaXaX: } oX|.,XW.>.7.3.^.,.2./ % S N.z.i.t.N j x i.b.x * ^ W q 3 A y.g < 9 2 aXaXaXaXaXaXaXaXaXaXaXaXaX",
"aXaXaXaXaXaXaXaXaXaXaXaXaXaXaX& K [.[.>X,Xc.v.!.|.=.Q.~ o 0.M.f.f.z.y._ y.B.A @ 2 #.).{.t o e N B > aXaXaXaXaXaXaXaXaXaXaXaXaXaX",
"aXaXaXaXaXaXaXaXaXaXaXaXaXaXaX& > 1.).{.:XF.k.x.T.I o.| % r.u.n.x.j.n.n.D.Z > + 1 #.XX@X@X! X 2 1 aXaXaXaXaXaXaXaXaXaXaXaXaXaXaX",
"aXaXaXaXaXaXaXaXaXaXaXaXaXaXaXaXo / @X~.!.V.G.f.k.f T X.& c ) S y.q.0.0.D , > 8 & r ;.Q.{.L & aXaXaXaXaXaXaXaXaXaXaXaXaXaXaXaXaX",
"aXaXaXaXaXaXaXaXaXaXaXaXaXaXaXaXaX: -.+X6.v.8.s.C.b T E & 5 5 < < < < < + , aXaXj a & 5 2 ; aXaXaXaXaXaXaXaXaXaXaXaXaXaXaXaXaXaX",
"aXaXaXaXaXaXaXaXaXaXaXaXaXaXaXaXaXaX% -.@XY.a.x.a.U ^ 1 1 , 1 aXaX, 1 , aXaXaX> j _ 1 & aXaXaXaXaXaXaXaXaXaXaXaXaXaXaXaXaXaXaXaX",
"aXaXaXaXaXaXaXaXaXaXaXaXaXaXaXaXaXaXaX& -.+Xc.h.s i e & 5 2 1 aXaX1 1 1 aXaXaXaX, 4 5 aXaXaXaXaXaXaXaXaXaXaXaXaXaXaXaXaXaXaXaXaX",
"aXaXaXaXaXaXaXaXaXaXaXaXaXaXaXaXaXaXaXaX* ;.Z.m u ; aXaX1 1 1 aXaX1 0 1 aXaXaXaXaXaXaXaXaXaXaXaXaXaXaXaXaXaXaXaXaXaXaXaXaXaXaXaX",
"aXaXaXaXaXaXaXaXaXaXaXaXaXaXaXaXaXaXaXaXaX5 a v L aXaX1 1 5 1 aX1 2 1 5 aXaXaXaXaXaXaXaXaXaXaXaXaXaXaXaXaXaXaXaXaXaXaXaXaXaXaXaX",
"aXaXaXaXaXaXaXaXaXaXaXaXaXaXaXaXaXaXaXaXaXaX* 2 aXaXaXaXaXaXaXaXaXaXaXaXaXaXaXaXaXaXaXaXaXaXaXaXaXaXaXaXaXaXaXaXaXaXaXaXaXaXaXaX",
"aXaXaXaXaXaXaXaXaXaXaXaXaXaXaXaXaXaXaXaXaXaXaX1 aXaXaXaXaXaXaXaXaXaXaXaXaXaXaXaXaXaXaXaXaXaXaXaXaXaXaXaXaXaXaXaXaXaXaXaXaXaXaXaX",
"aXaXaXaXaXaXaXaXaXaXaXaXaXaXaXaXaXaXaXaXaXaXaXaXaXaXaXaXaXaXaXaXaXaXaXaXaXaXaXaXaXaXaXaXaXaXaXaXaXaXaXaXaXaXaXaXaXaXaXaXaXaXaXaX",
"aXaXaXaXaXaXaXaXaXaXaXaXaXaXaXaXaXaXaXaXaXaXaXaXaXaXaXaXaXaXaXaXaXaXaXaXaXaXaXaXaXaXaXaXaXaXaXaXaXaXaXaXaXaXaXaXaXaXaXaXaXaXaXaX",
"aXaXaXaXaXaXaXaXaXaXaXaXaXaXaXaXaXaXaXaXaXaXaXaXaXaXaXaXaXaXaXaXaXaXaXaXaXaXaXaXaXaXaXaXaXaXaXaXaXaXaXaXaXaXaXaXaXaXaXaXaXaXaXaX",
"aXaXaXaXaXaXaXaXaXaXaXaXaXaXaXaXaXaXaXaXaXaXaXaXaXaXaXaXaXaXaXaXaXaXaXaXaXaXaXaXaXaXaXaXaXaXaXaXaXaXaXaXaXaXaXaXaXaXaXaXaXaXaXaX",
"aXaXaXaXaXaXaXaXaXaXaXaXaXaXaXaXaXaXaXaXaXaXaXaXaXaXaXaXaXaXaXaXaXaXaXaXaXaXaXaXaXaXaXaXaXaXaXaXaXaXaXaXaXaXaXaXaXaXaXaXaXaXaXaX",
"aXaXaXaXaXaXaXaXaXaXaXaXaXaXaXaXaXaXaXaXaXaXaXaXaXaXaXaXaXaXaXaXaXaXaXaXaXaXaXaXaXaXaXaXaXaXaXaXaXaXaXaXaXaXaXaXaXaXaXaXaXaXaXaX",
"aXaXaXaXaXaXaXaXaXaXaXaXaXaXaXaXaXaXaXaXaXaXaXaXaXaXaXaXaXaXaXaXaXaXaXaXaXaXaXaXaXaXaXaXaXaXaXaXaXaXaXaXaXaXaXaXaXaXaXaXaXaXaXaX",
"aXaXaXaXaXaXaXaXaXaXaXaXaXaXaXaXaXaXaXaXaXaXaXaXaXaXaXaXaXaXaXaXaXaXaXaXaXaXaXaXaXaXaXaXaXaXaXaXaXaXaXaXaXaXaXaXaXaXaXaXaXaXaXaX",
"aXaXaXaXaXaXaXaXaXaXaXaXaXaXaXaXaXaXaXaXaXaXaXaXaXaXaXaXaXaXaXaXaXaXaXaXaXaXaXaXaXaXaXaXaXaXaXaXaXaXaXaXaXaXaXaXaXaXaXaXaXaXaXaX",
"aXaXaXaXaXaXaXaXaXaXaXaXaXaXaXaXaXaXaXaXaXaXaXaXaXaXaXaXaXaXaXaXaXaXaXaXaXaXaXaXaXaXaXaXaXaXaXaXaXaXaXaXaXaXaXaXaXaXaXaXaXaXaXaX",
"aXaXaXaXaXaXaXaXaXaXaXaXaXaXaXaXaXaXaXaXaXaXaXaXaXaXaXaXaXaXaXaXaXaXaXaXaXaXaXaXaXaXaXaXaXaXaXaXaXaXaXaXaXaXaXaXaXaXaXaXaXaXaXaX",
"aXaXaXaXaXaXaXaXaXaXaXaXaXaXaXaXaXaXaXaXaXaXaXaXaXaXaXaXaXaXaXaXaXaXaXaXaXaXaXaXaXaXaXaXaXaXaXaXaXaXaXaXaXaXaXaXaXaXaXaXaXaXaXaX",
"aXaXaXaXaXaXaXaXaXaXaXaXaXaXaXaXaXaXaXaXaXaXaXaXaXaXaXaXaXaXaXaXaXaXaXaXaXaXaXaXaXaXaXaXaXaXaXaXaXaXaXaXaXaXaXaXaXaXaXaXaXaXaXaX",
"aXaXaXaXaXaXaXaXaXaXaXaXaXaXaXaXaXaXaXaXaXaXaXaXaXaXaXaXaXaXaXaXaXaXaXaXaXaXaXaXaXaXaXaXaXaXaXaXaXaXaXaXaXaXaXaXaXaXaXaXaXaXaXaX"
};
