/* XPM */
static char *result[] = {
/* columns rows colors chars-per-pixel */
"64 64 229 2 ",
"   c #000001",
".  c #02000C",
"X  c #020114",
"o  c #00011C",
"O  c #040A1D",
"+  c #0D0D1D",
"@  c #0A0518",
"#  c #15121B",
"$  c #000420",
"%  c #030B23",
"&  c #0C0B22",
"*  c #030F2B",
"=  c #0E1223",
"-  c #0D142A",
";  c #09172C",
":  c #121324",
">  c #131629",
",  c #151B2D",
"<  c #1A1A2B",
"1  c #1A1926",
"2  c #0D1531",
"3  c #131A32",
"4  c #191D31",
"5  c #151F3B",
"6  c #100E22",
"7  c #1D222F",
"8  c #1B2133",
"9  c #1B243B",
"0  c #1B2C3D",
"q  c #162535",
"w  c #0A223B",
"e  c #23232A",
"r  c #272225",
"t  c #252632",
"y  c #242936",
"u  c #22223D",
"i  c #252C3C",
"p  c #2B2A37",
"a  c #372C33",
"s  c #383439",
"d  c #433A3A",
"f  c #593E33",
"g  c #52413A",
"h  c #624A3F",
"j  c #1D2A47",
"k  c #1E3142",
"l  c #1B344A",
"z  c #1D3151",
"x  c #0E2943",
"c  c #262C48",
"v  c #2A324E",
"b  c #253748",
"n  c #393943",
"m  c #232B52",
"M  c #2C3553",
"N  c #2C3A55",
"B  c #253453",
"V  c #35365A",
"C  c #3E3E67",
"Z  c #423E42",
"A  c #4B3D41",
"S  c #18405C",
"D  c #2A4955",
"F  c #31565A",
"G  c #2F515A",
"H  c #18526A",
"J  c #264763",
"K  c #3A466B",
"L  c #2C5463",
"P  c #325B64",
"I  c #3E4B73",
"U  c #325D70",
"Y  c #366878",
"T  c #2E6673",
"R  c #434143",
"E  c #494345",
"W  c #4A4748",
"Q  c #574947",
"!  c #555854",
"~  c #5B524C",
"^  c #6B5A4D",
"/  c #6B5D54",
"(  c #715E56",
")  c #636156",
"_  c #7C6B5C",
"`  c #79685A",
"'  c #71604E",
"]  c #425079",
"[  c #575D70",
"{  c #417777",
"}  c #7A7464",
"|  c #777573",
" . c #957A58",
".. c #856C63",
"X. c #877A66",
"o. c #977968",
"O. c #A07F70",
"+. c #B6945F",
"@. c #9D826B",
"#. c #838576",
"$. c #989276",
"%. c #8E8972",
"&. c #A28969",
"*. c #A9926F",
"=. c #A88972",
"-. c #AB9471",
";. c #A79B78",
":. c #B89977",
">. c #B4936E",
",. c #BCA57C",
"<. c #C4A57C",
"1. c #CCAC7E",
"2. c #C8A677",
"3. c #D2AD7C",
"4. c #D4A975",
"5. c #D7B27C",
"6. c #CBA66D",
"7. c #E7B57B",
"8. c #F0B679",
"9. c #156F91",
"0. c #3A6983",
"q. c #377387",
"w. c #287A96",
"e. c #495985",
"r. c #445B82",
"t. c #505D8D",
"y. c #456789",
"u. c #43708E",
"i. c #467897",
"p. c #4E6C94",
"a. c #7A7B84",
"s. c #3C8193",
"d. c #3E8B9C",
"f. c #378499",
"g. c #2D8098",
"h. c #2D8AA4",
"j. c #348BA2",
"k. c #3E94A1",
"l. c #2992AB",
"z. c #32A4AE",
"x. c #458484",
"c. c #418B9B",
"v. c #47829D",
"b. c #49929B",
"n. c #678F8E",
"m. c #609094",
"M. c #74A49E",
"N. c #448FA3",
"B. c #4A82A0",
"V. c #4392A4",
"C. c #489AA7",
"Z. c #4EA5A7",
"A. c #56AAA6",
"S. c #5BB6AD",
"D. c #49A7B3",
"F. c #54ACB6",
"G. c #5BBBB9",
"H. c #60BDB0",
"J. c #61C4BC",
"K. c #66CEC2",
"L. c #6AD4C4",
"P. c #67D4CC",
"I. c #6FEADC",
"U. c #878788",
"Y. c #848998",
"T. c #8AA693",
"R. c #AEA586",
"E. c #BFAA81",
"W. c #BFB48A",
"Q. c #B2AA95",
"!. c #9C9CA6",
"~. c #96BAA7",
"^. c #B6BCBB",
"/. c #CFB384",
"(. c #D4B483",
"). c #DBBA86",
"_. c #DAB889",
"`. c #CBB08F",
"'. c #E6BD89",
"]. c #C5BEB6",
"[. c #96C1A4",
"{. c #A7D7B6",
"}. c #D7C894",
"|. c #D4C795",
" X c #E4C289",
".X c #ECC68B",
"XX c #EBC78A",
"oX c #F3CB8D",
"OX c #F2C386",
"+X c #FDD38D",
"@X c #E5CC96",
"#X c #F5CF91",
"$X c #E4D199",
"%X c #E8D699",
"&X c #FDD495",
"*X c #FEDC9A",
"=X c #F5D698",
"-X c #FFE09D",
";X c #EEE09F",
":X c #D8CCAF",
">X c #EDDDA3",
",X c #E7DAA6",
"<X c #F2DAA4",
"1X c #F6DFB3",
"2X c #ECD3AE",
"3X c #D1EFBC",
"4X c #F3E5AB",
"5X c #FCE7A7",
"6X c #F2E5B3",
"7X c #F5E8B7",
"8X c #FFFDB4",
"9X c #FFFFBC",
"0X c #FBF3B9",
"qX c #E6DACA",
"wX c #ECE4C9",
"eX c #F5ECC5",
"rX c #FFFEC4",
"tX c #FFFECC",
"yX c #FCF4C7",
"uX c #EDEDDC",
"iX c #FFFED5",
"pX c #FFFADF",
"aX c #ECE7E4",
"sX c #FEFDE4",
"dX c #FAF8E4",
"fX c #FFFEF6",
"gX c #FEFFFF",
"hX c #F6F9FA",
"jX c None",
/* pixels */
"jXjXjXjXjXjXjXjXjXjXjXjXjXjXjXjXjXjXjXjXjXjXjXjXjXjXjXjXjXjXjXjXjXjXjXjXjXjXjXjXjXjXjXjXjXjXjXjXjXjXjXjXjXjXjXjXjXjXjXjXjXjXjXjX",
"jXjXjXjXjXjXjXjXjXjXjXjXjXjXjXjXjXjXjXjXjXjXjXjXjXjXjXjXjXjXjXjXjXjXjXjXjXjXjXjXjXjXjXjXjXjXjXjXjXjXjXjXjXjXjXjXjXjXjXjXjXjXjXjX",
"jXjXjXjXjXjXjXjXjXjXjXjXjXjXjXjXjXjXjXjXjXjXjXjXjXjXjXjXjXjXjXjXjXjXjXjXjXjXjXjXjXjXjXjXjXjXjXjXjXjXjXjXjXjXjXjXjXjXjXjXjXjXjXjX",
"jXjXjXjXjXjXjXjXjXjXjXjXjXjXjXjXjXjXjXjXjXjXjXjXjXjXjXjXjXjXjXjXjXjXjXjXjXjXjXjXjXjXjXjXjXjXjXjXjXjXjXjXjXjXjXjXjXjXjXjXjXjXjXjX",
"jXjXjXjXjXjXjXjXjXjXjXjXjXjXjXjXjXjXjXjXjXjXjXjXjXjXjXjXjXjXjXjXjXjXjXjXjXjXjXjXjXjXjXjXjXjXjXjXjXjXjXjXjXjXjXjXjXjXjXjXjXjXjXjX",
"jXjXjXjXjXjXjXjXjXjXjXjXjXjXjXjXjXjXjXjXjXjXjXjXjXjXjXjXjXjXjXjXjXjXjXjXjXjXjXjXjXjXjXjXjXjXjXjXjXjXjXjXjXjXjXjXjXjXjXjXjXjXjXjX",
"jXjXjXjXjXjXjXjXjXjXjXjXjXjXjXjXjXjXjXjXjXjXjXjXjXjXjXjXjXjXjXjXjXjXjXjXjXjXjXjXjXjXjXjXjXjXjXjXjXjXjXjXjXjXjXjXjXjXjXjXjXjXjXjX",
"jXjXjXjXjXjXjXjXjXjXjXjXjXjXjXjXjXjXjXjXjXjXjXjXjXjXjXjXjXjXjXjXjXjXjXjXjXjXjXjXjXjXjXjXjXjXjXjXjXjXjXjXjXjXjXjXjXjXjXjXjXjXjXjX",
"jXjXjXjXjXjXjXjXjXjXjXjXjXjXjXjXjXjXjXjXjXjXjXjX0 b : 6 & jXjXjXjXjXjXjXjXjXjXjXjXjXjXjXjXjXjXjXjXjXjXjXjXjXjXjXjXjXjXjXjXjXjXjX",
"jXjXjXjXjXjXjXjXjXjXjXjXjXjXjXjXjXjXjXjXjXjXjX@ k c.Y { D > + jXjXjXjXjXjXjXjXjXjXjXjXjXjXjXjXjXjXjXjXjXjXjXjXjXjXjXjXjXjXjXjXjX",
"jXjXjXjXjXjXjXjXjXjXjXjXjXjXjXjXjXjXjXjXjXjX+ 0 T G.L.J.A.A.Y b : jXjXjXjXjXjXjXjXjXjXjXjXjXjXjXjXjXjXjXjXjXjXjXjXjXjXjXjXjXjXjX",
"jXjXjXjXjXjXjXjXjXjXjXjXjXjXjXjXjXjXjXjXjX: c V.F.A.S.b.C.G.L.J.Y & jXjXjXjXjXjXjXjXjXjXjXjXjXjXjXjXjXjXjXjXjXjXjXjXjXjXjXjXjXjX",
"jXjXjXjXjXjXjXjXjXjXjXjXjXjXjXjXjXjXjXjX> = q.N.A.L.L.L.S.b.Z.L.P.L . jXjXjXjXjXjXjXjXjXjXjXjXjXjXjXjXjXjXjXjXjXjXjXjXjXjXjXjXjX",
"jXjXjXjXjXjXjXjXjXjXjXjXjXjXjXjXjXjXjXjX= v i.N.f.P P x.J.J.c.F H.K.D jXjXjXjXjXjXjXjXjXjXjXjXjXjXjXjXjXjXjXjXjXjXjXjXjXjXjXjXjX",
"jXjXjXjXjXjXjXjXjXjXjXjXjXjXjXjXjXjXjXjX, I i.q., @ . X D K.P.P b K.Z.= jXjXjXjXjXjXjXjXjXjXjXjXjXjXjXjXjXjXjXjXjXjXjXjXjXjXjXjX",
"jXjXjXjXjXjXjXjXjXjXjXjXjXjXjXjXjXjXjXjX< 0.D.Y V ] K : X i b.I.k G F., jXjXjXjXjXjXjXjXjXjXjXjXjXjXjXjXjXjXjXjXjXjXjXjXjXjXjXjX",
"jXjXjXjXjXjXjXjXjXjXjXjXjXjXjXjXjXjXjXjX= N v.i.] ] e.K , . j F.Y U y., jXjXjXjXjXjXjXjXjXjXjXjXjXjXjXjXjXjXjXjXjXjXjXjXjXjXjXjX",
"jXjXjXjXjXjXjXjXjXjXjXjXjXjXjXjXjXjXjXjXjX> V y.u.e.t.K , : q q.b 0.y.< jXjXjXjXjXjXjXjXjXjXjXjXjXjXjXjXjXjXjXjXjXjXjXjXjXjXjXjX",
"jXjXjXjXjXjXjXjXjXjXjXjXjXjXjXjXjXjXjXjXjXjX> 4 v N M = jXjXq 0.v d.l + jXjXjXjXjXjXjXjXjXjXjXjXjXjXjXjXjXjXjXjXjXjXjXjXjXjXjXjX",
"jXjXjXjXjXjXjXjXjXjXjXjXjXjXjXjXjXjXjXjXjXjXjXjXjXjXO o p # l j 2 J # O jXjXjXjXjXjXjXjXjXjXjXjXjXjXjXjXjXjXjXjXjXjXjXjXjXjXjXjX",
"jXjXjXjXjXjXjXjXjXjXjXjXjXjXjXjXjXjXjXjXjXjXjXjXjX$ R 2XQ.V ] c , i qX].n O jXjXjXjXjXjXjXjXjXjXjXjXjXjXjX1. XjXjXjXjXjXjXjXjXjX",
"jXjXjXjXjXjXjXjXjXjXjXjXjXjXjXjXjXjXjXjXjXjXjXjX3 > y a.:XhXhXaXaXuXpX].s O - jXjXjXjXjXjXjXjXjXjXjXjXjX7.,X;.jXjXjXjXjXjXjXjXjX",
"jXjXjXjXjXjXjXjXjXjXjXjXjXjXjXjXjXjXjXjXjXjXjXjX$ ~ ` g /.yX0X5X<X1X=X}.5.@.% jXjXjXjXjXjXjXjXjXjXjXjX+.1XgX9 jXjXjXjXjXjXjXjXjX",
"jXjXjXjXjXjXjXjXjXjXjXjXjXjXjXjXjXjXjXjXjXjXjX, % / :.=X5X>X6XeXpXgXgXgXyX&Xs jXjXjXjXjXjXjXjXjXjXjX+ `.gXuX1 jXjXjXjXjXjXjXjXjX",
"jXjXjXjXjXjXjXjXjXjXjXjXjXjXjXjXjXjXjXjXjXjXjX% Z O.:.3.@X0X6XwX6XyXaX!.eX8X;.+ jXjXjXjXjXjXjXjXjX+.~ hXgX,X7 jXjXjXjXjXjXjXjXjX",
"jXjXjXjXjXjXjXjXjXjXjXjXjXjXjXjXjXjXjXjXjXjXjX% E =.:.).).,X4X4X>X5X2X. @.rX6X, jXjXjXjXjXjXjXjXjX2.yXgX2X$Xi jXjXjXjXjXjXjXjXjX",
"jXjXjXjXjXjXjXjXjXjXjXjXjXjXjXjXjXjXjXjXjXjXjX, ~ o.(.).3.(.>X>X>XgXhX* e 6XeXa - jXjXjXjXjXjXjX  a.gXwXXX$Xy jXjXjXjXjXjXjXjXjX",
"jXjXjXjXjXjXjXjXjXjXjXjXjXjXjXjXjXjXjXjXjXjX- y O.=.(.).(.3.3.}.6XsXuX9 o 6.tXQ.+ jXjXjXjXjXjXjX. ^.sX6.*X! % jXjXjXjXjXjXjXjXjX",
"jXjXjXjXjXjXjXjXjXjXjXjXjXjXjX, 8 % jXjXjXjX- 8 O.:..X(.'.oXXX5XrXsXfX7 X ^ 0Xn.X jXjXjXjXjXjXo W tX$XXX-.o jXjXjXjXjXjXjXjXjXjX",
"jXjXjXjXjXjXjXjXjXjXjXjXjXjXjX$ _ X.$ jXjXjX> 7 n _ :.(.:.Q Q ` X.U.[ # > 8 1 . , jXjXjXjXjXjXX |.rX1.oXZ $ jXjXjXjXjXjXjXjXjXjX",
"jXjXjXjXjXjXjXjXjXjXjXjXjXjXjX= 1 <.2.% jXjX4 * p ..=.'.(.%.n o .     : 4 % t } > jXjXjXjXjXo ! 8X>.#X*.$ jXjXjXjXjXjXjXjXjXjXjX",
"jXjXjXjXjXjXjXjXjXjXjXjXjXjXjX0 w @ 6.(.& $ jX% E :.`.(.1.5X0X}.%.#.n.c & > /.iX! O jXjXjXjXX ,X#.d -XD $ jXjXjXjXjXjXjXjXjXjXjX",
"jXjXjXjXjXjXjXjXjXjXjXjXjXjXjXq V.T w >.-.d o o $ ( :.=.1.(.5.>X9XiXgXY.  ' tXsX$.jXjXjXjXo ! tXW ,.:.$ jXjXjXjXjXjXjXjXjXjXjXjX",
"jXjXjXjXjXjXjXjXjXjXjXjXjXjXjXq s.D.h.J o.'.<.~ : o Q o. X(.3._.4X%XsXY.  1.sXtX_ o jXjXjXX |.`.s *XR O jXjXjXjXjXjXjXjXjXjXjXjX",
"jXjXjXjXjXjXjXjXjXjXjXjXjXjXjX8 s.N.f.N.R. .^ &.`.;.#.- -.*X).3.}.4XiXa.p =X9X%X< % x.F X W @Xp <.<.$ jXjXjXjXjXjXjXjXjXjXjXjXjX",
"jXjXjXjXjXjXjXjXjXjXjXjXjXjXjX8 q.k.V.b.3.*.^ D i ;.4X- e :.)..X<X6X;XwXfX7X9X} . 0 Z.D.% 2._ : -XE $ jXjXjXjXjXjXjXjXjXjXjXjXjX",
"jXjXjXjXjXjXjXjXjXjXjXjXjXjXjX4 s.N.V.A.%X=X&XoX` % ,.s o o t ' }.rXyXsXiX8X&.+ q S.l ; } #X$ ..*.% jXjXjXjXjXjXjXjXjXjXjXjXjXjX",
"jXjXjXjXjXjXjXjXjXjXjXjXjXjXjXq g.j.s.A.3X4X5. X3.n E.t 5 3 X X 7 X.}.rXtX;.* m 8 G.G.2 f A s /.t o jXjXjXjXjXjXjXjXjXjXjXjXjXjX",
"jXjXjXjXjXjXjXjXjXjXjXjXjXjXjXt n.l.w.l.[.=X,X).1.W *.e B y.N u % . + ) ) o J p.u 0 k.D.z $ d Q 9 c q jXjXjXjXjXjXjXjXjXjXjXjXjX",
"jXjXjXjXjXjXjXjXjXjXjXjXjXjXjXt 5.W.m.9.T.+X$X X)._ *.e m B.N.r.C M - . X V i.e.8 o 2 S d.p.z O u u.L + jXjXjXjXjXjXjXjXjXjXjXjX",
"jXjXjXjXjXjXjXjXjXjXjXjXjXjXjXy ).8.-X{.T.7.8.(.3.-.<.< B u.k.d.y.e.K c V i.u.u O n o.f ; z e.K 4 9 4 jXjXjXjXjXjXjXjXjXjXjXjXjX",
"jXjXjXjXjXjXjXjXjXjXjXjXjXjXjX: *.oX$X8X[.s.R.OX4.@.(.1 j i.N.V.k.d.y.e.u.c.c + O ~ `.&X@.+ , M I 9 jXjXjXjXjXjXjXjXjXjXjXjXjXjX",
"jXjXjXjXjXjXjXjXjXjXjXjXjXjXjXo / #X(.-X{.z.j.M.$.E 2.7 m t.y.i.N.V.C.N.i.c + , % A _.#X*X3., % 8 > jXjXjXjXjXjXjXjXjXjXjXjXjXjX",
"jXjXjXjXjXjXjXjXjXjXjXjXjXjXjXjX8 _.XX7.T.z.Z.h.w.8 @.a 5 N c v N N N N , : , jX> 6 ( :. X-.> jXjXjXjXjXjXjXjXjXjXjXjXjXjXjXjXjX",
"jXjXjXjXjXjXjXjXjXjXjXjXjXjXjXjX$ E oXoX<.f.f.c.w.i o.y = = : : & = + = > jXjXjX9 B 2 , t - > jXjXjXjXjXjXjXjXjXjXjXjXjXjXjXjXjX",
"jXjXjXjXjXjXjXjXjXjXjXjXjXjXjXjXjXo Z oXOXn.w.C.Y ` A & , , , jXjX, 8 , jXjXjXjX< ] N O - jXjXjXjXjXjXjXjXjXjXjXjXjXjXjXjXjXjXjX",
"jXjXjXjXjXjXjXjXjXjXjXjXjXjXjXjXjXjXo Z +XQ.l.H a A % jX, , , jXjX, 4 , jXjXjXjX> , 8 jXjXjXjXjXjXjXjXjXjXjXjXjXjXjXjXjXjXjXjXjX",
"jXjXjXjXjXjXjXjXjXjXjXjXjXjXjXjXjXjXjXo h ~.9.n t ; jX, , 7 , jX, , , , jXjXjXjXjXjXjXjXjXjXjXjXjXjXjXjXjXjXjXjXjXjXjXjXjXjXjXjX",
"jXjXjXjXjXjXjXjXjXjXjXjXjXjXjXjXjXjXjXjX% k i ^ 8 jXjXjXjXjXjXjXjXjXjXjXjXjXjXjXjXjXjXjXjXjXjXjXjXjXjXjXjXjXjXjXjXjXjXjXjXjXjXjX",
"jXjXjXjXjXjXjXjXjXjXjXjXjXjXjXjXjXjXjXjXjX& < , jXjXjXjXjXjXjXjXjXjXjXjXjXjXjXjXjXjXjXjXjXjXjXjXjXjXjXjXjXjXjXjXjXjXjXjXjXjXjXjX",
"jXjXjXjXjXjXjXjXjXjXjXjXjXjXjXjXjXjXjXjXjXjXjXjXjXjXjXjXjXjXjXjXjXjXjXjXjXjXjXjXjXjXjXjXjXjXjXjXjXjXjXjXjXjXjXjXjXjXjXjXjXjXjXjX",
"jXjXjXjXjXjXjXjXjXjXjXjXjXjXjXjXjXjXjXjXjXjXjXjXjXjXjXjXjXjXjXjXjXjXjXjXjXjXjXjXjXjXjXjXjXjXjXjXjXjXjXjXjXjXjXjXjXjXjXjXjXjXjXjX",
"jXjXjXjXjXjXjXjXjXjXjXjXjXjXjXjXjXjXjXjXjXjXjXjXjXjXjXjXjXjXjXjXjXjXjXjXjXjXjXjXjXjXjXjXjXjXjXjXjXjXjXjXjXjXjXjXjXjXjXjXjXjXjXjX",
"jXjXjXjXjXjXjXjXjXjXjXjXjXjXjXjXjXjXjXjXjXjXjXjXjXjXjXjXjXjXjXjXjXjXjXjXjXjXjXjXjXjXjXjXjXjXjXjXjXjXjXjXjXjXjXjXjXjXjXjXjXjXjXjX",
"jXjXjXjXjXjXjXjXjXjXjXjXjXjXjXjXjXjXjXjXjXjXjXjXjXjXjXjXjXjXjXjXjXjXjXjXjXjXjXjXjXjXjXjXjXjXjXjXjXjXjXjXjXjXjXjXjXjXjXjXjXjXjXjX",
"jXjXjXjXjXjXjXjXjXjXjXjXjXjXjXjXjXjXjXjXjXjXjXjXjXjXjXjXjXjXjXjXjXjXjXjXjXjXjXjXjXjXjXjXjXjXjXjXjXjXjXjXjXjXjXjXjXjXjXjXjXjXjXjX",
"jXjXjXjXjXjXjXjXjXjXjXjXjXjXjXjXjXjXjXjXjXjXjXjXjXjXjXjXjXjXjXjXjXjXjXjXjXjXjXjXjXjXjXjXjXjXjXjXjXjXjXjXjXjXjXjXjXjXjXjXjXjXjXjX",
"jXjXjXjXjXjXjXjXjXjXjXjXjXjXjXjXjXjXjXjXjXjXjXjXjXjXjXjXjXjXjXjXjXjXjXjXjXjXjXjXjXjXjXjXjXjXjXjXjXjXjXjXjXjXjXjXjXjXjXjXjXjXjXjX",
"jXjXjXjXjXjXjXjXjXjXjXjXjXjXjXjXjXjXjXjXjXjXjXjXjXjXjXjXjXjXjXjXjXjXjXjXjXjXjXjXjXjXjXjXjXjXjXjXjXjXjXjXjXjXjXjXjXjXjXjXjXjXjXjX",
"jXjXjXjXjXjXjXjXjXjXjXjXjXjXjXjXjXjXjXjXjXjXjXjXjXjXjXjXjXjXjXjXjXjXjXjXjXjXjXjXjXjXjXjXjXjXjXjXjXjXjXjXjXjXjXjXjXjXjXjXjXjXjXjX",
"jXjXjXjXjXjXjXjXjXjXjXjXjXjXjXjXjXjXjXjXjXjXjXjXjXjXjXjXjXjXjXjXjXjXjXjXjXjXjXjXjXjXjXjXjXjXjXjXjXjXjXjXjXjXjXjXjXjXjXjXjXjXjXjX",
"jXjXjXjXjXjXjXjXjXjXjXjXjXjXjXjXjXjXjXjXjXjXjXjXjXjXjXjXjXjXjXjXjXjXjXjXjXjXjXjXjXjXjXjXjXjXjXjXjXjXjXjXjXjXjXjXjXjXjXjXjXjXjXjX",
"jXjXjXjXjXjXjXjXjXjXjXjXjXjXjXjXjXjXjXjXjXjXjXjXjXjXjXjXjXjXjXjXjXjXjXjXjXjXjXjXjXjXjXjXjXjXjXjXjXjXjXjXjXjXjXjXjXjXjXjXjXjXjXjX",
"jXjXjXjXjXjXjXjXjXjXjXjXjXjXjXjXjXjXjXjXjXjXjXjXjXjXjXjXjXjXjXjXjXjXjXjXjXjXjXjXjXjXjXjXjXjXjXjXjXjXjXjXjXjXjXjXjXjXjXjXjXjXjXjX"
};
