/* XPM */
static char *result[] = {
/* columns rows colors chars-per-pixel */
"64 64 223 2 ",
"   c #000001",
".  c #01000A",
"X  c #010013",
"o  c #00011C",
"O  c #0C0418",
"+  c #050B1D",
"@  c #0D0C1B",
"#  c #0F101F",
"$  c #13161E",
"%  c #000522",
"&  c #030C25",
"*  c #0D0D22",
"=  c #090C29",
"-  c #130F24",
";  c #0E1223",
":  c #0C152A",
">  c #091329",
",  c #121424",
"<  c #14172A",
"1  c #151B2D",
"2  c #191C2E",
"3  c #191629",
"4  c #151C31",
"5  c #191C34",
"6  c #071132",
"7  c #211E39",
"8  c #172434",
"9  c #1B2233",
"0  c #1C273D",
"q  c #1A202F",
"w  c #2B2C34",
"e  c #21243D",
"r  c #2A2D39",
"t  c #222633",
"y  c #33333D",
"u  c #3B353A",
"i  c #32282F",
"p  c #453A32",
"a  c #45393A",
"s  c #5C4A37",
"d  c #0D1946",
"f  c #1C2C41",
"g  c #1D2741",
"h  c #183347",
"j  c #073050",
"k  c #222B42",
"l  c #272E4A",
"z  c #27354A",
"x  c #363543",
"c  c #2B3652",
"v  c #2C3955",
"b  c #2E3D59",
"n  c #253C52",
"m  c #313A58",
"M  c #3E3A65",
"N  c #463D43",
"B  c #254756",
"V  c #2B525E",
"C  c #34414F",
"Z  c #1E536D",
"A  c #394268",
"S  c #2B5163",
"D  c #2A5668",
"F  c #31576A",
"G  c #3F4B73",
"H  c #355771",
"J  c #294961",
"K  c #1E617B",
"L  c #36646C",
"P  c #39686C",
"I  c #35687B",
"U  c #246076",
"Y  c #464142",
"T  c #4C4443",
"R  c #4F464A",
"E  c #554A4A",
"W  c #5A524C",
"Q  c #525051",
"!  c #66554B",
"~  c #685855",
"^  c #735149",
"/  c #68695E",
"(  c #75695A",
")  c #786957",
"_  c #7D705B",
"`  c #46547E",
"'  c #4D5572",
"]  c #487277",
"[  c #65646A",
"{  c #736F62",
"}  c #7D6E60",
"|  c #7A7562",
" . c #6D7078",
".. c #836C5A",
"X. c #85735D",
"o. c #8A7862",
"O. c #987F68",
"+. c #866D64",
"@. c #A07F61",
"#. c #AC8C5E",
"$. c #888469",
"%. c #858475",
"&. c #949076",
"*. c #A48A6B",
"=. c #A7936B",
"-. c #A88872",
";. c #A99272",
":. c #B29575",
">. c #B59C74",
",. c #B89A79",
"<. c #B58D76",
"1. c #B3A37A",
"2. c #C79D6D",
"3. c #CCAD7E",
"4. c #C8A87B",
"5. c #D7AC77",
"6. c #D8B17C",
"7. c #D4B57F",
"8. c #EFBD7A",
"9. c #197497",
"0. c #3A6982",
"q. c #3B798C",
"w. c #2B7892",
"e. c #425D81",
"r. c #4A5985",
"t. c #45688A",
"y. c #427993",
"u. c #4D6791",
"i. c #3D8B9C",
"p. c #3C8497",
"a. c #2A8AA2",
"s. c #3696A8",
"d. c #328EA9",
"f. c #418497",
"g. c #42879B",
"h. c #47959C",
"j. c #498C89",
"k. c #748C8B",
"l. c #468BA3",
"z. c #4392A6",
"x. c #4B9AA1",
"c. c #4496A9",
"v. c #459BAC",
"b. c #4B96A6",
"n. c #469AB0",
"m. c #44A7AD",
"M. c #55A9A8",
"N. c #59B4AD",
"B. c #5EB8AC",
"V. c #5EBCB3",
"C. c #58B7B6",
"Z. c #61B5B3",
"A. c #5FC2BC",
"S. c #65C4B7",
"D. c #50B0C1",
"F. c #66CEC3",
"G. c #6BD9D0",
"H. c #6FE1D2",
"J. c #76F2E2",
"K. c #949985",
"L. c #889490",
"P. c #8FA896",
"I. c #B2B695",
"U. c #8F95A9",
"Y. c #A39FA9",
"T. c #96ACA6",
"R. c #B5B4B0",
"E. c #C9B78B",
"W. c #D4B481",
"Q. c #DDBB85",
"!. c #DDBD89",
"~. c #D7B686",
"^. c #CAB491",
"/. c #E2BD85",
"(. c #E2BF89",
"). c #EDBF82",
"_. c #A1CCAC",
"`. c #DDC18E",
"'. c #D8C796",
"]. c #DED39E",
"[. c #EAC58B",
"{. c #F5CC8D",
"}. c #FCCE8C",
"|. c #FFD88C",
" X c #E3CB96",
".X c #E9CC96",
"XX c #E3CA95",
"oX c #F4CE90",
"OX c #EDD69B",
"+X c #E7D89B",
"@X c #F9D292",
"#X c #F4D698",
"$X c #D2DBB4",
"%X c #EDDDA4",
"&X c #E2D6A5",
"*X c #E6D8B9",
"=X c #F4DFAD",
"-X c #EDE2AA",
";X c #F8E7A7",
":X c #FFF4AC",
">X c #F4E8B4",
",X c #FFF2B2",
"<X c #FFFFBD",
"1X c #ECEAB0",
"2X c #9DA6C5",
"3X c #BCC1D1",
"4X c #DBDDCE",
"5X c #ECDCC5",
"6X c #F8E9C6",
"7X c #FFFEC4",
"8X c #FFFEC9",
"9X c #FCF0C7",
"0X c #FFFBD4",
"qX c #FFFFDF",
"wX c #F9F3D7",
"eX c #EAE5DE",
"rX c #FFFFE3",
"tX c #FBFCEA",
"yX c #FDFCF3",
"uX c #FEFFFF",
"iX c #F4F6F2",
"pX c #EEECE3",
"aX c None",
/* pixels */
"aXaXaXaXaXaXaXaXaXaXaXaXaXaXaXaXaXaXaXaXaXaXaXaXaXaXaXaXaXaXaXaXaXaXaXaXaXaXaXaXaXaXaXaXaXaXaXaXaXaXaXaXaXaXaXaXaXaXaXaXaXaXaXaX",
"aXaXaXaXaXaXaXaXaXaXaXaXaXaXaXaXaXaXaXaXaXaXaXaXaXaXaXaXaXaXaXaXaXaXaXaXaXaXaXaXaXaXaXaXaXaXaXaXaXaXaXaXaXaXaXaXaXaXaXaXaXaXaXaX",
"aXaXaXaXaXaXaXaXaXaXaXaXaXaXaXaXaXaXaXaXaXaXaXaXaXaXaXaXaXaXaXaXaXaXaXaXaXaXaXaXaXaXaXaXaXaXaXaXaXaXaXaXaXaXaXaXaXaXaXaXaXaXaXaX",
"aXaXaXaXaXaXaXaXaXaXaXaXaXaXaXaXaXaXaXaXaXaXaXaXaXaXaXaXaXaXaXaXaXaXaXaXaXaXaXaXaXaXaXaXaXaXaXaXaXaXaXaXaXaXaXaXaXaXaXaXaXaXaXaX",
"aXaXaXaXaXaXaXaXaXaXaXaXaXaXaXaXaXaXaXaXaXaXaXaXaXaXaXaXaXaXaXaXaXaXaXaXaXaXaXaXaXaXaXaXaXaXaXaXaXaXaXaXaXaXaXaXaXaXaXaXaXaXaXaX",
"aXaXaXaXaXaXaXaXaXaXaXaXaXaXaXaXaXaXaXaXaXaXaXaXk h # $ , aXaXaXaXaXaXaXaXaXaXaXaXaXaXaXaXaXaXaXaXaXaXaXaXaXaXaXaXaXaXaXaXaXaXaX",
"aXaXaXaXaXaXaXaXaXaXaXaXaXaXaXaXaXaXaXaXaXaXaXO I I B I P 8 8 , aXaXaXaXaXaXaXaXaXaXaXaXaXaXaXaXaXaXaXaXaXaXaXaXaXaXaXaXaXaXaXaX",
"aXaXaXaXaXaXaXaXaXaXaXaXaXaXaXaXaXaXaXaXaXaX@ f p.M.B.A.A.B.V.j.* * aXaXaXaXaXaXaXaXaXaXaXaXaXaXaXaXaXaXaXaXaXaXaXaXaXaXaXaXaXaX",
"aXaXaXaXaXaXaXaXaXaXaXaXaXaXaXaXaXaXaXaXaX@ 0 c.v.N.S.h.b.M.V.F.N.r O aXaXaXaXaXaXaXaXaXaXaXaXaXaXaXaXaXaXaXaXaXaXaXaXaXaXaXaXaX",
"aXaXaXaXaXaXaXaXaXaXaXaXaXaXaXaXaXaXaXaX< 3 0.c.M.S.F.G.N.g.b.N.H.h.* aXaXaXaXaXaXaXaXaXaXaXaXaXaXaXaXaXaXaXaXaXaXaXaXaXaXaXaXaX",
"aXaXaXaXaXaXaXaXaXaXaXaXaXaXaXaXaXaXaXaX@ n c.g.v.M.P P M.S.F.S L J.L O aXaXaXaXaXaXaXaXaXaXaXaXaXaXaXaXaXaXaXaXaXaXaXaXaXaXaXaX",
"aXaXaXaXaXaXaXaXaXaXaXaXaXaXaXaXaXaXaX< , H z.p.B ,   X , B V.N.4 j.C.4 aXaXaXaXaXaXaXaXaXaXaXaXaXaXaXaXaXaXaXaXaXaXaXaXaXaXaXaX",
"aXaXaXaXaXaXaXaXaXaXaXaXaXaXaXaXaXaXaX, 5 ` v.F 3 l m k ; . J G.S B b.5 aXaXaXaXaXaXaXaXaXaXaXaXaXaXaXaXaXaXaXaXaXaXaXaXaXaXaXaX",
"aXaXaXaXaXaXaXaXaXaXaXaXaXaXaXaXaXaXaX, 3 0.z.y.` r.r.` 1 $ 0 g.F I e.1 aXaXaXaXaXaXaXaXaXaXaXaXaXaXaXaXaXaXaXaXaXaXaXaXaXaXaXaX",
"aXaXaXaXaXaXaXaXaXaXaXaXaXaXaXaXaXaXaXaX; c u.l.t.r.` k aXaX8 q.l 0.n aXaXaXaXaXaXaXaXaXaXaXaXaXW.Q.aXaXaXaXaXaXaXaXaXaXaXaXaXaX",
"aXaXaXaXaXaXaXaXaXaXaXaXaXaXaXaXaXaXaXaXaX2 l v c m 0 X aX, 0 H b 0.. aXaXaXaXaXaXaXaXaXaXaXaX5.[.Q.aXaXaXaXaXaXaXaXaXaXaXaXaXaX",
"aXaXaXaXaXaXaXaXaXaXaXaXaXaXaXaXaXaXaXaXaXaX; # , + w ! ^ O d +   + X.[ k aXaXaXaXaXaXaXaXaX8.6XR.u aXaXaXaXaXaXaXaXaXaXaXaXaXaX",
"aXaXaXaXaXaXaXaXaXaXaXaXaXaXaXaXaXaXaXaXaXaXaXaXaXo y >X5XU.2XU.U.U.uXeXe X aXaXaXaXaXaXaXp ;XuXu.@ aXaXaXaXaXaXaXaXaXaXaXaXaXaX",
"aXaXaXaXaXaXaXaXaXaXaXaXaXaXaXaXaXaXaXaXaXaXaXaX> x x g R.uXyXrX0X0X;X1.) Y & aXaXaXaXaXp [ uXuXo.+ aXaXaXaXaXaXaXaXaXaXaXaXaXaX",
"aXaXaXaXaXaXaXaXaXaXaXaXaXaXaXaXaXaXaXaXaXaXaXaXo ~ <.:.+X;X-X%X*X6XwXqX:X6.< aXaXaXaXaX=.4XuX8X$.* aXaXaXaXaXaXaXaXaXaXaXaXaXaX",
"aXaXaXaXaXaXaXaXaXaXaXaXaXaXaXaXaXaXaXaXaXaXaX: 7 +.<./.OX-X>XwXwXyXuXuXwX;X) o aXaXaXp >XuX*X|.&.& aXaXaXaXaXaXaXaXaXaXaXaXaXaX",
"aXaXaXaXaXaXaXaXaXaXaXaXaXaXaXaXaXaXaXaX< aXaX& ~ O.,./.XX>X-X%X%X;X*Xz E.<X`.2 aXaXaX4 iX9X(.OXR & aXaXaXaXaXaXaXaXaXaXaXaXaXaX",
"aXaXaXaXaXaXaXaXaXaXaXaXaXaXaXaXaXaXaX> y W o & E O.E.Q.7.!.1X>X%X0XpXo s 8X6X* aXaXX %.qX7.{.| X aXaXaXaXaXaXaXaXaXaXaXaXaXaXaX",
"aXaXaXaXaXaXaXaXaXaXaXaXaXaXaXaXaXaXaX& < =.*.& N ,.Q.W.W.W.`. X-XuXiX: ,  X9X| aXaX5 1X;X/.3.2 aXaXaXaXaXaXaXaXaXaXaXaXaXaXaXaX",
"aXaXaXaXaXaXaXaXaXaXaXaXaXaXaXaXaXaXaX9 > @ 6.4.% u (.@X!.`.6..X,X0XtX8 o #.rXY.X X %.8X3.oX) o aXaXaXaXaXaXaXaXaXaXaXaXaXaXaXaX",
"aXaXaXaXaXaXaXaXaXaXaXaXaXaXaXaXaXaXaX< S Z % 2.3.& 9 *.Q.3.4.`.&X0X3X> o u =.C o r 1X/ >.!.9 aXaXaXaXaXaXaXaXaXaXaXaXaXaXaXaXaX",
"aXaXaXaXaXaXaXaXaXaXaXaXaXaXaXaXaXaXaX, D D.w.B @.<.R 4 & & < q t 8 @ , 9 =   ; o &.-Xu @X_ o aXaXaXaXaXaXaXaXaXaXaXaXaXaXaXaXaX",
"aXaXaXaXaXaXaXaXaXaXaXaXaXaXaXaXaXaXaX, S c.i.d.] *.4.1.;.E : : > , $ , 2 = } &X* &.%.) @X2 aXaXaXaXaXaXaXaXaXaXaXaXaXaXaXaXaXaX",
"aXaXaXaXaXaXaXaXaXaXaXaXaXaXaXaXaXaXaX, S c.i.a.P.5.s 0 { >.<X{ X *XuX' . p ;XrX{ r W ~.o.% aXaXaXaXaXaXaXaXaXaXaXaXaXaXaXaXaXaX",
"aXaXaXaXaXaXaXaXaXaXaXaXaXaXaXaXaXaXaX, S c.x.s.K.}.!.>.Y % >.$.% >XuXL.  =.tXrX$.  o.oXq aXaXaXaXaXaXaXaXaXaXaXaXaXaXaXaXaXaXaX",
"aXaXaXaXaXaXaXaXaXaXaXaXaXaXaXaXaXaXaX, S c.p.d._.,X X[.;Xa { $.% +XrX .  .X7X,XT o W.o.o aXaXaXaXaXaXaXaXaXaXaXaXaXaXaXaXaXaXaX",
"aXaXaXaXaXaXaXaXaXaXaXaXaXaXaXaXaXaXaX, S d.w.i.S.%X.X~.@XW ( o.& &X<XR.Y.=X<XI.o ~ -.2 aXaXaXaXaXaXaXaXaXaXaXaXaXaXaXaXaXaXaXaX",
"aXaXaXaXaXaXaXaXaXaXaXaXaXaXaXaXaXaXaX; / I.i.9.z.`.%X X).X.X.X.& -X,XyXuX,X#Xi o +.~ + + aXaXaXaXaXaXaXaXaXaXaXaXaXaXaXaXaXaXaX",
"aXaXaXaXaXaXaXaXaXaXaXaXaXaXaXaXaXaXaX& _ |.W.T.h./.).~.(.-.:.) % ].7X0X8X;Xx 6 1 ; 2 A F 8 aXaXaXaXaXaXaXaXaXaXaXaXaXaXaXaXaXaX",
"aXaXaXaXaXaXaXaXaXaXaXaXaXaXaXaXaXaXaX> ( [.[.:X$Xk.4.8.[.;.~...o t ! E.'.w d ' 1 f 4 e H 8 aXaXaXaXaXaXaXaXaXaXaXaXaXaXaXaXaXaX",
"aXaXaXaXaXaXaXaXaXaXaXaXaXaXaXaXaXaXaX% w Q.!.OX1Xm.s.K.[...:.o.% > . , # = t.t.e l G l # aXaXaXaXaXaXaXaXaXaXaXaXaXaXaXaXaXaXaX",
"aXaXaXaXaXaXaXaXaXaXaXaXaXaXaXaXaXaXaXaX% >.oX/.'.C.m.a.Z.C ) O.% A m > 5 ` z.e.4 , c n 1 aXaXaXaXaXaXaXaXaXaXaXaXaXaXaXaXaXaXaX",
"aXaXaXaXaXaXaXaXaXaXaXaXaXaXaXaXaXaXaXaX& u oX[.3.k.s.i.s.j E ..o 0.r.M ` l.y.7 , 1 , , aXaXaXaXaXaXaXaXaXaXaXaXaXaXaXaXaXaXaXaX",
"aXaXaXaXaXaXaXaXaXaXaXaXaXaXaXaXaXaXaXaXaXo C `.|.K.9.i.n.F ^ i h v.y.t.l.g.e @ 2 1 aXaXaXaXaXaXaXaXaXaXaXaXaXaXaXaXaXaXaXaXaXaX",
"aXaXaXaXaXaXaXaXaXaXaXaXaXaXaXaXaXaXaXaXaXaXX s }.`.f.s.U ^ a j n.c.z.v.f.e @ 4 2 aXaXaXaXaXaXaXaXaXaXaXaXaXaXaXaXaXaXaXaXaXaXaX",
"aXaXaXaXaXaXaXaXaXaXaXaXaXaXaXaXaXaXaXaXaXaXaXo s `.Z.K 3 i > b A c v c 2 ; 2 1 1 aXaXaXaXaXaXaXaXaXaXaXaXaXaXaXaXaXaXaXaXaXaXaX",
"aXaXaXaXaXaXaXaXaXaXaXaXaXaXaXaXaXaXaXaXaXaXaXaXo Q I N E % 2 , @ # # # < 2 2 1 1 aXaXaXaXaXaXaXaXaXaXaXaXaXaXaXaXaXaXaXaXaXaXaX",
"aXaXaXaXaXaXaXaXaXaXaXaXaXaXaXaXaXaXaXaXaXaXaXaX2 > & u y < aXaXaXaXaXaXaXaXaX2 2 4 2 2 aXaXaXaXaXaXaXaXaXaXaXaXaXaXaXaXaXaXaXaX",
"aXaXaXaXaXaXaXaXaXaXaXaXaXaXaXaXaXaXaXaXaXaXaX2 2 < 2 : : 2 aXaXaXaXaXaXaXaXaXaX1 1 2 aXaXaXaXaXaXaXaXaXaXaXaXaXaXaXaXaXaXaXaXaX",
"aXaXaXaXaXaXaXaXaXaXaXaXaXaXaXaXaXaXaXaXaXaXaXaXaXaX2 2 2 aXaXaXaXaXaXaXaXaXaXaXaXaXaXaXaXaXaXaXaXaXaXaXaXaXaXaXaXaXaXaXaXaXaXaX",
"aXaXaXaXaXaXaXaXaXaXaXaXaXaXaXaXaXaXaXaXaXaXaXaXaXaXaXaXaXaXaXaXaXaXaXaXaXaXaXaXaXaXaXaXaXaXaXaXaXaXaXaXaXaXaXaXaXaXaXaXaXaXaXaX",
"aXaXaXaXaXaXaXaXaXaXaXaXaXaXaXaXaXaXaXaXaXaXaXaXaXaXaXaXaXaXaXaXaXaXaXaXaXaXaXaXaXaXaXaXaXaXaXaXaXaXaXaXaXaXaXaXaXaXaXaXaXaXaXaX",
"aXaXaXaXaXaXaXaXaXaXaXaXaXaXaXaXaXaXaXaXaXaXaXaXaXaXaXaXaXaXaXaXaXaXaXaXaXaXaXaXaXaXaXaXaXaXaXaXaXaXaXaXaXaXaXaXaXaXaXaXaXaXaXaX",
"aXaXaXaXaXaXaXaXaXaXaXaXaXaXaXaXaXaXaXaXaXaXaXaXaXaXaXaXaXaXaXaXaXaXaXaXaXaXaXaXaXaXaXaXaXaXaXaXaXaXaXaXaXaXaXaXaXaXaXaXaXaXaXaX",
"aXaXaXaXaXaXaXaXaXaXaXaXaXaXaXaXaXaXaXaXaXaXaXaXaXaXaXaXaXaXaXaXaXaXaXaXaXaXaXaXaXaXaXaXaXaXaXaXaXaXaXaXaXaXaXaXaXaXaXaXaXaXaXaX",
"aXaXaXaXaXaXaXaXaXaXaXaXaXaXaXaXaXaXaXaXaXaXaXaXaXaXaXaXaXaXaXaXaXaXaXaXaXaXaXaXaXaXaXaXaXaXaXaXaXaXaXaXaXaXaXaXaXaXaXaXaXaXaXaX",
"aXaXaXaXaXaXaXaXaXaXaXaXaXaXaXaXaXaXaXaXaXaXaXaXaXaXaXaXaXaXaXaXaXaXaXaXaXaXaXaXaXaXaXaXaXaXaXaXaXaXaXaXaXaXaXaXaXaXaXaXaXaXaXaX",
"aXaXaXaXaXaXaXaXaXaXaXaXaXaXaXaXaXaXaXaXaXaXaXaXaXaXaXaXaXaXaXaXaXaXaXaXaXaXaXaXaXaXaXaXaXaXaXaXaXaXaXaXaXaXaXaXaXaXaXaXaXaXaXaX",
"aXaXaXaXaXaXaXaXaXaXaXaXaXaXaXaXaXaXaXaXaXaXaXaXaXaXaXaXaXaXaXaXaXaXaXaXaXaXaXaXaXaXaXaXaXaXaXaXaXaXaXaXaXaXaXaXaXaXaXaXaXaXaXaX",
"aXaXaXaXaXaXaXaXaXaXaXaXaXaXaXaXaXaXaXaXaXaXaXaXaXaXaXaXaXaXaXaXaXaXaXaXaXaXaXaXaXaXaXaXaXaXaXaXaXaXaXaXaXaXaXaXaXaXaXaXaXaXaXaX",
"aXaXaXaXaXaXaXaXaXaXaXaXaXaXaXaXaXaXaXaXaXaXaXaXaXaXaXaXaXaXaXaXaXaXaXaXaXaXaXaXaXaXaXaXaXaXaXaXaXaXaXaXaXaXaXaXaXaXaXaXaXaXaXaX",
"aXaXaXaXaXaXaXaXaXaXaXaXaXaXaXaXaXaXaXaXaXaXaXaXaXaXaXaXaXaXaXaXaXaXaXaXaXaXaXaXaXaXaXaXaXaXaXaXaXaXaXaXaXaXaXaXaXaXaXaXaXaXaXaX",
"aXaXaXaXaXaXaXaXaXaXaXaXaXaXaXaXaXaXaXaXaXaXaXaXaXaXaXaXaXaXaXaXaXaXaXaXaXaXaXaXaXaXaXaXaXaXaXaXaXaXaXaXaXaXaXaXaXaXaXaXaXaXaXaX",
"aXaXaXaXaXaXaXaXaXaXaXaXaXaXaXaXaXaXaXaXaXaXaXaXaXaXaXaXaXaXaXaXaXaXaXaXaXaXaXaXaXaXaXaXaXaXaXaXaXaXaXaXaXaXaXaXaXaXaXaXaXaXaXaX",
"aXaXaXaXaXaXaXaXaXaXaXaXaXaXaXaXaXaXaXaXaXaXaXaXaXaXaXaXaXaXaXaXaXaXaXaXaXaXaXaXaXaXaXaXaXaXaXaXaXaXaXaXaXaXaXaXaXaXaXaXaXaXaXaX",
"aXaXaXaXaXaXaXaXaXaXaXaXaXaXaXaXaXaXaXaXaXaXaXaXaXaXaXaXaXaXaXaXaXaXaXaXaXaXaXaXaXaXaXaXaXaXaXaXaXaXaXaXaXaXaXaXaXaXaXaXaXaXaXaX",
"aXaXaXaXaXaXaXaXaXaXaXaXaXaXaXaXaXaXaXaXaXaXaXaXaXaXaXaXaXaXaXaXaXaXaXaXaXaXaXaXaXaXaXaXaXaXaXaXaXaXaXaXaXaXaXaXaXaXaXaXaXaXaXaX",
"aXaXaXaXaXaXaXaXaXaXaXaXaXaXaXaXaXaXaXaXaXaXaXaXaXaXaXaXaXaXaXaXaXaXaXaXaXaXaXaXaXaXaXaXaXaXaXaXaXaXaXaXaXaXaXaXaXaXaXaXaXaXaXaX",
"aXaXaXaXaXaXaXaXaXaXaXaXaXaXaXaXaXaXaXaXaXaXaXaXaXaXaXaXaXaXaXaXaXaXaXaXaXaXaXaXaXaXaXaXaXaXaXaXaXaXaXaXaXaXaXaXaXaXaXaXaXaXaXaX"
};
