/* XPM */
static char *result[] = {
/* columns rows colors chars-per-pixel */
"64 64 226 2 ",
"   c #000001",
".  c #01000D",
"X  c #010015",
"o  c #0A0216",
"O  c #00021B",
"+  c #0C0C1C",
"@  c #07081A",
"#  c #0E111F",
"$  c #15111B",
"%  c #000521",
"&  c #030B23",
"*  c #070B27",
"=  c #0D1225",
"-  c #0B142A",
";  c #08152A",
":  c #121425",
">  c #13162A",
",  c #18152C",
"<  c #151A2C",
"1  c #191D2D",
"2  c #1A1722",
"3  c #0A1A34",
"4  c #131B31",
"5  c #1A1E33",
"6  c #141633",
"7  c #130E22",
"8  c #261E30",
"9  c #1D222F",
"0  c #1B2233",
"q  c #1D253C",
"w  c #1D2A3C",
"e  c #172233",
"r  c #1F353E",
"t  c #292229",
"y  c #242937",
"u  c #262838",
"i  c #322D35",
"p  c #3B363A",
"a  c #2E2933",
"s  c #433A3A",
"d  c #553E36",
"f  c #52413A",
"g  c #614B3F",
"h  c #1B2C44",
"j  c #1D3447",
"k  c #1D3553",
"l  c #292B48",
"z  c #263345",
"x  c #383A45",
"c  c #2B3755",
"v  c #33385A",
"b  c #373F63",
"n  c #433E43",
"m  c #493F43",
"M  c #1C405C",
"N  c #274A59",
"B  c #2E525C",
"V  c #324753",
"C  c #194B62",
"Z  c #0C4F70",
"A  c #264863",
"S  c #3C446B",
"D  c #384768",
"F  c #295362",
"G  c #325466",
"H  c #394976",
"J  c #386669",
"K  c #34697A",
"L  c #2D6672",
"P  c #4A4345",
"I  c #474546",
"U  c #584B49",
"Y  c #59534B",
"T  c #565854",
"R  c #67584B",
"E  c #675A51",
"W  c #745C55",
"Q  c #6B4B44",
"!  c #666356",
"~  c #776959",
"^  c #71604E",
"/  c #414B75",
"(  c #44557D",
")  c #425077",
"_  c #575D70",
"`  c #58797B",
"'  c #756C66",
"]  c #7A7872",
"[  c #947957",
"{  c #81725D",
"}  c #857C67",
"|  c #9A7D6C",
" . c #957B66",
".. c #8A6E62",
"X. c #A07F70",
"o. c #B6945F",
"O. c #9B8768",
"+. c #848576",
"@. c #97957E",
"#. c #8F896F",
"$. c #A8926F",
"%. c #B9976C",
"&. c #A78872",
"*. c #AB9472",
"=. c #A99977",
"-. c #B59C75",
";. c #B89978",
":. c #A38D6C",
">. c #C39D73",
",. c #C29A6A",
"<. c #CAAB7D",
"1. c #C6A67A",
"2. c #D1AD7C",
"3. c #D7B37C",
"4. c #CBA66D",
"5. c #E8B77D",
"6. c #F5BF7F",
"7. c #FFC87F",
"8. c #0B749A",
"9. c #3D6984",
"0. c #397587",
"q. c #2A7A95",
"w. c #337891",
"e. c #495984",
"r. c #49668B",
"t. c #467896",
"y. c #7A7B84",
"u. c #3B8093",
"i. c #3E8B9C",
"p. c #38869B",
"a. c #1A87A5",
"s. c #2987A5",
"d. c #3B94A6",
"f. c #3C86A0",
"g. c #3FA4AA",
"h. c #448385",
"j. c #43849D",
"k. c #448A9B",
"l. c #4B9696",
"z. c #568D92",
"x. c #699A98",
"c. c #53A49F",
"v. c #4789A1",
"b. c #4393A4",
"n. c #439CAB",
"m. c #4896A9",
"M. c #469DB0",
"N. c #4BA2A8",
"B. c #54ADAE",
"V. c #55A7A4",
"C. c #5AB4AC",
"Z. c #4BA7B5",
"A. c #5AB8B6",
"S. c #40B4B4",
"D. c #60BEB2",
"F. c #5FC0BA",
"G. c #62C4B9",
"H. c #5CC6C6",
"J. c #65CDC3",
"K. c #68D2C6",
"L. c #71EADE",
"P. c #878788",
"I. c #848998",
"U. c #869B8C",
"Y. c #A39C82",
"T. c #8DAD99",
"R. c #BFB48A",
"E. c #BAB994",
"W. c #B6A78C",
"Q. c #9C9CA6",
"!. c #91BAA3",
"~. c #B6BCBB",
"^. c #CBA484",
"/. c #D4B483",
"(. c #D9B785",
"). c #DBBA84",
"_. c #D9BB89",
"`. c #C7B998",
"'. c #CEB289",
"]. c #E2BC85",
"[. c #C4BDB6",
"{. c #9FCFB4",
"}. c #B2CFAC",
"|. c #D8C794",
" X c #D4C795",
".X c #E9C489",
"XX c #F4CC8E",
"oX c #F4C687",
"OX c #E5CD96",
"+X c #F5CE91",
"@X c #E6D497",
"#X c #FED594",
"$X c #F8D898",
"%X c #F9D58F",
"&X c #FFE09B",
"*X c #EEE09F",
"=X c #D8CCAF",
"-X c #EDDDA3",
";X c #E7DAA6",
":X c #F2DAA4",
">X c #F6DFB3",
",X c #ECD3AE",
"<X c #F2E5AB",
"1X c #FEEBAC",
"2X c #FBE6A4",
"3X c #F2E5B3",
"4X c #F3E6B9",
"5X c #FFFFBB",
"6X c #FCF6B7",
"7X c #F3EFAE",
"8X c #E7DCCC",
"9X c #ECE4C9",
"0X c #F5ECC5",
"qX c #FFFEC4",
"wX c #FFFECC",
"eX c #FCF4C7",
"rX c #EDEDDC",
"tX c #FFFED5",
"yX c #FFFADF",
"uX c #ECE7E4",
"iX c #FEFDE4",
"pX c #FAF8E5",
"aX c #FFFEF6",
"sX c #FEFFFF",
"dX c #F6F9FA",
"fX c None",
/* pixels */
"fXfXfXfXfXfXfXfXfXfXfXfXfXfXfXfXfXfXfXfXfXfXfXfXfXfXfXfXfXfXfXfXfXfXfXfXfXfXfXfXfXfXfXfXfXfXfXfXfXfXfXfXfXfXfXfXfXfXfXfXfXfXfXfX",
"fXfXfXfXfXfXfXfXfXfXfXfXfXfXfXfXfXfXfXfXfXfXfXfXfXfXfXfXfXfXfXfXfXfXfXfXfXfXfXfXfXfXfXfXfXfXfXfXfXfXfXfXfXfXfXfXfXfXfXfXfXfXfXfX",
"fXfXfXfXfXfXfXfXfXfXfXfXfXfXfXfXfXfXfXfXfXfXfXfXfXfXfXfXfXfXfXfXfXfXfXfXfXfXfXfXfXfXfXfXfXfXfXfXfXfXfXfXfXfXfXfXfXfXfXfXfXfXfXfX",
"fXfXfXfXfXfXfXfXfXfXfXfXfXfXfXfXfXfXfXfXfXfXfXfXfXfXfXfXfXfXfXfXfXfXfXfXfXfXfXfXfXfXfXfXfXfXfXfXfXfXfXfXfXfXfXfXfXfXfXfXfXfXfXfX",
"fXfXfXfXfXfXfXfXfXfXfXfXfXfXfXfXfXfXfXfXfXfXfXfXfXfXfXfXfXfXfXfXfXfXfXfXfXfXfXfXfXfXfXfXfXfXfXfXfXfXfXfXfXfXfXfXfXfXfXfXfXfXfXfX",
"fXfXfXfXfXfXfXfXfXfXfXfXfXfXfXfXfXfXfXfXfXfXfXfXfXfXfXfXfXfXfXfXfXfXfXfXfXfXfXfXfXfXfXfXfXfXfXfXfXfXfXfXfXfXfXfXfXfXfXfXfXfXfXfX",
"fXfXfXfXfXfXfXfXfXfXfXfXfXfXfXfXfXfXfXfXfXfXfXfXfXfXfXfXfXfXfXfXfXfXfXfXfXfXfXfXfXfXfXfXfXfXfXfXfXfXfXfXfXfXfXfXfXfXfXfXfXfXfXfX",
"fXfXfXfXfXfXfXfXfXfXfXfXfXfXfXfXfXfXfXfXfXfXfXfXfXfXfXfXfXfXfXfXfXfXfXfXfXfXfXfXfXfXfXfXfXfXfXfXfXfXfXfXfXfXfXfXfXfXfXfXfXfXfXfX",
"fXfXfXfXfXfXfXfXfXfXfXfXfXfXfXfXfXfXfXfXfXfXfXfXfXfXfXfXfXfXfXfXfXfXfXfXfXfXfXfXfXfXfXfXfXfXfXfXfXfXfXfXfXfXfXfXfXfXfXfXfXfXfXfX",
"fXfXfXfXfXfXfXfXfXfXfXfXfXfXfXfXfXfXfXfXfXfXfXfXfXfXfXfXfXfXfXfXfXfXfXfXfXfXfXfXfXfXfXfXfXfXfXfXfXfXfXfXfXfXfXfXfXfXfXfXfXfXfXfX",
"fXfXfXfXfXfXfXfXfXfXfXfXfXfXfXfXfXfXfXfXfXfXfXfXfXfXfXfXfXfXfXfXfXfXfXfXfXfXfXfXfXfXfXfXfXfXfXfXfXfXfXfXfXfXfXfXfXfXfXfXfXfXfXfX",
"fXfXfXfXfXfXfXfXfXfXfXfXfXfXfXfXfXfXfXfXfXfXfXfXfXfXfXfXfXfXfXfXfXfXfXfXfXfXfXfXfXfXfXfXfXfXfXfXfXfXfXfXfXfXfXfXfXfXfXfXfXfXfXfX",
"fXfXfXfXfXfXfXfXfXfXfXfXfXfXfXfXfXfXfXfXfX< o w w 5 0 : o fXfXfXfXfXfXfXfXfXfXfXfXfXfXfXfXfXfXfXfXfXfXfXfXfXfXfXfXfXfXfXfXfXfXfX",
"fXfXfXfXfXfXfXfXfXfXfXfXfXfXfXfXfXfXfXw K N J V.V.C.F.h.N : o fXfXfXfXfXfXfXfXfXfXfXfXfXfXfXfXfXfXfXfXfXfXfXfXfXfXfXfXfXfXfXfXfX",
"fXfXfXfXfXfXfXfXfXfXfXfXfXfXfXfXfXfX: < 0.C.G.N.N.A.C.K.L.c.r o fXfXfXfXfXfXfXfXfXfXfXfXfXfXfXfXfXfXfXfXfXfXfXfXfXfXfXfXfXfXfXfX",
"fXfXfXfXfXfXfXfXfXfXfXfXfXfXfXfXfXfX# k b.B.C.C.A.B.N.J B G.J.r o fXfXfXfXfXfXfXfXfXfXfXfXfXfXfXfXfXfXfXfXfXfXfXfXfXfXfXfXfXfXfX",
"fXfXfXfXfXfXfXfXfXfXfXfXfXfXfXfXfX< 5 j.b.C.K.G.V.C.G.C.B # l.H.h + fXfXfXfXfXfXfXfXfXfXfXfXfXfXfXfXfXfXfXfXfXfXfXfXfXfXfXfXfXfX",
"fXfXfXfXfXfXfXfXfXfXfXfXfXfXfXfXfX: G b.u.M.l.r + 7 c h.G.K c m.N.z fXfXfXfXfXfXfXfXfXfXfXfXfXfXfXfXfXfXfXfXfXfXfXfXfXfXfXfXfXfX",
"fXfXfXfXfXfXfXfXfXfXfXfXfXfXfXfXfXo N M.b.B . , v 5 o o < B k.0.F 0.< fXfXfXfXfXfXfXfXfXfXfXfXfXfXfXfXfXfXfXfXfXfXfXfXfXfXfXfXfX",
"fXfXfXfXfXfXfXfXfXfXfXfXfXfXfXfXfX0 D t.i., l e.r.D > = @ . L v.l u.3 fXfXfXfXfXfXfXfXfXfXfXfXfXfXfXfXfXfX2..XfXfXfXfXfXfXfXfXfX",
"fXfXfXfXfXfXfXfXfXfXfXfXfXfXfXfXfX> b m.d.D H ) ) e.- O a + k c 3 j $ + @ fXfXfXfXfXfXfXfXfXfXfXfXfXfXfX3.;X=.fXfXfXfXfXfXfXfXfX",
"fXfXfXfXfXfXfXfXfXfXfXfXfXfXfXfXfX= w r.t.j.( e.e.; p ,X^.v H l 4 z 8X[.c @ fXfXfXfXfXfXfXfXfXfXfXfXfXo.>XsXq fXfXfXfXfXfXfXfXfX",
"fXfXfXfXfXfXfXfXfXfXfXfXfXfXfXfXfXfX= y S ( D c y = w ] =XdXdXuXrXuXyX=Xx @ > fXfXfXfXfXfXfXfXfXfXfX# `.sXrX2 fXfXfXfXfXfXfXfXfX",
"fXfXfXfXfXfXfXfXfXfXfXfXfXfXfXfXfXfXfX> 5 5 : $ O U ' f R.wX6X<X,X<X@X X3. .& fXfXfXfXfXfXfXfXfXfX%.Y sXsX;X9 fXfXfXfXfXfXfXfXfX",
"fXfXfXfXfXfXfXfXfXfXfXfXfXfXfXfXfXfXfXfXfXfXfX< ; W ;.+X1X-X4X0XyXsXsXsXeX%Xp fXfXfXfXfXfXfXfXfXfX4.eXsX,XOXu fXfXfXfXfXfXfXfXfX",
"fXfXfXfXfXfXfXfXfXfXfXfXfXfXfXfXfXfXfXfXfXfXfX& n | ;./.OX4X3X4X>XeXrXQ.0X5X-.* fXfXfXfXfXfXfXfX  y.sX9X.X@Xy fXfXfXfXfXfXfXfXfX",
"fXfXfXfXfXfXfXfXfXfXfXfXfXfXfXfXfX* fXfXfXfXfX& m &.;.)._.;X<X<X-X1X=XX [ wX3X1 fXfXfXfXfXfXfXfX. ~.iX4.$XT & fXfXfXfXfXfXfXfXfX",
"fXfXfXfXfXfXfXfXfXfXfXfXfXfXfXfX; Y u fXfXfXfX< U | /._.2.3.;X-X-XaXsX; t 4X4Xi - fXfXfXfXfXfXO I wX@X.X*.& fXfXfXfXfXfXfXfXfXfX",
"fXfXfXfXfXfXfXfXfXfXfXfXfXfXfXfXO R /.P O fXfX0 X.&./.(.(./.2.|.<XpXpX0 @ 4.wXW.+ fXfXfXfXfXfXX  XqX<.XXn O fXfXfXfXfXfXfXfXfXfX",
"fXfXfXfXfXfXfXfXfXfXfXfXfXfXfXfXe X Q 2XU O ; 0 | ^..X/._.XXoX1X5XiXaX0 @ R 4Xx.X fXfXfXfXfXO T 6X=.+X$.% fXfXfXfXfXfXfXfXfXfXfX",
"fXfXfXfXfXfXfXfXfXfXfXfXfXfXfXfXw K 3 s %X~ O % n | ^.(.-.U U ~ } I._ # < 1 2 X < fXfXfXfXfXO ;X+.s 2XV % fXfXfXfXfXfXfXfXfXfXfX",
"fXfXfXfXfXfXfXfXfXfXfXfXfXfXfXfXe b.M.Z Y %.| m O >  .XX+X@.r X       = 0 * 5 ' > fXfXfXfXO T qXI 1.%.@ fXfXfXfXfXfXfXfXfXfXfXfX",
"fXfXfXfXfXfXfXfXfXfXfXfXfXfXfXfXe u.d.d.w.' >.2.=.{ p ~ ~ $X6X|.#.} y.u 7 , /.tXT + fXfXfXO  X Xp $XI % fXfXfXfXfXfXfXfXfXfXfXfX",
"fXfXfXfXfXfXfXfXfXfXfXfXfXfXfXfXe u.k.i.l.`.[ a T #. XE.O R XX<X5XyXsXI.  ^ wXiX#.X h.B X P OXu 1.1.O fXfXfXfXfXfXfXfXfXfXfXfXfX",
"fXfXfXfXfXfXfXfXfXfXfXfXfXfXfXfXe u.i.N.l._.XX2. .2 x /.; E +X(.<X<XiXx.  <.iXwX^ * V.Z.& <.~ = $XI % fXfXfXfXfXfXfXfXfXfXfXfXfX",
"fXfXfXfXfXfXfXfXfXfXfXfXfXfXfXfXe u.p.p.B.3X<X).#X<.y R.; ^ #X2.|.<XtXy.a :X6XOXr N.j * ' %X& ..*.& fXfXfXfXfXfXfXfXfXfXfXfXfXfX",
"fXfXfXfXfXfXfXfXfXfXfXfXfXfXfXfX0 q.s.w.N.}.$X|.).<.x -.- E XXoX$X3X-X9XaX<X5X~ X A.H.- d f p ^.u O fXfXfXfXfXfXfXfXfXfXfXfXfXfX",
"fXfXfXfXfXfXfXfXfXfXfXfXfXfXfXfXa W.x.q.8.T.$X;X_.).R :.u ; 0 E |.qXqXiXtX5XO.6 > j d.Z.M O s U q z e fXfXfXfXfXfXfXfXfXfXfXfXfX",
"fXfXfXfXfXfXfXfXfXfXfXfXfXfXfXfX0 5.7.E.n.T.7./.).(. .-.a * O X 0 }  XqXwX=.* H D o > C f.r.l & 5 r.F 7 fXfXfXfXfXfXfXfXfXfXfXfX",
"fXfXfXfXfXfXfXfXfXfXfXfXfXfXfXfX0 <.).$X5XT.@.5.oX<.=.^.1 h D y & X @ ! ! X D t.h p ..f ; k e.S 5 q 5 fXfXfXfXfXfXfXfXfXfXfXfXfX",
"fXfXfXfXfXfXfXfXfXfXfXfXfXfXfXfXO } #X_.1X{.a.x.`.,.~ /.$ A Z.r.b l 4 . X v t.r.X U '.#XO.o < c H q fXfXfXfXfXfXfXfXfXfXfXfXfXfX",
"fXfXfXfXfXfXfXfXfXfXfXfXfXfXfXfX& P +X).+X!.g.d.d.h.i ;.t C Z.d.t.r.b l v t.t.l O m (.+X$X/.< & 0 < fXfXfXfXfXfXfXfXfXfXfXfXfXfX",
"fXfXfXfXfXfXfXfXfXfXfXfXfXfXfXfXfX& O.#X5.Y.d.d.i.q.3  .t c m.b.N.d.v.t.m.v.z # > @ W ^..X$., fXfXfXfXfXfXfXfXfXfXfXfXfXfXfXfXfX",
"fXfXfXfXfXfXfXfXfXfXfXfXfXfXfXfXfXfX& $.%X_.h.p.m.w.U W 7 c H 9.9.9.9.t.K w + < e c 3 > y - > fXfXfXfXfXfXfXfXfXfXfXfXfXfXfXfXfX",
"fXfXfXfXfXfXfXfXfXfXfXfXfXfXfXfXfXfXfX& $.&XU.s.p.V W , 4 0 < , > > < , 7 : fXfX< ) c * ; fXfXfXfXfXfXfXfXfXfXfXfXfXfXfXfXfXfXfX",
"fXfXfXfXfXfXfXfXfXfXfXfXfXfXfXfXfXfXfXfX& %.}.s.w t y - < > < < < < > > < < fXfX> < e fXfXfXfXfXfXfXfXfXfXfXfXfXfXfXfXfXfXfXfXfX",
"fXfXfXfXfXfXfXfXfXfXfXfXfXfXfXfXfXfXfXfXfX2 ` N Q y ; 5 < e 5 < < fX< < 1 fXfXfXfXfXfXfXfXfXfXfXfXfXfXfXfXfXfXfXfXfXfXfXfXfXfXfX",
"fXfXfXfXfXfXfXfXfXfXfXfXfXfXfXfXfXfXfXfXfXfX% t n fX< < fXfX< < fX5 < 5 < fXfXfXfXfXfXfXfXfXfXfXfXfXfXfXfXfXfXfXfXfXfXfXfXfXfXfX",
"fXfXfXfXfXfXfXfXfXfXfXfXfXfXfXfXfXfXfXfXfXfXfX> - fXfXfXfXfXfXfXfXfXfXfXfXfXfXfXfXfXfXfXfXfXfXfXfXfXfXfXfXfXfXfXfXfXfXfXfXfXfXfX",
"fXfXfXfXfXfXfXfXfXfXfXfXfXfXfXfXfXfXfXfXfXfXfXfXfXfXfXfXfXfXfXfXfXfXfXfXfXfXfXfXfXfXfXfXfXfXfXfXfXfXfXfXfXfXfXfXfXfXfXfXfXfXfXfX",
"fXfXfXfXfXfXfXfXfXfXfXfXfXfXfXfXfXfXfXfXfXfXfXfXfXfXfXfXfXfXfXfXfXfXfXfXfXfXfXfXfXfXfXfXfXfXfXfXfXfXfXfXfXfXfXfXfXfXfXfXfXfXfXfX",
"fXfXfXfXfXfXfXfXfXfXfXfXfXfXfXfXfXfXfXfXfXfXfXfXfXfXfXfXfXfXfXfXfXfXfXfXfXfXfXfXfXfXfXfXfXfXfXfXfXfXfXfXfXfXfXfXfXfXfXfXfXfXfXfX",
"fXfXfXfXfXfXfXfXfXfXfXfXfXfXfXfXfXfXfXfXfXfXfXfXfXfXfXfXfXfXfXfXfXfXfXfXfXfXfXfXfXfXfXfXfXfXfXfXfXfXfXfXfXfXfXfXfXfXfXfXfXfXfXfX",
"fXfXfXfXfXfXfXfXfXfXfXfXfXfXfXfXfXfXfXfXfXfXfXfXfXfXfXfXfXfXfXfXfXfXfXfXfXfXfXfXfXfXfXfXfXfXfXfXfXfXfXfXfXfXfXfXfXfXfXfXfXfXfXfX",
"fXfXfXfXfXfXfXfXfXfXfXfXfXfXfXfXfXfXfXfXfXfXfXfXfXfXfXfXfXfXfXfXfXfXfXfXfXfXfXfXfXfXfXfXfXfXfXfXfXfXfXfXfXfXfXfXfXfXfXfXfXfXfXfX",
"fXfXfXfXfXfXfXfXfXfXfXfXfXfXfXfXfXfXfXfXfXfXfXfXfXfXfXfXfXfXfXfXfXfXfXfXfXfXfXfXfXfXfXfXfXfXfXfXfXfXfXfXfXfXfXfXfXfXfXfXfXfXfXfX",
"fXfXfXfXfXfXfXfXfXfXfXfXfXfXfXfXfXfXfXfXfXfXfXfXfXfXfXfXfXfXfXfXfXfXfXfXfXfXfXfXfXfXfXfXfXfXfXfXfXfXfXfXfXfXfXfXfXfXfXfXfXfXfXfX",
"fXfXfXfXfXfXfXfXfXfXfXfXfXfXfXfXfXfXfXfXfXfXfXfXfXfXfXfXfXfXfXfXfXfXfXfXfXfXfXfXfXfXfXfXfXfXfXfXfXfXfXfXfXfXfXfXfXfXfXfXfXfXfXfX",
"fXfXfXfXfXfXfXfXfXfXfXfXfXfXfXfXfXfXfXfXfXfXfXfXfXfXfXfXfXfXfXfXfXfXfXfXfXfXfXfXfXfXfXfXfXfXfXfXfXfXfXfXfXfXfXfXfXfXfXfXfXfXfXfX",
"fXfXfXfXfXfXfXfXfXfXfXfXfXfXfXfXfXfXfXfXfXfXfXfXfXfXfXfXfXfXfXfXfXfXfXfXfXfXfXfXfXfXfXfXfXfXfXfXfXfXfXfXfXfXfXfXfXfXfXfXfXfXfXfX",
"fXfXfXfXfXfXfXfXfXfXfXfXfXfXfXfXfXfXfXfXfXfXfXfXfXfXfXfXfXfXfXfXfXfXfXfXfXfXfXfXfXfXfXfXfXfXfXfXfXfXfXfXfXfXfXfXfXfXfXfXfXfXfXfX",
"fXfXfXfXfXfXfXfXfXfXfXfXfXfXfXfXfXfXfXfXfXfXfXfXfXfXfXfXfXfXfXfXfXfXfXfXfXfXfXfXfXfXfXfXfXfXfXfXfXfXfXfXfXfXfXfXfXfXfXfXfXfXfXfX",
"fXfXfXfXfXfXfXfXfXfXfXfXfXfXfXfXfXfXfXfXfXfXfXfXfXfXfXfXfXfXfXfXfXfXfXfXfXfXfXfXfXfXfXfXfXfXfXfXfXfXfXfXfXfXfXfXfXfXfXfXfXfXfXfX",
"fXfXfXfXfXfXfXfXfXfXfXfXfXfXfXfXfXfXfXfXfXfXfXfXfXfXfXfXfXfXfXfXfXfXfXfXfXfXfXfXfXfXfXfXfXfXfXfXfXfXfXfXfXfXfXfXfXfXfXfXfXfXfXfX"
};
