/* XPM */
static char *result[] = {
/* columns rows colors chars-per-pixel */
"64 64 222 2 ",
"   c #000002",
".  c #01000B",
"X  c #000015",
"o  c #0A0115",
"O  c #00011C",
"+  c #0C0D1E",
"@  c #070C1C",
"#  c #0E111F",
"$  c #10121C",
"%  c #000621",
"&  c #030B23",
"*  c #080C26",
"=  c #120E21",
"-  c #061026",
";  c #0D1223",
":  c #0C1429",
">  c #02112B",
",  c #111324",
"<  c #13162B",
"1  c #18152C",
"2  c #151A2C",
"3  c #1A1C2D",
"4  c #191925",
"5  c #091A34",
"6  c #161E32",
"7  c #191D32",
"8  c #161D39",
"9  c #201C25",
"0  c #1D212A",
"q  c #172133",
"w  c #1C2232",
"e  c #1C2C3D",
"r  c #1D223B",
"t  c #29242C",
"y  c #2B2933",
"u  c #242837",
"i  c #2B323C",
"p  c #38343A",
"a  c #342931",
"s  c #463535",
"d  c #503D39",
"f  c #5C4937",
"g  c #614B3F",
"h  c #0B1B47",
"j  c #1D2A47",
"k  c #1F3452",
"l  c #0F3A54",
"z  c #262C47",
"x  c #26364B",
"c  c #353944",
"v  c #293855",
"b  c #343C5D",
"n  c #323658",
"m  c #3C3964",
"M  c #433D43",
"N  c #15425F",
"B  c #274558",
"V  c #364659",
"C  c #2E474F",
"Z  c #384669",
"A  c #34556C",
"S  c #3E4D72",
"D  c #2D5067",
"F  c #2F6375",
"G  c #37687C",
"H  c #36737C",
"J  c #36636A",
"K  c #0C4F70",
"L  c #4B4344",
"P  c #4C4548",
"I  c #574B4C",
"U  c #5A514B",
"Y  c #52514F",
"T  c #575656",
"R  c #65554C",
"E  c #665952",
"W  c #745C56",
"Q  c #6B4B44",
"!  c #6A665B",
"~  c #756656",
"^  c #7A6859",
"/  c #444A76",
"(  c #45527C",
")  c #5C5E69",
"_  c #4D7B7C",
"`  c #7A6E63",
"'  c #7C7666",
"]  c #616879",
"[  c #84745F",
"{  c #8A7258",
"}  c #846B62",
"|  c #8A7962",
" . c #987C69",
".. c #A6885E",
"X. c #97886B",
"o. c #9A987E",
"O. c #878A71",
"+. c #A68D6B",
"@. c #A9916E",
"#. c #AA8974",
"$. c #AA9878",
"%. c #B79976",
"&. c #B7946E",
"*. c #BDA57A",
"=. c #C39D76",
"-. c #C29A6A",
";. c #CBAB7E",
":. c #C6A679",
">. c #D8B27C",
",. c #D1AF7D",
"<. c #E8B77D",
"1. c #F5BF7F",
"2. c #FFC87F",
"3. c #0B749A",
"4. c #3B6B84",
"5. c #2A7A95",
"6. c #34788F",
"7. c #485C86",
"8. c #46678B",
"9. c #457795",
"0. c #466D8F",
"q. c #3B8193",
"w. c #3D8A9C",
"e. c #36889C",
"r. c #3D909E",
"t. c #1A87A5",
"y. c #3A94A5",
"u. c #3087A3",
"i. c #3FA4AA",
"p. c #458689",
"a. c #42849B",
"s. c #438A9A",
"d. c #47949C",
"f. c #528E90",
"g. c #699A98",
"h. c #448FA3",
"j. c #4B88A5",
"k. c #4393A3",
"l. c #479AA6",
"z. c #479DB2",
"x. c #45A0AB",
"c. c #52A4A3",
"v. c #56ACA7",
"b. c #5AB2AC",
"n. c #5CB9B1",
"m. c #40B4B4",
"M. c #5EC1B9",
"N. c #62C2B6",
"B. c #63C5BA",
"V. c #5DCDD5",
"C. c #65CCC1",
"Z. c #69D5C9",
"A. c #6AD8D8",
"S. c #72E6D6",
"D. c #869496",
"F. c #A39C82",
"G. c #8DAD99",
"H. c #AEA888",
"J. c #BAAD87",
"K. c #BBBC96",
"L. c #BFB48D",
"P. c #9095A8",
"I. c #A39FA4",
"U. c #91BAA3",
"Y. c #B1B2AD",
"T. c #C79F82",
"R. c #C9B88B",
"E. c #D4B483",
"W. c #DAB683",
"Q. c #DBBA85",
"!. c #D9BB8A",
"~. c #C7B190",
"^. c #E1BC85",
"/. c #C1BCA8",
"(. c #9FCFB4",
"). c #B2CFAC",
"_. c #DCC18E",
"`. c #DCC592",
"'. c #D5C896",
"]. c #DFD59C",
"[. c #C9C698",
"{. c #E3C08B",
"}. c #E9C68B",
"|. c #F3CB8E",
" X c #F8C786",
".X c #E5CA96",
"XX c #F4CD91",
"oX c #EEDB9B",
"OX c #EAD89E",
"+X c #FDD594",
"@X c #FBDA97",
"#X c #FFE29C",
"$X c #FFE99F",
"%X c #DFD6B2",
"&X c #ECDDA5",
"*X c #E7D8A2",
"=X c #F3DDA2",
"-X c #ECDBBA",
";X c #EEE1A9",
":X c #F8E8A9",
">X c #FFF5AC",
",X c #E7E7B7",
"<X c #F5EAB5",
"1X c #FFFEBD",
"2X c #FEF3B7",
"3X c #9CA5C3",
"4X c #BCC1CF",
"5X c #E1D9D1",
"6X c #F5E9C6",
"7X c #FFFDC4",
"8X c #FFFCCA",
"9X c #FFFDD2",
"0X c #FBF7D8",
"qX c #EEECCE",
"wX c #ECEAE4",
"eX c #FFFFE3",
"rX c #FFFEEB",
"tX c #FBF4E4",
"yX c #FFFFF3",
"uX c #FFFFFD",
"iX c #F5F7F7",
"pX c None",
/* pixels */
"pXpXpXpXpXpXpXpXpXpXpXpXpXpXpXpXpXpXpXpXpXpXpXpXpXpXpXpXpXpXpXpXpXpXpXpXpXpXpXpXpXpXpXpXpXpXpXpXpXpXpXpXpXpXpXpXpXpXpXpXpXpXpXpX",
"pXpXpXpXpXpXpXpXpXpXpXpXpXpXpXpXpXpXpXpXpXpXpXpXpXpXpXpXpXpXpXpXpXpXpXpXpXpXpXpXpXpXpXpXpXpXpXpXpXpXpXpXpXpXpXpXpXpXpXpXpXpXpXpX",
"pXpXpXpXpXpXpXpXpXpXpXpXpXpXpXpXpXpXpXpXpXpXpXpXpXpXpXpXpXpXpXpXpXpXpXpXpXpXpXpXpXpXpXpXpXpXpXpXpXpXpXpXpXpXpXpXpXpXpXpXpXpXpXpX",
"pXpXpXpXpXpXpXpXpXpXpXpXpXpXpXpXpXpXpXpXpXpXpXpXpXpXpXpXpXpXpXpXpXpXpXpXpXpXpXpXpXpXpXpXpXpXpXpXpXpXpXpXpXpXpXpXpXpXpXpXpXpXpXpX",
"pXpXpXpXpXpXpXpXpXpXpXpXpXpXpXpXpXpXpXpXpXpXpXpXpXpXpXpXpXpXpXpXpXpXpXpXpXpXpXpXpXpXpXpXpXpXpXpXpXpXpXpXpXpXpXpXpXpXpXpXpXpXpXpX",
"pXpXpXpXpXpXpXpXpXpXpXpXpXpXpXpXpXpXpXpXpXpXpXpXpXpXpXpXpXpXpXpXpXpXpXpXpXpXpXpXpXpXpXpXpXpXpXpXpXpXpXpXpXpXpXpXpXpXpXpXpXpXpXpX",
"pXpXpXpXpXpXpXpXpXpXpXpXpXpXpXpXpXpXpXpXpXpXpXpXpXpXpXpXpXpXpXpXpXpXpXpXpXpXpXpXpXpXpXpXpXpXpXpXpXpXpXpXpXpXpXpXpXpXpXpXpXpXpXpX",
"pXpXpXpXpXpXpXpXpXpXpXpXpXpXpXpXpXpXpXpXpXpXpXpX< x q o pXpXpXpXpXpXpXpXpXpXpXpXpXpXpXpXpXpXpXpXpXpXpXpXpXpXpXpXpXpXpXpXpXpXpXpX",
"pXpXpXpXpXpXpXpXpXpXpXpXpXpXpXpXpXpXpXpXpXpX< o , H B 2 w o pXpXpXpXpXpXpXpXpXpXpXpXpXpXpXpXpXpXpXpXpXpXpXpXpXpXpXpXpXpXpXpXpXpX",
"pXpXpXpXpXpXpXpXpXpXpXpXpXpXpXpXpXpXpXpXpX< 7 B F w.v.b.v.H C X pXpXpXpXpXpXpXpXpXpXpXpXpXpXpXpXpXpXpXpXpXpXpXpXpXpXpXpXpXpXpXpX",
"pXpXpXpXpXpXpXpXpXpXpXpXpXpXpXpXpXpXpXpX4 , A z.l.c.n.b.l.Z.B.D , pXpXpXpXpXpXpXpXpXpXpXpXpXpXpXpXpXpXpXpXpXpXpXpXpXpXpXpXpXpXpX",
"pXpXpXpXpXpXpXpXpXpXpXpXpXpXpXpXpXpXpXpX, B h.w.k.B.B.b.d.c.B.Z.9.6 pXpXpXpXpXpXpXpXpXpXpXpXpXpXpXpXpXpXpXpXpXpXpXpXpXpXpXpXpXpX",
"pXpXpXpXpXpXpXpXpXpXpXpXpXpXpXpXpXpXpX, u 8.a.r.q.c.b.B.B.d.l.B.B.G , pXpXpXpXpXpXpXpXpXpXpXpXpXpXpXpXpXpXpXpXpXpXpXpXpXpXpXpXpX",
"pXpXpXpXpXpXpXpXpXpXpXpXpXpXpXpXpXpXpX; v z.y.H 7 ; w J B.B.p.p.Z.c.q pXpXpXpXpXpXpXpXpXpXpXpXpXpXpXpXpXpXpXpXpXpXpXpXpXpXpXpXpX",
"pXpXpXpXpXpXpXpXpXpXpXpXpXpXpXpXpXpXpXpXz 7.k.( m x # . C B.Z.B J S.H ; pXpXpXpXpXpXpXpXpXpXpXpXpXpXpXpXpXpXpXpXpXpXpXpXpXpXpXpX",
"pXpXpXpXpXpXpXpXpXpXpXpXpXpXpXpXpXpXpXpX; n 8.9.7.7.Z 3 X x N.n.q f.b.5 pXpXpXpXpXpXpXpXpXpXpXpXpXpXpXpXpXpXpXpXpXpXpXpXpXpXpXpX",
"pXpXpXpXpXpXpXpXpXpXpXpXpXpXpXpXpXpXpXpXpX, u B S ( Z 2 2 . B A.B C j.7 pXpXpXpXpXpXpXpXpXpXpXpXpXpXpXpXpXpXpXpXpXpXpXpXpXpXpXpX",
"pXpXpXpXpXpXpXpXpXpXpXpXpXpXpXpXpXpXpXpXpXpX, = 7 r 4 < pX, r a.A G 8.< pXpXpXpXpXpXpXpXpXpXpXpXpXpXpXpXpXpXpXpXpXpXpXpXpXpXpXpX",
"pXpXpXpXpXpXpXpXpXpXpXpXpXpXpXpXpXpXpXpXpXpXpXpXpXpXpXpXpX, q 6.x 4.v pXpXpXpXpXpXpXpXpXpXpXpXpXpXpXpXpXpXpXpXpXpXpXpXpXpXpXpXpX",
"pXpXpXpXpXpXpXpXpXpXpXpXpXpXpXpXpXpXpXpXpXpXpXpXpXpXpXpX: 4 j A B 4.. pXpXpXpXpXpXpXpXpXpXpXpXpXpXpXpXpXpXpX!.pXpXpXpXpXpXpXpXpX",
"pXpXpXpXpXpXpXpXpXpXpXpXpXpXpXpXpXpXpXpXpXpXpXpXpXpXi R R & h O   O ` ) i pXpXpXpXpXpXpXpXpXpXpXpXpXpXpXpX>.{.pXpXpXpXpXpXpXpXpX",
"pXpXpXpXpXpXpXpXpXpXpXpXpXpXpXpXpXpXpXpXpXpXpXpXpXO p <X5XP.3XP.D.P.yX5X8 X pXpXpXpXpXpXpXpXpXpXpXpXpXpX}.eXT pXpXpXpXpXpXpXpXpX",
"pXpXpXpXpXpXpXpXpXpXpXpXpXpXpXpXpXpXpXpXpXpXpXpX- c p i ~.uXyXrX0X0X@XJ.~ L * pXpXpXpXpXpXpXpXpXpXpXpX%.rXiX- pXpXpXpXpXpXpXpXpX",
"pXpXpXpXpXpXpXpXpXpXpXpXpXpXpXpXpXpXpXpXpXpXpXpX% E %.%.OX;X;X&X,X6X0X0X>X>.2 pXpXpXpXpXpXpXpXpXpXpX4 5XuX,X0 pXpXpXpXpXpXpXpXpX",
"pXpXpXpXpXpXpXpXpXpXpXpXpXpXpXpXpXpXpXpXpXpXpX: w } %.Q.OX:X<XqX0XuXuXiX0X:X~ pXpXpXpXpXpXpXpXpXpX:.J.uXtX].u pXpXpXpXpXpXpXpXpX",
"pXpXpXpXpXpXpXpXpXpXpXpXpXpXpXpXpXpXpXpXpXpXpX& U #.%.W.`.<X&X&XOX:X%Xc ~.1X_.3 pXpXpXpXpXpXpXpXpX$.yXyX{.oXi pXpXpXpXpXpXpXpXpX",
"pXpXpXpXpXpXpXpXpXpXpXpXpXpXpXpXpXpXpXpXpXpXpX- c #.;.Q.,.`.<X<X=X9XwXO f 8X6X@ pXpXpXpXpXpXpXpX  D.uX_.oX$.< pXpXpXpXpXpXpXpXpX",
"pXpXpXpXpXpXpXpXpXpXpXpXpXpXpXpX> pXpXpXpXpX: u }  .E.W.,.>._..X;XuXiX: , .X6X` pXpXpXpXpXpXpXpX2 qX<X>._.2 pXpXpXpXpXpXpXpXpXpX",
"pXpXpXpXpXpXpXpXpXpXpXpXpXpXpX: U u pXpXpXpX: w  .%.^.W.!.{.>..X2X9XrXe X ..eX/.X pXpXpXpXpXpXX O.7XW.XX~ O pXpXpXpXpXpXpXpXpXpX",
"pXpXpXpXpXpXpXpXpXpXpXpXpXpXpX% R E.L O pXpX: w ^ #.E.E.:.@.:.`.OX0X4X4 @ p X.C & pXpXpXpXpXpXw 2X&X>.E.7 pXpXpXpXpXpXpXpXpXpXpX",
"pXpXpXpXpXpXpXpXpXpXpXpXpXpXpXq X U @XY O pXq < 7 W #.!.*.Y & O : 8 O ; w >   & 3 pXpXpXpXpXX o.K.U $X~ % pXpXpXpXpXpXpXpXpXpXpX",
"pXpXpXpXpXpXpXpXpXpXpXpXpXpXpXe 4.5 f  X! O O & P #.T.|.{.;XH.! 2 # < * < & ` *Xi : pXpXpXpXw 1X! ^ }.w pXpXpXpXpXpXpXpXpXpXpXpX",
"pXpXpXpXpXpXpXpXpXpXpXpXpXpXpXw k.z.K T &. .f O O } :.T.;.W.@X1X;X,XwX) X p :X0X' pXpXpXpXX o.2Xp |.^ O pXpXpXpXpXpXpXpXpXpXpXpX",
"pXpXpXpXpXpXpXpXpXpXpXpXpXpXpXq 6.h.y.6.` &.R.*. .c P P :.^.:._.2X2XuXI.  +.rXeXX.X e 2 pX3 &X` ~ }.w pXpXpXpXpXpXpXpXpXpXpXpXpX",
"pXpXpXpXpXpXpXpXpXpXpXpXpXpXpXq q.d.w.k.R.{ t Y X.'.[.O ~ @X,.,.OX;XeX]   .X7X>Xf O B.d.X  .*.& XX| O pXpXpXpXpXpXpXpXpXpXpXpXpX",
"pXpXpXpXpXpXpXpXpXpXpXpXpXpXpXq 6.h.l.c.W.|.,.X.4 c !.: U @X+X<.`.;X<XY.I.<X7XJ.% F B H c |.i s {.w pXpXpXpXpXpXpXpXpXpXpXpXpXpX",
"pXpXpXpXpXpXpXpXpXpXpXpXpXpXpXq q.w.e.v.,X;X_.#X;.u J.y * M [ :.:X1X&XyXuX:XoXt > Z.H   { @.: #.R % pXpXpXpXpXpXpXpXpXpXpXpXpXpX",
"pXpXpXpXpXpXpXpXpXpXpXpXpXpXpXw 5.u.q.x.).@X_.>.:.c %.i > X X 2 ' &X7X9X8X>Xs h 7 H V.G t X L #.w O pXpXpXpXpXpXpXpXpXpXpXpXpXpX",
"pXpXpXpXpXpXpXpXpXpXpXpXpXpXpXt H.g.5.3.G.+X*X!.Q.U +.t k n 7 & . 0 W R.[.p h 7.b & l y.e.v u + z ( B pXpXpXpXpXpXpXpXpXpXpXpXpX",
"pXpXpXpXpXpXpXpXpXpXpXpXpXpXpXu <. XK.y.G.2.Q.!.W. .%.0 v j.( b z - . ; + * ( 7.m 1 s 6 N 8.( j ; D B ; pXpXpXpXpXpXpXpXpXpXpXpX",
"pXpXpXpXpXpXpXpXpXpXpXpXpXpXpXw ;.^.#X1XG.o.<.^.,.%.;.4 z j.w.0.7.Z n ; 8 / 0.7.O P T.=.s O v / V 3 + pXpXpXpXpXpXpXpXpXpXpXpXpX",
"pXpXpXpXpXpXpXpXpXpXpXpXpXpXpXO | +X!.>X(.t.g.~.-.~ E.4 k h.k.w.a.0.( m / 0.9.z X I Q.@X{.R @ q m r pXpXpXpXpXpXpXpXpXpXpXpXpXpX",
"pXpXpXpXpXpXpXpXpXpXpXpXpXpXpX% L |.W.|.(.i.y.y.f.a &.t k 9.j.y.y.x.a.0.j.s.j # * u %.XX$XXX7 * ; pXpXpXpXpXpXpXpXpXpXpXpXpXpXpX",
"pXpXpXpXpXpXpXpXpXpXpXpXpXpXpXpX% X.+X<.o.y.r.e.5.5  .y j / S 4.4.4.0.6.G e # 3 7 * y E | P ; pXpXpXpXpXpXpXpXpXpXpXpXpXpXpXpXpX",
"pXpXpXpXpXpXpXpXpXpXpXpXpXpXpXpXpX& @.+X>.p.q.y.6.U W : 2 q 3 1 1 1 < 1 , = pXpX7 ( j X O & pXpXpXpXpXpXpXpXpXpXpXpXpXpXpXpXpXpX",
"pXpXpXpXpXpXpXpXpXpXpXpXpXpXpXpXpXpX& @.#XD.u.e.V W 2 ; 2 < < < < 4 2 < 2 pXpXpX< x x < pXpXpXpXpXpXpXpXpXpXpXpXpXpXpXpXpXpXpXpX",
"pXpXpXpXpXpXpXpXpXpXpXpXpXpXpXpXpXpXpX% -.).t.j t u pXpX2 2 2 pXpXq 2 6 pXpXpXpXpXpXpXpXpXpXpXpXpXpXpXpXpXpXpXpXpXpXpXpXpXpXpXpX",
"pXpXpXpXpXpXpXpXpXpXpXpXpXpXpXpXpXpXpXpX4 _ B Q u pXpX2 2 q 6 pX2 2 2 3 pXpXpXpXpXpXpXpXpXpXpXpXpXpXpXpXpXpXpXpXpXpXpXpXpXpXpXpX",
"pXpXpXpXpXpXpXpXpXpXpXpXpXpXpXpXpXpXpXpXpX& t M pXpXpXpXpXpXpXpXpXpXpXpXpXpXpXpXpXpXpXpXpXpXpXpXpXpXpXpXpXpXpXpXpXpXpXpXpXpXpXpX",
"pXpXpXpXpXpXpXpXpXpXpXpXpXpXpXpXpXpXpXpXpXpX2 - pXpXpXpXpXpXpXpXpXpXpXpXpXpXpXpXpXpXpXpXpXpXpXpXpXpXpXpXpXpXpXpXpXpXpXpXpXpXpXpX",
"pXpXpXpXpXpXpXpXpXpXpXpXpXpXpXpXpXpXpXpXpXpXpXpXpXpXpXpXpXpXpXpXpXpXpXpXpXpXpXpXpXpXpXpXpXpXpXpXpXpXpXpXpXpXpXpXpXpXpXpXpXpXpXpX",
"pXpXpXpXpXpXpXpXpXpXpXpXpXpXpXpXpXpXpXpXpXpXpXpXpXpXpXpXpXpXpXpXpXpXpXpXpXpXpXpXpXpXpXpXpXpXpXpXpXpXpXpXpXpXpXpXpXpXpXpXpXpXpXpX",
"pXpXpXpXpXpXpXpXpXpXpXpXpXpXpXpXpXpXpXpXpXpXpXpXpXpXpXpXpXpXpXpXpXpXpXpXpXpXpXpXpXpXpXpXpXpXpXpXpXpXpXpXpXpXpXpXpXpXpXpXpXpXpXpX",
"pXpXpXpXpXpXpXpXpXpXpXpXpXpXpXpXpXpXpXpXpXpXpXpXpXpXpXpXpXpXpXpXpXpXpXpXpXpXpXpXpXpXpXpXpXpXpXpXpXpXpXpXpXpXpXpXpXpXpXpXpXpXpXpX",
"pXpXpXpXpXpXpXpXpXpXpXpXpXpXpXpXpXpXpXpXpXpXpXpXpXpXpXpXpXpXpXpXpXpXpXpXpXpXpXpXpXpXpXpXpXpXpXpXpXpXpXpXpXpXpXpXpXpXpXpXpXpXpXpX",
"pXpXpXpXpXpXpXpXpXpXpXpXpXpXpXpXpXpXpXpXpXpXpXpXpXpXpXpXpXpXpXpXpXpXpXpXpXpXpXpXpXpXpXpXpXpXpXpXpXpXpXpXpXpXpXpXpXpXpXpXpXpXpXpX",
"pXpXpXpXpXpXpXpXpXpXpXpXpXpXpXpXpXpXpXpXpXpXpXpXpXpXpXpXpXpXpXpXpXpXpXpXpXpXpXpXpXpXpXpXpXpXpXpXpXpXpXpXpXpXpXpXpXpXpXpXpXpXpXpX",
"pXpXpXpXpXpXpXpXpXpXpXpXpXpXpXpXpXpXpXpXpXpXpXpXpXpXpXpXpXpXpXpXpXpXpXpXpXpXpXpXpXpXpXpXpXpXpXpXpXpXpXpXpXpXpXpXpXpXpXpXpXpXpXpX",
"pXpXpXpXpXpXpXpXpXpXpXpXpXpXpXpXpXpXpXpXpXpXpXpXpXpXpXpXpXpXpXpXpXpXpXpXpXpXpXpXpXpXpXpXpXpXpXpXpXpXpXpXpXpXpXpXpXpXpXpXpXpXpXpX",
"pXpXpXpXpXpXpXpXpXpXpXpXpXpXpXpXpXpXpXpXpXpXpXpXpXpXpXpXpXpXpXpXpXpXpXpXpXpXpXpXpXpXpXpXpXpXpXpXpXpXpXpXpXpXpXpXpXpXpXpXpXpXpXpX",
"pXpXpXpXpXpXpXpXpXpXpXpXpXpXpXpXpXpXpXpXpXpXpXpXpXpXpXpXpXpXpXpXpXpXpXpXpXpXpXpXpXpXpXpXpXpXpXpXpXpXpXpXpXpXpXpXpXpXpXpXpXpXpXpX",
"pXpXpXpXpXpXpXpXpXpXpXpXpXpXpXpXpXpXpXpXpXpXpXpXpXpXpXpXpXpXpXpXpXpXpXpXpXpXpXpXpXpXpXpXpXpXpXpXpXpXpXpXpXpXpXpXpXpXpXpXpXpXpXpX",
"pXpXpXpXpXpXpXpXpXpXpXpXpXpXpXpXpXpXpXpXpXpXpXpXpXpXpXpXpXpXpXpXpXpXpXpXpXpXpXpXpXpXpXpXpXpXpXpXpXpXpXpXpXpXpXpXpXpXpXpXpXpXpXpX",
"pXpXpXpXpXpXpXpXpXpXpXpXpXpXpXpXpXpXpXpXpXpXpXpXpXpXpXpXpXpXpXpXpXpXpXpXpXpXpXpXpXpXpXpXpXpXpXpXpXpXpXpXpXpXpXpXpXpXpXpXpXpXpXpX"
};
