/* XPM */
static char *result[] = {
/* columns rows colors chars-per-pixel */
"64 64 229 2 ",
"   c #000001",
".  c #01000D",
"X  c #000015",
"o  c #0A0216",
"O  c #00021B",
"+  c #04091C",
"@  c #0D0D1C",
"#  c #0B0615",
"$  c #16131A",
"%  c #0F0F1F",
"&  c #000321",
"*  c #030B23",
"=  c #0C0D22",
"-  c #020C2A",
";  c #0D1223",
":  c #0C142A",
">  c #08142C",
",  c #121425",
"<  c #12162A",
"1  c #18152B",
"2  c #151A2C",
"3  c #191D2D",
"4  c #181D25",
"5  c #0B1833",
"6  c #131B31",
"7  c #191E32",
"8  c #151633",
"9  c #130E22",
"0  c #211E39",
"q  c #1B2234",
"w  c #1E253C",
"e  c #1D2A3C",
"r  c #182738",
"t  c #1F2C36",
"y  c #212634",
"u  c #272838",
"i  c #3A3637",
"p  c #2C2B33",
"a  c #44383A",
"s  c #593F38",
"d  c #412C30",
"f  c #58403C",
"g  c #192B44",
"h  c #1D3244",
"j  c #1D354A",
"k  c #1D3857",
"l  c #053251",
"z  c #292B48",
"x  c #223246",
"c  c #353745",
"v  c #2A3855",
"b  c #333758",
"n  c #2F3E64",
"m  c #353E61",
"M  c #423D43",
"N  c #13425E",
"B  c #294959",
"V  c #2E525C",
"C  c #27424E",
"Z  c #184B63",
"A  c #3C436B",
"S  c #394769",
"D  c #2A5163",
"F  c #2B5969",
"G  c #325466",
"H  c #3A4C78",
"J  c #31556C",
"K  c #38666A",
"L  c #346878",
"P  c #2D6672",
"I  c #4A4343",
"U  c #49494A",
"Y  c #574A48",
"T  c #5B544D",
"R  c #545655",
"E  c #4F5D5E",
"W  c #68594E",
"Q  c #6C5C54",
"!  c #735D53",
"~  c #6F4F46",
"^  c #666155",
"/  c #7C6C59",
"(  c #756759",
")  c #796A55",
"_  c #424A74",
"`  c #45557D",
"'  c #425077",
"]  c #565D68",
"[  c #747363",
"{  c #77767E",
"}  c #6F6C66",
"|  c #8A765F",
" . c #8F7556",
".. c #887A65",
"X. c #977C67",
"o. c #9F7F70",
"O. c #8B6E62",
"+. c #B6945F",
"@. c #8A816A",
"#. c #9B8367",
"$. c #838475",
"%. c #9D9276",
"&. c #A48E6E",
"*. c #B8986D",
"=. c #A78872",
"-. c #AB9572",
";. c #A79777",
":. c #B89A78",
">. c #AF946F",
",. c #BCA278",
"<. c #C6A57B",
"1. c #CBAB7D",
"2. c #C7A576",
"3. c #D1AD7C",
"4. c #D3AD70",
"5. c #DBB37D",
"6. c #D7B37B",
"7. c #C4A06B",
"8. c #EDB778",
"9. c #F0B476",
"0. c #1F799A",
"q. c #3D6883",
"w. c #397687",
"e. c #367E93",
"r. c #256B85",
"t. c #495984",
"y. c #48668A",
"u. c #467996",
"i. c #787D87",
"p. c #29819D",
"a. c #3C8295",
"s. c #39869B",
"d. c #3C919F",
"f. c #2C8BA4",
"g. c #3D91A2",
"h. c #3597A9",
"j. c #2E97AD",
"k. c #448385",
"l. c #44849C",
"z. c #438B9D",
"x. c #4B9498",
"c. c #7A958D",
"v. c #53A49F",
"b. c #4A8AA4",
"n. c #4394A4",
"m. c #4495A9",
"M. c #439BAA",
"N. c #4C97AA",
"B. c #569CA3",
"V. c #469EB1",
"C. c #4CA3A8",
"Z. c #55ADAD",
"A. c #54A5A4",
"S. c #5AB3AC",
"D. c #59B7B4",
"F. c #4BA5B5",
"G. c #60BDB2",
"H. c #5FC1BB",
"J. c #62C6BA",
"K. c #5CC6C6",
"L. c #65CEC5",
"P. c #68D2C6",
"I. c #71EADE",
"U. c #9B9C87",
"Y. c #868E8E",
"T. c #8BA294",
"R. c #B4A884",
"E. c #A7BB9E",
"W. c #B8B393",
"Q. c #9A9FB1",
"!. c #85BEAB",
"~. c #B3B6B4",
"^. c #CDAC82",
"/. c #CAA484",
"(. c #D3AD86",
"). c #CDB284",
"_. c #D4B483",
"`. c #DBBB85",
"'. c #DCB889",
"]. c #C6BA99",
"[. c #C1A897",
"{. c #E2BE87",
"}. c #8CD2B7",
"|. c #DBC48D",
" X c #DBC795",
".X c #E4C28A",
"XX c #EDC58A",
"oX c #E8C384",
"OX c #F6C888",
"+X c #E3CB94",
"@X c #E7CE94",
"#X c #F7CF91",
"$X c #EAD69A",
"%X c #F6D293",
"&X c #FDD593",
"*X c #FCDB99",
"=X c #FCD08F",
"-X c #FFE09C",
";X c #DCCEB9",
":X c #DCD3A4",
">X c #ECDDA3",
",X c #EADAA7",
"<X c #F2DCA4",
"1X c #E7D7B5",
"2X c #EECEA5",
"3X c #EBE0A7",
"4X c #FFEAA5",
"5X c #F6E6AA",
"6X c #EAEBB3",
"7X c #F2E3B3",
"8X c #F8E5B6",
"9X c #FFFFBC",
"0X c #FDF6B7",
"qX c #DDD5CC",
"wX c #EBDFC5",
"eX c #F5ECC7",
"rX c #FFFFC3",
"tX c #FFFECB",
"yX c #FDF4CC",
"uX c #EBE5D8",
"iX c #FFFFD4",
"pX c #EDEAC7",
"aX c #EDEBE8",
"sX c #FEFEE3",
"dX c #FFFFEA",
"fX c #F1F0E1",
"gX c #FFFFFF",
"hX c #F6F8F9",
"jX c None",
/* pixels */
"jXjXjXjXjXjXjXjXjXjXjXjXjXjXjXjXjXjXjXjXjXjXjXjXjXjXjXjXjXjXjXjXjXjXjXjXjXjXjXjXjXjXjXjXjXjXjXjXjXjXjXjXjXjXjXjXjXjXjXjXjXjXjXjX",
"jXjXjXjXjXjXjXjXjXjXjXjXjXjXjXjXjXjXjXjXjXjXjXjXjXjXjXjXjXjXjXjXjXjXjXjXjXjXjXjXjXjXjXjXjXjXjXjXjXjXjXjXjXjXjXjXjXjXjXjXjXjXjXjX",
"jXjXjXjXjXjXjXjXjXjXjXjXjXjXjXjXjXjXjXjXjXjXjXjXjXjXjXjXjXjXjXjXjXjXjXjXjXjXjXjXjXjXjXjXjXjXjXjXjXjXjXjXjXjXjXjXjXjXjXjXjXjXjXjX",
"jXjXjXjXjXjXjXjXjXjXjXjXjXjXjXjXjXjXjXjXjXjXjXjXjXjXjXjXjXjXjXjXjXjXjXjXjXjXjXjXjXjXjXjXjXjXjXjXjXjXjXjXjXjXjXjXjXjXjXjXjXjXjXjX",
"jXjXjXjXjXjXjXjXjXjXjXjXjXjXjXjXjXjXjXjXjXjXjXjXjXjXjXjXjXjXjXjXjXjXjXjXjXjXjXjXjXjXjXjXjXjXjXjXjXjXjXjXjXjXjXjXjXjXjXjXjXjXjXjX",
"jXjXjXjXjXjXjXjXjXjXjXjXjXjXjXjXjXjXjXjXjXjXjXjXjXjXjXjXjXjXjXjXjXjXjXjXjXjXjXjXjXjXjXjXjXjXjXjXjXjXjXjXjXjXjXjXjXjXjXjXjXjXjXjX",
"jXjXjXjXjXjXjXjXjXjXjXjXjXjXjXjXjXjXjXjXjXjXjXjXjXjXjXjXjXjXjXjXjXjXjXjXjXjXjXjXjXjXjXjXjXjXjXjXjXjXjXjXjXjXjXjXjXjXjXjXjXjXjXjX",
"jXjXjXjXjXjXjXjXjXjXjXjXjXjXjXjXjXjXjXjXjXjXjXjXjXjXjXjXjXjXjXjXjXjXjXjXjXjXjXjXjXjXjXjXjXjXjXjXjXjXjXjXjXjXjXjXjXjXjXjXjXjXjXjX",
"jXjXjXjXjXjXjXjXjXjXjXjXjXjXjXjXjXjXjXjXjXjXjXjXjXjXjXjXjXjXjXjXjXjXjXjXjXjXjXjXjXjXjXjXjXjXjXjXjXjXjXjXjXjXjXjXjXjXjXjXjXjXjXjX",
"jXjXjXjXjXjXjXjXjXjXjXjXjXjXjXjXjXjXjXjXjXjXjXjXjXjXjXjXjXjXjXjXjXjXjXjXjXjXjXjXjXjXjXjXjXjXjXjXjXjXjXjXjXjXjXjXjXjXjXjXjXjXjXjX",
"jXjXjXjXjXjXjXjXjXjXjXjXjXjXjXjXjXjXjXjXjXjXjXjXjXjXjXjXjXjXjXjXjXjXjXjXjXjXjXjXjXjXjXjXjXjXjXjXjXjXjXjXjXjXjXjXjXjXjXjXjXjXjXjX",
"jXjXjXjXjXjXjXjXjXjXjXjXjXjXjXjXjXjXjXjXjXjXjXjXjXjXjXjXjXjXjXjXjXjXjXjXjXjXjXjXjXjXjXjXjXjXjXjXjXjXjXjXjXjXjXjXjXjXjXjXjXjXjXjX",
"jXjXjXjXjXjXjXjXjXjXjXjXjXjXjXjXjXjXjXjXjX2 o q e q r , o jXjXjXjXjXjXjXjXjXjXjXjXjXjXjXjXjXjXjXjXjXjXjXjXjXjXjXjXjXjXjXjXjXjXjX",
"jXjXjXjXjXjXjXjXjXjXjXjXjXjXjXjXjXjXjXe L B K v.A.S.D.k.B ; o jXjXjXjXjXjXjXjXjXjXjXjXjXjXjXjXjXjXjXjXjXjXjXjXjXjXjXjXjXjXjXjXjX",
"jXjXjXjXjXjXjXjXjXjXjXjXjXjXjXjXjXjX, 2 w.S.L.N.C.D.S.P.I.v.e # jXjXjXjXjXjXjXjXjXjXjXjXjXjXjXjXjXjXjXjXjXjXjXjXjXjXjXjXjXjXjXjX",
"jXjXjXjXjXjXjXjXjXjXjXjXjXjXjXjXjXjX@ j m.Z.S.G.D.Z.C.K V J.P.h # jXjXjXjXjXjXjXjXjXjXjXjXjXjXjXjXjXjXjXjXjXjXjXjXjXjXjXjXjXjXjX",
"jXjXjXjXjXjXjXjXjXjXjXjXjXjXjXjXjX2 7 e.m.S.P.J.A.S.J.S.V % x.J.g @ jXjXjXjXjXjXjXjXjXjXjXjXjXjXjXjXjXjXjXjXjXjXjXjXjXjXjXjXjXjX",
"jXjXjXjXjXjXjXjXjXjXjXjXjXjXjXjXjX, J m.l.N.x.t @ , v k.L.K v N.M.j jXjXjXjXjXjXjXjXjXjXjXjXjXjXjXjXjXjXjXjXjXjXjXjXjXjXjXjXjXjX",
"jXjXjXjXjXjXjXjXjXjXjXjXjXjXjXjXjX# B M.m.V . 3 b 7 o o < V l.w.F w.3 jXjXjXjXjXjXjXjXjXjXjXjXjXjXjXjXjXjXjXjXjXjXjXjXjXjXjXjXjX",
"jXjXjXjXjXjXjXjXjXjXjXjXjXjXjXjXjXq S u.s.2 z t.y.A < : + . P b.z a.5 jXjXjXjXjXjXjXjXjXjXjXjXjXjXjXjXjXjX1.XXjXjXjXjXjXjXjXjXjX",
"jXjXjXjXjXjXjXjXjXjXjXjXjXjXjXjXjX< S m.g.S ' ' ' t.: + p # N v 6 j $ # * jXjXjXjXjXjXjXjXjXjXjXjXjXjXjX6.2X;.jXjXjXjXjXjXjXjXjX",
"jXjXjXjXjXjXjXjXjXjXjXjXjXjXjXjXjX; w y.u.l.` t.t.> i 2X[.b A z 2 z wXqXc O jXjXjXjXjXjXjXjXjXjXjXjXjX*.8XgXq jXjXjXjXjXjXjXjXjX",
"jXjXjXjXjXjXjXjXjXjXjXjXjXjXjXjXjXjX; y _ ` S v g @ p { ;XgXhXaXaXuXdX;Xc + < jXjXjXjXjXjXjXjXjXjXjX$ ].gXuX4 jXjXjXjXjXjXjXjXjX",
"jXjXjXjXjXjXjXjXjXjXjXjXjXjXjXjXjXjXjX, 2 q < @ O T / i R.rX0X5X,X8X$X|.6.X.* jXjXjXjXjXjXjXjXjXjX*.T gXgX,Xy jXjXjXjXjXjXjXjXjX",
"jXjXjXjXjXjXjXjXjXjXjXjXjXjXjXjXjXjXjXjXjXjXjX3 * Q :.%X5X3X8XeXsXgXgXgXyX=Xa jXjXjXjXjXjXjXjXjXjX7.eXgX1X$Xu jXjXjXjXjXjXjXjXjX",
"jXjXjXjXjXjXjXjXjXjXjXjXjXjXjXjXjXjXjXjXjXjXjX- I o.:._. X0X8XpX7XeXaXQ.pX9X>.* jXjXjXjXjXjXjXjX  { gXwXoX@Xe jXjXjXjXjXjXjXjXjX",
"jXjXjXjXjXjXjXjXjXjXjXjXjXjXjXjXq < jXjXjXjXjX* M o.:.`.`.,X5X5X>X4X1XX  .iX7X3 jXjXjXjXjXjXjXjX. ~.sX4.$XR * jXjXjXjXjXjXjXjXjX",
"jXjXjXjXjXjXjXjXjXjXjXjXjXjXjX* p &.p jXjXjXjX2 Y o._.`.1.3.,X3X,XgXhX> p 8X6Xi < jXjXjXjXjXjXO U tX+XOX-.O jXjXjXjXjXjXjXjXjXjX",
"jXjXjXjXjXjXjXjXjXjXjXjXjXjXjX2 + Y %XT O jXjXq o.=._.'._._.3. X8XdXfXq # 7.tXW.+ jXjXjXjXjXjXX ].rX3.%XI O jXjXjXjXjXjXjXjXjXjX",
"jXjXjXjXjXjXjXjXjXjXjXjXjXjXjX7 x - s &XW O * q o./..X_.`.#XOX5XrXsXaXy X ! 0Xc.X jXjXjXjXjXO R 6X;.&X&.& jXjXjXjXjXjXjXjXjXjXjX",
"jXjXjXjXjXjXjXjXjXjXjXjXjXjXjX, P N.l T 3.Q > O i O.(..X,.Y f ( @.U.] - < 7 , O 2 jXjXjXjXjXO :X$.a 4Xf & jXjXjXjXjXjXjXjXjXjXjX",
"jXjXjXjXjXjXjXjXjXjXjXjXjXjXjX, D V.M.r.R /.'.X.< - Y <.{.U.x X       , q * 7 } 3 jXjXjXjXO R rXT 2.:.& jXjXjXjXjXjXjXjXjXjXjXjX",
"jXjXjXjXjXjXjXjXjXjXjXjXjXjXjX, D M.a.p.c.*.Q ( ).;.U.U i 4X0X X$.$.Y.u & 3 ).iXR O jXjXjXO  XW.M *XI & jXjXjXjXjXjXjXjXjXjXjXjX",
"jXjXjXjXjXjXjXjXjXjXjXjXjXjXjX, D M.x.f.T.8.( I t U 9X..X 2.{.<X9XiXgXY.  ! yXsX$.X k.V X Y @Xy <.<.& jXjXjXjXjXjXjXjXjXjXjXjXjX",
"jXjXjXjXjXjXjXjXjXjXjXjXjXjXjX, D m.d.h.E.-X%X#X).; / ..* ^.{._.,X3XsXi.  1.sXtX) - A.F.+ 1.O.; -XI & jXjXjXjXjXjXjXjXjXjXjXjXjX",
"jXjXjXjXjXjXjXjXjXjXjXjXjXjXjX, Z h.a.g.}.0X+X3.-XY [ ..* {.@X3.+X5XiXi.p <X9X+Xe C.j - [ @X+ O.-.* jXjXjXjXjXjXjXjXjXjXjXjXjXjX",
"jXjXjXjXjXjXjXjXjXjXjXjXjXjXjX, ] B.0.p.Z. X5X+XXX^ O.| O #.{.XX$X7X>XpXhX7X9X) X H.H.- s f c /.p O jXjXjXjXjXjXjXjXjXjXjXjXjXjX",
"jXjXjXjXjXjXjXjXjXjXjXjXjXjXjX;  .%XT.s.s.`.@X XoX#.#...O = y !  XtX0XdXiX0X#.8 : h g.F.N X a Y 7 x r jXjXjXjXjXjXjXjXjXjXjXjXjX",
"jXjXjXjXjXjXjXjXjXjXjXjXjXjXjX- | &X{.5X!.R.8.8.`.-.^./ & , O X q @. XyXtX;.* H A # < Z s.y.x + z y.D @ jXjXjXjXjXjXjXjXjXjXjXjX",
"jXjXjXjXjXjXjXjXjXjXjXjXjXjXjX* U {.|.4X6Xx.c.^.=X#.1.| - L b q - . + ^ ^ X S u.g i O.s < k t._ 8 q q jXjXjXjXjXjXjXjXjXjXjXjXjX",
"jXjXjXjXjXjXjXjXjXjXjXjXjXjXjX* < <..X.X3XD.j.x.E.T X.| * l.n.t._ z :   X n b.q.X Y (.*X#.+ < v A w , jXjXjXjXjXjXjXjXjXjXjXjXjX",
"jXjXjXjXjXjXjXjXjXjXjXjXjXjXjXjX& / *X5.).B.C.g.j.l ~ ..O e.C.d.u.y.m z b u.b.u O M {.#X*X_.1 * r 2 jXjXjXjXjXjXjXjXjXjXjXjXjXjX",
"jXjXjXjXjXjXjXjXjXjXjXjXjXjXjXjXjX: &.&X8.c.p.s.V.N ~ W - q.b.n.h.M.b.u.N.b.e ; , & ! /..X-.: jXjXjXjXjXjXjXjXjXjXjXjXjXjXjXjXjX",
"jXjXjXjXjXjXjXjXjXjXjXjXjXjXjXjXjXjX* &.*XR.0.g.s.E ! < b _ H q.y.q.q.u.L e @ 2 q v 5 : y < < jXjXjXjXjXjXjXjXjXjXjXjXjXjXjXjXjX",
"jXjXjXjXjXjXjXjXjXjXjXjXjXjXjXjXjXjXjX* >.&XB.f.g f q : y 7 3 < < 1 , 1 9 , 6 jX7 ' v + jXjXjXjXjXjXjXjXjXjXjXjXjXjXjXjXjXjXjXjX",
"jXjXjXjXjXjXjXjXjXjXjXjXjXjXjXjXjXjXjXjX@ %.B.C d : : 3 2 2 < 2 2 4 2 2 2 2 3 6 2 1 q jXjXjXjXjXjXjXjXjXjXjXjXjXjXjXjXjXjXjXjXjX",
"jXjXjXjXjXjXjXjXjXjXjXjXjXjXjXjXjXjXjXjXjX6 g Y Y jXjX6 2 2 jXjXjXjXjX3 3 6 3 3 jXjXjXjXjXjXjXjXjXjXjXjXjXjXjXjXjXjXjXjXjXjXjXjX",
"jXjXjXjXjXjXjXjXjXjXjXjXjXjXjXjXjXjXjXjXjXjX= 3 jXjXjX3 3 6 3 jXjXjXjXjXjX3 3 jXjXjXjXjXjXjXjXjXjXjXjXjXjXjXjXjXjXjXjXjXjXjXjXjX",
"jXjXjXjXjXjXjXjXjXjXjXjXjXjXjXjXjXjXjXjXjXjXjX2 jXjXjXjXjXjXjXjXjXjXjXjXjXjXjXjXjXjXjXjXjXjXjXjXjXjXjXjXjXjXjXjXjXjXjXjXjXjXjXjX",
"jXjXjXjXjXjXjXjXjXjXjXjXjXjXjXjXjXjXjXjXjXjXjXjXjXjXjXjXjXjXjXjXjXjXjXjXjXjXjXjXjXjXjXjXjXjXjXjXjXjXjXjXjXjXjXjXjXjXjXjXjXjXjXjX",
"jXjXjXjXjXjXjXjXjXjXjXjXjXjXjXjXjXjXjXjXjXjXjXjXjXjXjXjXjXjXjXjXjXjXjXjXjXjXjXjXjXjXjXjXjXjXjXjXjXjXjXjXjXjXjXjXjXjXjXjXjXjXjXjX",
"jXjXjXjXjXjXjXjXjXjXjXjXjXjXjXjXjXjXjXjXjXjXjXjXjXjXjXjXjXjXjXjXjXjXjXjXjXjXjXjXjXjXjXjXjXjXjXjXjXjXjXjXjXjXjXjXjXjXjXjXjXjXjXjX",
"jXjXjXjXjXjXjXjXjXjXjXjXjXjXjXjXjXjXjXjXjXjXjXjXjXjXjXjXjXjXjXjXjXjXjXjXjXjXjXjXjXjXjXjXjXjXjXjXjXjXjXjXjXjXjXjXjXjXjXjXjXjXjXjX",
"jXjXjXjXjXjXjXjXjXjXjXjXjXjXjXjXjXjXjXjXjXjXjXjXjXjXjXjXjXjXjXjXjXjXjXjXjXjXjXjXjXjXjXjXjXjXjXjXjXjXjXjXjXjXjXjXjXjXjXjXjXjXjXjX",
"jXjXjXjXjXjXjXjXjXjXjXjXjXjXjXjXjXjXjXjXjXjXjXjXjXjXjXjXjXjXjXjXjXjXjXjXjXjXjXjXjXjXjXjXjXjXjXjXjXjXjXjXjXjXjXjXjXjXjXjXjXjXjXjX",
"jXjXjXjXjXjXjXjXjXjXjXjXjXjXjXjXjXjXjXjXjXjXjXjXjXjXjXjXjXjXjXjXjXjXjXjXjXjXjXjXjXjXjXjXjXjXjXjXjXjXjXjXjXjXjXjXjXjXjXjXjXjXjXjX",
"jXjXjXjXjXjXjXjXjXjXjXjXjXjXjXjXjXjXjXjXjXjXjXjXjXjXjXjXjXjXjXjXjXjXjXjXjXjXjXjXjXjXjXjXjXjXjXjXjXjXjXjXjXjXjXjXjXjXjXjXjXjXjXjX",
"jXjXjXjXjXjXjXjXjXjXjXjXjXjXjXjXjXjXjXjXjXjXjXjXjXjXjXjXjXjXjXjXjXjXjXjXjXjXjXjXjXjXjXjXjXjXjXjXjXjXjXjXjXjXjXjXjXjXjXjXjXjXjXjX",
"jXjXjXjXjXjXjXjXjXjXjXjXjXjXjXjXjXjXjXjXjXjXjXjXjXjXjXjXjXjXjXjXjXjXjXjXjXjXjXjXjXjXjXjXjXjXjXjXjXjXjXjXjXjXjXjXjXjXjXjXjXjXjXjX",
"jXjXjXjXjXjXjXjXjXjXjXjXjXjXjXjXjXjXjXjXjXjXjXjXjXjXjXjXjXjXjXjXjXjXjXjXjXjXjXjXjXjXjXjXjXjXjXjXjXjXjXjXjXjXjXjXjXjXjXjXjXjXjXjX",
"jXjXjXjXjXjXjXjXjXjXjXjXjXjXjXjXjXjXjXjXjXjXjXjXjXjXjXjXjXjXjXjXjXjXjXjXjXjXjXjXjXjXjXjXjXjXjXjXjXjXjXjXjXjXjXjXjXjXjXjXjXjXjXjX",
"jXjXjXjXjXjXjXjXjXjXjXjXjXjXjXjXjXjXjXjXjXjXjXjXjXjXjXjXjXjXjXjXjXjXjXjXjXjXjXjXjXjXjXjXjXjXjXjXjXjXjXjXjXjXjXjXjXjXjXjXjXjXjXjX",
"jXjXjXjXjXjXjXjXjXjXjXjXjXjXjXjXjXjXjXjXjXjXjXjXjXjXjXjXjXjXjXjXjXjXjXjXjXjXjXjXjXjXjXjXjXjXjXjXjXjXjXjXjXjXjXjXjXjXjXjXjXjXjXjX",
"jXjXjXjXjXjXjXjXjXjXjXjXjXjXjXjXjXjXjXjXjXjXjXjXjXjXjXjXjXjXjXjXjXjXjXjXjXjXjXjXjXjXjXjXjXjXjXjXjXjXjXjXjXjXjXjXjXjXjXjXjXjXjXjX"
};
