/* XPM */
static char *xpm_[] = {
/* columns rows colors chars-per-pixel */
"64 64 11 1 ",
"  c #202019",
". c #5D3725",
"X c #7C4931",
"o c #A56142",
"O c #8E7B72",
"+ c #CE7952",
"@ c #239063",
"# c #9D8479",
"$ c #BEA498",
"% c #D2B0A1",
"& c #E7BCA9",
/* pixels */
"@@@@@@@@@@@@@@@@@@@@@@@@@@@@@@@@@@@@@@@@@@@@@@@@@@@@@@@@@@@@@@@@",
"@@@@@@@@@@@@@@@@@@@@@@@@@@@@@@@@@@@@@@@@@@@@@@@@@@@@@@@@@@@@@@@@",
"@@@@@@@@@@@@@@@@@@@@@@@@@@@@@@@@@@@@@@@@@@@@@@@@@@@@@@@@@@@@@@@@",
"@@@@@@@@@@@@@@@@@@@@@@@@@@@@@@@@@@@@@@@@@@@@@@@@@@@@@@@@@@@@@@@@",
"@@@@@@@@@@@@@@@@@@@@@@@@@@@@@@@@@@@@@@@@@@@@@@@@@@@@@@@@@@@@@@@@",
"@@@@@@@@@@@@@@@@@@@@@@@@@@@@@@@@@@@@@@@@@@@@@@@@@@@@@@@@@@@@@@@@",
"@@@@@@@@@@@@@@@@@@@@@@@@@@@@@@@@@@@@@@@@@@@@@@@@@@@@@@@@@@@@@@@@",
"@@@@@@@@@@@@@@@@@@@@@@@@@@@@@@@@@@@@@@@@@@@@@@@@@@@@@@@@@@@@@@@@",
"@@@@@@@@&&&&&&&&                                        @@@@@@@@",
"@@@@@@@@&&&&&&&&                                        @@@@@@@@",
"@@@@@@@@&&&&&&&&                                        @@@@@@@@",
"@@@@@@@@&&&&&&&&                                        @@@@@@@@",
"@@@@@@@@&&&&&&&&                                        @@@@@@@@",
"@@@@@@@@&&&&&&&&                                        @@@@@@@@",
"@@@@@@@@&&&&&&&&                                        @@@@@@@@",
"@@@@@@@@&&&&&&&&                                        @@@@@@@@",
"@@@@@@@@++++++++########%%%%%%%%                        @@@@@@@@",
"@@@@@@@@++++++++########%%%%%%%%                        @@@@@@@@",
"@@@@@@@@++++++++########%%%%%%%%                        @@@@@@@@",
"@@@@@@@@++++++++########%%%%%%%%                        @@@@@@@@",
"@@@@@@@@++++++++########%%%%%%%%                        @@@@@@@@",
"@@@@@@@@++++++++########%%%%%%%%                        @@@@@@@@",
"@@@@@@@@++++++++########%%%%%%%%                        @@@@@@@@",
"@@@@@@@@++++++++########%%%%%%%%                        @@@@@@@@",
"@@@@@@@@++++++++XXXXXXXXooooooooOOOOOOOO$$$$$$$$OOOOOOOO@@@@@@@@",
"@@@@@@@@++++++++XXXXXXXXooooooooOOOOOOOO$$$$$$$$OOOOOOOO@@@@@@@@",
"@@@@@@@@++++++++XXXXXXXXooooooooOOOOOOOO$$$$$$$$OOOOOOOO@@@@@@@@",
"@@@@@@@@++++++++XXXXXXXXooooooooOOOOOOOO$$$$$$$$OOOOOOOO@@@@@@@@",
"@@@@@@@@++++++++XXXXXXXXooooooooOOOOOOOO$$$$$$$$OOOOOOOO@@@@@@@@",
"@@@@@@@@++++++++XXXXXXXXooooooooOOOOOOOO$$$$$$$$OOOOOOOO@@@@@@@@",
"@@@@@@@@++++++++XXXXXXXXooooooooOOOOOOOO$$$$$$$$OOOOOOOO@@@@@@@@",
"@@@@@@@@++++++++XXXXXXXXooooooooOOOOOOOO$$$$$$$$OOOOOOOO@@@@@@@@",
"@@@@@@@@++++++++XXXXXXXXoooooooo........XXXXXXXX........@@@@@@@@",
"@@@@@@@@++++++++XXXXXXXXoooooooo........XXXXXXXX........@@@@@@@@",
"@@@@@@@@++++++++XXXXXXXXoooooooo........XXXXXXXX........@@@@@@@@",
"@@@@@@@@++++++++XXXXXXXXoooooooo........XXXXXXXX........@@@@@@@@",
"@@@@@@@@++++++++XXXXXXXXoooooooo........XXXXXXXX........@@@@@@@@",
"@@@@@@@@++++++++XXXXXXXXoooooooo........XXXXXXXX........@@@@@@@@",
"@@@@@@@@++++++++XXXXXXXXoooooooo........XXXXXXXX........@@@@@@@@",
"@@@@@@@@++++++++XXXXXXXXoooooooo........XXXXXXXX........@@@@@@@@",
"@@@@@@@@++++++++XXXXXXXXoooooooo........XXXXXXXX........@@@@@@@@",
"@@@@@@@@++++++++XXXXXXXXoooooooo........XXXXXXXX........@@@@@@@@",
"@@@@@@@@++++++++XXXXXXXXoooooooo........XXXXXXXX........@@@@@@@@",
"@@@@@@@@++++++++XXXXXXXXoooooooo........XXXXXXXX........@@@@@@@@",
"@@@@@@@@++++++++XXXXXXXXoooooooo........XXXXXXXX........@@@@@@@@",
"@@@@@@@@++++++++XXXXXXXXoooooooo........XXXXXXXX........@@@@@@@@",
"@@@@@@@@++++++++XXXXXXXXoooooooo........XXXXXXXX........@@@@@@@@",
"@@@@@@@@++++++++XXXXXXXXoooooooo........XXXXXXXX........@@@@@@@@",
"@@@@@@@@++++++++XXXXXXXXoooooooo........XXXXXXXX........@@@@@@@@",
"@@@@@@@@++++++++XXXXXXXXoooooooo........XXXXXXXX........@@@@@@@@",
"@@@@@@@@++++++++XXXXXXXXoooooooo........XXXXXXXX........@@@@@@@@",
"@@@@@@@@++++++++XXXXXXXXoooooooo........XXXXXXXX........@@@@@@@@",
"@@@@@@@@++++++++XXXXXXXXoooooooo........XXXXXXXX........@@@@@@@@",
"@@@@@@@@++++++++XXXXXXXXoooooooo........XXXXXXXX........@@@@@@@@",
"@@@@@@@@++++++++XXXXXXXXoooooooo........XXXXXXXX........@@@@@@@@",
"@@@@@@@@++++++++XXXXXXXXoooooooo........XXXXXXXX........@@@@@@@@",
"@@@@@@@@@@@@@@@@@@@@@@@@@@@@@@@@@@@@@@@@@@@@@@@@@@@@@@@@@@@@@@@@",
"@@@@@@@@@@@@@@@@@@@@@@@@@@@@@@@@@@@@@@@@@@@@@@@@@@@@@@@@@@@@@@@@",
"@@@@@@@@@@@@@@@@@@@@@@@@@@@@@@@@@@@@@@@@@@@@@@@@@@@@@@@@@@@@@@@@",
"@@@@@@@@@@@@@@@@@@@@@@@@@@@@@@@@@@@@@@@@@@@@@@@@@@@@@@@@@@@@@@@@",
"@@@@@@@@@@@@@@@@@@@@@@@@@@@@@@@@@@@@@@@@@@@@@@@@@@@@@@@@@@@@@@@@",
"@@@@@@@@@@@@@@@@@@@@@@@@@@@@@@@@@@@@@@@@@@@@@@@@@@@@@@@@@@@@@@@@",
"@@@@@@@@@@@@@@@@@@@@@@@@@@@@@@@@@@@@@@@@@@@@@@@@@@@@@@@@@@@@@@@@",
"@@@@@@@@@@@@@@@@@@@@@@@@@@@@@@@@@@@@@@@@@@@@@@@@@@@@@@@@@@@@@@@@"
};
