/* XPM */
static char *xpm_[] = {
/* columns rows colors chars-per-pixel */
"64 64 8 1 ",
"  c #202019",
". c #7C4931",
"X c #A56142",
"o c #CE7952",
"O c #239063",
"+ c #9D8479",
"@ c #D2B0A1",
"# c #E7BCA9",
/* pixels */
"OOOOOOOOOOOOOOOOOOOOOOOOOOOOOOOOOOOOOOOOOOOOOOOOOOOOOOOOOOOOOOOO",
"OOOOOOOOOOOOOOOOOOOOOOOOOOOOOOOOOOOOOOOOOOOOOOOOOOOOOOOOOOOOOOOO",
"OOOOOOOOOOOOOOOOOOOOOOOOOOOOOOOOOOOOOOOOOOOOOOOOOOOOOOOOOOOOOOOO",
"OOOOOOOOOOOOOOOOOOOOOOOOOOOOOOOOOOOOOOOOOOOOOOOOOOOOOOOOOOOOOOOO",
"OOOOOOOOOOOOOOOOOOOOOOOOOOOOOOOOOOOOOOOOOOOOOOOOOOOOOOOOOOOOOOOO",
"OOOOOOOOOOOOOOOOOOOOOOOOOOOOOOOOOOOOOOOOOOOOOOOOOOOOOOOOOOOOOOOO",
"OOOOOOOOOOOOOOOOOOOOOOOOOOOOOOOOOOOOOOOOOOOOOOOOOOOOOOOOOOOOOOOO",
"OOOOOOOOOOOOOOOOOOOOOOOOOOOOOOOOOOOOOOOOOOOOOOOOOOOOOOOOOOOOOOOO",
"OOOOOOOO########                                        OOOOOOOO",
"OOOOOOOO########                                        OOOOOOOO",
"OOOOOOOO########                                        OOOOOOOO",
"OOOOOOOO########                                        OOOOOOOO",
"OOOOOOOO########                                        OOOOOOOO",
"OOOOOOOO########                                        OOOOOOOO",
"OOOOOOOO########                                        OOOOOOOO",
"OOOOOOOO########                                        OOOOOOOO",
"OOOOOOOOoooooooo++++++++@@@@@@@@++++++++@@@@@@@@++++++++OOOOOOOO",
"OOOOOOOOoooooooo++++++++@@@@@@@@++++++++@@@@@@@@++++++++OOOOOOOO",
"OOOOOOOOoooooooo++++++++@@@@@@@@++++++++@@@@@@@@++++++++OOOOOOOO",
"OOOOOOOOoooooooo++++++++@@@@@@@@++++++++@@@@@@@@++++++++OOOOOOOO",
"OOOOOOOOoooooooo++++++++@@@@@@@@++++++++@@@@@@@@++++++++OOOOOOOO",
"OOOOOOOOoooooooo++++++++@@@@@@@@++++++++@@@@@@@@++++++++OOOOOOOO",
"OOOOOOOOoooooooo++++++++@@@@@@@@++++++++@@@@@@@@++++++++OOOOOOOO",
"OOOOOOOOoooooooo++++++++@@@@@@@@++++++++@@@@@@@@++++++++OOOOOOOO",
"OOOOOOOOoooooooo........XXXXXXXX........XXXXXXXX........OOOOOOOO",
"OOOOOOOOoooooooo........XXXXXXXX........XXXXXXXX........OOOOOOOO",
"OOOOOOOOoooooooo........XXXXXXXX........XXXXXXXX........OOOOOOOO",
"OOOOOOOOoooooooo........XXXXXXXX........XXXXXXXX........OOOOOOOO",
"OOOOOOOOoooooooo........XXXXXXXX........XXXXXXXX........OOOOOOOO",
"OOOOOOOOoooooooo........XXXXXXXX........XXXXXXXX........OOOOOOOO",
"OOOOOOOOoooooooo........XXXXXXXX........XXXXXXXX........OOOOOOOO",
"OOOOOOOOoooooooo........XXXXXXXX........XXXXXXXX........OOOOOOOO",
"OOOOOOOOoooooooo........XXXXXXXX........XXXXXXXX........OOOOOOOO",
"OOOOOOOOoooooooo........XXXXXXXX........XXXXXXXX........OOOOOOOO",
"OOOOOOOOoooooooo........XXXXXXXX........XXXXXXXX........OOOOOOOO",
"OOOOOOOOoooooooo........XXXXXXXX........XXXXXXXX........OOOOOOOO",
"OOOOOOOOoooooooo........XXXXXXXX........XXXXXXXX........OOOOOOOO",
"OOOOOOOOoooooooo........XXXXXXXX........XXXXXXXX........OOOOOOOO",
"OOOOOOOOoooooooo........XXXXXXXX........XXXXXXXX........OOOOOOOO",
"OOOOOOOOoooooooo........XXXXXXXX........XXXXXXXX........OOOOOOOO",
"OOOOOOOOoooooooo........XXXXXXXX........XXXXXXXX........OOOOOOOO",
"OOOOOOOOoooooooo........XXXXXXXX........XXXXXXXX........OOOOOOOO",
"OOOOOOOOoooooooo........XXXXXXXX........XXXXXXXX........OOOOOOOO",
"OOOOOOOOoooooooo........XXXXXXXX........XXXXXXXX........OOOOOOOO",
"OOOOOOOOoooooooo........XXXXXXXX........XXXXXXXX........OOOOOOOO",
"OOOOOOOOoooooooo........XXXXXXXX........XXXXXXXX........OOOOOOOO",
"OOOOOOOOoooooooo........XXXXXXXX........XXXXXXXX........OOOOOOOO",
"OOOOOOOOoooooooo........XXXXXXXX........XXXXXXXX........OOOOOOOO",
"OOOOOOOOoooooooo........XXXXXXXX........XXXXXXXX........OOOOOOOO",
"OOOOOOOOoooooooo........XXXXXXXX........XXXXXXXX........OOOOOOOO",
"OOOOOOOOoooooooo........XXXXXXXX........XXXXXXXX........OOOOOOOO",
"OOOOOOOOoooooooo........XXXXXXXX........XXXXXXXX........OOOOOOOO",
"OOOOOOOOoooooooo........XXXXXXXX........XXXXXXXX........OOOOOOOO",
"OOOOOOOOoooooooo........XXXXXXXX........XXXXXXXX........OOOOOOOO",
"OOOOOOOOoooooooo........XXXXXXXX........XXXXXXXX........OOOOOOOO",
"OOOOOOOOoooooooo........XXXXXXXX........XXXXXXXX........OOOOOOOO",
"OOOOOOOOOOOOOOOOOOOOOOOOOOOOOOOOOOOOOOOOOOOOOOOOOOOOOOOOOOOOOOOO",
"OOOOOOOOOOOOOOOOOOOOOOOOOOOOOOOOOOOOOOOOOOOOOOOOOOOOOOOOOOOOOOOO",
"OOOOOOOOOOOOOOOOOOOOOOOOOOOOOOOOOOOOOOOOOOOOOOOOOOOOOOOOOOOOOOOO",
"OOOOOOOOOOOOOOOOOOOOOOOOOOOOOOOOOOOOOOOOOOOOOOOOOOOOOOOOOOOOOOOO",
"OOOOOOOOOOOOOOOOOOOOOOOOOOOOOOOOOOOOOOOOOOOOOOOOOOOOOOOOOOOOOOOO",
"OOOOOOOOOOOOOOOOOOOOOOOOOOOOOOOOOOOOOOOOOOOOOOOOOOOOOOOOOOOOOOOO",
"OOOOOOOOOOOOOOOOOOOOOOOOOOOOOOOOOOOOOOOOOOOOOOOOOOOOOOOOOOOOOOOO",
"OOOOOOOOOOOOOOOOOOOOOOOOOOOOOOOOOOOOOOOOOOOOOOOOOOOOOOOOOOOOOOOO"
};
