/* XPM */
static char *xpm_[] = {
/* columns rows colors chars-per-pixel */
"64 64 112 2 ",
"   c black",
".  c #030101",
"X  c #040101",
"o  c #060202",
"O  c #070202",
"+  c #010403",
"@  c #010503",
"#  c #010603",
"$  c #010504",
"%  c #010604",
"&  c #010704",
"*  c #050604",
"=  c #050705",
"-  c #080202",
";  c #0B0303",
":  c #080705",
">  c #0E0404",
",  c #020A07",
"<  c #030B07",
"1  c #020C07",
"2  c #080806",
"3  c #020A08",
"4  c #020C08",
"5  c #020E08",
"6  c #662525",
"7  c #6B2525",
"8  c #692626",
"9  c #6A2626",
"0  c #6B2626",
"q  c #6D2726",
"w  c #6C2727",
"e  c #6D2727",
"r  c #6E2626",
"t  c #6F2626",
"y  c #6E2727",
"u  c #6F2727",
"i  c #672B29",
"p  c #6A2D2A",
"a  c #6B2D2A",
"s  c #6C2C29",
"d  c #6C2D2A",
"f  c #6E2D2A",
"g  c #702525",
"h  c #702626",
"j  c #702727",
"k  c #722726",
"l  c #742727",
"z  c #702827",
"x  c #712827",
"c  c #722827",
"v  c #732927",
"b  c #732828",
"n  c #752928",
"m  c #702D2B",
"M  c #68322D",
"N  c #A5342D",
"B  c #AD352E",
"V  c #AC362F",
"C  c #AD362F",
"Z  c #AD3731",
"A  c #AE3631",
"S  c #A63B31",
"D  c #AD3D33",
"F  c #AE3D33",
"G  c #AF3D33",
"H  c #B03731",
"J  c #B13731",
"K  c #B43730",
"L  c #B53730",
"P  c #B63730",
"I  c #B33831",
"U  c #B43831",
"Y  c #B53831",
"T  c #B73831",
"R  c #E13A3A",
"E  c #E33A3A",
"W  c #E43B3B",
"Q  c #E63B3B",
"!  c #E73B3B",
"~  c #E83B3B",
"^  c #E93B3B",
"/  c #21865B",
"(  c #20855C",
")  c #21865C",
"_  c #228A5F",
"`  c #228B5F",
"'  c #228B60",
"]  c #228C60",
"[  c #239063",
"{  c #239164",
"}  c #239265",
"|  c #1CAE6B",
" . c #1DB56F",
".. c #1CB670",
"X. c #1DB670",
"o. c #1EBC73",
"O. c #1DBD74",
"+. c #1EBD74",
"@. c #1CBE75",
"#. c #1DBE75",
"$. c #1EBE75",
"%. c #20AF6C",
"&. c #20B06C",
"*. c #23B06D",
"=. c #24B16D",
"-. c #27B26E",
";. c #21B670",
":. c #20B771",
">. c #21B771",
",. c #24B771",
"<. c #23B872",
"1. c #24B872",
/* pixels */
"[ [ [ [ [ [ [ [ [ [ [ [ [ [ [ [ [ [ [ [ [ [ [ [ [ [ [ [ [ [ [ [ [ [ [ [ [ [ [ [ [ [ [ [ [ [ [ [ [ [ [ [ [ [ [ [ [ [ [ [ [ [ [ [ ",
"[ [ [ [ [ [ [ [ [ [ [ [ [ [ [ [ [ [ [ [ [ [ [ [ [ [ [ [ [ [ [ [ [ [ [ [ [ [ [ [ [ [ [ [ [ [ [ [ [ [ [ [ [ [ [ [ [ [ [ [ [ [ [ [ ",
"[ [ [ [ [ [ [ [ [ [ [ [ [ [ [ [ [ [ [ [ [ [ [ [ [ [ [ [ [ [ [ [ [ [ [ [ [ [ [ [ [ [ { { [ [ [ [ [ [ [ [ [ [ [ [ [ [ [ [ [ [ [ [ ",
"[ [ [ [ [ [ [ [ [ [ [ [ [ [ [ [ [ [ [ [ [ [ [ [ [ [ [ [ [ [ [ [ [ [ [ [ [ [ [ [ [ [ { { [ [ [ [ [ [ [ [ [ [ [ [ [ [ [ [ [ [ [ [ ",
"[ [ [ [ [ [ [ [ [ [ [ [ [ [ [ [ [ [ [ [ { { { { [ [ [ [ [ [ [ [ [ [ [ [ [ [ [ [ ] { { ` { { ] { [ [ [ [ [ [ [ [ [ [ [ [ [ [ [ [ ",
"[ [ [ [ [ [ [ [ [ [ [ [ [ [ [ [ [ [ [ [ { { ] { [ [ [ [ [ [ [ [ [ [ [ [ [ [ [ [ { { { { ] { { { [ [ [ [ [ [ [ [ [ [ [ [ [ [ [ [ ",
"[ [ [ [ [ [ [ [ [ [ [ [ [ [ [ [ [ [ [ ] ] { ] { [ [ [ [ [ [ [ [ [ [ [ [ [ [ [ [ { { { { { { { { [ [ [ [ [ [ [ [ [ [ [ [ [ [ [ [ ",
"[ [ [ [ [ [ [ [ [ [ [ [ [ [ [ [ [ [ [ { { { { { [ [ [ [ [ [ [ [ [ [ [ [ [ [ [ [ ] { { ] { { ] { [ [ [ [ [ [ [ [ [ [ [ [ [ [ [ [ ",
"[ [ [ [ [ [ [ [ [ [ [ [ [ [ [ [ { { ] ` < @ % % % % % % % % % % * < @ @ % < _ [ [ [ [ _ < % % % @ < ` { { { { { [ [ [ [ [ [ [ [ ",
"[ [ [ [ [ [ [ [ [ [ [ [ [ [ [ [ { { { ` @                                 @ _ [ [ [ [ _ %         O ` { { { ] { [ [ [ [ [ [ [ [ ",
"[ [ [ [ [ [ [ [ [ [ [ [ [ [ [ [ { ] ] _ %                                 % _ [ [ [ [ _ %         % ` ] ] { ] { [ [ [ [ [ [ [ [ ",
"[ [ [ [ [ [ [ [ [ [ [ [ [ [ [ [ { { { _ %                                 % _ [ [ [ [ _ %         % ` { { { { { [ [ [ [ [ [ [ [ ",
"[ [ [ [ [ [ [ [ [ [ [ [ [ [ [ [ { { { _ %                                 % ' [ [ [ ] ] %         % ' [ { ] { { [ [ [ [ [ [ [ [ ",
"[ [ [ [ [ [ [ [ [ [ [ [ [ [ ' _ _ _ _ / 2 O O O O O O O O O O O < % < % % 4 ( _ _ _ _ ( 3 % % % % 3 ( _ _ _ _ ` [ [ [ [ [ [ [ [ ",
"[ [ [ [ [ [ [ [ [ [ [ [ [ _ < % % % @ 2 N V V V V V V V V V V S %.X. . .X.| 1 @ % % % < ( ] ] ] ] / < % < @ @ < [ [ [ [ [ [ [ [ ",
"[ [ [ [ [ [ [ [ [ [ [ [ [ _ @         - V U U U U U U U U U P D ,.+.+.+.+.X.<         % ] { { { } ' %         o [ [ [ [ [ [ [ [ ",
"[ [ [ [ [ [ [ [ [ [ [ [ [ _ %         O V U I I I I I I I I I D 1.O.O.O.O. .<         % _ [ [ [ } _ %         % [ [ [ [ [ [ [ [ ",
"[ [ [ [ [ [ [ [ [ [ [ [ [ _ %         O V U I I I I I I I I I D 1.@.X.O.O. .@         @ ` } [ [ [ _ %         % [ [ [ [ [ [ [ [ ",
"[ [ [ [ [ [ [ [ [ [ [ [ [ ' %         O V U I I I I I I I U U D 1.O.+.+.+. .&         @ ] } } [ } ' %         @ [ [ [ [ [ [ [ [ ",
"[ [ [ [ [ [ [ [ ' _ _ _ _ ( 2 O O O O > V U I I I I U U U U P I -.<. .<.=. .5 & < % < 4 ( ] _ _ ] / < % % % % < [ [ [ [ [ [ [ [ ",
"[ [ [ [ [ [ [ [ < % % % % : N V V V V V I I I I U U Q Q Q Q Q E d p d p s M &. . .X.X. .1 % % % % 3 ( _ _ _ _ ' [ [ [ [ [ [ [ [ ",
"[ [ [ [ [ [ [ [ @         - V U U U U U I I I I U U Q ^ ^ Q ^ E l g u c g s :.O.X.+.O. .@         % ' [ [ [ [ [ [ [ [ [ [ [ [ [ ",
"[ [ [ [ [ [ [ [ %         - V U I I I I I I I I I U Q ^ ^ Q ^ E b q u u q d :.@.O.+.O. .@         % _ [ [ [ [ [ [ [ [ [ [ [ [ [ ",
"[ [ [ [ [ [ [ [ %         - V U I I I I I I I I I U Q Q ^ ^ ^ E b q 0 u g d :.@.<.X.O. .<         % _ [ [ [ [ [ [ [ [ [ [ [ [ [ ",
"[ [ [ [ [ [ [ [ %         O V U I I I I U I I U U U Q ^ ^ ^ ^ E b w q u u p <.@.@.@.O. .@         % ] [ [ [ [ [ [ [ [ [ [ [ [ [ ",
"[ [ [ [ [ [ [ [ %         O V U I I I I U U U U U T Q Q Q Q Q E n q b q g d -.X.<.=.:. .1 @ @ < % 4 ( _ _ _ _ ' [ [ [ [ [ [ [ [ ",
"[ [ [ [ [ [ [ [ %         O V U I I I U E Q ! ! Q Q U U U U U U I I A I I Z d p p p u M =.X. . .X.| 1 % % % % < [ [ [ [ [ [ [ [ ",
"[ [ [ [ [ [ [ [ %         O V U I I U U ! ! ! ! Q ^ U U I U U I I I I U I I g u u u u d X.+.+.+.+.X.%         @ [ [ [ [ [ [ [ [ ",
"[ [ [ [ [ [ [ [ %         O V U I I U U ! ^ ! ^ ^ Q U U U I I I I I I I I H c u q u u d =.O.O.O.+. .<         % [ [ [ [ [ [ [ [ ",
"[ [ [ [ [ [ [ [ %         O V U I I U U ! ^ ^ ! ^ Q U I I I I I I I I I I H b 0 q q u p <.O.O.O.+.X.%         % [ [ [ [ [ [ [ [ ",
"[ [ [ [ [ [ [ [ %         O V U I I I U ! ! ! ^ Q Q U I I I I I I I I I I I q u q q q p X.@.@.+.+. .%         % [ [ [ [ [ [ [ [ ",
"[ [ [ [ [ [ [ [ %         O V U I I I U ! ! ^ ! ^ Q U U I I I I I I I I I Z b u c c c d =.<.X.=.<.| <         % [ [ [ [ [ [ [ [ ",
"[ [ [ [ [ [ [ [ %         O V U I I U U Q ^ ^ Q ^ Q U I I I I I I I I I I I I Z I A I A d p p p p i           % [ [ [ [ [ [ [ [ ",
"[ [ [ [ [ [ [ [ %         O V U I U U U Q Q ^ ^ ^ Q U I I I I I I I I I I I U U U U I H g u u u g u O         % [ [ [ [ [ [ [ [ ",
"[ [ [ [ [ [ [ [ %         O V U I I I U Q ^ Q ^ ^ Q U U I I I I I I I I I I U I I I U Z c u u w u 0           % [ [ [ [ [ [ [ [ ",
"[ [ [ [ [ [ [ [ %         O V U I I U U Q Q ^ ^ ^ Q U I I I I I I I I I I I I I I I U I c q u u u 0 O         % [ [ [ [ [ [ [ [ ",
"[ [ [ [ [ [ [ [ %         - V U I I I U Q ^ ^ Q Q Q U I I I I I I I I I I I U U U U U I b w w u u 0           % [ [ [ [ [ [ [ [ ",
"[ [ [ [ [ [ [ [ %         - V U I I U U Q Q Q Q Q Q U I I I I I I I I I I I Z I Z Z I Z u w u u u 0 O         % [ [ [ [ [ [ [ [ ",
"[ [ [ [ [ [ [ [ %         - V U I I U I U U U U U U I I I I I I I I I I U Z l c u b b u u u u w u 0           % [ [ [ [ [ [ [ [ ",
"[ [ [ [ [ [ [ [ %         - V U I I I I I U U U U I I I I I I I I I I U U I q w u q w w w u u w u 6 O         % [ [ [ [ [ [ [ [ ",
"[ [ [ [ [ [ [ [ %         - V U I I I I I I I I I I I I I I I I I I I I U I b u u u w u w u u u u 0 O         % [ [ [ [ [ [ [ [ ",
"[ [ [ [ [ [ [ [ %         - V U I I I I I I I I I I I I I I I I I I I I U Z q u w u w u u u w u u 0           % [ [ [ [ [ [ [ [ ",
"[ [ [ [ [ [ [ [ @         - V U U I U U I I U U I U U U U U U U I I U U U I b w u w u u u u u u u 0 O         @ [ [ [ [ [ [ [ [ ",
"[ [ [ [ [ [ [ [ < % % % % : N V A V V V A I Z I I Z I Z I Z I Z Z I Z I I Z q w u u u w 0 0 0 0 0 6 * % % % % < [ [ [ [ [ [ [ [ ",
"[ [ [ [ [ [ [ [ ` ` ` ` ' ( 2 O O O O > q c c c u b q u q b b u b c u b q b w u w u u 0 O   O   O * ( _ _ _ _ ' [ [ [ [ [ [ [ [ ",
"[ [ [ [ [ [ [ [ { { ] { } ] %           0 q u q w w u u u q w 0 u q w w u q u u w u u 0 O         % ' [ [ [ [ [ [ [ [ [ [ [ [ [ ",
"[ [ [ [ [ [ [ [ { { { { ] ' %         O 6 u u w u u w u u u u u u u u u u u w w u u u 6           % _ [ [ [ [ [ [ [ [ [ [ [ [ [ ",
"[ [ [ [ [ [ [ [ ] { { ] { ' %           0 u u u w u u u w u u u u w w u w u u u u w u 0 O         % _ [ [ [ [ [ [ [ [ [ [ [ [ [ ",
"[ [ [ [ [ [ [ [ [ [ [ [ [ _ @         O 0 u u u u u u u u u u u u u u u u u u u u u u 0 O         @ _ [ [ [ [ [ [ [ [ [ [ [ [ [ ",
"[ [ [ [ [ [ [ [ [ [ [ [ [ _ < % % % % * 6 0 0 0 6 0 0 0 0 0 0 0 0 0 0 0 0 0 0 0 0 0 0 6 % % % % % < _ [ [ [ [ [ [ [ [ [ [ [ [ [ ",
"[ [ [ [ [ [ [ [ [ [ [ [ [ [ ' _ _ _ _ ( * O   O   O   O O     O   O O     O O     O O * ( _ _ _ _ ' [ [ [ [ [ [ [ [ [ [ [ [ [ [ ",
"[ [ [ [ [ [ [ [ [ [ [ [ [ [ [ [ [ [ [ ' %                                             % _ { [ [ [ [ [ [ [ [ [ [ [ [ [ [ [ [ [ [ ",
"[ [ [ [ [ [ [ [ [ [ [ [ [ [ [ [ [ [ [ _ %                                             % _ [ [ [ [ [ [ [ [ [ [ [ [ [ [ [ [ [ [ [ ",
"[ [ [ [ [ [ [ [ [ [ [ [ [ [ [ [ [ [ [ _ %                                             % _ [ [ [ [ [ [ [ [ [ [ [ [ [ [ [ [ [ [ [ ",
"[ [ [ [ [ [ [ [ [ [ [ [ [ [ [ [ [ [ [ _ @                                             @ _ [ [ [ [ [ [ [ [ [ [ [ [ [ [ [ [ [ [ [ ",
"[ [ [ [ [ [ [ [ [ [ [ [ [ [ [ [ [ [ [ _ < % % % % % % % % % % % % % % % % % % % % % % < _ [ [ [ [ [ [ [ [ [ [ [ [ [ [ [ [ [ [ [ ",
"[ [ [ [ [ [ [ [ [ [ [ [ [ [ [ [ [ [ [ [ [ [ [ [ [ [ [ [ [ [ [ [ [ [ [ [ [ [ [ [ [ [ [ [ [ [ [ [ [ [ [ [ [ [ [ [ [ [ [ [ [ [ [ [ ",
"[ [ [ [ [ [ [ [ [ [ [ [ [ [ [ [ [ [ [ [ [ [ [ [ [ [ [ [ [ [ [ [ [ [ [ [ [ [ [ [ [ [ [ [ [ [ [ [ [ [ [ [ [ [ [ [ [ [ [ [ [ [ [ [ ",
"[ [ [ [ [ [ [ [ [ [ [ [ [ [ [ [ [ [ [ [ [ [ [ [ [ [ [ [ [ [ [ [ [ [ [ [ [ [ [ [ [ [ [ [ [ [ [ [ [ [ [ [ [ [ [ [ [ [ [ [ [ [ [ [ ",
"[ [ [ [ [ [ [ [ [ [ [ [ [ [ [ [ [ [ [ [ [ [ [ [ [ [ [ [ [ [ [ [ [ [ [ [ [ [ [ [ [ [ [ [ [ [ [ [ [ [ [ [ [ [ [ [ [ [ [ [ [ [ [ [ ",
"[ [ [ [ [ [ [ [ [ [ [ [ [ [ [ [ [ [ [ [ [ [ [ [ [ [ [ [ [ [ [ [ [ [ [ [ [ [ [ [ [ [ [ [ [ [ [ [ [ [ [ [ [ [ [ [ [ [ [ [ [ [ [ [ ",
"[ [ [ [ [ [ [ [ [ [ [ [ [ [ [ [ [ [ [ [ [ [ [ [ [ [ [ [ [ [ [ [ [ [ [ [ [ [ [ [ [ [ [ [ [ [ [ [ [ [ [ [ [ [ [ [ [ [ [ [ [ [ [ [ ",
"[ [ [ [ [ [ [ [ [ [ [ [ [ [ [ [ [ [ [ [ [ [ [ [ [ [ [ [ [ [ [ [ [ [ [ [ [ [ [ [ [ [ [ [ [ [ [ [ [ [ [ [ [ [ [ [ [ [ [ [ [ [ [ [ ",
"[ [ [ [ [ [ [ [ [ [ [ [ [ [ [ [ [ [ [ [ [ [ [ [ [ [ [ [ [ [ [ [ [ [ [ [ [ [ [ [ [ [ [ [ [ [ [ [ [ [ [ [ [ [ [ [ [ [ [ [ [ [ [ [ "
};
