/* XPM */
static char *xpm_[] = {
/* columns rows colors chars-per-pixel */
"64 64 11 1 ",
"  c black",
". c #6E2727",
"X c #323353",
"o c #484A77",
"O c #9E4539",
"+ c #CD683D",
"@ c #966C6C",
"# c #239063",
"$ c #E6904E",
"% c #9BABB2",
"& c #C7DCD0",
/* pixels */
"################                                ################",
"################                                ################",
"################                                ################",
"################                                ################",
"################                                ################",
"################                                ################",
"################                                ################",
"################                                ################",
"########        $$$$$$$$$$$$$$$$$$$$$$$$$$$$$$$$        ########",
"########        $$$$$$$$$$$$$$$$$$$$$$$$$$$$$$$$        ########",
"########        $$$$$$$$$$$$$$$$$$$$$$$$$$$$$$$$        ########",
"########        $$$$$$$$$$$$$$$$$$$$$$$$$$$$$$$$        ########",
"########        $$$$$$$$$$$$$$$$$$$$$$$$$$$$$$$$        ########",
"########        $$$$$$$$$$$$$$$$$$$$$$$$$$$$$$$$        ########",
"########        $$$$$$$$$$$$$$$$$$$$$$$$$$$$$$$$        ########",
"########        $$$$$$$$$$$$$$$$$$$$$$$$$$$$$$$$        ########",
"        ++++++++++++++++++++++++++++++++++++++++++++++++        ",
"        ++++++++++++++++++++++++++++++++++++++++++++++++        ",
"        ++++++++++++++++++++++++++++++++++++++++++++++++        ",
"        ++++++++++++++++++++++++++++++++++++++++++++++++        ",
"        ++++++++++++++++++++++++++++++++++++++++++++++++        ",
"        ++++++++++++++++++++++++++++++++++++++++++++++++        ",
"        ++++++++++++++++++++++++++++++++++++++++++++++++        ",
"        ++++++++++++++++++++++++++++++++++++++++++++++++        ",
"########        ................................        ########",
"########        ................................        ########",
"########        ................................        ########",
"########        ................................        ########",
"########        ................................        ########",
"########        ................................        ########",
"########        ................................        ########",
"########        ................................        ########",
"########        OOOOOOOOOOOOOOOOOOOOOOOOOOOOOOOO        ########",
"########        OOOOOOOOOOOOOOOOOOOOOOOOOOOOOOOO        ########",
"########        OOOOOOOOOOOOOOOOOOOOOOOOOOOOOOOO        ########",
"########        OOOOOOOOOOOOOOOOOOOOOOOOOOOOOOOO        ########",
"########        OOOOOOOOOOOOOOOOOOOOOOOOOOOOOOOO        ########",
"########        OOOOOOOOOOOOOOOOOOOOOOOOOOOOOOOO        ########",
"########        OOOOOOOOOOOOOOOOOOOOOOOOOOOOOOOO        ########",
"########        OOOOOOOOOOOOOOOOOOOOOOOOOOOOOOOO        ########",
"        %%%%%%%%&&&&&&&&oooooooooooooooo&&&&&&&&%%%%%%%%        ",
"        %%%%%%%%&&&&&&&&oooooooooooooooo&&&&&&&&%%%%%%%%        ",
"        %%%%%%%%&&&&&&&&oooooooooooooooo&&&&&&&&%%%%%%%%        ",
"        %%%%%%%%&&&&&&&&oooooooooooooooo&&&&&&&&%%%%%%%%        ",
"        %%%%%%%%&&&&&&&&oooooooooooooooo&&&&&&&&%%%%%%%%        ",
"        %%%%%%%%&&&&&&&&oooooooooooooooo&&&&&&&&%%%%%%%%        ",
"        %%%%%%%%&&&&&&&&oooooooooooooooo&&&&&&&&%%%%%%%%        ",
"        %%%%%%%%&&&&&&&&oooooooooooooooo&&&&&&&&%%%%%%%%        ",
"        ++++++++XXXXXXXXXXXXXXXXXXXXXXXXXXXXXXXX        ########",
"        ++++++++XXXXXXXXXXXXXXXXXXXXXXXXXXXXXXXX        ########",
"        ++++++++XXXXXXXXXXXXXXXXXXXXXXXXXXXXXXXX        ########",
"        ++++++++XXXXXXXXXXXXXXXXXXXXXXXXXXXXXXXX        ########",
"        ++++++++XXXXXXXXXXXXXXXXXXXXXXXXXXXXXXXX        ########",
"        ++++++++XXXXXXXXXXXXXXXXXXXXXXXXXXXXXXXX        ########",
"        ++++++++XXXXXXXXXXXXXXXXXXXXXXXXXXXXXXXX        ########",
"        ++++++++XXXXXXXXXXXXXXXXXXXXXXXXXXXXXXXX        ########",
"########                                @@@@@@@@        ########",
"########                                @@@@@@@@        ########",
"########                                @@@@@@@@        ########",
"########                                @@@@@@@@        ########",
"########                                @@@@@@@@        ########",
"########                                @@@@@@@@        ########",
"########                                @@@@@@@@        ########",
"########                                @@@@@@@@        ########"
};
