/* XPM */
static char *result[] = {
/* columns rows colors chars-per-pixel */
"64 64 6 1 ",
"  c #161C2E",
". c #679175",
"X c #79A863",
"o c #9BB94E",
"O c #BFBA5B",
"+ c None",
/* pixels */
"oooooOOOOOOOOOOXXXXXXXXXXXXXXXXXXXXXXXXXXXXXXXXXXXXXXXXXXXooooo ",
"ooooooOOOOOOoXXXoooXXXXXXXXXXXXXXXXXXXXX....XXXXXXXXXXXXXoooooo ",
"ooOOOOOOOOOooooooooooooXXXXXXXXXXXXXXXX......ooooooooXXXXoooooo ",
"OOOOOOOOOOOoooooooXXXXXXXXXXXXXXXXX...X..........ooo     Xoooo  ",
"OOOOOOOOOOooooooooooXXXXXXXXXXXXXX...............         oooo  ",
"oooooOOOOOooooooooooooXXXXXXXXXXX.....OOOO....OOOO  OOO    oo  +",
"ooooooOOOOOoOOooooooooooooXXXXXXX...OOOOOOO..OOOOOOOOOOO       +",
"ooooooooOOOOOOOoooooooooooXXXXX....OOOOOOOO.OOOOOOOOOOOOO     ++",
"OOoooooooOOOoooOoooooooooooOOOOOO.OOOOOOOOOOOOOOOOOOOOOOO      +",
"OOOoooooooooooooooooooooooOOooOOOOOOOOOOOOOOOOOOOOOOOOOO   OO   ",
"OOOoooOOooooooooooooooooooOooooOOOOOOOOoooOOOOOooOOOOoo  OOOOO  ",
"OOOooOOOOOoooooooooooooooooooooooooOOOoooooOOooooooOooooOOOOOO  ",
"OOOOOOOOOOOOOOOOOOOoooooooooooooooooOOoooooOooooooooooooooOOOO  ",
"OOOOOOOOOooooooooooooooooooooooooooooooooooOoooooooooooooooOOO  ",
"ooooooooooooXXXXXXoooooooooooooooooooooooooooooooooooooooooOO   ",
"ooooooooooXXXXXXXXXoXXXXooooooOOOooooooooooooooooooooooooooO    ",
"ooooooooXXXXXXXXXXXXXXXXXoooOOOOOOooooooooooXXXoooooooo        +",
"oooooooXXXXXXXXXXXXXXXXXXOOOOOOOOOOOOOXXXooXXXXXooooooooo    +++",
"oooooXXXXXXoooooXXXXXXXXXXXXOOOOOOOOOXXXXXXXooXXXooooooXXX   +++",
"oooXXXXXXXoooooooXXXoooXXXXXXXOOOXXXXXooXXXooooXXXXXooXXXXX   ++",
"XooooooooooooooooXXoooooooooooooooooooooooooooooooXXoXXXXXX   ++",
"XXXXooooooooooooooooooooooooooooooooooXXoooooXXXXooooXXXXX    ++",
"ooooooooooooooooooooooo......ooo...oXXXXXoXXXXXXXXooXXXXX     ++",
"oooooooo.....oo...oooOOOO.....o.....XXXXXXXXXXXXXXXXXXXo  oo   +",
"ooooooo............oOOOOOOO......OO..XXXXXXXXXXXXXXXXXXoooooo   ",
"ooooo...OOOO...OO..OOOOOOOOO....OOOO..OOXXXooXXoooXXXXoooooooo  ",
"oo....OOOOOOOOOOOOOOOOOOOOOOO..OOOOOOOOOOXXooooooooXXXXXXooooo  ",
"O..OOOOOOOOOOOOOOOOOOOOXXXOOOO.OOooOOOOOOOOooooooooXXXXXXXooo   ",
"OOOOOOOOOOXXXOOOOOOOOOXXXXXOOOOOooooOOOOOOOOOooooooXXXXXOO     +",
"ooooooOOXXXXXXXOOXXXXXXXXXXXXXoooooooooooOOOooooooXXOOOOOOOO  ++",
"ooooooooooooXXXXXXXXXXXXXXXXXXXXXoooooooooooooooooooooooooOOO  +",
"ooooooooooooooooXXXXXXXXXXXXXXXXXXXXoooXXXXXXoooooooooooooooo  +",
"OOOoooooooooooooooooXXXXXXXXXXXXXXXXXXXXXXXXXoooooooooooooooo  +",
"OOOOooooooooooooXXXXXXXoooXXXXXXXXXXXXXXXOOOXoooooooooo ooooo  +",
"OOOOOOOooooXXXXXXXXXXXoooooXXXXXXXooooooOOOOOoooooooooo  ooo   +",
"oooOOOOOoooooooooooooooooooXXXXoooooOOooOOOOOOooooooooo       ++",
"ooooOOOOOoooooooooooooooooooooooooOOOOOOOOOOOOooooooooo        +",
"oooooooooooooooooooooooooooooooooOOOOOOOOXXXOOOOOOoooo  XXXXX   ",
"ooooooooooooooooooooooooooooooooXXXXXXXXXXXXXOOOOOOOOO XXXXooo  ",
"oooooooooooooooooooooooooooooooXXXXXooXXXXXXXXXXXXXXXXXXXXoooo  ",
"XXXXXXXXooooooooooooooooooooXXXXXXoooooXXXXXXXXXXXXXXXXXXXoooo  ",
"XXXXooooooooooooooooooooooooooooooooooooooXXXXXXXXXXXXXX  ooo   ",
"oooooooooooooooooooooooooooooooooooooooooooXXXooooXXXXXXX      +",
"oooooooooooooooooo.....oooo.....ooooooOOOooXXooooooXoooXXo    ++",
"oooooooooooooooo........oo.......ooooOOOOOoXXooooooooooooo    ++",
"ooooooooooooooo...OOO.......OOOO..ooOOOOOOOOXXoooooooooooo     +",
"ooooo.....oo.....OOOOOO....OOOOOOO.oOOOOOOOOOooooooooooOO       ",
"oooo.............OOOOOOOO.OOOOOOOOOOOOOOOOOOOoooooooooOO   OO   ",
"..o...OO.....OO...OOOOOOOOOOOOOOOOOOOOOOOOOOOOOooooOOOOOOOOOOO  ",
".....OOOO...OOOOO.OOOOOOOOOOOOOOOOOOOOOOOOOOOOOooooooooooOOOOO  ",
".OO..OOOOOOOOOOOOOOOOOOOOOOOOOooooOOOOOXXOOOOOOOOOooooooooooOO  ",
"OOOOOOOOOOOOOOOOOOOOOXXXXOOOOooooooOOOXXXXOOOOOOOOOoooooooooO   ",
"OOOOOoooOOOOOooooOOOXXXXXXooOoooooooXXXXXXOOOOOOooooooooooo    +",
"OOOOoooooOOOoooXXXXXXXXXXXoooooooXXXXXXXXXoooooooooooooOO      +",
"OOoooooooOOOooXXXXXXXXXXXoooooooXXXXXXXXXXXoooooooooooOO  oo    ",
"oooooooooooOooXXXXXXXXXXXXXXXooXXXXXXooXXXXXooooooooOOOOooooo   ",
"ooooooooooooXXXXXXXXXXXXXXXXXXXXXXXXoooooXXXXXooooooooooooooo   ",
"ooooooXXXXXXXXXXoooXXXXXXXXXXXXXXXXXooooooooooooooooooooooooo   ",
"oooooooooXXXXXXoooooXXoooXXXXXXXooXXooooooooooooooooooXXXoooo  +",
"ooooooooooooXXXoooooXooooooXXXXooooXXooooooooooooooooXXXXXoo  ++",
"ooooooOOooooooooooooooooooooooooooooooooooooooXXXoooXXXXXX   +++",
"oooooOOOOooooOOOOooooooooooooooooooooooooooooXXXXXXXXXXXX      +",
"oooOOOOOOOOOOOOOOOOooooooooXXXXoooooooooooooXXXXXXXXXXXXXXXXXX  ",
"XXOOOOOOOOOOOOOOXXXXooXXXXXXXXXXXooXXXXooooXXXXXXXXXXooooooXXXX "
};
