/* XPM */
static char *result[] = {
/* columns rows colors chars-per-pixel */
"64 64 6 1 ",
"  c #161C2E",
". c #679175",
"X c #79A863",
"o c #9BB94E",
"O c #BFBA5B",
"+ c None",
/* pixels */
"  ooooooOOOOOOOXXXXXXXXXXXXXXXXXXXXXXXXXXXXXXXXXXXXXXXXXXXXXXXXX",
"     oooOOOOoXXXoooXXXXXXXXXXXXXXXXXXXXX....XXXXXXXXXXXXXXXXXooo",
"+      OOOOooooooooooooXXXXXXXXXXXXXXXX......oooooooo....XXXoooo",
"+++   OOOOOoooooooXXXXXXXXXXXXXXXXX...X...........oo.......Xoooo",
"++  OOOOOOooooooooooXXXXXXXXXXXXXX...................OOO....oooO",
"+  OOOOOOOooooooooooooXXXXXXXXXXX.....OOOO....OOOO..OOOOO....OOO",
"   OOOOOOOOoOOooooooooooooXXXXXXX...OOOOOOO..OOOOOOOOOOOOOOOOOoo",
"   OOOOOOOOOOOOoooooooooooXXXXX....OOOOOOOO.OOOOOOOOOOOOOOOOOOoo",
"   OOOOOoOOOoooOoooooooooooOOOOOO.OOOOOOOOOOOOOOOOOOOOOOOOOOOOoO",
"    OOOOooooooooooooooooooOOooOOOOOOOOOOOOOOOOOOOOOOOOOOOOOOOOOO",
"+       ooooooooooooooooooOooooOOOOOOOOoooOOOOOooOOOOooOOOOOOOOO",
"+        ooooooooooooooooooooooooooOOOoooooOOooooooOooooOOOOOOOO",
"   oooo   OOOOOOOOOoooooooooooooooooOOoooooOooooooooooooOOOOOOOO",
"  ooooooOooooooooooooooooooooooooooooooooooOooooooooooooOOOOOooo",
"  ooooooooooXXXXXXoooooooooooooooooooooooooooooooooooooooooooooo",
"  ooooooooXXXXXXXXXoXXXXooooooOOOooooooooooooooooooooooooooooooo",
"   oo   XXXXXXXXXXXXXXXXXoooOOOOOOooooooooooXXXooooooooooooooooo",
"       ooooXXXXXXXXXXXXXXOOOOOOOOOOOOOXXXooXXXXXoooooooooooooooo",
"+     ooooooooooXXXXXXXXXXXXOOOOOOOOOXXXXXXXooXXXooooooXXXoooooo",
"++    oooooooooooXXXoooXXXXXXXOOOXXXXXooXXXooooXXXooooXXXXXoooXX",
"++    oooooooooooXXooooooooooooooooooooooooooooooooooXXXXXXXXXXX",
"+   X  ooo...oooooooooooooooooooooooooXXoooooXXXXooooXXXXXXXXXXX",
"   XX.  o...ooooooooooo......ooo...oXXXXXoXXXXXXXXooXXXXoooXXXXX",
"  XXX......oooo...oooOOOO.....o.....XXXXXXXXXXXXXXXXXXXooooooooo",
"  XXXX......oo.....oOOOOOOO......OO..XXXXXXXXXXXXXXXXXXooooooooo",
"  XXXXXX. .....OO..OOOOOOOOO....OOOO..OOXXXooXXoooXXXXoooooooooo",
"   XXXXX  OOOOOOOOOOOOOOOOOOO..OOOOOOOOOOXXooooooooXXXXXXXXXXooo",
"+        OOOOOOOOOOOOOOXXXOOOO.OOooOOOOOOOOooooooooXXXXXXXXXXXXX",
"++       OXXXOOOOOOOOOXXXXXOOOOOooooOOOOOOOOOooooooXXXXXOOOOOOOO",
"+   ooO  XXXXXXOOXXXXXXXXXXXXXoooooooooooOOOooooooXXOOOOOOOOOOOO",
"+  ooooo oooXXXXXXXXXXXXXXXXXXXXXooooooooooooooooooooooooooooooo",
"+  oooooooooooooXXXXXXXXXXXXXXXXXXXXoooXXXXXXooooooooooooooooooo",
"+  oooooooooooooooooXXXXXXXXXXXXXXXXXXXXXXXXXooooooooooooooooooO",
"+  ooooooooooooXXXXXXXXoooXXXXXXXXXXXXXXXOOOXoooooooooooooooooOO",
"++  oooooooooooooXXXXXoooooXXXXXXXooooooOOOOOoooooooooooooOOOOOO",
"+     oooooooooooooooooooooXXXXoooooOOooOOOOOOooooooooooooooOOOO",
"   oooooooooooooooooooooooooooooooOOOOOOOOOOOOooooooooooooooooOo",
"  oooooooooooooooooooooooooooooooOOOOOOOOXXXOOOOOOoooooooooooooo",
"  ooooooooooooooooooooooooooooooXXXXXXXXXXXXXOOOOOOOOOOXXXoooooo",
"   ooooooXXXXXXoooXXXooooooooooXXXXXooXXXXXXXXXXXXXXXXXXXXXXXXXo",
"+   oo  XXXXXXXXXXXXooooooooXXXXXXoooooXXXXXXXXXXXXXXXXXXXXXXXXX",
"++     XXooooXXXooooooooooooooooooooooooooXXXXXXXXXXXXXXXXXXXXXX",
"++    oooooooooooooooooooooooooooooooooooooXXXooooXXXXXXXXXXXXoo",
"++   ooooooooooooo.....oooo.....ooooooOOOooXXooooooXoooXXooooooo",
"++   ooooooooooo........oo.......ooooOOOOOoXXooooooooooooooooooo",
"+++   ooooooooo...OOO.......OOOO..ooOOOOOOOOXXoooooooooooooOOOOO",
"+++      ooo     OOOOOO....OOOOOOO.oOOOOOOOOOoooooooooOOOOOOOOOO",
"+                 OOOOOOO.OOOOOOOOOOOOOOOOOOOooooooOOOOOOOOOOOOo",
"    OOOO     OOOOOOOOOOOOOOOOOOOOOOOOOOOOOOOOOOooooOOOOOOOOOOooo",
"   OOOOOO   OOOOOOOOOOOOOOOOOOOOOOOOOOOOOOOOOOOoooooooooooooooo.",
"  OOOOOOOOOOOOOOOOOOOOOOOOOOOOooooOOOOOXXOOOOOOOOOooooooooooooo.",
"  OOOOOOOOOOOOOOOOOOOXXXXOOOOooooooOOOXXXXOOOOOOOOOooooooooOO...",
"  OOOoooOOOOOooooOOOXXXXXXooOoooooooXXXXXXOOOOOOoooooooooOOOOOOO",
"  OOoooooOOOoooXXXXXXXXXXXoooooooXXXXXXXXXoooooooooooooOOOOOOOOO",
"   ooooooOOOooXXXXXXXXXXXoooooooXXXXXXXXXXXoooooooooooOOOoooOOOO",
"+    ooooooOooXXXXXXXXXXXXXXXooXXXXXXooXXXXXooooooooOOOOoooooOOO",
"++    ooooooXXXXXXXXXXXXXXXXXXXXXXXXoooooXXXXXoooooooooooooooooo",
"+   ooXXXXXXXXXXoooXXXXXXXXXXXXXXXXXoooooooooooooooooooooooooooo",
"+  ooooooXXXXXXoooooXXoooXXXXXXXooXXooooooooooooooooooXXXooooooo",
"  OoooooooooXXXoooooXooooooXXXXooooXXooooooooooooooooXXXXXoooooo",
" oooooooooooooooooooooooooooooooooooooooooooooXXXoooXXXXXXoooooo",
" ooooooooooOOOOOOooooooooooooooooooooooooooooXXXXXXXXXXXXXoooooo",
" oooooooooOOOOOOOOOooooooooXXXXoooooooooooooXXXXXXXXXXXXXXXXXooo",
" oooooooooOOOOOOXXXXooXXXXXXXXXXXooXXXXooooXXXXXXXXXXXXXXXXXXXXX"
};
