/* XPM */
static char *result[] = {
/* columns rows colors chars-per-pixel */
"64 64 6 1 ",
"  c #161C2E",
". c #679175",
"X c #79A863",
"o c #9BB94E",
"O c #BFBA5B",
"+ c None",
/* pixels */
"  ooooooOOOOOOOXXXXXXXXXXXXXXXXXXXXXXXXXXXXXXXXXXXXXXXXXXXXXXXX ",
"     ooOOOOOoXXXoooXXXXXXXXXXXXXXXXXXXXX....XXXXXXXXXXXXXXXXXXX ",
"+      OOOOooooooooooooXXXXXXXXXXXXXXXX......XXXXXXXXXXXXXXXXXX ",
"+++   OOOOOoooooooXXXXXXXXXXXXXXXXX...X............X     XXXXX  ",
"++  OOOOOOooooooooooXXXXXXXXXXXXXX...............         XXXX  ",
"+  ooOOOOOooooooooooooXXXXXXXXXXX.....OOOO....OOOO  OOO    XX  +",
"   oooOOOOOoOOooooooooooooXXXXXXX...OOOOOOO..OOOOOOOOOOO       +",
"   oooooOOOOOOOoooooooooooXXXXX....OOOOOOOO.OOOOOOOOOOOOO     ++",
"   ooooooOOOoooOoooooooooooOOOOOO.OOOOOOOOOOOOOOOOOOOOOOO      +",
"    ooooooooooooooooooooooOOooOOOOOOOOOOOOOOOOOOOOOOOOOO   OO   ",
"+       ooooooooooooooooooOooooOOOOOOOOoooOOOOOooOOOOoo  OOOOO  ",
"+        OoooooooooooooooooooooooooOOOoooooOOooooooOooooOOOOOO  ",
"   OOOO   OOOOOOOOOoooooooooooooooooOOoooooOooooooooooooOOOOOO  ",
"  OOOOOOOooooooooooooooooooooooooooooooooooOooooooooooooOOOOOo  ",
"  OOOOooooooXXXXXXooooooooooooooooooooooooooooooooooooooooooo   ",
"  OOOoooooXXXXXXXXXoXXXXooooooOOOooooooooooooooooooooooooooo    ",
"   OO   XXXXXXXXXXXXXXXXXoooOOOOOOooooooooooXXXoooooooo        +",
"       XXXXXXXXXXXXXXXXXXOOOOOOOOOOOOOXXXooXXXXXooooooooo    +++",
"+     XXXXXoooooXXXXXXXXXXXXOOOOOOOOOXXXXXXXooXXXooooooXXX   +++",
"++    XXXXoooooooXXXoooXXXXXXXOOOXXXXXooXXXooooXXXooooXXXXX   ++",
"++    oooooooooooXXooooooooooooooooooooooooooooooooooXXXXXX   ++",
"+   o  oooooooooooooooooooooooooooooooXXoooooXXXXooooXXXXX    ++",
"   ooo  ooooooooooooooo......ooo...oXXXXXoXXXXXXXXooXXXXX     ++",
"  oooooooo...oo...oooOOOO.....o.....XXXXXXXXXXXXXXXXXXXo  oo   +",
"  oooooo...........oOOOOOOO......OO..XXXXXXXXXXXXXXXXXXoooooo   ",
"  ooooooO OO...OO..OOOOOOOOO....OOOO..OOXXXooXXoooXXXXoooooooo  ",
"   ooooo  OOOOOOOOOOOOOOOOOOO..OOOOOOOOOOXXooooooooXXXXXXXoooo  ",
"+        OOOOOOOOOOOOOOXXXOOOO.OOooOOOOOOOOooooooooXXXXXXXXXo   ",
"++       OXXXOOOOOOOOOXXXXXOOOOOooooOOOOOOOOOooooooXXXXXOO     +",
"+   ooO  XXXXXXOOXXXXXXXXXXXXXoooooooooooOOOooooooXXOOOOOOOO  ++",
"+  ooooo oooXXXXXXXXXXXXXXXXXXXXXoooooooooooooooooooooooooooo  +",
"+  oooooooooooooXXXXXXXXXXXXXXXXXXXXoooXXXXXXoooooooooooooooo  +",
"+  oooooooooooooooooXXXXXXXXXXXXXXXXXXXXXXXXXoooooooooooooooo  +",
"+  OooooooooooooXXXXXXXoooXXXXXXXXXXXXXXXOOOXoooooooooo ooooo  +",
"++  OOOooooXXXXXXXXXXXoooooXXXXXXXooooooOOOOOoooooooooo  ooo   +",
"+     OOoooooooooooooooooooXXXXoooooOOooOOOOOOooooooooo       ++",
"   oooOOOoooooooooooooooooooooooooOOOOOOOOOOOOooooooooo        +",
"  oooooooooooooooooooooooooooooooOOOOOOOOXXXOOOOOOoooo  ooooo   ",
"  ooooooooooooooooooooooooooooooXXXXXXXXXXXXXOOOOOOOOO XXXoooo  ",
"   oooooXXXXoooooooooooooooooooXXXXXooXXXXXXXXXXXXXXXXXXXXoooo  ",
"+   oo  XXXXXoooooooooooooooXXXXXXoooooXXXXXXXXXXXXXXXXXXXXooo  ",
"++     XXooXXXXXooooooooooooooooooooooooooXXXXXXXXXXXXXX  XXX   ",
"++    oooooooooooooooooooooooooooooooooooooXXXooooXXXXXXX      +",
"++   ooooooooooooo.....oooo.....ooooooOOOooXXooooooXoooXXo    ++",
"++   ooooooooooo........oo.......ooooOOOOOoXXooooooooooooo    ++",
"+++   ooooooooo...OOO.......OOOO..ooOOOOOOOOXXoooooooooooo     +",
"+++      ooo     OOOOOO....OOOOOOO.oOOOOOOOOOoooooooooOOO       ",
"+                 OOOOOOO.OOOOOOOOOOOOOOOOOOOooooooOOOOO   OO   ",
"    OOOO     OO...OOOOOOOOOOOOOOOOOOOOOOOOOOOOOooooOOOOOOOOOOO  ",
"   OOOOOO   OOOOO.OOOOOOOOOOOOOOOOOOOOOOOOOOOOOooooooooooOOOOO  ",
"  OOOOOOOOOOOOOOOOOOOOOOOOOOOOooooOOOOOXXOOOOOOOOOooooooooOOOO  ",
"  OOOOOOOOOOOOOOOOOOOXXXXOOOOooooooOOOXXXXOOOOOOOOOooooooooOO   ",
"  OOOoooOOOOOooooOOOXXXXXXooOoooooooXXXXXXOOOOOOoooooooooOO    +",
"  OOoooooOOOoooXXXXXXXXXXXoooooooXXXXXXXXXoooooooooooooOO      +",
"   ooooooOOOooXXXXXXXXXXXoooooooXXXXXXXXXXXoooooooooooOO  oo    ",
"+    ooooooOooXXXXXXXXXXXXXXXooXXXXXXooXXXXXooooooooOOOOooooo   ",
"++    ooooooXXXXXXXXXXXXXXXXXXXXXXXXoooooXXXXXooooooooooooooo   ",
"+   ooXXXXXXXXXXoooXXXXXXXXXXXXXXXXXooooooooooooooooooooooooo   ",
"+  ooooooXXXXXXoooooXXoooXXXXXXXooXXooooooooooooooooooXXXoooo  +",
"  ooooooooooXXXoooooXooooooXXXXooooXXooooooooooooooooXXXXXoo  ++",
" oooooooooooooooooooooooooooooooooooooooooooooXXXoooXXXXXX   +++",
" oooooooOooooOOOOooooooooooooooooooooooooooooXXXXXXXXXXXX      +",
" oooooooOOOOOOOOOOOooooooooXXXXoooooooooooooXXXXXXXXXXXXXXXXXX  ",
" oooooooOOOOOOOOXXXXooXXXXXXXXXXXooXXXXooooXXXXXXXXXXXXXXXXXXXX "
};
