/* XPM */
static char *result[] = {
/* columns rows colors chars-per-pixel */
"64 64 6 1 ",
"  c #161C2E",
". c #679175",
"X c #79A863",
"o c #9BB94E",
"O c #BFBA5B",
"+ c None",
/* pixels */
" ++     +++++++++++++++++++++++++++       +   ++      ++++++++  ",
"         +    +++++++++     ++++++                        +++   ",
"     oo        +    ++       ++++    OOO   XX    OOO          OO",
"o   oooo             +  XXX   +++   OOOOO XXXX  OOOOO   XX   OOO",
"O  ooooo   OOO   ooo   XXXXX       OOOOOO XXXX  OOOOO  XXXX OOOO",
"O  ooooo  OOOOO ooooo  XXXXX       OOOOOOOXXXXOOOOOOO  XXXX OOOO",
"O oooooo OOOOOO oooooooooXX   OOO   OOOOOOOXXOOOOOOO   XOOO OOOo",
"Ooooooo  OooooOXXoooooooooX  OOOOOO  OOOOOOXOOOOOOOO  OOOOOOOOoo",
"OOooooo oooooooXXoooooooooo OOOOOOOO OOOOOOOOOOOOOO  OOOOOOOOOoO",
"OOOoooooooooooooXXooooooooOOooOOOOOOOOOOOOOOOOOOOOOOOOOOOOOOOOOO",
"OOOoooOOooooooooooooooooooOooooOOOOOOOOoooOOOOOooOOOOooOOOOOOOOO",
"OOOooOOOOOoooooooooooooooooooooooooOOOoooooOOooooooOooooOOOOOOOO",
"OOOOOOOOOOOOOOOOOOOoooooooooooooooooOOoooooOooooooooooooOOOOOOOO",
"OOOOOOOOOooooooooooooooooooooooooooooooooooOooooooooooooOOOOOooo",
"ooooooooooooXXXXXXoooooooooooooooooooooooooooooooooooooooooooooo",
"ooooooooooXXXXXXXXXoXXXXooooooOOOooooooooooooooooooooooooooooooo",
"ooooooooXXXXXXXXXXXXXXXXXoooOOOOOOooooooooooXXXooooooooooooooooo",
"oooooooXXXXXXXXXXXXXXXXXXOOOOOOOOOOOOOXXXooXXXXXoooooooooooooooo",
"oooooXXXXXXoooooXXXXXXXXXXXXOOOOOOOOOXXXXXXXooXXXooooooXXXoooooo",
"oooXXXXXXXoooooooXXXoooXXXXXXXOOOXXXXXooXXXooooXXXooooXXXXXoooXX",
"XooooooooooooooooXXooooooooooooooooooooooooooooooooooXXXXXXXXXXX",
"XXXXooooooooooooooooooooooooooooooooooXXoooooXXXXooooXXXXXXXXXXX",
"ooooooooooooooooooooooo......ooo...oXXXXXoXXXXXXXXooXXXXoooXXXXX",
"oooooooo.....oo...oooOOOO.....o.....XXXXXXXXXXXXXXXXXXXooooooooo",
"ooooooo............oOOOOOOO......OO..XXXXXXXXXXXXXXXXXXooooooooo",
"ooooo...OOOO...OO..OOOOOOOOO....OOOO..OOXXXooXXoooXXXXoooooooooo",
"oo....OOOOOOOOOOOOOOOOOOOOOOO..OOOOOOOOOOXXooooooooXXXXXXXXXXooo",
"O..OOOOOOOOOOOOOOOOOOOOXXXOOOO.OOooOOOOOOOOooooooooXXXXXXXXXXXXX",
"OOOOOOOOOOXXXOOOOOOOOOXXXXXOOOOOooooOOOOOOOOOooooooXXXXXOOOOOOOO",
"ooooooOOXXXXXXXOOXXXXXXXXXXXXXoooooooooooOOOooooooXXOOOOOOOOOOOO",
"ooooooooooooXXXXXXXXXXXXXXXXXXXXXooooooooooooooooooooooooooooooo",
"ooooooooooooooooXXXXXXXXXXXXXXXXXXXXoooXXXXXXooooooooooooooooooo",
"OOOoooooooooooooooooXXXXXXXXXXXXXXXXXXXXXXXXXooooooooooooooooooO",
"OOOOooooooooooooXXXXXXXoooXXXXXXXXXXXXXXXOOOXoooooooooooooooooOO",
"OOOOOOOooooXXXXXXXXXXXoooooXXXXXXXooooooOOOOOoooooooooooooOOOOOO",
"oooOOOOOoooooooooooooooooooXXXXoooooOOooOOOOOOooooooooooooooOOOO",
"ooooOOOOOoooooooooooooooooooooooooOOOOOOOOOOOOooooooooooooooooOo",
"oooooooooooooooooooooooooooooooooOOOOOOOOXXXOOOOOOoooooooooooooo",
"ooooooooooooooooooooooooooooooooXXXXXXXXXXXXXOOOOOOOOOOXXXoooooo",
"oooooooooooooooooooooooooooooooXXXXXooXXXXXXXXXXXXXXXXXXXXXXXXXo",
"XXXXXXXXooooooooooooooooooooXXXXXXoooooXXXXXXXXXXXXXXXXXXXXXXXXX",
"XXXXooooooooooooooooooooooooooooooooooooooXXXXXXXXXXXXXXXXXXXXXX",
"oooooooooooooooooooooooooooooooooooooooooooXXXooooXXXXXXXXXXXXoo",
"oooooooooooooooooo.....oooo.....ooooooOOOooXXooooooXoooXXooooooo",
"oooooooooooooooo........oo.......ooooOOOOOoXXooooooooooooooooooo",
"ooooooooooooooo...OOO.......OOOO..ooOOOOOOOOXXoooooooooooooOOOOO",
"ooooo.....oo.....OOOOOO....OOOOOOO.oOOOOOOOOOoooooooooOOOOOOOOOO",
"oooo.............OOOOOOOO.OOOOOOOOOOOOOOOOOOOooooooOOOOOOOOOOOOo",
"..o...OO.....OO...OOOOOOOOOOOOOOOOOOOOOOOOOOOOOooooOOOOOOOOOOooo",
".....OOOO...OOOOO.OOOOOOOOOOOOOOOOOOOOOOOOOOOOOoooooooooooooooo.",
".OO..OOOOOOOOOOOOOOOOOOOOOOOOOooooOOOOOXXOOOOOOOOOooooooooooooo.",
"OOOOOOOOOOOOOOOOOOOOOXXXXOOOOooooooOOOXXXXOOOOOOOOOooooooooOO...",
"OOOOOoooOOOOOooooOOOXXXXXXooOoooooooXXXXXXOOOOOOoooooooooOOOOOOO",
"OOOOoooooOOOoooXXXXXXXXXXXoooooooXXXXXXXXXoooooooooooooOOOOOOOOO",
"OOoooooooOOOooXXXXXXXXXXXoooooooXXXXXXXXXXXoooooooooooOOOoooOOOO",
"oooooooooooOooXXXXXXXXXXXXXXXooXXXXXXooXXXXXooooooooOOOOoooooOOO",
"ooooooooooooXXXXXXXXXXXXXXXXXXXXXXXXoooooXXXXXoooooooooooooooooo",
"ooooooXXXXXXXXXXoooXXXXXXXXXXXXXXXXXoooooooooooooooooooooooooooo",
"oooooooooXXXXXXoooooXXoooXXXXXXXooXXooooooooooooooooooXXXooooooo",
"ooooooooooooXXXoooooXooooooXXXXooooXXooooooooooooooooXXXXXoooooo",
"ooooooOOooooooooooooooooooooooooooooooooooooooXXXoooXXXXXXoooooo",
"oooooOOOOooooOOOOooooooooooooooooooooooooooooXXXXXXXXXXXXXoooooo",
"oooOOOOOOOOOOOOOOOOooooooooXXXXoooooooooooooXXXXXXXXXXXXXXXXXooo",
"XXOOOOOOOOOOOOOOXXXXooXXXXXXXXXXXooXXXXooooXXXXXXXXXXXXXXXXXXXXX"
};
