/* XPM */
static char *result[] = {
/* columns rows colors chars-per-pixel */
"64 64 6 1 ",
"  c #161C2E",
". c #679175",
"X c #79A863",
"o c #9BB94E",
"O c #BFBA5B",
"+ c None",
/* pixels */
" ++     +++++++++++++++++++++++++++       +   ++      ++++++++  ",
"         +    +++++++++     ++++++                        +++   ",
"     oo        +    ++       ++++    OOO   ..    ...          oo",
"o   oooo             +  XXX   +++   OOOOO ....  .....   OO   ooo",
"o  ooooo   OOO   ooo   XXXXX       OOOOOO ....  .....  OOOO oooo",
"o  ooooo  OOOOO ooooo  XXXXX       OOOOOOO....OOOO...  OOOO oooo",
"o oooooo OOOOOO ooooooooooX   OOO   OOOOOOO..OOOOOO.   OOOO oooo",
"ooooooo  OOOOOOoooooooooooX  OOOOOO  OOOOOO.OOOOOOO.  OOOOOOOOoo",
"OOooooo oOOoooooooooooooooo OOOOOOOO OOOOOOOOOOOOOO  OOOOOOOOOoO",
"OOOoooooooooooooooooooooooOOooOOOOOOOOOOOOOOOOOOOOOOOOOOOOOOOOOO",
"OOOoooOOooooooooooooooooooOooooOOOOOOOOoooOOOOOooOOOOooOOOOOOOOO",
"OOOooOOOOOoooooooooooooooooooooooooOOOoooooOOooooooOooooOOOOOOOO",
"OOOOOOOOOOOOOOOOOOOoooooooooooooooooOOoooooOooooooooooooOOOOOOOO",
"OOOOOOOOOooooooooooooooooooooooooooooooooooOooooooooooooOOOOOooo",
"ooooooooooooXXXXXXoooooooooooooooooooooooooooooooooooooooooooooo",
"ooooooooooXXXXXXXXXoXXXXooooooOOOooooooooooooooooooooooooooooooo",
"ooooooooXXXXXXXXXXXXXXXXXoooOOOOOOooooooooooXXXooooooooooooooooo",
"oooooooXXXXXXXXXXXXXXXXXXOOOOOOOOOOOOOXXXooXXXXXoooooooooooooooo",
"oooooXXXXXXoooooXXXXXXXXXXXXOOOOOOOOOXXXXXXXooXXXooooooXXXoooooo",
"oooXXXXXXXoooooooXXXoooXXXXXXXOOOXXXXXooXXXooooXXXooooXXXXXoooXX",
"XooooooooooooooooXXooooooooooooooooooooooooooooooooooXXXXXXXXXXX",
"XXXXooooooooooooooooooooooooooooooooooXXoooooXXXXooooXXXXXXXXXXX",
"ooooooooooooooooooooooo......ooo...oXXXXXoXXXXXXXXooXXXXoooXXXXX",
"oooooooo.....oo...oooOOOO.....o.....XXXXXXXXXXXXXXXXXXXooooooooo",
"ooooooo............oOOOOOOO......OO..XXXXXXXXXXXXXXXXXXooooooooo",
"ooooo...OOOO...OO..OOOOOOOOO....OOOO..OOXXXooXXoooXXXXoooooooooo",
"oo....OOOOOOOOOOOOOOOOOOOOOOO..OOOOOOOOOOXXooooooooXXXXXXXXXXooo",
"O..OOOOOOOOOOOOOOOOOOOOXXXOOOO.OOooOOOOOOOOooooooooXXXXXXXXXXXXX",
"OOOOOOOOOOXXXOOOOOOOOOXXXXXOOOOOooooOOOOOOOOOooooooXXXXXOOOOOOOO",
"ooooooOOXXXXXXXOOXXXXXXXXXXXXXoooooooooooOOOooooooXXOOOOOOOOOOOO",
"ooooooooooooXXXXXXXXXXXXXXXXXXXXXooooooooooooooooooooooooooooooo",
"ooooooooooooooooXXXXXXXXXXXXXXXXXXXXoooXXXXXXooooooooooooooooooo",
"OOOoooooooooooooooooXXXXXXXXXXXXXXXXXXXXXXXXXooooooooooooooooooO",
"OOOOooooooooooooXXXXXXXoooXXXXXXXXXXXXXXXOOOXoooooooooooooooooOO",
"OOOOOOOooooXXXXXXXXXXXoooooXXXXXXXooooooOOOOOoooooooooooooOOOOOO",
"oooOOOOOoooooooooooooooooooXXXXoooooOOooOOOOOOooooooooooooooOOOO",
"ooooOOOOOoooooooooooooooooooooooooOOOOOOOOOOOOooooooooooooooooOo",
"oooooooooooooooooooooooooooooooooOOOOOOOOXXXOOOOOOoooooooooooooo",
"ooooooooooooooooooooooooooooooooXXXXXXXXXXXXXOOOOOOOOOOXXXoooooo",
"oooooooooooooooooooooooooooooooXXXXXooXXXXXXXXXXXXXXXXXXXXXXXXXo",
"XXXXXXXXooooooooooooooooooooXXXXXXoooooXXXXXXXXXXXXXXXXXXXXXXXXX",
"XXXXooooooooooooooooooooooooooooooooooooooXXXXXXXXXXXXXXXXXXXXXX",
"oooooooooooooooooooooooooooooooooooooooooooXXXooooXXXXXXXXXXXXoo",
"oooooooooooooooooo.....oooo.....ooooooOOOooXXooooooXoooXXooooooo",
"oooooooooooooooo........oo.......ooooOOOOOoXXooooooooooooooooooo",
"ooooooooooooooo...OOO.......OOOO..ooOOOOOOOOXXoooooooooooooOOOOO",
"ooooo.....oo.....OOOOOO....OOOOOOO.oOOOOOOOOOoooooooooOOOOOOOOOO",
"oooo.............OOOOOOOO.OOOOOOOOOOOOOOOOOOOooooooOOOOOOOOOOOOo",
"..o...OO.....OO...OOOOOOOOOOOOOOOOOOOOOOOOOOOOOooooOOOOOOOOOOooo",
".....OOOO...OOOOO.OOOOOOOOOOOOOOOOOOOOOOOOOOOOOoooooooooooooooo.",
".OO..OOOOOOOOOOOOOOOOOOOOOOOOOooooOOOOOXXOOOOOOOOOooooooooooooo.",
"OOOOOOOOOOOOOOOOOOOOOXXXXOOOOooooooOOOXXXXOOOOOOOOOooooooooOO...",
"OOOOOoooOOOOOooooOOOXXXXXXooOoooooooXXXXXXOOOOOOoooooooooOOOOOOO",
"OOOOoooooOOOoooXXXXXXXXXXXoooooooXXXXXXXXXoooooooooooooOOOOOOOOO",
"OOoooooooOOOooXXXXXXXXXXXoooooooXXXXXXXXXXXoooooooooooOOOoooOOOO",
"ooooooooooo  oXXXXXXXXXXXXX XooXXXXX ooXXXXXooooooooOOOO ooooOOO",
"oooooooooo  XXXXXXXXXXXXXXX  XXXXXX  ooooXXXXXooooooooo  ooooXoo",
"oooo oooo   XXXXoooXXXXXXXXX   XXX   ooooooooooo oooooo oooooXoo",
"oooo oooo  XXXXoooooXXoooXXXX       ooooo  ooooo ooooo  XXooXXoo",
"oooo oooo  oXXXo  ooXo ooooXX       ooooo   ooo   ooo   XXXXX oo",
"ooo   oo   ooooo  oooo ooooo   +++   ooo  +             XXXX  oo",
"oo          oOO    oo   ooo    ++++       ++    +        XX   oo",
"o  +++                        ++++++     +++++++++    +        o",
"  +++++++       ++   +       +++++++++++++++++++++++++++     +  "
};
