/* XPM */
static char *result[] = {
/* columns rows colors chars-per-pixel */
"64 64 6 1 ",
"  c #161C2E",
". c #679175",
"X c #79A863",
"o c #9BB94E",
"O c #BFBA5B",
"+ c None",
/* pixels */
"+++++++++++++++++++++++++++       ++++++++++++++++++++++++++    ",
"+++++++      +++++++++++++         ++++++++++      ++++++++     ",
"++++++        +    +++++++   XXX    +   ++++        +        OOO",
"+++++   oooo         ++     XXXXX         +   OOO           OOOO",
"+++++  oooooo               XXXXXX   OOO     OOOOO    XXXX  OOOO",
"+++++  oooooo   ooo     oo   XXXXX  OOOOO   OOOOOO   XXXXXX OOOO",
"+++++  ooooooo oooooo  ooooo XXXX  OOOOOO  OOOOOOO   XXXXXX OOOO",
"+++++   oooooo oooooo  oooooOOOXX OOOOOOO  OOOOOO     XXXOO OOOO",
"+++      oooooooooooo  ooooOOOOOOOOOOOOO  OOOOOO  OO   XOOOOOOOO",
"++        XXoooooooooo  ooOOooOOOOOOOOOOOOOOOOOOOOOOO   OOOOOOOO",
"+   XXX   XXXoooooooooooooOooooOOOOOOOOoooOOOOOooOOOOooOOOOOOOOO",
"+  XXXXXX XXXXXooooooooooooooooooooOOOoooooOOooooooOooooOOOOOOOO",
"+  XXXXXXoooooooooooooooooooooooooooOOoooooOooooooooooooOOOOOOOO",
"+  XXXXXoooooooooooooooooooooooooooooooooooOooooooooooooOOOOOooo",
"+  XXXXXoooooooooXoooooooooooooooooooooooooooooooooooooooooooooo",
"+   XXX ooooooooXXXoXXXXooooooOOOooooooooooooooooooooooooooooooo",
"++       XXXXXXXXXXXXXXXXoooOOOOOOooooooooooXXXooooooooooooooooo",
"+++      XXXXXXXXXXXXXXXXOOOOOOOOOOOOOXXXooXXXXXoooooooooooooooo",
"++   ooo  XoooooXXXXXXXXXXXXOOOOOOOOOXXXXXXXooXXXooooooXXXoooooo",
"++  oooooooooooooXXXoooXXXXXXXOOOXXXXXooXXXooooXXXooooXXXXXoooXX",
"++  oooooooooooooXXooooooooooooooooooooooooooooooooooXXXXXXXXXXX",
"++  ooooooooooooooooooooooooooooooooooXXoooooXXXXooooXXXXXXXXXXX",
"+++  oooooooooooooooooo......ooo...oXXXXXoXXXXXXXXooXXXXoooXXXXX",
"+++        oooo   oooOOOO.....o.....XXXXXXXXXXXXXXXXXXXooooooooo",
"++++               oOOOOOOO......OO..XXXXXXXXXXXXXXXXXXooooooooo",
"+++     OO    OOOO OOOOOOOOO....OOOO..OOXXXooXXoooXXXXoooooooooo",
"++   OOOOOOO OOOOOOOOOOOOOOOO..OOOOOOOOOOXXooooooooXXXXXXXXXXooo",
"+  OOOOOOOOOOOOOOOOOOOOXXXOOOO.OOooOOOOOOOOooooooooXXXXXXXXXXXXX",
"  OOOOOOOOXXXOOOOOOOOOXXXXXOOOOOooooOOOOOOOOOooooooXXXXXOOOOOOOO",
"  OOOO  XXXXXXXOOXXXXXXXXXXXXXoooooooooooOOOooooooXXOOOOOOOOOOOO",
"   OO  oooooXXXXXXXXXXXXXXXXXXXXXooooooooooooooooooooooooooooooo",
"      ooooooooooXXXXXXXXXXXXXXXXXXXXoooXXXXXXooooooooooooooooooo",
"+     ooooooooooooooXXXXXXXXXXXXXXXXXXXXXXXXXooooooooooooooooooO",
"+++    oooooooooXXXXXXXoooXXXXXXXXXXXXXXXOOOXoooooooooooooooooOO",
"++      oooXXXXXXXXXXXoooooXXXXXXXooooooOOOOOoooooooooooooOOOOOO",
"++   OOOoooooooooooooooooooXXXXoooooOOooOOOOOOooooooooooooooOOOO",
"+  oOOOOOoooooooooooooooooooooooooOOOOOOOOOOOOooooooooooooooooOo",
"  oooooooooooooooooooooooooooooooOOOOOOOOXXXOOOOOOoooooooooooooo",
"  ooo oXXXooooooooooooooooooooooXXXXXXXXXXXXXOOOOOOOOOOXXXoooooo",
"  oo  XXXXXXoooooooooooooooooooXXXXXooXXXXXXXXXXXXXXXXXXXXXXXXXo",
"      XXXXXXXoooooooooooooooXXXXXXoooooXXXXXXXXXXXXXXXXXXXXXXXXX",
"+    ooooooXXXXoooooooooooooooooooooooooooXXXXXXXXXXXXXXXXXXXXXX",
"++  oooooooooooooooooooooooooooooooooooooooXXXooooXXXXXXXXXXXXoo",
"++ ooooooooooooooo.....oooo.....ooooooOOOooXXooooooXoooXXooooooo",
"+  ooooooooooooo........oo.......ooooOOOOOoXXooooooooooooooooooo",
"+  oooooooooooo...OOO.......OOOO..ooOOOOOOOOXXoooooooooooooOOOOO",
"+   ooo   oo.....OOOOOO....OOOOOOO.oOOOOOOOOOoooooooooOOOOOOOOOO",
"+          ......OOOOOOOO.OOOOOOOOOOOOOOOOOOOooooooOOOOOOOOOOOOo",
"++      OO  .OO...OOOOOOOOOOOOOOOOOOOOOOOOOOOOOooooOOOOOOOOOOooo",
"++    OOOOOOOOOOO.OOOOOOOOOOOOOOOOOOOOOOOOOOOOOoooooooooooooooo.",
"+   ooooOOOOOOOOOOOOOOOOOOOOOOooooOOOOOXXOOOOOOOOOooooooooooooo.",
"+  ooooooOOOOOOOOOOOOXXXXOOOOooooooOOOXXXXOOOOOOOOOooooooooOO...",
"+  ooooooOOOOooooOOOXXXXXXooOoooooooXXXXXXOOOOOOoooooooooOOOOOOO",
"+  ooooooOOOoooXXXXXXXXXXXoooooooXXXXXXXXXoooooooooooooOOOOOOOOO",
"+   oooooOOOooXXXXXXXXXXXoooooooXXXXXXXXXXXoooooooooooOOOoooOOOO",
"++    oooooOooXXXXXXXXXXXXXXXooXXXXXXooXXXXXooooooooOOOOoooooOOO",
"++   oooooooXXXXXXXXXXXXXXXXXXXXXXXXoooooXXXXXoooooooooooooooooo",
"++  ooXXXXXXXXXXoooXXXXXXXXXXXXXXXXXoooooooooooooooooooooooooooo",
"+   oooooXXXXXXoooooXXoooXXXXXXXooXXooooooooooooooooooXXXooooooo",
"     oooooooXXXoooooXooooooXXXXooooXXooooooooooooooooXXXXXoooooo",
"  ooooooooooooooooooooooooooooooooooooooooooooXXXoooXXXXXXoooooo",
" ooooooOOOOooOOOOooooooooooooooooooooooooooooXXXXXXXXXXXXXoooooo",
" oooooooOOOOOOOOOOOooooooooXXXXoooooooooooooXXXXXXXXXXXXXXXXXooo",
" oooooooOOOOOOOOXXXXooXXXXXXXXXXXooXXXXooooXXXXXXXXXXXXXXXXXXXXX"
};
