/* XPM */
static char *result[] = {
/* columns rows colors chars-per-pixel */
"64 64 6 1 ",
"  c #161C2E",
". c #679175",
"X c #79A863",
"o c #9BB94E",
"O c #BFBA5B",
"+ c None",
/* pixels */
"oooooOOOOOOOOOOXXXXXXXXXXXXXXXXXXXXXXXXXXXXXXXXXXXXXXoooooooooo ",
"ooooooOOOOOOoXXXoooXXXXXXXXXXXXXXXXXXXXX....XXXXXXXXXXXXooooooo ",
"ooOOOOOOOOOooooooooooooXXXXXXXXXXXXXXXX......XX     XXXXXoooooo ",
"OOOOOOOOOOOoooooooXXXXXXXXXXXXXXXXX...X......X       X    oooo  ",
"OOOOOOOOOOooooooooooXXXXXXXXXXXXXX...........   OO         oo   ",
"oooooOOOOOooooooooooooXXXXXXXXXXX.....OOOO...OOOOOOO  OOO       ",
"ooooooOOOOOoOOooooooooooooXXXXXXX...OOOOOOO..OOOOOOOOOOOOO     +",
"ooooooooOOOOOOOoooooooooooXXXXX....OOOOOOOO.OOOOOOOOOOOOOOO   ++",
"OOoooooooOOOoooOoooooooooooOOOOOO.OOOOOOOOOOOOOOOOOOOOOOOO    ++",
"OOOoooooooooooooooooooooooOOooOOOOOOOOOOOOOOOOOOOOOOOOOOOOOO   +",
"OOOoooOOooooooooooooooooooOooooOOOOOOOOoooOOOOOooOOOOooooOOOO  +",
"OOOooOOOOOoooooooooooooooooooooooooOOOoooooOOooooooOooooooOOO  +",
"OOOOOOOOOOOOOOOOOOOoooooooooooooooooOOoooooOooooooooooooooOOO  +",
"OOOOOOOOOooooooooooooooooooooooooooooooooooOooooooooooooooOO   +",
"ooooooooooooXXXXXXoooooooooooooooooooooooooooooooooooooooo    ++",
"ooooooooooXXXXXXXXXoXXXXooooooOOOoooooooooooooooooooooooo     ++",
"ooooooooXXXXXXXXXXXXXXXXXoooOOOOOOooooooooooXXXooooooooooo     +",
"oooooooXXXXXXXXXXXXXXXXXXOOOOOOOOOOOOOXXXooXXXXXoooooooooooo   +",
"oooooXXXXXXoooooXXXXXXXXXXXXOOOOOOOOOXXXXXXXooXXXooooooXooooo  +",
"oooXXXXXXXoooooooXXXoooXXXXXXXOOOXXXXXooXXXooooXXXooooXXooooo  +",
"XooooooooooooooooXXooooooooooooooooooooooooooooooooooXXXXoooo ++",
"XXXXooooooooooooooooooooooooooooooooooXXoooooXXXXooooXXXXXXX  ++",
"ooooooooooooooooooooooo......ooo...oXXXXXoXXXXXXXXooXXXXooo    +",
"oooooooo.....oo...oooOOOO.....o.....XXXXXXXXXXXXXXXXXXXooo      ",
"ooooooo............oOOOOOOO......OO..XXXXXXXXXXXXXXXXXXooo  XX  ",
"ooooo...OOOO...OO..OOOOOOOOO....OOOO..OOXXXooXXoooXXXXoooo XXX  ",
"oo....OOOOOOOOOOOOOOOOOOOOOOO..OOOOOOOOOOXXooooooooXXXXXXXXXXX  ",
"O..OOOOOOOOOOOOOOOOOOOOXXXOOOO.OOooOOOOOOOOooooooooXXXXXXXXXX  +",
"OOOOOOOOOOXXXOOOOOOOOOXXXXXOOOOOooooOOOOOOOOOooooooXXXXXXXX   ++",
"ooooooOOXXXXXXXOOXXXXXXXXXXXXXoooooooooooOOOooooooXXoooX      ++",
"ooooooooooooXXXXXXXXXXXXXXXXXXXXXoooooooooooooooooooooooo    +++",
"ooooooooooooooooXXXXXXXXXXXXXXXXXXXXoooXXXXXXooooooooooooo     +",
"OOOoooooooooooooooooXXXXXXXXXXXXXXXXXXXXXXXXXooooooooooooo      ",
"OOOOooooooooooooXXXXXXXoooXXXXXXXXXXXXXXXOOOXoooooooooooo  oo   ",
"OOOOOOOooooXXXXXXXXXXXoooooXXXXXXXooooooOOOOOooooooooooo  oooo  ",
"oooOOOOOoooooooooooooooooooXXXXoooooOOooOOOOOOoooooooooooooooo  ",
"ooooOOOOOoooooooooooooooooooooooooOOOOOOOOOOOOooooooooooooooo  +",
"oooooooooooooooooooooooooooooooooOOOOOOOOXXXOOOOOOooooooooo   ++",
"ooooooooooooooooooooooooooooooooXXXXXXXXXXXXXOOOOOOOOOOX     +++",
"oooooooooooooooooooooooooooooooXXXXXooXXXXXXXXXXXXXXXXXXX   ++++",
"XXXXXXXXooooooooooooooooooooXXXXXXoooooXXXXXXXXXXXXXXXXXX    +++",
"XXXXooooooooooooooooooooooooooooooooooooooXXXXXXXXXXXXooooo  +++",
"oooooooooooooooooooooooooooooooooooooooooooXXXoooXXXXooooooo  ++",
"oooooooooooooooooo.....oooo.....ooooooOOOooXXoooooXXXooooooo  ++",
"oooooooooooooooo........oo.......ooooOOOOOoXXoooooXXXXoooooo  ++",
"ooooooooooooooo...OOO.......OOOO..ooOOOOOOOOXooooXXXXX  ooo   ++",
"ooooo.....oo.....OOOOOO....OOOOOOO.oOOOOOOOOOooooXXXXXX      +++",
"oooo.............OOOOOOOO.OOOOOOOOOOOOOOOOOOOoooXXXXXXXXX   ++++",
"..o...OO.....OO...OOOOOOOOOOOOOOOOOOOOOOOOOOOOXXXX.XXXXXXX   +++",
".....OOOO...OOOOO.OOOOOOOOOOOOOOOOOOOOOOOOOOOOOXXX.XXXXXXXX  +++",
".OO..OOOOOOOOOOOOOOOOOOOOOOOOOooooOOOOOXXOOOOOOXX....XXXXXX  +++",
"OOOOOOOOOOOOOOOOOOOOOXXXXOOOOooooooOOOXXXXOOOXXX......XXXXX  +++",
"OOOOOoooOOOOOooooOOOXXXXXXooOoooooooXXXXXXOOOXXXXXXX......   +++",
"OOOOoooooOOOoooXXXXXXXXXXXoooooooXXXXXXXXXOXXXXXXXXXX..     ++++",
"OOoooooo   OooXXXXXXXXXXXoooooooXXXXXXXX  XXooooXXooXXX    +++++",
"oooooooXX   oo  XXXXXX  XXXXXooXXXXXXooXX  Xooooo oooooo  ++++++",
"oooo XXXXX     XXXXXX  XXXXXXX XXXXXooooo  oooooo ooooooo  +++++",
"oooo XXXXXX   XXoooXX  XXXXXX  XXXX ooooo   oooo  ooooooo  +++++",
"oooo XXXXXX   Xooooo   XXXXX  XXooo   oo          ooooooo  +++++",
"oooo  XXXX    Xoooo     XXX   Xooooo              oooooo   +++++",
"oooo           ooo   +         ooooo      +++++    oooo   ++++++",
"ooo        +        ++++   +    ooo   +++++++++++        +++++++",
"oo   ++++++++      ++++++++++         +++++++++++++     ++++++++",
"    ++++++++++++++++++++++++++       +++++++++++++++++++++++++++"
};
