/* XPM */
static char *result[] = {
/* columns rows colors chars-per-pixel */
"64 64 6 1 ",
"  c #161C2E",
". c #679175",
"X c #79A863",
"o c #9BB94E",
"O c #BFBA5B",
"+ c None",
/* pixels */
"  oooooo  OOOOOXXXXXXXXXXXXXXXXXXXXXXXXXXXXXXXXXXXXXXXXXXXXXXXX ",
"+        OOOoXXXoooXXXXXXXXXXXXXXXXXXXXX....XXXXXXXXXXXXXXXXXXX ",
"++       OOooooooooooooXXXXXXXXXXXXXXXX......oo     o....XXXXXX ",
"+        OOoooooooXXXXXXXXXXXXXXXXX...X.......       .    .XXX  ",
"   OOOO  OooooooooooXXXXXXXXXXXXXX...........   ..         .X   ",
"  OOOOO   ooooooooooooXXXXXXXXXXX.....OOOO....OOOO..  OOO       ",
"  OOOOOO   oOOooooooooooooXXXXXXX...OOOOOOO..OOOOOOOOOOOOO     +",
"  OOOOOoOOOOOOOoooooooooooXXXXX....OOOOOOOO.OOOOOOOOOOOOOOO   ++",
"  OOOOoooOOOoooOoooooooooooOOOOOO.OOOOOOOOOOOOOOOOOOOOOOOO    ++",
"   OO ooooooooooooooooooooOOooOOOOOOOOOOOOOOOOOOOOOOOOOOOOOO   +",
"      OOooooooooooooooooooOooooOOOOOOOOoooOOOOOooOOOOooOOOOOO  +",
"+    OOOOOoooooooooooooooooooooooooOOOoooooOOooooooOooooOOOOO  +",
"+   OOOOOOOOOOOOOOOoooooooooooooooooOOoooooOooooooooooooOOOOO  +",
"   OOOOOOooooooooooooooooooooooooooooooooooOooooooooooooOOOO   +",
"  OOOO oooooXXXXXXoooooooooooooooooooooooooooooooooooooooo    ++",
"  OOO  oooXXXXXXXXXoXXXXooooooOOOoooooooooooooooooooooooo     ++",
"   O   oXXXXXXXXXXXXXXXXXoooOOOOOOooooooooooXXXooooooooooo     +",
"+     oXXXXXXXXXXXXXXXXXXOOOOOOOOOOOOOXXXooXXXXXoooooooooooo   +",
"++++  XXXXXoooooXXXXXXXXXXXXOOOOOOOOOXXXXXXXooXXXooooooXXXooo  +",
"++++  XXXXoooooooXXXoooXXXXXXXOOOXXXXXooXXXooooXXXooooXXXXXoo  +",
"++++   ooooooooooXXooooooooooooooooooooooooooooooooooXXXXXXXX ++",
"+++     ooooooooooooooooooooooooooooooXXoooooXXXXooooXXXXXXX  ++",
"++         oooooooooooo......ooo...oXXXXXoXXXXXXXXooXXXXooo    +",
"+    OO      oo...oooOOOO.....o.....XXXXXXXXXXXXXXXXXXXooo      ",
"+   OOOOOO     ....oOOOOOOO......OO..XXXXXXXXXXXXXXXXXXooo  XX  ",
"+  OOOOOOOOO...OO..OOOOOOOOO....OOOO..OOXXXooXXoooXXXXoooo XXX  ",
"+  OOOOOOOOOOOOOOOOOOOOOOOOOO..OOOOOOOOOOXXooooooooXXXXXXXXXXX  ",
"+  OoooOOOOOOOOOOOOOOOOXXXOOOO.OOooOOOOOOOOooooooooXXXXXXXXXX  +",
"+  oooooOOXXXOOOOOOOOOXXXXXOOOOOooooOOOOOOOOOooooooXXXXXOOX   ++",
"++  ooooXXXXXXXOOXXXXXXXXXXXXXoooooooooooOOOooooooXXOOOO      ++",
"++   oooooooXXXXXXXXXXXXXXXXXXXXXoooooooooooooooooooooooo    +++",
"+++   ooooooooooXXXXXXXXXXXXXXXXXXXXoooXXXXXXooooooooooooo     +",
"+++    oooooooooooooXXXXXXXXXXXXXXXXXXXXXXXXXooooooooooooo      ",
"++      ooooooooXXXXXXXoooXXXXXXXXXXXXXXXOOOXoooooooooooo  OO   ",
"+   OOOooooXXXXXXXXXXXoooooXXXXXXXooooooOOOOOooooooooooo  OOOO  ",
"+  OOOOOoooooooooooooooooooXXXXoooooOOooOOOOOOooooooooooooOOOO  ",
"+  OOOOOOoooooooooooooooooooooooooOOOOOOOOOOOOooooooooooooooO  +",
"+  OoooooooooooooooooooooooooooooOOOOOOOOXXXOOOOOOooooooooo   ++",
"+   ooooXXXXooooooooooooooooooooXXXXXXXXXXXXXOOOOOOOOOOX     +++",
"++      XXXXXXoooooooooooooooooXXXXXooXXXXXXXXXXXXXXXXXXX   ++++",
"++++   XXXXXXXXXooooooooooooXXXXXXoooooXXXXXXXXXXXXXXXXXX    +++",
"+++++  XooooXXooooooooooooooooooooooooooooXXXXXXXXXXXXXXXoo  +++",
"++++   ooooooooooooooooooooooooooooooooooooXXXooooXXXXXXoooo  ++",
"+++   oooooooooooo.....oooo.....ooooooOOOooXXooooooXoooXoooo  ++",
"++   ooooooooooo........oo.......ooooOOOOOoXXooooooooooooooo  ++",
"+   ooooooooooo...OOO.......OOOO..ooOOOOOOOOXXoooooooo  ooo   ++",
"+  ooooo..oo.....OOOOOO....OOOOOOO.oOOOOOOOOOoooooooooO      +++",
"+  ooooo.........OOOOOOOO.OOOOOOOOOOOOOOOOOOOooooooOOOOOO   ++++",
"+  oooo .....OO...OOOOOOOOOOOOOOOOOOOOOOOOOOOOOooooOOOOOOO   +++",
"+  oooo O...OOOOO.OOOOOOOOOOOOOOOOOOOOOOOOOOOOOoooooooooooo  +++",
"+   oo   OOOOOOOOOOOOOOOOOOOOOooooOOOOOXXOOOOOOOOOooooooooo  +++",
"++         OOOOOOOOOOXXXXOOOOooooooOOOXXXXOOOOOOOOOoooooooo  +++",
"++++     OOOOooooOOOXXXXXXooOoooooooXXXXXXOOOOOOoooooooooO   +++",
"+++++   oOOOoooXXXXXXXXXXXoooooooXXXXXXXXXooooooooooooo     ++++",
"++++   ooOOOooXXXXX XXXXXoooooooXXXXXXXX  XoooooooooooO    +++++",
"++++  oooooOo XXXXX XXXXXXX XooX XXXXooXX  oooooo ooOOOO  ++++++",
"++++  ooooooo XXXXX  XXXXX  XXXX XXXooooo  oooooo ooooooo  +++++",
"++++  ooooooo  XXX    XXX  XXXXX  XXooooo   oooo  ooooooo  +++++",
"+++++  oooooo          XX  XooXX   Xooooo         ooooooo  +++++",
"+++++   oooo       ++     oooooo    oooo          oooooo   +++++",
"++++++        ++++++++++  oooooo          +++++    oooo   ++++++",
"+++++++      ++++++++++++  oooo   +      ++++++++        +++++++",
"+++++++++++++++++++++++++         +++++++++++++++++     ++++++++",
"++++++++++++++++++++++++++       +++++++++++++++++++++++++++++++"
};
