/* XPM */
static char *result[] = {
/* columns rows colors chars-per-pixel */
"64 64 6 1 ",
"  c #161C2E",
". c #679175",
"X c #79A863",
"o c #9BB94E",
"O c #BFBA5B",
"+ c None",
/* pixels */
"+++++++++++++++++++++++++++       ++++++++++++++++++++++++++    ",
"+++++++      +++++++++++++         ++++++++++      ++++++++     ",
"++++++        +    +++++++   XXX    +   ++++        +        ooo",
"+++++   OOOO         ++     XXXXX         +   OOO           oooo",
"+++++  OOOOOO               XXXXXX   OOO     OOOOO    OOOO  oooo",
"+++++  OOOOOo   ooo     oo   XXXXX  OOOOO   OOOOOO   OOOOOO oooo",
"+++++  OOOOOOO oooooo  ooooX XXXX  OOOOOO  OOOOOOO   OOOOOO oooo",
"+++++   OOOOOO oooooo  ooooXXXX.. OOOOOOO  OOOOOO     OOOOO OOoo",
"+++      OOOoooOooooo  ooooOOOOOO.OOOOOO  OOOOOO  OO   OOOOOOOoO",
"++        oooooooooooo  oooOooOOOOOOOOOOOOOOOOOOOOOOO   OOOOOOOO",
"+   OOO   ooooooooooooooooOooooOOOOOOOOoooOOOOOooOOOOooOOOOOOOOO",
"+  OOOOOO oooooooooooooooooooooooooOOOoooooOOooooooOooooOOOOOOOO",
"+  OOOOOOOOOOOOOOOOoooooooooooooooooOOoooooOooooooooooooOOOOOOOO",
"+  OOOOOOooooooooooooooooooooooooooooooooooOooooooooooooOOOOOooo",
"+  OOoooooooXXXXXXoooooooooooooooooooooooooooooooooooooooooooooo",
"+   ooo ooXXXXXXXXXoXXXXooooooOOOooooooooooooooooooooooooooooooo",
"++       XXXXXXXXXXXXXXXXoooOOOOOOooooooooooXXXooooooooooooooooo",
"+++      XXXXXXXXXXXXXXXXOOOOOOOOOOOOOXXXooXXXXXoooooooooooooooo",
"++   XXX  XoooooXXXXXXXXXXXXOOOOOOOOOXXXXXXXooXXXooooooXXXoooooo",
"++  XXXXXXoooooooXXXoooXXXXXXXOOOXXXXXooXXXooooXXXooooXXXXXoooXX",
"++  oooooooooooooXXooooooooooooooooooooooooooooooooooXXXXXXXXXXX",
"++  ooooooooooooooooooooooooooooooooooXXoooooXXXXooooXXXXXXXXXXX",
"+++  oooooooooooooooooo......ooo...oXXXXXoXXXXXXXXooXXXXoooXXXXX",
"+++        oooo   oooOOOO.....o.....XXXXXXXXXXXXXXXXXXXooooooooo",
"++++               oOOOOOOO......OO..XXXXXXXXXXXXXXXXXXooooooooo",
"+++     OO    OOOO OOOOOOOOO....OOOO..OOXXXooXXoooXXXXoooooooooo",
"++   OOOOOOO OOOOOOOOOOOOOOOO..OOOOOOOOOOXXooooooooXXXXXXXXXXooo",
"+  OOOOOOOOOOOOOOOOOOOOXXXOOOO.OOooOOOOOOOOooooooooXXXXXXXXXXXXX",
"  OOOOOOOOXXXOOOOOOOOOXXXXXOOOOOooooOOOOOOOOOooooooXXXXXOOOOOOOO",
"  oooo  XXXXXXXOOXXXXXXXXXXXXXoooooooooooOOOooooooXXOOOOOOOOOOOO",
"   oo  oooooXXXXXXXXXXXXXXXXXXXXXooooooooooooooooooooooooooooooo",
"      ooooooooooXXXXXXXXXXXXXXXXXXXXoooXXXXXXooooooooooooooooooo",
"+     ooooooooooooooXXXXXXXXXXXXXXXXXXXXXXXXXooooooooooooooooooO",
"++     oooooooooXXXXXXXoooXXXXXXXXXXXXXXXOOOXoooooooooooooooooOO",
"+   OO  oooXXXXXXXXXXXoooooXXXXXXXooooooOOOOOoooooooooooooOOOOOO",
"   OOOOOoooooooooooooooooooXXXXoooooOOooOOOOOOooooooooooooooOOOO",
"  OOOOOOOoooooooooooooooooooooooooOOOOOOOOOOOOooooooooooooooooOo",
"  OOOOoooooooooooooooooooooooooooOOOOOOOOXXXOOOOOOoooooooooooooo",
"   OOoooooooooooooooooooooooooooXXXXXXXXXXXXXOOOOOOOOOOXXXoooooo",
"+       oooooooooooooooooooooooXXXXXooXXXXXXXXXXXXXXXXXXXXXXXXXo",
"++     oooooooooooooooooooooXXXXXXoooooXXXXXXXXXXXXXXXXXXXXXXXXX",
"+++++  oooooooooooooooooooooooooooooooooooXXXXXXXXXXXXXXXXXXXXXX",
"++++   ooooooooooooooooooooooooooooooooooooXXXooooXXXXXXXXXXXXoo",
"+++   oooooooooooo.....oooo.....ooooooOOOooXXooooooXoooXXooooooo",
"++   ooooooooooo........oo.......ooooOOOOOoXXooooooooooooooooooo",
"+   ooooooooooo...OOO.......OOOO..ooOOOOOOOOXXoooooooooooooOOOOO",
"+  ooooo.ooo.....OOOOOO....OOOOOOO.oOOOOOOOOOoooooooooOOOOOOOOOO",
"+  ooooo.........OOOOOOOO.OOOOOOOOOOOOOOOOOOOooooooOOOOOOOOOOOOo",
"+  oooo .....OO...OOOOOOOOOOOOOOOOOOOOOOOOOOOOOooooOOOOOOOOOOooo",
"+  oooo O...OOOOO.OOOOOOOOOOOOOOOOOOOOOOOOOOOOOoooooooooooooooo.",
"+   oo   OOOOOOOOOOOOOOOOOOOOOooooOOOOOXXOOOOOOOOOooooooooooooo.",
"++         OOOOOOOOOOXXXXOOOOooooooOOOXXXXOOOOOOOOOooooooooOO...",
"++++     OOOOooooOOOXXXXXXooOoooooooXXXXXXOOOOOOoooooooooOOOOOOO",
"+++++   oOOOoooXXXXXXXXXXXoooooooXXXXXXXXXoooooooooooooOOOOOOOOO",
"++++   ooOOOooXXXXX XXXXXoooooooXXXXXXXXXXXoooooooooooOOOoooOOOO",
"++++  oooooOo XXXXX XXXXXXX XooX XXXXooXXXXXooooooooOOOOoooooOOO",
"++++  XXooooX XXXXX  XXXXX  XXXX XXXoooooXXXX ooooooo   oooooooo",
"++++  XXXXXXX  XXX    XXX  XXXXX  XXooo ooooo  oooooooo  ooooooo",
"+++++  XXXXXX          XX  ooooX   Xooo  ooooo  ooooooo    ooooo",
"+++++   XXXX       ++     oooooo    Xo   ooooo   oooooo     oooo",
"++++++        ++++++++++  oooooo          oooo    oooo      oooo",
"+++++++      ++++++++++++  oooo   +     +  oo   +        +   ooo",
"+++++++++++++++++++++++++         +++++++      +++      +++   oo",
"++++++++++++++++++++++++++       +++++++++    +++++++++++++++   "
};
