/* XPM */
static char *result[] = {
/* columns rows colors chars-per-pixel */
"64 64 6 1 ",
"  c #161C2E",
". c #679175",
"X c #79A863",
"o c #9BB94E",
"O c #BFBA5B",
"+ c None",
/* pixels */
"+++++++++++++++++++++++++++       ++++++++++++++++++++++++++++++",
"+++++++      +++++++++++++         +++++++++++++++    ++++++++++",
"++++++        +    +++++++   XXX    +    +++++++        ++++++++",
"+++++   OOOO         ++     XXXXX          ++++    OOO   +++++++",
"+++++  OOOOOO               XXXXXX   ooo     ++   OOOOO   ++++++",
"+++++  OOOOOO   ooo     oo   XXXXX  ooooooo   +  OOOOOOO  ++++++",
"+++++  OOOOOOO oooooo  ooooo XXXX  oOOoooooO     OOOOOOO  ++++++",
"+++++   OOOooo oooooo  ooooooXXXX OOOOOoooOOO  OOOOOOOOO  ++++++",
"+++      Oooooooooooo  ooooOOOOOOOOOOOOOOOOOO  OOOOOOOOO  ++++++",
"++        oooooooooooo  ooOOooOOOOOOOOOOOOOO   OOOOOOO     +++++",
"+   OOO   ooooooooooooooooOooooOOOOOOOOoooO   OoooOO        ++++",
"+  OOOOOO oooooooooooooooooooooooooOOOooooo OooooooO  oooo   +++",
"+  OOOOOOOOOOOOOOOOoooooooooooooooooOOoooooOooooooooooooooo  +++",
"+  OOOOOOooooooooooooooooooooooooooooooooooOooooooooooooooo  +++",
"+  OOOOOooooXXXXXXooooooooooooooooooooooooooooooooooooooooo  +++",
"+   OOO ooXXXXXXXXXoXXXXooooooOOOooooooooooooooooooo  oooo   +++",
"++       XXXXXXXXXXXXXXXXoooOOOOOOooooooooooXXXooooooo      ++++",
"+++      XXXXXXXXXXXXXXXXOOOOOOOOOOOOOXXXooXXXXXooooooo     ++++",
"++   ooo  XoooooXXXXXXXXXXXXOOOOOOOOOXXXXXXXooXXXooooooX  ++++++",
"++  oooooooooooooXXXoooXXXXXXXOOOXXXXXooXXXooooXXXooooXX  ++++++",
"++  oooooooooooooXXooooooooooooooooooooooooooooooooooXX    +++++",
"++  ooooooooooooooooooooooooooooooooooXXoooooXXXXooooXoo   +++++",
"+++  oooooooooooooooooo......ooo...oXXXXXoXXXXXXXXooXXooo  +++++",
"+++        ..oo   oooOOOO.....o.....XXXXXXXXXXXXXXXXXXXoo   ++++",
"++++               oOOOOOOO......OO..XXXXXXXXXXXXXXXXXXX      ++",
"+++     OO    .OO. OOOOOOOOO....OOOO..OOXXXooXXoooXXXXXXXXXX   +",
"++   OOOOOOO OOOOOOOOOOOOOOOO..OOOOOOOOOOXXooooooooXXXXXXXXXX  +",
"+  OOOOOOOOOOOOOOOOOOOOXXXOOOO.OOooOOOOOOOOooooooooXXXXXXXXXX  +",
"  OOOOOOOOXXXOOOOOOOOOXXXXXOOOOOooooOOOOOOOOOooooooXXXXXXXXXX  +",
"  OOOO  XXXXXXXOOXXXXXXXXXXXXXoooooooooooOOOooooooXXooooXXXX   +",
"   OO  oooooXXXXXXXXXXXXXXXXXXXXXooooooooooooooooooooooo      ++",
"      ooooooooooXXXXXXXXXXXXXXXXXXXXoooXXXXXXoooooooooooo    +++",
"+     ooooooooooooooXXXXXXXXXXXXXXXXXXXXXXXXXooooooooooooo   +++",
"+++    oooooooooXXXXXXXoooXXXXXXXXXXXXXXXOOOXoooooooooooooo   ++",
"++      oooXXXXXXXXXXXoooooXXXXXXXooooooOOOOOoooooooooooooOO  ++",
"++   ooooooooooooooooooooooXXXXoooooOOooOOOOOOooooooooooooooO  +",
"+  oooooooooooooooooooooooooooooooOOOOOOOOOOOOooooooooooooooo  +",
"  oooooooooooooooooooooooooooooooOOOOOOOOXXXOOOOOOooooooooooo  +",
"  ooo XXXXooooooooooooooooooooooXXXXXXXXXXXXXOOOOOOOOOOXXXooo  +",
"  oo  XXXXXooXXXoooooooooooooooXXXXXooXXXXXXXXXXXXXXXXXXXXXX   +",
"      oooXXXXXXXXoooooooooooXXXXXXoooooXXXXXXXXXXXXXXXXXXXX    +",
"+    oooooXXooooooooooooooooooooooooooooooXXXXXXXXXXXXX       ++",
"++  oooooooooooooooooooooooooooooooooooooooXXXooooXXXXXX     +++",
"++ ooooooooooooooo.....oooo.....ooooooOOOooXXooooooXoooXX   ++++",
"+  ooooooooooooo........oo.......ooooOOOOOoXXooooooooooooo  ++++",
"+  oooooooooooo...OOO.......OOOO..ooOOOOOOOOXXoooooooooooo  ++++",
"+   ooo   oo.....OOOOOO....OOOOOOO.oOOOOOOOOOoooooooooOOOO     +",
"+          ......OOOOOOOO.OOOOOOOOOOOOOOOOOOOoooooooOOOOO   O   ",
"++      OO  .OO...OOOOOOOOOOOOOOOOOOOOOOOOOOOOOooooOOOOOO  OOO  ",
"++    OOOO..OOOOO.OOOOOOOOOOOOOOOOOOOOOOOOOOOOOoooooooooo OOOO  ",
"+   OOOOOOOOOOOOOOOOOOOOOOOOOOooooOOOOOXXOOOOOOOOOooooooooOOO   ",
"+  OOOOOOOOOOOOOOOOOOXXXXOOOOooooooOOOXXXXOOOOOOOOOoooooooOO   +",
"+  OOoooOOOOOooooOOOXXXXXXooOoooooooXXXXXXOOOOOOoooooooooOO    +",
"+  OoooooOOOoooXXXXXXXXXXXoooooooXXXXXXXXXoooooooooooooOOO      ",
"+   oooooOOOooXXXXXXXXXXXoooooooXXXXXXXXXXXoooooooooooOOOo oo   ",
"++    oooooOooXXXXXXXXXXXXXXXooXXXXXXooXXXXXooooooooOOOOoooooo  ",
"++   oooooooXXXXXXXXXXXXXXXXXXXXXXXXoooooXXXXXoooooooooooooooo  ",
"++  ooXXXXXXXXXXoooXXXXXXXXXXXXXXXXXooooooooooooooooo   oooooo  ",
"+   oooooXXXXXXoooooXXoooXXXXXXXooXXoooooooooooooooooo   ooooo  ",
"     oooooooXXXoooooXooooooXXXXooooXXooooooooooooooooXX   ooo   ",
"  ooooOOooooooooooooooooooooooooooooooooooooooXXXoooXXX        +",
" ooooooOOooooOOOOooooooooooooooooooooooooooooXXXXXXXXXX       ++",
" oooooooOOOOOOOOOOOooooooooXXXXoooooooooooooXXXXXXXXXXX  XXX   +",
" oooooooOOOOOOOOXXXXooXXXXXXXXXXXooXXXXooooXXXXXXXXXXX  XXXXXX  "
};
