/* XPM */
static char *result[] = {
/* columns rows colors chars-per-pixel */
"64 64 6 1 ",
"  c #161C2E",
". c #679175",
"X c #79A863",
"o c #9BB94E",
"O c #BFBA5B",
"+ c None",
/* pixels */
"  oooooo  OOOOOXXXXXXXXXXXXXXXXXXXXXXXXXXXXXXXXXXXXXXXXXXXXXXXXX",
"+        OOOoXXXoooXXXXXXXXXXXXXXXXXXXXX....XXXXXXXXXXXXXXXXXooo",
"++       OOooooooooooooXXXXXXXXXXXXXXXX......oooooooo....XXXoooo",
"+        OOoooooooXXXXXXXXXXXXXXXXX...X...........oo.......Xoooo",
"   XXXX  OooooooooooXXXXXXXXXXXXXX...................OOO....oooO",
"  XXXXX   ooooooooooooXXXXXXXXXXX.....OOOO....OOOO..OOOOO....OOO",
"  XXXXXX   XXXooooooooooooXXXXXXX...OOOOOOO..OOOOOOOOOOOOOOOOOoo",
"  XXXXXXXXXXXXooooooooooooXXXXX....OOOOOOOO.OOOOOOOOOOOOOOOOOOoo",
"  XXXXXooooXXXXXXooooooooooOOOOOO.OOOOOOOOOOOOOOOOOOOOOOOOOOOOoO",
"   XX ooooooooooooooooooooOOooOOOOOOOOOOOOOOOOOOOOOOOOOOOOOOOOOO",
"      OOooooooooooooooooooOooooOOOOOOOOoooOOOOOooOOOOooOOOOOOOOO",
"+    OOOOOoooooooooooooooooooooooooOOOoooooOOooooooOooooOOOOOOOO",
"+   ooOOOOOOOOOOOOOoooooooooooooooooOOoooooOooooooooooooOOOOOOOO",
"   oooOOOooooooooooooooooooooooooooooooooooOooooooooooooOOOOOooo",
"  oooo oooooXXXXXXoooooooooooooooooooooooooooooooooooooooooooooo",
"  ooo  oooXXXXXXXXXoXXXXooooooOOOooooooooooooooooooooooooooooooo",
"   o   XXXXXXXXXXXXXXXXXXoooOOOOOOooooooooooXXXooooooooooooooooo",
"+     XXXXXXXXXXXXXXXXXXXOOOOOOOOOOOOOXXXooXXXXXoooooooooooooooo",
"++++  XXXXXoooooXXXXXXXXXXXXOOOOOOOOOXXXXXXXooXXXooooooXXXoooooo",
"++++  XXXooooooooXXXoooXXXXXXXOOOXXXXXooXXXooooXXXooooXXXXXoooXX",
"++++   ooooooooooXXooooooooooooooooooooooooooooooooooXXXXXXXXXXX",
"+++     ooooooooooooooooooooooooooooooXXoooooXXXXooooXXXXXXXXXXX",
"++         oooooooooooo......ooo...oXXXXXoXXXXXXXXooXXXXoooXXXXX",
"+    OO      oo...oooOOOO.....o.....XXXXXXXXXXXXXXXXXXXooooooooo",
"+   OOOOOO     ....oOOOOOOO......OO..XXXXXXXXXXXXXXXXXXooooooooo",
"+  OOOOOOOOOOOOOOOOOOOOOOOOO....OOOO..OOXXXooXXoooXXXXoooooooooo",
"+  OOOOOOOOOOOOOOOOOOOOOOOOOO..OOOOOOOOOOXXooooooooXXXXXXXXXXooo",
"+  OOoooOOOOOOOOOOOOOOOXXXOOOO.OOooOOOOOOOOooooooooXXXXXXXXXXXXX",
"+  OoooooOXXXOOOOOOOOOXXXXXOOOOOooooOOOOOOOOOooooooXXXXXOOOOOOOO",
"++  oooooXXXXXXOOXXXXXXXXXXXXXoooooooooooOOOooooooXXOOOOOOOOOOOO",
"++   oooooooXXXXXXXXXXXXXXXXXXXXXooooooooooooooooooooooooooooooo",
"+++   ooooooooooXXXXXXXXXXXXXXXXXXXXoooXXXXXXooooooooooooooooooo",
"+++    oooooooooooooXXXXXXXXXXXXXXXXXXXXXXXXXooooooooooooooooooO",
"++      ooooooooXXXXXXXoooXXXXXXXXXXXXXXXOOOXoooooooooooooooooOO",
"+   OOOooooXXXXXXXXXXXoooooXXXXXXXooooooOOOOOoooooooooooooOOOOOO",
"+  OOOOOoooooooooooooooooooXXXXoooooOOooOOOOOOooooooooooooooOOOO",
"+  oOOOOOoooooooooooooooooooooooooOOOOOOOOOOOOooooooooooooooooOo",
"+  ooooooooooooooooooooooooooooooOOOOOOOOXXXOOOOOOoooooooooooooo",
"+   ooooooooooooooooooooooooooooXXXXXXXXXXXXXOOOOOOOOOOXXXoooooo",
"++      oXXXXXXooooooooooooooooXXXXXooXXXXXXXXXXXXXXXXXXXXXXXXXo",
"++++   XXXXXXXXXXoooooooooooXXXXXXoooooXXXXXXXXXXXXXXXXXXXXXXXXX",
"+++++  XXXXXooooooooooooooooooooooooooooooXXXXXXXXXXXXXXXXXXXXXX",
"++++   OOOOooooooooooooooooooooooooooooooooXXXooooXXXXXXXXXXXXoo",
"+++   OOOOOOOooooo.....oooo.....ooooooOOOooXXooooooXoooXXooooooo",
"++   OOOOOOOO...........oo.......ooooOOOOOoXXooooooooooooooooooo",
"+   OOOOOOOOOOO...OOO.......OOOO..ooOOOOOOOOXXoooooooooooooOOOOO",
"+  OOOOOOOOOOOOOoOOOOOO....OOOOOOO.oOOOOOOOOOoooooooooOOOOOOOOOO",
"+  OOOOOOOOOOOOooOOOOOOOO.OOOOOOOOOOOOOOOOOOOooooooOOOOOOOOOOOOo",
"+  OOOO OOOOOOooOOOOOOOOOOOOOOOOOOOOOOOOOOOOOOOooooOOOOOOOOOOooo",
"+  OOOO OooooooooOOOOOOOOOOOOOOOOOOOOOOOOOOOOOOoooooooooooooooo.",
"+   OO   oooooooooOOoooOOOOOOOooooOOOOOXXOOOOOOOOOooooooooooooo.",
"++         ooooooooOoooXOOOOOooooooOOOXXXXOOOOOOOOOooooooooOO...",
"++++     ooooXoooooooooXooooOoooooooXXXXXXOOOOOOoooooooooOOOOOOO",
"+++++   oooooXoooooooooXXooooooooXXXXXXXXXoooooooooooooOOOOOOOOO",
"++++   ooooooXXoooo XXXXXXooooooXXXXXXXXXXXoooooooooooOOOoooOOOO",
"++++  ooooooo Xoooo XXXXXXX XooX XXXXooXXXXXooooooooOOOOoooooOOO",
"++++  ooooooo Xoooo  XXXXX  XXXX XXooooooXXXX ooooooo   oooooooo",
"++++  ooooooo  ooo    XXX  XXXXX  Xoooo ooooo  oooooooo  ooooooo",
"+++++  oooooo          XX  XXXXX   oooo  ooooo  ooooooo    ooooo",
"+++++   oooo       ++     XXXXXX    oo   ooooo   oooooo     oooo",
"++++++        ++++++++++  XXXXXX          oooo    oooo      oooo",
"+++++++      ++++++++++++  XXXX   +     +  oo   +        +   ooo",
"+++++++++++++++++++++++++         +++++++      +++      +++   oo",
"++++++++++++++++++++++++++       +++++++++    +++++++++++++++   "
};
